G04 ================== begin FILE IDENTIFICATION RECORD ==================*
G04 Layout Name:  D:/ml/database/eI_Arrow_IMX8XML_RD_LAYOUT1.brd*
G04 Film Name:    smb.gbr*
G04 File Format:  Gerber RS274X*
G04 File Origin:  Cadence Allegro 17.2-S053*
G04 Origin Date:  Tue Jul 23 18:18:46 2019*
G04 *
G04 Layer:  VIA CLASS/SOLDERMASK_BOTTOM*
G04 Layer:  DRAWING FORMAT/SMB*
G04 Layer:  DRAWING FORMAT/FILM_LABEL_OUTLINE*
G04 Layer:  PIN/SOLDERMASK_BOTTOM*
G04 Layer:  PACKAGE GEOMETRY/SOLDERMASK_BOTTOM*
G04 Layer:  BOARD GEOMETRY/SOLDERMASK_BOTTOM*
G04 Layer:  BOARD GEOMETRY/OUTLINE*
G04 *
G04 Offset:    (0.00 0.00)*
G04 Mirror:    No*
G04 Mode:      Positive*
G04 Rotation:  0*
G04 FullContactRelief:  No*
G04 UndefLineWidth:     5.00*
G04 ================== end FILE IDENTIFICATION RECORD ====================*
%FSLAX25Y25*MOIN*%
%IR0*IPPOS*OFA0.00000B0.00000*MIA0B0*SFA1.00000B1.00000*%
%AMMACRO62*
4,1,6,.014,.01,
-.014,.01,
-.014,-.01,
-.002,-.01,
-.002,-.002,
.014,-.002,
.014,.01,
0.0*
%
%ADD62MACRO62*%
%ADD111R,.041X.11*%
%ADD24R,.11X.027*%
%ADD110R,.058X.11*%
%ADD141C,.021*%
%ADD132R,.041X.137*%
%ADD131C,.012*%
%ADD126R,.039X.104*%
%ADD125R,.22X.059*%
%ADD88R,.113X.058*%
%ADD70C,.013*%
%ADD56C,.015*%
%ADD19C,.024*%
%ADD135R,.096X.131*%
%ADD128R,.066X.26*%
%ADD105C,.052*%
%ADD129C,.08*%
%ADD23C,.044*%
%ADD14C,.035*%
%ADD106C,.036*%
%ADD55C,.018*%
%ADD18C,.063*%
%ADD16C,.054*%
%AMMACRO100*
4,1,23,-.0438,0.0,
-.0438,-.0138,
-.043395,-.01842,
-.042194,-.022899,
-.040233,-.027102,
-.037572,-.0309,
-.034292,-.034179,
-.030493,-.036838,
-.026289,-.038797,
-.021809,-.039997,
-.0172,-.0404,
.0438,-.0404,
.0438,.0404,
-.0172,.0404,
-.02182,.039995,
-.026299,.038794,
-.030502,.036833,
-.0343,.034172,
-.037579,.030892,
-.040238,.027093,
-.042197,.022889,
-.043397,.018409,
-.0438,.0138,
-.0438,0.0,
0.0*
%
%ADD100MACRO100*%
%ADD71C,.037*%
%AMMACRO103*
4,1,23,0.0,.0438,
-.0138,.0438,
-.01842,.043395,
-.022899,.042194,
-.027102,.040233,
-.0309,.037572,
-.034179,.034292,
-.036838,.030493,
-.038797,.026289,
-.039997,.021809,
-.0404,.0172,
-.0404,-.0438,
.0404,-.0438,
.0404,.0172,
.039995,.02182,
.038794,.026299,
.036833,.030502,
.034172,.0343,
.030892,.037579,
.027093,.040238,
.022889,.042197,
.018409,.043397,
.0138,.0438,
0.0,.0438,
0.0*
%
%ADD103MACRO103*%
%ADD22C,.048*%
%ADD53C,.058*%
%ADD21C,.067*%
%ADD115R,.016X.016*%
%ADD51C,.087*%
%ADD84R,.036X.036*%
%ADD49R,.054X.054*%
%ADD17R,.063X.063*%
%ADD133R,.066X.066*%
%ADD54R,.058X.058*%
%ADD130C,.0788*%
%ADD122R,.14967X.07002*%
%ADD121R,.13554X.06798*%
%AMMACRO69*
4,1,6,-.01,.014,
-.01,.002,
-.002,.002,
-.002,-.014,
.01,-.014,
.01,.014,
-.01,.014,
0.0*
%
%ADD69MACRO69*%
%AMMACRO65*
4,1,6,-.002,.014,
-.002,-.002,
-.01,-.002,
-.01,-.014,
.01,-.014,
.01,.014,
-.002,.014,
0.0*
%
%ADD65MACRO65*%
%AMMACRO67*
4,1,6,-.01,.014,
-.01,-.014,
.01,-.014,
.01,-.002,
.002,-.002,
.002,.014,
-.01,.014,
0.0*
%
%ADD67MACRO67*%
%AMMACRO63*
4,1,6,.014,.01,
-.014,.01,
-.014,-.002,
.002,-.002,
.002,-.01,
.014,-.01,
.014,.01,
0.0*
%
%ADD63MACRO63*%
%ADD57R,.03X.012*%
%ADD112O,.015X.04*%
%ADD74R,.03X.013*%
%ADD61R,.023X.011*%
%ADD58R,.012X.03*%
%ADD113O,.04X.015*%
%ADD72R,.013X.03*%
%ADD66R,.011X.023*%
%ADD48R,.02X.024*%
%ADD47R,.024X.02*%
%ADD134R,.031X.015*%
%ADD41R,.021X.015*%
%ADD91O,.027X.023*%
%ADD75R,.03X.017*%
%ADD59R,.016X.03*%
%ADD43R,.011X.017*%
%ADD37R,.015X.023*%
%ADD11O,.045X.041*%
%ADD92O,.023X.027*%
%ADD73R,.017X.03*%
%ADD36R,.023X.015*%
%ADD96O,.043X.027*%
%ADD136R,.044X.023*%
%ADD117R,.091X.04*%
%ADD97O,.018X.017*%
%ADD95O,.027X.043*%
%ADD85R,.023X.035*%
%ADD10R,.045X.041*%
%ADD137R,.017X.025*%
%ADD116R,.04X.091*%
%ADD98O,.017X.018*%
%ADD83R,.05X.036*%
%ADD139R,.025X.017*%
%ADD120R,.036X.016*%
%ADD77R,.035X.062*%
%ADD46R,.024X.028*%
%ADD119R,.016X.036*%
%ADD107R,.054X.052*%
%ADD79R,.062X.035*%
%ADD45R,.028X.024*%
%ADD42R,.027X.043*%
%ADD12R,.025X.028*%
%ADD94R,.043X.038*%
%ADD90R,.075X.051*%
%ADD50C,.135*%
%ADD44R,.032X.039*%
%ADD138R,.065X.035*%
%AMMACRO104*
4,1,23,0.0,-.0438,
.0138,-.0438,
.01842,-.043395,
.022899,-.042194,
.027102,-.040233,
.0309,-.037572,
.034179,-.034292,
.036838,-.030493,
.038797,-.026289,
.039997,-.021809,
.0404,-.0172,
.0404,.0438,
-.0404,.0438,
-.0404,-.0172,
-.039995,-.02182,
-.038794,-.026299,
-.036833,-.030502,
-.034172,-.0343,
-.030892,-.037579,
-.027093,-.040238,
-.022889,-.042197,
-.018409,-.043397,
-.0138,-.0438,
0.0,-.0438,
0.0*
%
%ADD104MACRO104*%
%AMMACRO101*
4,1,23,.0438,0.0,
.0438,.0138,
.043395,.01842,
.042194,.022899,
.040233,.027102,
.037572,.0309,
.034292,.034179,
.030493,.036838,
.026289,.038797,
.021809,.039997,
.0172,.0404,
-.0438,.0404,
-.0438,-.0404,
.0172,-.0404,
.02182,-.039995,
.026299,-.038794,
.030502,-.036833,
.0343,-.034172,
.037579,-.030892,
.040238,-.027093,
.042197,-.022889,
.043397,-.018409,
.0438,-.0138,
.0438,0.0,
0.0*
%
%ADD101MACRO101*%
%ADD93R,.038X.043*%
%ADD89R,.051X.075*%
%ADD82R,.019X.017*%
%ADD76R,.035X.047*%
%ADD52C,.136*%
%ADD140R,.035X.065*%
%ADD78R,.047X.035*%
%ADD25R,.082X.037*%
%ADD102O,.05221X.04631*%
%ADD118R,.132X.132*%
%ADD114R,.204X.204*%
%ADD99O,.04631X.05221*%
%ADD87O,.059X.038*%
%ADD86O,.038X.059*%
%ADD20R,.232X.232*%
%ADD127R,.066X.074*%
%ADD38R,.02072X.04513*%
%ADD80C,.169*%
%ADD109R,.03646X.01402*%
%ADD15R,.056X.087*%
%ADD108R,.01402X.03646*%
%ADD39R,.01481X.04513*%
%ADD13R,.007X.007*%
%ADD35R,.03843X.0345*%
%ADD34R,.03253X.03843*%
%ADD81R,.098X.078*%
%ADD31R,.04158X.03056*%
%ADD32R,.04906X.02426*%
%ADD124R,.03765X.01581*%
%ADD40R,.01481X.04828*%
%ADD30R,.02465X.05536*%
%ADD123R,.01581X.03765*%
%ADD28R,.03883X.06324*%
%ADD27R,.0778X.02662*%
%ADD29R,.03883X.05536*%
%ADD26R,.0778X.02269*%
%ADD33R,.06599X.02426*%
%AMMACRO68*
4,1,6,-.01,.014,
-.01,-.014,
.002,-.014,
.002,.002,
.01,.002,
.01,.014,
-.01,.014,
0.0*
%
%ADD68MACRO68*%
%AMMACRO64*
4,1,6,.014,.01,
.002,.01,
.002,.002,
-.014,.002,
-.014,-.01,
.014,-.01,
.014,.01,
0.0*
%
%ADD64MACRO64*%
%AMMACRO60*
4,1,6,.014,.002,
-.002,.002,
-.002,.01,
-.014,.01,
-.014,-.01,
.014,-.01,
.014,.002,
0.0*
%
%ADD60MACRO60*%
%ADD142C,.01*%
%ADD143C,.005*%
%ADD144C,.0418*%
G75*
%LPD*%
G75*
G36*
G01X192537Y326300D02*
G03I-3270J0D01*
G37*
G36*
G01X-21463Y300916D02*
G03I-3270J0D01*
G37*
G36*
G01X85537Y326300D02*
G03I-3270J0D01*
G37*
G36*
G01X299537Y300916D02*
G03I-3270J0D01*
G37*
%LPC*%
G75*
G54D144*
X189267Y326300D03*
X-24733Y300916D03*
X82267Y326300D03*
X296267Y300916D03*
%LPD*%
G75*
G54D100*
X118089Y-53953D03*
G54D101*
X146731D03*
G54D110*
X198454Y90517D03*
G54D102*
X-13911Y247290D03*
Y229770D03*
G54D120*
X141050Y202510D03*
Y204479D03*
Y206447D03*
Y208416D03*
Y210384D03*
Y212353D03*
Y214321D03*
Y216290D03*
X122150D03*
Y214321D03*
Y212353D03*
Y210384D03*
Y208416D03*
Y206447D03*
Y204479D03*
Y202510D03*
G54D111*
X192564Y90517D03*
G54D10*
X-24386Y210033D03*
G54D112*
X218637Y149074D03*
X216669D03*
X214700D03*
X212732D03*
X210763D03*
X208795D03*
X206826D03*
X204858D03*
X202889D03*
X200921D03*
X198952D03*
X196984D03*
X195015D03*
X193047D03*
Y179958D03*
X195015D03*
X196984D03*
X198952D03*
X200921D03*
X202889D03*
X204858D03*
X206826D03*
X208795D03*
X210763D03*
X212732D03*
X214700D03*
X216669D03*
X218637D03*
G54D121*
X159207Y270165D03*
G54D130*
X95553Y-30289D03*
X38467D03*
X36104Y-49580D03*
X97916D03*
G54D103*
X-25722Y252851D03*
G54D20*
X289190Y169578D03*
Y264854D03*
G54D140*
X252217Y-37184D03*
X185717Y-41984D03*
G54D104*
X-25722Y224209D03*
G54D11*
X-24386Y205033D03*
Y200033D03*
Y195033D03*
Y190033D03*
X-19386Y210033D03*
Y205033D03*
Y200033D03*
Y195033D03*
Y190033D03*
G54D113*
X190400Y151721D03*
Y153689D03*
Y155658D03*
Y157626D03*
Y159595D03*
Y161563D03*
Y163532D03*
Y165500D03*
Y167469D03*
Y169437D03*
Y171406D03*
Y173374D03*
Y175343D03*
Y177311D03*
X221284D03*
Y175343D03*
Y173374D03*
Y171406D03*
Y169437D03*
Y167469D03*
Y165500D03*
Y163532D03*
Y161563D03*
Y159595D03*
Y157626D03*
Y155658D03*
Y153689D03*
Y151721D03*
G54D122*
X158500Y278338D03*
G54D131*
X20384Y-49869D03*
Y-47900D03*
Y-45931D03*
X18416Y-49869D03*
Y-47900D03*
Y-45931D03*
G54D123*
X165390Y284011D03*
X163421D03*
X161453D03*
X159484D03*
X157516D03*
X155547D03*
X153579D03*
X151610D03*
Y264594D03*
X153579D03*
X155547D03*
X157516D03*
X159484D03*
X161453D03*
X163421D03*
X165390D03*
G54D30*
X237660Y195525D03*
G54D114*
X205842Y164516D03*
G54D12*
X181102Y329843D03*
X184229D03*
Y322757D03*
X181102D03*
Y326300D03*
X-16568Y297373D03*
X-19695D03*
Y304459D03*
X-16568D03*
Y300916D03*
X90432Y322757D03*
X87305D03*
Y329843D03*
X90432D03*
Y326300D03*
X288102Y304459D03*
X291229D03*
Y297373D03*
X288102D03*
Y300916D03*
G54D21*
X100017Y266429D03*
X11359Y316165D03*
X63760D03*
X21418D03*
X53741D03*
G54D105*
X41979Y1017D03*
G54D132*
X158650Y197000D03*
X149350D03*
G54D141*
X218100Y76000D03*
X219800Y63800D03*
X220600Y80756D03*
Y68945D03*
X231600Y60400D03*
X220500Y61100D03*
G54D142*
G01X-118821Y-106640D02*
Y-202840D01*
G01D02*
X356679D01*
G01X-118821Y-181840D02*
X374979D01*
G01X-118821Y-161840D02*
X374979D01*
G01X-118821Y-141840D02*
X374979D01*
G01X355879Y-202840D02*
X374979D01*
Y-106640D01*
X355579D01*
G01X-118821Y-122640D02*
X374979D01*
G01X-118821Y-106640D02*
X356679D01*
G54D40*
X55366Y-6120D03*
Y-10648D03*
X67666Y-6120D03*
Y-10648D03*
X79966Y-6120D03*
Y-10648D03*
X125666Y-20120D03*
Y-24648D03*
X107066Y-19920D03*
Y-24448D03*
X92266Y-6120D03*
Y-10648D03*
X80900Y-42764D03*
Y-38236D03*
X66000Y-42664D03*
Y-38136D03*
G54D124*
X148845Y281090D03*
Y279121D03*
Y277153D03*
Y275184D03*
Y273216D03*
Y271247D03*
Y269279D03*
Y267310D03*
X168155D03*
Y269279D03*
Y271247D03*
Y273216D03*
Y275184D03*
Y277153D03*
Y279121D03*
Y281090D03*
G54D31*
X238506Y200703D03*
G54D13*
X191167Y324500D03*
X-26633Y302716D03*
X80367Y328100D03*
X298167Y299116D03*
G54D133*
X66317Y155916D03*
G54D115*
X220527Y149831D03*
Y179201D03*
X191157D03*
Y149831D03*
G54D22*
X100017Y168003D03*
G54D106*
X153003Y1017D03*
G54D143*
G01X302700Y-177034D02*
Y-167034D01*
X305825D01*
X306825Y-167534D01*
X307450Y-168201D01*
X307700Y-169534D01*
X307450Y-170867D01*
X306700Y-171701D01*
X305825Y-172201D01*
X302700D01*
G01X305825D02*
X307700Y-177034D01*
G01X317700D02*
X312700D01*
Y-167034D01*
X317700D01*
G01X315700Y-171867D02*
X312700D01*
G01X322075Y-167034D02*
X325200Y-177034D01*
X328325Y-167034D01*
G01X335200Y-177367D02*
X334950Y-177201D01*
Y-176867D01*
X335200Y-176701D01*
X335450Y-176867D01*
Y-177201D01*
X335200Y-177367D01*
G01Y-172868D02*
X334950Y-172701D01*
Y-172367D01*
X335200Y-172201D01*
X335450Y-172367D01*
Y-172701D01*
X335200Y-172868D01*
G01X342450Y-175034D02*
X343200Y-176201D01*
X344200Y-176867D01*
X345325Y-177034D01*
X346325Y-176867D01*
X347325Y-176034D01*
X347950Y-175034D01*
X348075Y-174034D01*
X347825Y-172868D01*
X346950Y-172034D01*
X346075Y-171701D01*
X344950D01*
G01X346075D02*
X346825Y-171201D01*
X347450Y-170368D01*
X347700Y-169367D01*
X347450Y-168367D01*
X346825Y-167534D01*
X345700Y-167034D01*
X344575Y-167201D01*
X343450Y-167867D01*
G01X355200Y-177367D02*
X354950Y-177201D01*
Y-176867D01*
X355200Y-176701D01*
X355450Y-176867D01*
Y-177201D01*
X355200Y-177367D01*
G01X365200Y-167034D02*
X364200Y-167367D01*
X363450Y-168201D01*
X362950Y-169201D01*
X362575Y-170534D01*
X362450Y-172034D01*
X362575Y-173534D01*
X362950Y-174867D01*
X363450Y-175868D01*
X364200Y-176701D01*
X365200Y-177034D01*
X366200Y-176701D01*
X366950Y-175868D01*
X367450Y-174867D01*
X367825Y-173534D01*
X367950Y-172034D01*
X367825Y-170534D01*
X367450Y-169201D01*
X366950Y-168201D01*
X366200Y-167367D01*
X365200Y-167034D01*
G01X-113321Y-137140D02*
Y-127140D01*
X-110821D01*
X-109821Y-127640D01*
X-109071Y-128307D01*
X-108446Y-129307D01*
X-107946Y-130474D01*
X-107821Y-132140D01*
X-107946Y-133807D01*
X-108446Y-134973D01*
X-109071Y-135974D01*
X-109821Y-136640D01*
X-110821Y-137140D01*
X-113321D01*
G01X-103696D02*
X-100571Y-127140D01*
X-97446Y-137140D01*
G01X-98571Y-133640D02*
X-102571D01*
G01X-90571Y-127140D02*
Y-137140D01*
G01X-93446Y-127140D02*
X-87696D01*
G01X-78071Y-137140D02*
X-83071D01*
Y-127140D01*
X-78071D01*
G01X-80071Y-131973D02*
X-83071D01*
G01X-70571Y-137473D02*
X-70821Y-137307D01*
Y-136973D01*
X-70571Y-136807D01*
X-70321Y-136973D01*
Y-137307D01*
X-70571Y-137473D01*
G01Y-132974D02*
X-70821Y-132807D01*
Y-132473D01*
X-70571Y-132307D01*
X-70321Y-132473D01*
Y-132807D01*
X-70571Y-132974D01*
G01X-63321Y-135140D02*
X-62571Y-136307D01*
X-61571Y-136973D01*
X-60446Y-137140D01*
X-59446Y-136973D01*
X-58446Y-136140D01*
X-57821Y-135140D01*
X-57696Y-134140D01*
X-57946Y-132974D01*
X-58821Y-132140D01*
X-59696Y-131807D01*
X-60821D01*
G01X-59696D02*
X-58946Y-131307D01*
X-58321Y-130474D01*
X-58071Y-129473D01*
X-58321Y-128473D01*
X-58946Y-127640D01*
X-60071Y-127140D01*
X-61196Y-127307D01*
X-62321Y-127973D01*
G01X-50571Y-127140D02*
X-51571Y-127473D01*
X-52321Y-128307D01*
X-52821Y-129307D01*
X-53196Y-130640D01*
X-53321Y-132140D01*
X-53196Y-133640D01*
X-52821Y-134973D01*
X-52321Y-135974D01*
X-51571Y-136807D01*
X-50571Y-137140D01*
X-49571Y-136807D01*
X-48821Y-135974D01*
X-48321Y-134973D01*
X-47946Y-133640D01*
X-47821Y-132140D01*
X-47946Y-130640D01*
X-48321Y-129307D01*
X-48821Y-128307D01*
X-49571Y-127473D01*
X-50571Y-127140D01*
G01X-42821Y-137473D02*
X-38321Y-127140D01*
G01X-30571D02*
X-31571Y-127473D01*
X-32321Y-128307D01*
X-32821Y-129307D01*
X-33196Y-130640D01*
X-33321Y-132140D01*
X-33196Y-133640D01*
X-32821Y-134973D01*
X-32321Y-135974D01*
X-31571Y-136807D01*
X-30571Y-137140D01*
X-29571Y-136807D01*
X-28821Y-135974D01*
X-28321Y-134973D01*
X-27946Y-133640D01*
X-27821Y-132140D01*
X-27946Y-130640D01*
X-28321Y-129307D01*
X-28821Y-128307D01*
X-29571Y-127473D01*
X-30571Y-127140D01*
G01X-19071Y-137140D02*
Y-127140D01*
X-23696Y-134307D01*
X-17446D01*
G01X-12821Y-137473D02*
X-8321Y-127140D01*
G01X-2946Y-128807D02*
X-2196Y-127807D01*
X-1321Y-127307D01*
X-321Y-127140D01*
X929Y-127473D01*
X1804Y-128307D01*
X2054Y-129307D01*
X1929Y-130307D01*
X1429Y-131140D01*
X-1071Y-132807D01*
X-2196Y-133973D01*
X-2946Y-135640D01*
X-3196Y-137140D01*
X2054D01*
G01X9429Y-127140D02*
X8429Y-127473D01*
X7679Y-128307D01*
X7179Y-129307D01*
X6804Y-130640D01*
X6679Y-132140D01*
X6804Y-133640D01*
X7179Y-134973D01*
X7679Y-135974D01*
X8429Y-136807D01*
X9429Y-137140D01*
X10429Y-136807D01*
X11179Y-135974D01*
X11679Y-134973D01*
X12054Y-133640D01*
X12179Y-132140D01*
X12054Y-130640D01*
X11679Y-129307D01*
X11179Y-128307D01*
X10429Y-127473D01*
X9429Y-127140D01*
G01X19429Y-137140D02*
Y-127140D01*
X17929Y-129140D01*
G01Y-137140D02*
X20929D01*
G01X27304Y-135974D02*
X28179Y-136807D01*
X29179Y-137140D01*
X30179Y-136807D01*
X31054Y-135807D01*
X31679Y-134307D01*
X31929Y-132807D01*
Y-130973D01*
X31679Y-129473D01*
X31054Y-128140D01*
X30304Y-127473D01*
X29429Y-127140D01*
X28429Y-127473D01*
X27679Y-128140D01*
X27179Y-129140D01*
X26929Y-130474D01*
X27179Y-131640D01*
X27804Y-132807D01*
X28554Y-133474D01*
X29429Y-133640D01*
X30429Y-133307D01*
X31179Y-132473D01*
X31929Y-130973D01*
G01X-113321Y-157140D02*
Y-147140D01*
X-110821D01*
X-109821Y-147640D01*
X-109071Y-148307D01*
X-108446Y-149307D01*
X-107946Y-150474D01*
X-107821Y-152140D01*
X-107946Y-153807D01*
X-108446Y-154973D01*
X-109071Y-155974D01*
X-109821Y-156640D01*
X-110821Y-157140D01*
X-113321D01*
G01X-98071D02*
X-103071D01*
Y-147140D01*
X-98071D01*
G01X-100071Y-151973D02*
X-103071D01*
G01X-93196Y-155807D02*
X-92196Y-156640D01*
X-91071Y-157140D01*
X-90071D01*
X-89071Y-156640D01*
X-88321Y-155807D01*
X-87946Y-154640D01*
X-88196Y-153474D01*
X-88821Y-152473D01*
X-89946Y-151807D01*
X-91446Y-151473D01*
X-92321Y-150807D01*
X-92696Y-149640D01*
X-92446Y-148473D01*
X-91821Y-147640D01*
X-90946Y-147140D01*
X-90071D01*
X-89196Y-147473D01*
X-88446Y-148307D01*
G01X-82071Y-147140D02*
X-79071D01*
G01X-80571D02*
Y-157140D01*
G01X-82071D02*
X-79071D01*
G01X-69821Y-152140D02*
X-67321D01*
Y-155140D01*
X-68071Y-156140D01*
X-68946Y-156807D01*
X-70196Y-157140D01*
X-71446Y-156807D01*
X-72321Y-156140D01*
X-73071Y-155140D01*
X-73571Y-153973D01*
X-73821Y-152640D01*
Y-151473D01*
X-73571Y-150474D01*
X-73071Y-149307D01*
X-72321Y-148307D01*
X-71571Y-147640D01*
X-70571Y-147140D01*
X-69696D01*
X-68696Y-147473D01*
X-67946Y-148140D01*
G01X-63446Y-157140D02*
Y-147140D01*
X-57696Y-157140D01*
Y-147140D01*
G01X-48071Y-157140D02*
X-53071D01*
Y-147140D01*
X-48071D01*
G01X-50071Y-151973D02*
X-53071D01*
G01X-43321Y-157140D02*
Y-147140D01*
X-40821D01*
X-39821Y-147640D01*
X-39071Y-148307D01*
X-38446Y-149307D01*
X-37946Y-150474D01*
X-37821Y-152140D01*
X-37946Y-153807D01*
X-38446Y-154973D01*
X-39071Y-155974D01*
X-39821Y-156640D01*
X-40821Y-157140D01*
X-43321D01*
G01X-23696D02*
X-20571Y-147140D01*
X-17446Y-157140D01*
G01X-18571Y-153640D02*
X-22571D01*
G01X-10571Y-147140D02*
Y-157140D01*
G01X-13446Y-147140D02*
X-7696D01*
G01X-571Y-157473D02*
X-821Y-157307D01*
Y-156973D01*
X-571Y-156807D01*
X-321Y-156973D01*
Y-157307D01*
X-571Y-157473D01*
G01Y-152974D02*
X-821Y-152807D01*
Y-152473D01*
X-571Y-152307D01*
X-321Y-152473D01*
Y-152807D01*
X-571Y-152974D01*
G01X17554Y-152640D02*
X21554D01*
X21179Y-151473D01*
X20554Y-150807D01*
X19679Y-150474D01*
X18804Y-150640D01*
X18054Y-151140D01*
X17554Y-152307D01*
X17304Y-153307D01*
Y-154307D01*
X17554Y-155307D01*
X18179Y-156307D01*
X18929Y-156973D01*
X19804Y-157140D01*
X20679Y-156807D01*
X21554Y-155807D01*
G01X27929Y-147140D02*
X30929D01*
G01X29429D02*
Y-157140D01*
G01X27929D02*
X30929D01*
G01X36554D02*
Y-147140D01*
X42304Y-157140D01*
Y-147140D01*
G01X47054Y-157140D02*
Y-147140D01*
X51804D01*
G01X50054Y-151973D02*
X47054D01*
G01X59429Y-157140D02*
X58429Y-156973D01*
X57554Y-156307D01*
X56804Y-155307D01*
X56304Y-154140D01*
X56054Y-152807D01*
Y-151473D01*
X56304Y-150140D01*
X56804Y-148973D01*
X57554Y-147973D01*
X58429Y-147307D01*
X59429Y-147140D01*
X60429Y-147307D01*
X61304Y-147973D01*
X62054Y-148973D01*
X62554Y-150140D01*
X62804Y-151473D01*
Y-152807D01*
X62554Y-154140D01*
X62054Y-155307D01*
X61304Y-156307D01*
X60429Y-156973D01*
X59429Y-157140D01*
G01X72179Y-147973D02*
X71429Y-147473D01*
X70554Y-147140D01*
X69554D01*
X68429Y-147640D01*
X67554Y-148473D01*
X66929Y-149473D01*
X66429Y-151140D01*
X66304Y-152640D01*
X66554Y-154140D01*
X66929Y-155140D01*
X67679Y-156140D01*
X68554Y-156807D01*
X69429Y-157140D01*
X70304D01*
X71179Y-156807D01*
X71929Y-156307D01*
X72554Y-155640D01*
G01X76804Y-157140D02*
Y-147140D01*
G01X82054D02*
Y-157140D01*
G01Y-152140D02*
X76804D01*
G01X87929Y-147140D02*
X90929D01*
G01X89429D02*
Y-157140D01*
G01X87929D02*
X90929D01*
G01X96929D02*
Y-147140D01*
X99929D01*
X100929Y-147640D01*
X101679Y-148807D01*
X101929Y-150140D01*
X101679Y-151473D01*
X101054Y-152473D01*
X99929Y-152974D01*
X96929D01*
G01X106804Y-155807D02*
X107804Y-156640D01*
X108929Y-157140D01*
X109929D01*
X110929Y-156640D01*
X111679Y-155807D01*
X112054Y-154640D01*
X111804Y-153474D01*
X111179Y-152473D01*
X110054Y-151807D01*
X108554Y-151473D01*
X107679Y-150807D01*
X107304Y-149640D01*
X107554Y-148473D01*
X108179Y-147640D01*
X109054Y-147140D01*
X109929D01*
X110804Y-147473D01*
X111554Y-148307D01*
G01X-113071Y-177140D02*
Y-167140D01*
X-110071D01*
X-109071Y-167640D01*
X-108321Y-168807D01*
X-108071Y-170140D01*
X-108321Y-171473D01*
X-108946Y-172473D01*
X-110071Y-172974D01*
X-113071D01*
G01X-103696Y-177140D02*
X-100571Y-167140D01*
X-97446Y-177140D01*
G01X-98571Y-173640D02*
X-102571D01*
G01X-93071Y-177140D02*
Y-167140D01*
X-89946D01*
X-88946Y-167640D01*
X-88321Y-168307D01*
X-88071Y-169640D01*
X-88321Y-170973D01*
X-89071Y-171807D01*
X-89946Y-172307D01*
X-93071D01*
G01X-89946D02*
X-88071Y-177140D01*
G01X-80571Y-167140D02*
Y-177140D01*
G01X-83446Y-167140D02*
X-77696D01*
G01X-63446Y-177140D02*
Y-167140D01*
X-57696Y-177140D01*
Y-167140D01*
G01X-50571Y-177140D02*
X-51571Y-176973D01*
X-52446Y-176307D01*
X-53196Y-175307D01*
X-53696Y-174140D01*
X-53946Y-172807D01*
Y-171473D01*
X-53696Y-170140D01*
X-53196Y-168973D01*
X-52446Y-167973D01*
X-51571Y-167307D01*
X-50571Y-167140D01*
X-49571Y-167307D01*
X-48696Y-167973D01*
X-47946Y-168973D01*
X-47446Y-170140D01*
X-47196Y-171473D01*
Y-172807D01*
X-47446Y-174140D01*
X-47946Y-175307D01*
X-48696Y-176307D01*
X-49571Y-176973D01*
X-50571Y-177140D01*
G01X-42821Y-177473D02*
X-38321Y-167140D01*
G01X-27821Y-167973D02*
X-28571Y-167473D01*
X-29446Y-167140D01*
X-30446D01*
X-31571Y-167640D01*
X-32446Y-168473D01*
X-33071Y-169473D01*
X-33571Y-171140D01*
X-33696Y-172640D01*
X-33446Y-174140D01*
X-33071Y-175140D01*
X-32321Y-176140D01*
X-31446Y-176807D01*
X-30571Y-177140D01*
X-29696D01*
X-28821Y-176807D01*
X-28071Y-176307D01*
X-27446Y-175640D01*
G01X-23696Y-177140D02*
X-20571Y-167140D01*
X-17446Y-177140D01*
G01X-18571Y-173640D02*
X-22571D01*
G01X-13071Y-177140D02*
Y-167140D01*
X-9946D01*
X-8946Y-167640D01*
X-8321Y-168307D01*
X-8071Y-169640D01*
X-8321Y-170973D01*
X-9071Y-171807D01*
X-9946Y-172307D01*
X-13071D01*
G01X-9946D02*
X-8071Y-177140D01*
G01X-3321D02*
Y-167140D01*
X-821D01*
X179Y-167640D01*
X929Y-168307D01*
X1554Y-169307D01*
X2054Y-170474D01*
X2179Y-172140D01*
X2054Y-173807D01*
X1554Y-174973D01*
X929Y-175974D01*
X179Y-176640D01*
X-821Y-177140D01*
X-3321D01*
G01X16929D02*
Y-167140D01*
X20054D01*
X21054Y-167640D01*
X21679Y-168307D01*
X21929Y-169640D01*
X21679Y-170973D01*
X20929Y-171807D01*
X20054Y-172307D01*
X16929D01*
G01X20054D02*
X21929Y-177140D01*
G01X31929D02*
X26929D01*
Y-167140D01*
X31929D01*
G01X29929Y-171973D02*
X26929D01*
G01X37054Y-177140D02*
Y-167140D01*
X41804D01*
G01X40054Y-171973D02*
X37054D01*
G01X49429Y-177473D02*
X49179Y-177307D01*
Y-176973D01*
X49429Y-176807D01*
X49679Y-176973D01*
Y-177307D01*
X49429Y-177473D01*
G01Y-172974D02*
X49179Y-172807D01*
Y-172473D01*
X49429Y-172307D01*
X49679Y-172473D01*
Y-172807D01*
X49429Y-172974D01*
G01X56304Y-177140D02*
X59429Y-167140D01*
X62554Y-177140D01*
G01X61429Y-173640D02*
X57429D01*
G01X66929Y-177140D02*
Y-167140D01*
X70054D01*
X71054Y-167640D01*
X71679Y-168307D01*
X71929Y-169640D01*
X71679Y-170973D01*
X70929Y-171807D01*
X70054Y-172307D01*
X66929D01*
G01X70054D02*
X71929Y-177140D01*
G01X76929D02*
Y-167140D01*
X80054D01*
X81054Y-167640D01*
X81679Y-168307D01*
X81929Y-169640D01*
X81679Y-170973D01*
X80929Y-171807D01*
X80054Y-172307D01*
X76929D01*
G01X80054D02*
X81929Y-177140D01*
G01X89429D02*
X88429Y-176973D01*
X87554Y-176307D01*
X86804Y-175307D01*
X86304Y-174140D01*
X86054Y-172807D01*
Y-171473D01*
X86304Y-170140D01*
X86804Y-168973D01*
X87554Y-167973D01*
X88429Y-167307D01*
X89429Y-167140D01*
X90429Y-167307D01*
X91304Y-167973D01*
X92054Y-168973D01*
X92554Y-170140D01*
X92804Y-171473D01*
Y-172807D01*
X92554Y-174140D01*
X92054Y-175307D01*
X91304Y-176307D01*
X90429Y-176973D01*
X89429Y-177140D01*
G01X95679Y-167140D02*
X97429Y-177140D01*
X99429Y-167140D01*
X101429Y-177140D01*
X103179Y-167140D01*
G01X105679Y-180473D02*
X113179D01*
G01X117929Y-167140D02*
X120929D01*
G01X119429D02*
Y-177140D01*
G01X117929D02*
X120929D01*
G01X126179D02*
Y-167140D01*
X129429Y-175473D01*
X132679Y-167140D01*
Y-177140D01*
G01X136804D02*
X142054Y-167140D01*
G01X136804D02*
X142054Y-177140D01*
G01X149429D02*
X150304Y-176973D01*
X151304Y-176473D01*
X151929Y-175640D01*
X152179Y-174473D01*
X151929Y-173307D01*
X151179Y-172307D01*
X150054Y-171807D01*
X148804D01*
X148054Y-171473D01*
X147429Y-170640D01*
X147179Y-169473D01*
X147554Y-168307D01*
X148429Y-167473D01*
X149429Y-167140D01*
X150429Y-167473D01*
X151304Y-168307D01*
X151679Y-169473D01*
X151429Y-170640D01*
X150804Y-171473D01*
X150054Y-171807D01*
X148804D01*
X147679Y-172307D01*
X146929Y-173307D01*
X146679Y-174473D01*
X146929Y-175640D01*
X147554Y-176473D01*
X148554Y-176973D01*
X149429Y-177140D01*
G01X156804D02*
X162054Y-167140D01*
G01X156804D02*
X162054Y-177140D01*
G01X166179D02*
Y-167140D01*
X169429Y-175473D01*
X172679Y-167140D01*
Y-177140D01*
G01X176929Y-167140D02*
Y-177140D01*
X181929D01*
G01X185679Y-180473D02*
X193179D01*
G01X196929Y-177140D02*
Y-167140D01*
X200054D01*
X201054Y-167640D01*
X201679Y-168307D01*
X201929Y-169640D01*
X201679Y-170973D01*
X200929Y-171807D01*
X200054Y-172307D01*
X196929D01*
G01X200054D02*
X201929Y-177140D01*
G01X206679D02*
Y-167140D01*
X209179D01*
X210179Y-167640D01*
X210929Y-168307D01*
X211554Y-169307D01*
X212054Y-170474D01*
X212179Y-172140D01*
X212054Y-173807D01*
X211554Y-174973D01*
X210929Y-175974D01*
X210179Y-176640D01*
X209179Y-177140D01*
X206679D01*
G01X230429Y-171807D02*
X230929Y-171307D01*
X231304Y-170474D01*
X231554Y-169307D01*
X231304Y-168307D01*
X230804Y-167640D01*
X229929Y-167140D01*
X226554D01*
Y-177140D01*
X230679D01*
X231554Y-176473D01*
X232054Y-175473D01*
X232304Y-174307D01*
X232054Y-173140D01*
X231304Y-172140D01*
X230429Y-171807D01*
X226554D01*
G01X239429Y-177140D02*
X238429Y-176973D01*
X237554Y-176307D01*
X236804Y-175307D01*
X236304Y-174140D01*
X236054Y-172807D01*
Y-171473D01*
X236304Y-170140D01*
X236804Y-168973D01*
X237554Y-167973D01*
X238429Y-167307D01*
X239429Y-167140D01*
X240429Y-167307D01*
X241304Y-167973D01*
X242054Y-168973D01*
X242554Y-170140D01*
X242804Y-171473D01*
Y-172807D01*
X242554Y-174140D01*
X242054Y-175307D01*
X241304Y-176307D01*
X240429Y-176973D01*
X239429Y-177140D01*
G01X246304D02*
X249429Y-167140D01*
X252554Y-177140D01*
G01X251429Y-173640D02*
X247429D01*
G01X256929Y-177140D02*
Y-167140D01*
X260054D01*
X261054Y-167640D01*
X261679Y-168307D01*
X261929Y-169640D01*
X261679Y-170973D01*
X260929Y-171807D01*
X260054Y-172307D01*
X256929D01*
G01X260054D02*
X261929Y-177140D01*
G01X266679D02*
Y-167140D01*
X269179D01*
X270179Y-167640D01*
X270929Y-168307D01*
X271554Y-169307D01*
X272054Y-170474D01*
X272179Y-172140D01*
X272054Y-173807D01*
X271554Y-174973D01*
X270929Y-175974D01*
X270179Y-176640D01*
X269179Y-177140D01*
X266679D01*
G01X-111892Y-196550D02*
Y-186550D01*
X-107142D01*
G01X-108892Y-191383D02*
X-111892D01*
G01X-101017Y-186550D02*
X-98017D01*
G01X-99517D02*
Y-196550D01*
G01X-101017D02*
X-98017D01*
G01X-92017Y-186550D02*
Y-196550D01*
X-87017D01*
G01X-82767D02*
Y-186550D01*
X-79517Y-194883D01*
X-76267Y-186550D01*
Y-196550D01*
G01X-62017Y-186550D02*
Y-196550D01*
X-57017D01*
G01X-52642D02*
X-49517Y-186550D01*
X-46392Y-196550D01*
G01X-47517Y-193050D02*
X-51517D01*
G01X-39517Y-196550D02*
Y-192050D01*
X-42017Y-186550D01*
G01X-37017D02*
X-39517Y-192050D01*
G01X-27017Y-196550D02*
X-32017D01*
Y-186550D01*
X-27017D01*
G01X-29017Y-191383D02*
X-32017D01*
G01X-22017Y-196550D02*
Y-186550D01*
X-18892D01*
X-17892Y-187050D01*
X-17267Y-187717D01*
X-17017Y-189050D01*
X-17267Y-190383D01*
X-18017Y-191217D01*
X-18892Y-191717D01*
X-22017D01*
G01X-18892D02*
X-17017Y-196550D01*
G01X483Y-196883D02*
X233Y-196717D01*
Y-196383D01*
X483Y-196217D01*
X733Y-196383D01*
Y-196717D01*
X483Y-196883D01*
G01Y-192384D02*
X233Y-192217D01*
Y-191883D01*
X483Y-191717D01*
X733Y-191883D01*
Y-192217D01*
X483Y-192384D01*
G01X17858Y-195217D02*
X18858Y-196050D01*
X19983Y-196550D01*
X20983D01*
X21983Y-196050D01*
X22733Y-195217D01*
X23108Y-194050D01*
X22858Y-192884D01*
X22233Y-191883D01*
X21108Y-191217D01*
X19608Y-190883D01*
X18733Y-190217D01*
X18358Y-189050D01*
X18608Y-187883D01*
X19233Y-187050D01*
X20108Y-186550D01*
X20983D01*
X21858Y-186883D01*
X22608Y-187717D01*
G01X30483Y-196550D02*
X29483Y-196383D01*
X28608Y-195717D01*
X27858Y-194717D01*
X27358Y-193550D01*
X27108Y-192217D01*
Y-190883D01*
X27358Y-189550D01*
X27858Y-188383D01*
X28608Y-187383D01*
X29483Y-186717D01*
X30483Y-186550D01*
X31483Y-186717D01*
X32358Y-187383D01*
X33108Y-188383D01*
X33608Y-189550D01*
X33858Y-190883D01*
Y-192217D01*
X33608Y-193550D01*
X33108Y-194717D01*
X32358Y-195717D01*
X31483Y-196383D01*
X30483Y-196550D01*
G01X37983Y-186550D02*
Y-196550D01*
X42983D01*
G01X47733D02*
Y-186550D01*
X50233D01*
X51233Y-187050D01*
X51983Y-187717D01*
X52608Y-188717D01*
X53108Y-189884D01*
X53233Y-191550D01*
X53108Y-193217D01*
X52608Y-194383D01*
X51983Y-195384D01*
X51233Y-196050D01*
X50233Y-196550D01*
X47733D01*
G01X62983D02*
X57983D01*
Y-186550D01*
X62983D01*
G01X60983Y-191383D02*
X57983D01*
G01X67983Y-196550D02*
Y-186550D01*
X71108D01*
X72108Y-187050D01*
X72733Y-187717D01*
X72983Y-189050D01*
X72733Y-190383D01*
X71983Y-191217D01*
X71108Y-191717D01*
X67983D01*
G01X71108D02*
X72983Y-196550D01*
G01X77233D02*
Y-186550D01*
X80483Y-194883D01*
X83733Y-186550D01*
Y-196550D01*
G01X87358D02*
X90483Y-186550D01*
X93608Y-196550D01*
G01X92483Y-193050D02*
X88483D01*
G01X97858Y-195217D02*
X98858Y-196050D01*
X99983Y-196550D01*
X100983D01*
X101983Y-196050D01*
X102733Y-195217D01*
X103108Y-194050D01*
X102858Y-192884D01*
X102233Y-191883D01*
X101108Y-191217D01*
X99608Y-190883D01*
X98733Y-190217D01*
X98358Y-189050D01*
X98608Y-187883D01*
X99233Y-187050D01*
X100108Y-186550D01*
X100983D01*
X101858Y-186883D01*
X102608Y-187717D01*
G01X107733Y-196550D02*
Y-186550D01*
G01X112483D02*
X107733Y-192717D01*
G01X113233Y-196550D02*
X109858Y-189884D01*
G01X127858Y-195217D02*
X128858Y-196050D01*
X129983Y-196550D01*
X130983D01*
X131983Y-196050D01*
X132733Y-195217D01*
X133108Y-194050D01*
X132858Y-192884D01*
X132233Y-191883D01*
X131108Y-191217D01*
X129608Y-190883D01*
X128733Y-190217D01*
X128358Y-189050D01*
X128608Y-187883D01*
X129233Y-187050D01*
X130108Y-186550D01*
X130983D01*
X131858Y-186883D01*
X132608Y-187717D01*
G01X142983Y-196550D02*
X137983D01*
Y-186550D01*
X142983D01*
G01X140983Y-191383D02*
X137983D01*
G01X153233Y-187383D02*
X152483Y-186883D01*
X151608Y-186550D01*
X150608D01*
X149483Y-187050D01*
X148608Y-187883D01*
X147983Y-188883D01*
X147483Y-190550D01*
X147358Y-192050D01*
X147608Y-193550D01*
X147983Y-194550D01*
X148733Y-195550D01*
X149608Y-196217D01*
X150483Y-196550D01*
X151358D01*
X152233Y-196217D01*
X152983Y-195717D01*
X153608Y-195050D01*
G01X160483Y-196550D02*
X159483Y-196383D01*
X158608Y-195717D01*
X157858Y-194717D01*
X157358Y-193550D01*
X157108Y-192217D01*
Y-190883D01*
X157358Y-189550D01*
X157858Y-188383D01*
X158608Y-187383D01*
X159483Y-186717D01*
X160483Y-186550D01*
X161483Y-186717D01*
X162358Y-187383D01*
X163108Y-188383D01*
X163608Y-189550D01*
X163858Y-190883D01*
Y-192217D01*
X163608Y-193550D01*
X163108Y-194717D01*
X162358Y-195717D01*
X161483Y-196383D01*
X160483Y-196550D01*
G01X167608D02*
Y-186550D01*
X173358Y-196550D01*
Y-186550D01*
G01X177733Y-196550D02*
Y-186550D01*
X180233D01*
X181233Y-187050D01*
X181983Y-187717D01*
X182608Y-188717D01*
X183108Y-189884D01*
X183233Y-191550D01*
X183108Y-193217D01*
X182608Y-194383D01*
X181983Y-195384D01*
X181233Y-196050D01*
X180233Y-196550D01*
X177733D01*
G01X187358D02*
X190483Y-186550D01*
X193608Y-196550D01*
G01X192483Y-193050D02*
X188483D01*
G01X197983Y-196550D02*
Y-186550D01*
X201108D01*
X202108Y-187050D01*
X202733Y-187717D01*
X202983Y-189050D01*
X202733Y-190383D01*
X201983Y-191217D01*
X201108Y-191717D01*
X197983D01*
G01X201108D02*
X202983Y-196550D01*
G01X210483D02*
Y-192050D01*
X207983Y-186550D01*
G01X212983D02*
X210483Y-192050D01*
G01X227858Y-195217D02*
X228858Y-196050D01*
X229983Y-196550D01*
X230983D01*
X231983Y-196050D01*
X232733Y-195217D01*
X233108Y-194050D01*
X232858Y-192884D01*
X232233Y-191883D01*
X231108Y-191217D01*
X229608Y-190883D01*
X228733Y-190217D01*
X228358Y-189050D01*
X228608Y-187883D01*
X229233Y-187050D01*
X230108Y-186550D01*
X230983D01*
X231858Y-186883D01*
X232608Y-187717D01*
G01X238983Y-186550D02*
X241983D01*
G01X240483D02*
Y-196550D01*
G01X238983D02*
X241983D01*
G01X247733D02*
Y-186550D01*
X250233D01*
X251233Y-187050D01*
X251983Y-187717D01*
X252608Y-188717D01*
X253108Y-189884D01*
X253233Y-191550D01*
X253108Y-193217D01*
X252608Y-194383D01*
X251983Y-195384D01*
X251233Y-196050D01*
X250233Y-196550D01*
X247733D01*
G01X262983D02*
X257983D01*
Y-186550D01*
X262983D01*
G01X260983Y-191383D02*
X257983D01*
G01X57425Y-115300D02*
X61425D01*
X61050Y-114133D01*
X60425Y-113467D01*
X59550Y-113134D01*
X58675Y-113300D01*
X57925Y-113800D01*
X57425Y-114967D01*
X57175Y-115967D01*
Y-116967D01*
X57425Y-117967D01*
X58050Y-118967D01*
X58800Y-119633D01*
X59675Y-119800D01*
X60550Y-119467D01*
X61425Y-118467D01*
G01X67800Y-109800D02*
X70800D01*
G01X69300D02*
Y-119800D01*
G01X67800D02*
X70800D01*
G01X76425D02*
Y-109800D01*
X82175Y-119800D01*
Y-109800D01*
G01X86925Y-119800D02*
Y-109800D01*
X91675D01*
G01X89925Y-114633D02*
X86925D01*
G01X99300Y-119800D02*
X98300Y-119633D01*
X97425Y-118967D01*
X96675Y-117967D01*
X96175Y-116800D01*
X95925Y-115467D01*
Y-114133D01*
X96175Y-112800D01*
X96675Y-111633D01*
X97425Y-110633D01*
X98300Y-109967D01*
X99300Y-109800D01*
X100300Y-109967D01*
X101175Y-110633D01*
X101925Y-111633D01*
X102425Y-112800D01*
X102675Y-114133D01*
Y-115467D01*
X102425Y-116800D01*
X101925Y-117967D01*
X101175Y-118967D01*
X100300Y-119633D01*
X99300Y-119800D01*
G01X112050Y-110633D02*
X111300Y-110133D01*
X110425Y-109800D01*
X109425D01*
X108300Y-110300D01*
X107425Y-111133D01*
X106800Y-112133D01*
X106300Y-113800D01*
X106175Y-115300D01*
X106425Y-116800D01*
X106800Y-117800D01*
X107550Y-118800D01*
X108425Y-119467D01*
X109300Y-119800D01*
X110175D01*
X111050Y-119467D01*
X111800Y-118967D01*
X112425Y-118300D01*
G01X116675Y-119800D02*
Y-109800D01*
G01X121925D02*
Y-119800D01*
G01Y-114800D02*
X116675D01*
G01X127800Y-109800D02*
X130800D01*
G01X129300D02*
Y-119800D01*
G01X127800D02*
X130800D01*
G01X136800D02*
Y-109800D01*
X139800D01*
X140800Y-110300D01*
X141550Y-111467D01*
X141800Y-112800D01*
X141550Y-114133D01*
X140925Y-115133D01*
X139800Y-115634D01*
X136800D01*
G01X146675Y-118467D02*
X147675Y-119300D01*
X148800Y-119800D01*
X149800D01*
X150800Y-119300D01*
X151550Y-118467D01*
X151925Y-117300D01*
X151675Y-116134D01*
X151050Y-115133D01*
X149925Y-114467D01*
X148425Y-114133D01*
X147550Y-113467D01*
X147175Y-112300D01*
X147425Y-111133D01*
X148050Y-110300D01*
X148925Y-109800D01*
X149800D01*
X150675Y-110133D01*
X151425Y-110967D01*
G01X-31446Y-59701D02*
Y334000D01*
X303200D01*
Y-59701D01*
X-31446D01*
G54D32*
X244825Y188695D03*
G54D50*
X165555Y-23087D03*
X217287D03*
X241901D03*
X293633D03*
G54D107*
X68317Y223424D03*
Y211808D03*
X141817Y160224D03*
Y148608D03*
G54D116*
X219576Y126516D03*
X211308D03*
X225550Y195458D03*
X217282D03*
X183466Y139600D03*
X191734D03*
G54D41*
X267474Y165747D03*
Y167716D03*
Y169685D03*
X262160D03*
Y167716D03*
Y165747D03*
G54D134*
X60587Y158868D03*
Y156900D03*
Y154932D03*
Y152964D03*
X72047D03*
Y154932D03*
Y156900D03*
Y158868D03*
G54D14*
X189267Y326300D03*
X-24733Y300916D03*
X82267Y326300D03*
X296267Y300916D03*
G54D23*
X226000Y127700D03*
X205500Y222300D03*
X184700Y227600D03*
X165500Y159500D03*
X183800Y211700D03*
X97200Y255200D03*
X122200Y241200D03*
X236800Y172000D03*
G54D125*
X186300Y247150D03*
Y263050D03*
G54D60*
X105085Y193250D03*
G54D33*
X276656Y188695D03*
G54D108*
X200855Y82741D03*
X198887D03*
X196918D03*
X194950D03*
X192981D03*
X191013D03*
Y98293D03*
X192981D03*
X194950D03*
X196918D03*
X198887D03*
X200855D03*
G54D15*
X250050Y287149D03*
X263436D03*
Y298566D03*
G54D42*
X-4243Y268174D03*
X-11723D03*
Y257858D03*
X-7983D03*
X-4243D03*
G54D117*
X221842Y134682D03*
Y142950D03*
X201200Y125066D03*
Y133334D03*
X191742Y202450D03*
Y194182D03*
X202842Y204250D03*
Y195982D03*
G54D51*
X6699Y288173D03*
X68524D03*
G54D135*
X-11283Y157916D03*
G54D126*
X157350Y219600D03*
X147850D03*
G54D24*
X295238Y248537D03*
G54D34*
X281282Y195899D03*
G54D109*
X188158Y85596D03*
Y87564D03*
Y89533D03*
Y91501D03*
Y93470D03*
Y95438D03*
X203710D03*
Y93470D03*
Y91501D03*
Y89533D03*
Y87564D03*
Y85596D03*
G54D127*
X131700Y240800D03*
X142700D03*
G54D118*
X131600Y209400D03*
G54D25*
X296223Y187710D03*
G54D52*
X15099Y300181D03*
X60099D03*
G54D136*
X-18869Y162640D03*
Y159490D03*
Y156342D03*
Y153192D03*
X-3697D03*
Y156342D03*
Y159490D03*
Y162640D03*
G54D43*
X249178Y275873D03*
X246422D03*
Y272527D03*
X247800D03*
X249178D03*
G54D61*
X105085Y190900D03*
Y188932D03*
X101149D03*
Y190900D03*
G54D16*
X259893Y318251D03*
X244144D03*
X187484Y-15213D03*
X195358D03*
X205201D03*
X207169Y-9307D03*
X199295D03*
X191421D03*
X183547D03*
X175673D03*
X263830Y-15213D03*
X271704D03*
X281547D03*
X283515Y-9307D03*
X275641D03*
X267767D03*
X259893D03*
X252019D03*
G54D70*
X7523Y-7478D03*
X5554D03*
X3586D03*
X1617D03*
X-352D03*
X-2320D03*
X-4289D03*
X7523Y-9447D03*
X5554D03*
X3586D03*
X1617D03*
X-352D03*
X-2320D03*
X-4289D03*
X7523Y-11415D03*
X5554D03*
X3586D03*
X1617D03*
X-352D03*
X-2320D03*
X-4289D03*
X7523Y-13384D03*
X5554D03*
X3586D03*
X1617D03*
X-352D03*
X-2320D03*
X-4289D03*
X7523Y-15353D03*
X5554D03*
X3586D03*
X1617D03*
X-352D03*
X-2320D03*
X-4289D03*
X7523Y-17321D03*
X5554D03*
X3586D03*
X1617D03*
X-352D03*
X-2320D03*
X-4289D03*
X7523Y-19290D03*
X5554D03*
X3586D03*
X1617D03*
X-352D03*
X-2320D03*
X-4289D03*
G54D26*
X266499Y248537D03*
G54D35*
X277246Y216136D03*
Y206136D03*
Y196136D03*
X280593Y221136D03*
Y211136D03*
Y201136D03*
G54D80*
X-15698Y13134D03*
X287451D03*
Y318252D03*
X-15698D03*
Y137150D03*
X287451D03*
G54D44*
X152858Y-29944D03*
X157976D03*
X155417Y-37424D03*
X254558Y-46944D03*
X259676D03*
X257117Y-54424D03*
X266158Y-46844D03*
X271276D03*
X268717Y-54324D03*
X278658Y-46744D03*
X283776D03*
X281217Y-54224D03*
X208958Y-40444D03*
X214076D03*
X211517Y-47924D03*
G54D119*
X124710Y199950D03*
X126679D03*
X128647D03*
X130616D03*
X132584D03*
X134553D03*
X136521D03*
X138490D03*
Y218850D03*
X136521D03*
X134553D03*
X132584D03*
X130616D03*
X128647D03*
X126679D03*
X124710D03*
G54D137*
X154676Y-14784D03*
X152117D03*
X149558D03*
Y-7384D03*
X152117D03*
X154676D03*
G54D17*
X145316Y306383D03*
X142800Y326600D03*
G54D53*
X15099Y275181D03*
X25099D03*
X35099D03*
X45099D03*
X55099D03*
X20099Y265181D03*
X30099D03*
X40099D03*
X50099D03*
G54D71*
X3988Y137150D03*
X161468D03*
G54D128*
X195200Y63600D03*
X177400D03*
G54D62*
X105085Y186582D03*
G54D27*
X242994Y248340D03*
G54D81*
X-14483Y51897D03*
Y35735D03*
G54D138*
X152117Y-11084D03*
G54D90*
X37717Y304825D03*
Y293407D03*
X229617Y-19193D03*
Y-7775D03*
X-24600Y243909D03*
Y232491D03*
G54D45*
X-14587Y195016D03*
X-10179D03*
X-14587Y210016D03*
X-10179D03*
X-14587Y190016D03*
X-10179D03*
X-14587Y200016D03*
X-10179D03*
X-14587Y205016D03*
X-10179D03*
X54213Y-29684D03*
X58621D03*
G54D36*
X63482Y180234D03*
Y184172D03*
X53286D03*
Y180234D03*
X63482Y182203D03*
X53286D03*
G54D72*
X6155Y155762D03*
X7729D03*
X9305D03*
X10879D03*
Y159070D03*
X9305D03*
X7729D03*
G54D63*
X101149Y186582D03*
G54D54*
X60099Y265181D03*
G54D18*
X135316Y306383D03*
G54D129*
X-25300Y-53700D03*
X270700Y323400D03*
X293100Y-5800D03*
G54D64*
X101149Y193250D03*
G54D28*
X238368Y236470D03*
G54D82*
X58772Y-54884D03*
X53062D03*
G54D46*
X-1883Y-47088D03*
Y-42680D03*
X9317Y-44688D03*
Y-40280D03*
X-26300Y1504D03*
Y-2904D03*
X-23083Y-44988D03*
Y-40580D03*
X-17983Y-44988D03*
Y-40580D03*
X-9983Y-44688D03*
Y-40280D03*
X3317Y-44788D03*
Y-40380D03*
G54D139*
X248517Y-39743D03*
Y-37184D03*
Y-34625D03*
X255917D03*
Y-37184D03*
Y-39743D03*
X182017Y-44543D03*
Y-41984D03*
Y-39425D03*
X189417D03*
Y-41984D03*
Y-44543D03*
G54D73*
X5955Y159070D03*
G54D37*
X54447Y187301D03*
X56415D03*
X62321D03*
X60353D03*
X54447Y177105D03*
X56415D03*
X62321D03*
X60353D03*
X58384Y187301D03*
Y177105D03*
G54D91*
X211784Y96133D03*
Y99901D03*
X230184Y-30667D03*
Y-26899D03*
X44317Y295032D03*
Y298800D03*
X-17500Y238284D03*
Y234516D03*
X213400Y76384D03*
Y72616D03*
X209700D03*
Y76384D03*
X177417Y-38368D03*
Y-34600D03*
X5316Y308199D03*
Y311967D03*
X50884Y306433D03*
Y310201D03*
X123100Y195284D03*
Y191516D03*
X112400Y224184D03*
Y220416D03*
X176300Y279516D03*
Y283284D03*
X184900Y18784D03*
Y15016D03*
X-17700Y-20516D03*
Y-24284D03*
X-10983Y-30800D03*
Y-34568D03*
X255817Y47900D03*
Y44132D03*
X57617Y242732D03*
Y246500D03*
X261200Y179616D03*
Y183384D03*
X270600Y158016D03*
Y161784D03*
X258400Y174084D03*
Y170316D03*
X54417Y246500D03*
Y242732D03*
X-14083Y-30800D03*
Y-34568D03*
X99917Y14732D03*
Y18500D03*
X96817Y14732D03*
Y18500D03*
X103017Y14732D03*
Y18500D03*
X157617Y29232D03*
Y33000D03*
X154417Y29232D03*
Y33000D03*
X151317Y29232D03*
Y33000D03*
X-12683Y73200D03*
Y69432D03*
X93717Y14732D03*
Y18500D03*
X112017Y116600D03*
Y112832D03*
X115117Y116600D03*
Y112832D03*
X-19083Y73200D03*
Y69432D03*
X-15783Y73200D03*
Y69432D03*
X102417Y116600D03*
Y112832D03*
X87417Y14732D03*
Y18500D03*
X106117Y14732D03*
Y18500D03*
X90617Y14732D03*
Y18500D03*
X18717Y221000D03*
Y217232D03*
X103400Y257684D03*
Y253916D03*
X67617Y232900D03*
Y229132D03*
X105717Y116600D03*
Y112832D03*
X108917Y116600D03*
Y112832D03*
X117000Y-42984D03*
Y-39216D03*
X67617Y172732D03*
Y176500D03*
X-23784Y163567D03*
Y159799D03*
X129117Y177900D03*
Y174132D03*
X98000Y220916D03*
Y224684D03*
X298100Y287716D03*
Y291484D03*
X147800Y250784D03*
Y247016D03*
X142800Y274216D03*
Y277984D03*
X243000Y138384D03*
Y134616D03*
X234501Y138416D03*
Y134648D03*
X230801Y138416D03*
Y134648D03*
X238901Y138416D03*
Y134648D03*
X189100Y130484D03*
Y126716D03*
X193300Y130484D03*
Y126716D03*
X178600Y132716D03*
Y136484D03*
X174200Y132716D03*
Y136484D03*
X162400Y212716D03*
Y216484D03*
X165000Y206484D03*
Y202716D03*
X176300Y290484D03*
Y286716D03*
X173000Y290484D03*
Y286716D03*
X14100Y-47116D03*
Y-50884D03*
G54D55*
X81024Y105378D03*
X76570D03*
X72116D03*
X67661D03*
X63207D03*
X58753D03*
X54298D03*
X49844D03*
X45390D03*
X40936D03*
X36481D03*
X32027D03*
X27573D03*
X23118D03*
X18664D03*
X14210D03*
X83252Y103151D03*
X78797D03*
X74343D03*
X69889D03*
X65434D03*
X60980D03*
X56526D03*
X52071D03*
X47617D03*
X43163D03*
X38708D03*
X34254D03*
X29800D03*
X25345D03*
X20891D03*
X16437D03*
X11982D03*
X85479Y100923D03*
X81024D03*
X76570D03*
X72116D03*
X67661D03*
X63207D03*
X58753D03*
X54298D03*
X49844D03*
X45390D03*
X40936D03*
X36481D03*
X32027D03*
X27573D03*
X23118D03*
X18664D03*
X14210D03*
X9755D03*
X83252Y98696D03*
X78797D03*
X74343D03*
X69889D03*
X65434D03*
X60980D03*
X56526D03*
X52071D03*
X47617D03*
X43163D03*
X38708D03*
X34254D03*
X29800D03*
X25345D03*
X20891D03*
X16437D03*
X11982D03*
X85479Y96469D03*
X81024D03*
X76570D03*
X72116D03*
X67661D03*
X63207D03*
X58753D03*
X54298D03*
X49844D03*
X45390D03*
X40936D03*
X36481D03*
X32027D03*
X27573D03*
X23118D03*
X18664D03*
X14210D03*
X9755D03*
X83252Y94242D03*
X78797D03*
X74343D03*
X69889D03*
X65434D03*
X60980D03*
X56526D03*
X52071D03*
X47617D03*
X43163D03*
X38708D03*
X34254D03*
X29800D03*
X25345D03*
X20891D03*
X16437D03*
X11982D03*
X85479Y92015D03*
X81024D03*
X76570D03*
X72116D03*
X67661D03*
X63207D03*
X58753D03*
X54298D03*
X49844D03*
X45390D03*
X40936D03*
X36481D03*
X32027D03*
X27573D03*
X23118D03*
X18664D03*
X14210D03*
X9755D03*
X83252Y89788D03*
X78797D03*
X74343D03*
X69889D03*
X65434D03*
X60980D03*
X56526D03*
X52071D03*
X47617D03*
X43163D03*
X38708D03*
X34254D03*
X29800D03*
X25345D03*
X20891D03*
X16437D03*
X11982D03*
X85479Y87560D03*
X81024D03*
X76570D03*
X72116D03*
X67661D03*
X63207D03*
X58753D03*
X54298D03*
X49844D03*
X45390D03*
X40936D03*
X36481D03*
X32027D03*
X27573D03*
X23118D03*
X18664D03*
X14210D03*
X9755D03*
X83252Y85333D03*
X78797D03*
X74343D03*
X69889D03*
X65434D03*
X60980D03*
X56526D03*
X52071D03*
X47617D03*
X43163D03*
X38708D03*
X34254D03*
X29800D03*
X25345D03*
X20891D03*
X16437D03*
X11982D03*
X85479Y83106D03*
X81024D03*
X76570D03*
X72116D03*
X67661D03*
X63207D03*
X58753D03*
X54298D03*
X49844D03*
X45390D03*
X40936D03*
X36481D03*
X32027D03*
X27573D03*
X23118D03*
X18664D03*
X14210D03*
X9755D03*
X83252Y80879D03*
X78797D03*
X74343D03*
X69889D03*
X65434D03*
X60980D03*
X56526D03*
X52071D03*
X47617D03*
X43163D03*
X38708D03*
X34254D03*
X29800D03*
X25345D03*
X20891D03*
X16437D03*
X11982D03*
X85479Y78652D03*
X81024D03*
X76570D03*
X72116D03*
X67661D03*
X63207D03*
X58753D03*
X54298D03*
X49844D03*
X45390D03*
X40936D03*
X36481D03*
X32027D03*
X27573D03*
X23118D03*
X18664D03*
X14210D03*
X9755D03*
X83252Y76425D03*
X78797D03*
X74343D03*
X69889D03*
X65434D03*
X60980D03*
X56526D03*
X52071D03*
X47617D03*
X43163D03*
X38708D03*
X34254D03*
X29800D03*
X25345D03*
X20891D03*
X16437D03*
X11982D03*
X85479Y74197D03*
X81024D03*
X76570D03*
X72116D03*
X67661D03*
X63207D03*
X58753D03*
X54298D03*
X49844D03*
X45390D03*
X40936D03*
X36481D03*
X32027D03*
X27573D03*
X23118D03*
X18664D03*
X14210D03*
X9755D03*
X83252Y71970D03*
X78797D03*
X74343D03*
X69889D03*
X65434D03*
X60980D03*
X56526D03*
X52071D03*
X47617D03*
X43163D03*
X38708D03*
X34254D03*
X29800D03*
X25345D03*
X20891D03*
X16437D03*
X11982D03*
X85479Y69743D03*
X81024D03*
X76570D03*
X72116D03*
X67661D03*
X63207D03*
X58753D03*
X54298D03*
X49844D03*
X45390D03*
X40936D03*
X36481D03*
X32027D03*
X27573D03*
X23118D03*
X18664D03*
X14210D03*
X9755D03*
X83252Y67516D03*
X78797D03*
X74343D03*
X69889D03*
X65434D03*
X60980D03*
X56526D03*
X52071D03*
X47617D03*
X43163D03*
X38708D03*
X34254D03*
X29800D03*
X25345D03*
X20891D03*
X16437D03*
X11982D03*
X85479Y65289D03*
X81024D03*
X76570D03*
X72116D03*
X67661D03*
X63207D03*
X58753D03*
X54298D03*
X49844D03*
X45390D03*
X40936D03*
X36481D03*
X32027D03*
X27573D03*
X23118D03*
X18664D03*
X14210D03*
X9755D03*
X83252Y63062D03*
X78797D03*
X74343D03*
X69889D03*
X65434D03*
X60980D03*
X56526D03*
X52071D03*
X47617D03*
X43163D03*
X38708D03*
X34254D03*
X29800D03*
X25345D03*
X20891D03*
X16437D03*
X11982D03*
X85479Y60835D03*
X81024D03*
X76570D03*
X72116D03*
X67661D03*
X63207D03*
X58753D03*
X54298D03*
X49844D03*
X45390D03*
X40936D03*
X36481D03*
X32027D03*
X27573D03*
X23118D03*
X18664D03*
X14210D03*
X9755D03*
X83252Y58607D03*
X78797D03*
X74343D03*
X69889D03*
X65434D03*
X60980D03*
X56526D03*
X52071D03*
X47617D03*
X43163D03*
X38708D03*
X34254D03*
X29800D03*
X25345D03*
X20891D03*
X16437D03*
X11982D03*
X85479Y56380D03*
X81024D03*
X76570D03*
X72116D03*
X67661D03*
X63207D03*
X58753D03*
X54298D03*
X49844D03*
X45390D03*
X40936D03*
X36481D03*
X32027D03*
X27573D03*
X23118D03*
X18664D03*
X14210D03*
X9755D03*
X83252Y54153D03*
X78797D03*
X74343D03*
X69889D03*
X65434D03*
X60980D03*
X56526D03*
X52071D03*
X47617D03*
X43163D03*
X38708D03*
X34254D03*
X29800D03*
X25345D03*
X20891D03*
X16437D03*
X11982D03*
X85479Y51926D03*
X81024D03*
X76570D03*
X72116D03*
X67661D03*
X63207D03*
X58753D03*
X54298D03*
X49844D03*
X45390D03*
X40936D03*
X36481D03*
X32027D03*
X27573D03*
X23118D03*
X18664D03*
X14210D03*
X9755D03*
X83252Y49699D03*
X78797D03*
X74343D03*
X69889D03*
X65434D03*
X60980D03*
X56526D03*
X52071D03*
X47617D03*
X43163D03*
X38708D03*
X34254D03*
X29800D03*
X25345D03*
X20891D03*
X16437D03*
X11982D03*
X85479Y47472D03*
X81024D03*
X76570D03*
X72116D03*
X67661D03*
X63207D03*
X58753D03*
X54298D03*
X49844D03*
X45390D03*
X40936D03*
X36481D03*
X32027D03*
X27573D03*
X23118D03*
X18664D03*
X14210D03*
X9755D03*
X83252Y45244D03*
X78797D03*
X74343D03*
X69889D03*
X65434D03*
X60980D03*
X56526D03*
X52071D03*
X47617D03*
X43163D03*
X38708D03*
X34254D03*
X29800D03*
X25345D03*
X20891D03*
X16437D03*
X11982D03*
X85479Y43017D03*
X81024D03*
X76570D03*
X72116D03*
X67661D03*
X63207D03*
X58753D03*
X54298D03*
X49844D03*
X45390D03*
X40936D03*
X36481D03*
X32027D03*
X27573D03*
X23118D03*
X18664D03*
X14210D03*
X9755D03*
X83252Y40790D03*
X78797D03*
X74343D03*
X69889D03*
X65434D03*
X60980D03*
X56526D03*
X52071D03*
X47617D03*
X43163D03*
X38708D03*
X34254D03*
X29800D03*
X25345D03*
X20891D03*
X16437D03*
X11982D03*
X85479Y38563D03*
X81024D03*
X76570D03*
X72116D03*
X67661D03*
X63207D03*
X58753D03*
X54298D03*
X49844D03*
X45390D03*
X40936D03*
X36481D03*
X32027D03*
X27573D03*
X23118D03*
X18664D03*
X14210D03*
X9755D03*
X83252Y36336D03*
X78797D03*
X74343D03*
X69889D03*
X65434D03*
X60980D03*
X56526D03*
X52071D03*
X47617D03*
X43163D03*
X38708D03*
X34254D03*
X29800D03*
X25345D03*
X20891D03*
X16437D03*
X11982D03*
X85479Y34109D03*
X81024D03*
X76570D03*
X72116D03*
X67661D03*
X63207D03*
X58753D03*
X54298D03*
X49844D03*
X45390D03*
X40936D03*
X36481D03*
X32027D03*
X27573D03*
X23118D03*
X18664D03*
X14210D03*
X9755D03*
X83252Y31881D03*
X78797D03*
X74343D03*
X69889D03*
X65434D03*
X60980D03*
X56526D03*
X52071D03*
X47617D03*
X43163D03*
X38708D03*
X34254D03*
X29800D03*
X25345D03*
X20891D03*
X16437D03*
X11982D03*
X81024Y29654D03*
X76570D03*
X72116D03*
X67661D03*
X63207D03*
X58753D03*
X54298D03*
X49844D03*
X45390D03*
X40936D03*
X36481D03*
X32027D03*
X27573D03*
X23118D03*
X18664D03*
X14210D03*
G54D19*
X215384Y87617D03*
X584Y44317D03*
X-24383Y185916D03*
X43617Y231816D03*
X584Y40817D03*
X98000Y218000D03*
X105000Y209100D03*
X167300Y184500D03*
X237800Y161700D03*
X185100Y162300D03*
X226100Y187000D03*
G54D29*
X238368Y218222D03*
G54D38*
X51134Y-5963D03*
X63434D03*
X75734D03*
X121434Y-19963D03*
X102834Y-19763D03*
X88034Y-5963D03*
X85132Y-42921D03*
X70232Y-42821D03*
G54D83*
X287190Y281556D03*
G54D92*
X252333Y252916D03*
X256101D03*
X208816Y83800D03*
X212584D03*
X244201Y-32384D03*
X240433D03*
X62033Y-54884D03*
X65801D03*
X37533Y-42584D03*
X41301D03*
X-17867Y217116D03*
X-14099D03*
X102316Y250200D03*
X106084D03*
X102316Y246200D03*
X106084D03*
X102316Y242200D03*
X106084D03*
X117484Y199900D03*
X113716D03*
X116684Y213900D03*
X112916D03*
X147716Y185600D03*
X151484D03*
X113416Y206100D03*
X117184D03*
X148916Y228500D03*
X152684D03*
X153816Y293400D03*
X157584D03*
X183384Y283300D03*
X179616D03*
X183384Y279800D03*
X179616D03*
X15333Y-23684D03*
X19101D03*
X12933Y1816D03*
X16701D03*
X-14684Y-2500D03*
X-10916D03*
X4833Y19716D03*
X8601D03*
X250301Y38816D03*
X246533D03*
X47232Y-25617D03*
X51000D03*
X25901Y255116D03*
X22133D03*
X801Y238916D03*
X-2967D03*
X118216Y-34900D03*
X121984D03*
X254116Y164500D03*
X257884D03*
X30533Y246616D03*
X34301D03*
X181368Y93217D03*
X177600D03*
X250933Y3916D03*
X254701D03*
X103901Y41716D03*
X100133D03*
X55001Y223316D03*
X51233D03*
X38716Y174200D03*
X42484D03*
X259901Y37016D03*
X256133D03*
X117633Y172616D03*
X121401D03*
X88101Y194316D03*
X84333D03*
X263733Y174516D03*
X267501D03*
X254116Y160600D03*
X257884D03*
X196716Y103800D03*
X200484D03*
X106216Y200800D03*
X109984D03*
X182784Y31900D03*
X179016D03*
X199116Y209000D03*
X202884D03*
X199116Y213800D03*
X202884D03*
X221016Y206200D03*
X224784D03*
X221016Y202700D03*
X224784D03*
X193326Y208816D03*
X189558D03*
X193284Y213800D03*
X189516D03*
X235284Y163900D03*
X231516D03*
X216216Y186933D03*
X212448D03*
X191884Y186367D03*
X195652D03*
X156316Y228500D03*
X160084D03*
X155416Y185600D03*
X159184D03*
X142284Y227800D03*
X138516D03*
X142284Y224000D03*
X138516D03*
X192484Y103800D03*
X188716D03*
X212584Y80400D03*
X208816D03*
G54D47*
X258960Y277459D03*
Y272341D03*
X266440D03*
Y274900D03*
Y277459D03*
X43256Y145824D03*
Y150942D03*
X35776D03*
Y148383D03*
Y145824D03*
G54D74*
X-4537Y249178D03*
Y247604D03*
Y246028D03*
Y244454D03*
X-1229D03*
Y246028D03*
Y247604D03*
G54D65*
X188283Y-24716D03*
X264383Y-23016D03*
X-1817Y228684D03*
G54D56*
X120362Y40501D03*
X123512D03*
X126661D03*
X129811D03*
X132961D03*
X142409D03*
X145559D03*
X148709D03*
X151858D03*
X155008D03*
X120362Y43060D03*
X123512D03*
X126661D03*
X129811D03*
X132961D03*
X142409D03*
X145559D03*
X148709D03*
X151858D03*
X155008D03*
X120362Y45619D03*
X123512D03*
X126661D03*
X129811D03*
X132961D03*
X142409D03*
X145559D03*
X148709D03*
X151858D03*
X155008D03*
X120362Y48178D03*
X123512D03*
X126661D03*
X129811D03*
X132961D03*
X142409D03*
X145559D03*
X148709D03*
X151858D03*
X155008D03*
X120362Y50737D03*
X123512D03*
X126661D03*
X129811D03*
X132961D03*
X142409D03*
X145559D03*
X148709D03*
X151858D03*
X155008D03*
X120362Y53296D03*
X123512D03*
X126661D03*
X129811D03*
X132961D03*
X142409D03*
X145559D03*
X148709D03*
X151858D03*
X155008D03*
X120362Y55855D03*
X123512D03*
X126661D03*
X129811D03*
X132961D03*
X142409D03*
X145559D03*
X148709D03*
X151858D03*
X155008D03*
X120362Y58414D03*
X123512D03*
X126661D03*
X129811D03*
X132961D03*
X142409D03*
X145559D03*
X148709D03*
X151858D03*
X155008D03*
X120362Y60973D03*
X123512D03*
X126661D03*
X129811D03*
X132961D03*
X142409D03*
X145559D03*
X148709D03*
X151858D03*
X155008D03*
X120362Y63532D03*
X123512D03*
X126661D03*
X129811D03*
X132961D03*
X142409D03*
X145559D03*
X148709D03*
X151858D03*
X155008D03*
X120362Y71210D03*
X123512D03*
X126661D03*
X129811D03*
X132961D03*
X142409D03*
X145559D03*
X148709D03*
X151858D03*
X155008D03*
X120362Y73769D03*
X123512D03*
X126661D03*
X129811D03*
X132961D03*
X142409D03*
X145559D03*
X148709D03*
X151858D03*
X155008D03*
X120362Y76328D03*
X123512D03*
X126661D03*
X129811D03*
X132961D03*
X142409D03*
X145559D03*
X148709D03*
X151858D03*
X155008D03*
X120362Y78887D03*
X123512D03*
X126661D03*
X129811D03*
X132961D03*
X142409D03*
X145559D03*
X148709D03*
X151858D03*
X155008D03*
X120362Y81446D03*
X123512D03*
X126661D03*
X129811D03*
X132961D03*
X142409D03*
X145559D03*
X148709D03*
X151858D03*
X155008D03*
X120362Y84005D03*
X123512D03*
X126661D03*
X129811D03*
X132961D03*
X142409D03*
X145559D03*
X148709D03*
X151858D03*
X155008D03*
X120362Y86564D03*
X123512D03*
X126661D03*
X129811D03*
X132961D03*
X142409D03*
X145559D03*
X148709D03*
X151858D03*
X155008D03*
X120362Y89123D03*
X123512D03*
X126661D03*
X129811D03*
X132961D03*
X142409D03*
X145559D03*
X148709D03*
X151858D03*
X155008D03*
X120362Y91682D03*
X123512D03*
X126661D03*
X129811D03*
X132961D03*
X142409D03*
X145559D03*
X148709D03*
X151858D03*
X155008D03*
X120362Y94241D03*
X123512D03*
X126661D03*
X129811D03*
X132961D03*
X142409D03*
X145559D03*
X148709D03*
X151858D03*
X155008D03*
G54D39*
X51429Y-10805D03*
X53398Y-5963D03*
Y-10805D03*
X57334Y-5963D03*
Y-10805D03*
X59303Y-5963D03*
Y-10805D03*
X63729D03*
X65698Y-5963D03*
Y-10805D03*
X69634Y-5963D03*
Y-10805D03*
X71603Y-5963D03*
Y-10805D03*
X76029D03*
X77998Y-5963D03*
Y-10805D03*
X81934Y-5963D03*
Y-10805D03*
X83903Y-5963D03*
Y-10805D03*
X121729Y-24805D03*
X123698Y-19963D03*
Y-24805D03*
X127634Y-19963D03*
Y-24805D03*
X129603Y-19963D03*
Y-24805D03*
X103129Y-24605D03*
X105098Y-19763D03*
Y-24605D03*
X109034Y-19763D03*
Y-24605D03*
X111003Y-19763D03*
Y-24605D03*
X88329Y-10805D03*
X90298Y-5963D03*
Y-10805D03*
X94234Y-5963D03*
Y-10805D03*
X96203Y-5963D03*
Y-10805D03*
X84837Y-38079D03*
X82868Y-42921D03*
Y-38079D03*
X78932Y-42921D03*
Y-38079D03*
X76963Y-42921D03*
Y-38079D03*
X69937Y-37979D03*
X67968Y-42821D03*
Y-37979D03*
X64032Y-42821D03*
Y-37979D03*
X62063Y-42821D03*
Y-37979D03*
G54D93*
X206150Y65000D03*
X212650D03*
X167150Y176100D03*
X160650D03*
X177350Y195000D03*
X183850D03*
G54D75*
X-1229Y249378D03*
G54D48*
X7076Y196356D03*
X1958D03*
Y188876D03*
X4517D03*
X7076D03*
G54D66*
X190633Y-24716D03*
X192601D03*
Y-28652D03*
X190633D03*
X266733Y-23016D03*
X268701D03*
Y-26952D03*
X266733D03*
X533Y228684D03*
X2501D03*
Y224748D03*
X533D03*
G54D57*
X81048Y233616D03*
X87386D03*
G54D84*
X287950Y289844D03*
X280404D03*
Y281556D03*
G54D76*
X166617Y108016D03*
X-1583Y16815D03*
X-27783Y91616D03*
Y40516D03*
X166617Y48016D03*
G54D94*
X205000Y263950D03*
Y257450D03*
X173600Y176850D03*
Y183350D03*
X211100Y206350D03*
Y199850D03*
G54D85*
X55341Y-42283D03*
X52192D03*
X49042D03*
X45893D03*
Y-35845D03*
X49042D03*
X52192D03*
X55341D03*
G54D58*
X81067Y231037D03*
X82642D03*
X84217D03*
X85792D03*
X87367D03*
Y236195D03*
X85792D03*
X84217D03*
X82642D03*
G54D67*
X194951Y-24716D03*
X271051Y-23016D03*
X4851Y228684D03*
G54D49*
X177641Y-15213D03*
X253987D03*
G54D68*
X194951Y-28652D03*
X271051Y-26952D03*
X4851Y224748D03*
G54D86*
X200524Y109567D03*
X193044D03*
X175544Y87467D03*
X183024D03*
X208060Y109550D03*
X215540D03*
X200540Y117050D03*
X193060D03*
X80877Y169666D03*
X88357D03*
G54D77*
X166617Y101717D03*
Y114315D03*
X-1583Y10516D03*
Y23114D03*
X-27783Y97915D03*
Y85317D03*
Y34217D03*
Y46815D03*
X166617Y41717D03*
Y54315D03*
G54D95*
X146700Y140900D03*
X140700D03*
X141800Y165400D03*
X147800D03*
X173000Y223700D03*
X179000D03*
X266517Y-39584D03*
X260517D03*
X199917Y-46684D03*
X193917D03*
X209400Y58900D03*
X215400D03*
X142000Y188800D03*
X136000D03*
X141900Y193800D03*
X135900D03*
X184700Y275200D03*
X178700D03*
X183300Y189300D03*
X177300D03*
X217300Y212000D03*
X211300D03*
G54D59*
X80767Y236195D03*
G54D87*
X167750Y219940D03*
Y212460D03*
X170650Y199260D03*
Y206740D03*
X153450Y246260D03*
Y253740D03*
X142250Y287860D03*
Y295340D03*
X137550Y278040D03*
Y270560D03*
X174950Y107640D03*
Y100160D03*
G54D78*
X129217Y5932D03*
X78417D03*
X115117Y124816D03*
X4517D03*
G54D96*
X171000Y194600D03*
Y188600D03*
X159917Y-1184D03*
Y-7184D03*
X241217Y-46084D03*
Y-40084D03*
X176717Y-52284D03*
Y-46284D03*
X205000Y252300D03*
Y246300D03*
X116700Y226400D03*
Y220400D03*
G54D69*
X188283Y-28652D03*
X264383Y-26952D03*
X-1817Y224748D03*
G54D79*
X135516Y5932D03*
X122918D03*
X84716D03*
X72118D03*
X121416Y124816D03*
X108818D03*
X10816D03*
X-1782D03*
G54D97*
X55500Y116102D03*
Y113898D03*
X53300Y116102D03*
Y113898D03*
X279300Y295198D03*
Y297402D03*
X99200Y331502D03*
Y329298D03*
X-6200Y305802D03*
Y303598D03*
X172800Y319598D03*
Y321802D03*
X-11500Y-22702D03*
Y-20498D03*
X-12316Y-7385D03*
Y-5181D03*
X-10116Y-7385D03*
Y-5181D03*
X-5883Y-32986D03*
Y-30782D03*
X-14200Y-22702D03*
Y-20498D03*
X-14516Y-7385D03*
Y-5181D03*
X-8183Y-32986D03*
Y-30782D03*
X43617Y238614D03*
Y240818D03*
X36917Y218818D03*
Y216614D03*
X49117Y244918D03*
Y242714D03*
X51417Y244918D03*
Y242714D03*
X106800Y255702D03*
Y253498D03*
X264817Y181214D03*
Y183418D03*
X77317Y228814D03*
Y231018D03*
Y237718D03*
Y235514D03*
X62184Y170115D03*
Y172319D03*
X67583Y182386D03*
Y180182D03*
X29617Y195014D03*
Y197218D03*
X-10200Y254202D03*
Y251998D03*
X6417Y166318D03*
Y164114D03*
X215600Y79898D03*
Y82102D03*
X5817Y199814D03*
Y202018D03*
X47283Y143682D03*
Y145886D03*
X268000Y181298D03*
Y183502D03*
X275600Y285598D03*
Y287802D03*
X255400Y274498D03*
Y276702D03*
X15717Y17214D03*
Y19418D03*
X13517Y17214D03*
Y19418D03*
X11317Y17214D03*
Y19418D03*
X78117Y15314D03*
Y17518D03*
X82517Y15314D03*
Y17518D03*
X80317Y15314D03*
Y17518D03*
X84717Y15314D03*
Y17518D03*
X-9983Y71518D03*
Y69314D03*
X-5583Y71518D03*
Y69314D03*
X-7783Y71518D03*
Y69314D03*
X203284Y74915D03*
Y77119D03*
X64817Y231318D03*
Y229114D03*
X-5483Y-52586D03*
Y-50382D03*
X-3283Y-52486D03*
Y-50282D03*
X-18200Y255598D03*
Y257802D03*
X239617Y10918D03*
Y8714D03*
X241717Y37214D03*
Y39418D03*
X215817Y27918D03*
Y25714D03*
X248017Y49418D03*
Y47214D03*
X250817Y45818D03*
Y43614D03*
X253000Y274498D03*
Y276702D03*
X227317Y1014D03*
Y3218D03*
X236817Y10918D03*
Y8714D03*
X235317Y46818D03*
Y44614D03*
X233117Y46818D03*
Y44614D03*
X230917Y46818D03*
Y44614D03*
X228717Y46818D03*
Y44614D03*
X226517Y46818D03*
Y44614D03*
X243917Y37214D03*
Y39418D03*
X245117Y49418D03*
Y47214D03*
X238117Y37114D03*
Y39318D03*
X126600Y193598D03*
Y195802D03*
X127400Y225502D03*
Y223298D03*
X144800Y249602D03*
Y247398D03*
X172700Y281402D03*
Y279198D03*
X172800Y273098D03*
Y275302D03*
X205400Y188902D03*
Y186698D03*
X228600Y173502D03*
Y171298D03*
X225600Y173502D03*
Y171298D03*
X185600Y182002D03*
Y179798D03*
X179400Y179302D03*
Y177098D03*
X182600Y179302D03*
Y177098D03*
X225800Y165702D03*
Y163498D03*
X189800Y30302D03*
Y28098D03*
X-9383Y303598D03*
Y305802D03*
X282200Y297402D03*
Y295198D03*
X175800Y321802D03*
Y319598D03*
X96400Y329298D03*
Y331502D03*
X206700Y76902D03*
Y74698D03*
X23900Y-47698D03*
Y-49902D03*
X270600Y165398D03*
Y167602D03*
X48717Y-50886D03*
Y-48682D03*
X50917Y-50886D03*
Y-48682D03*
X208484Y98019D03*
Y95815D03*
X145200Y-14998D03*
Y-17202D03*
X152117Y-18782D03*
Y-20986D03*
X145717Y-9386D03*
Y-7182D03*
X42684Y227685D03*
Y225481D03*
X132917Y33518D03*
Y31314D03*
X142417Y33518D03*
Y31314D03*
X-27583Y182614D03*
Y184818D03*
X32517Y197218D03*
Y195014D03*
X153884Y-52981D03*
Y-55185D03*
X27717Y188414D03*
Y190618D03*
X-14683Y-44982D03*
Y-47186D03*
X-5483Y-46082D03*
Y-48286D03*
X-2184Y72385D03*
Y70181D03*
X716Y74985D03*
Y72781D03*
X41817Y-18982D03*
Y-21186D03*
X33317Y207814D03*
Y210018D03*
X31117Y207814D03*
Y210018D03*
X26117Y209014D03*
Y211218D03*
X23117Y209014D03*
Y211218D03*
X44984Y227719D03*
Y225515D03*
X40384D03*
Y227719D03*
X174600Y328998D03*
Y331202D03*
X10517Y148414D03*
Y150618D03*
X271100Y183402D03*
Y181198D03*
X280780Y305722D03*
Y303518D03*
X52800Y158702D03*
Y156498D03*
X169200Y328998D03*
Y331202D03*
X101600Y220902D03*
Y218698D03*
X55484Y172119D03*
Y169915D03*
X53284D03*
Y172119D03*
X51084Y169915D03*
Y172119D03*
X247017Y59218D03*
Y57014D03*
X251017Y59218D03*
Y57014D03*
X86717Y139014D03*
Y141218D03*
X209017Y-37186D03*
Y-34982D03*
X72717Y127114D03*
Y129318D03*
X262917Y-45386D03*
Y-43182D03*
X60700Y137698D03*
Y139902D03*
X278717Y-41486D03*
Y-39282D03*
X124600Y223298D03*
Y225502D03*
X130200Y223298D03*
Y225502D03*
X133000Y226502D03*
Y224298D03*
X129600Y195702D03*
Y193498D03*
X132400Y195702D03*
Y193498D03*
X153900Y288198D03*
Y290402D03*
X159400Y290302D03*
Y288098D03*
X167800Y290302D03*
Y288098D03*
X165000Y290302D03*
Y288098D03*
X162200Y290302D03*
Y288098D03*
X232700Y159402D03*
Y157198D03*
X175700Y149502D03*
Y147298D03*
X170100Y157602D03*
Y155398D03*
X231900Y180398D03*
Y182602D03*
X235300D03*
Y180398D03*
X142600Y-9402D03*
Y-7198D03*
X-2000Y198202D03*
Y195998D03*
X-3400Y303598D03*
Y305802D03*
X169800Y321802D03*
Y319598D03*
G54D88*
X232417Y-36984D03*
Y-49184D03*
X167617Y-42484D03*
Y-54684D03*
X131741Y-35758D03*
Y-47958D03*
X163900Y243600D03*
Y255800D03*
X127400Y280700D03*
Y268500D03*
G54D89*
X256726Y260116D03*
X245308D03*
X129826Y166016D03*
X118408D03*
X80908Y178116D03*
X92326D03*
X129826Y156116D03*
X118408D03*
X106492Y274884D03*
X95074D03*
X80908Y188016D03*
X92326D03*
G54D98*
X17519Y-20884D03*
X15315D03*
X18919Y-2984D03*
X16715D03*
X17519Y-18584D03*
X15315D03*
X18919Y-784D03*
X16715D03*
X47914Y-29617D03*
X50118D03*
X18419Y231716D03*
X16215D03*
X53019Y226016D03*
X50815D03*
X23715Y249716D03*
X25919D03*
X32515Y244016D03*
X34719D03*
X23715Y252116D03*
X25919D03*
X115319Y265116D03*
X113115D03*
X86019Y197016D03*
X83815D03*
X86019Y199216D03*
X83815D03*
X119215Y175516D03*
X121419D03*
X115319Y267416D03*
X113115D03*
X53015Y162116D03*
X55219D03*
X260698Y-2700D03*
X262902D03*
X260698Y-4900D03*
X262902D03*
X184198Y-2100D03*
X186402D03*
X184198Y-4300D03*
X186402D03*
X41402Y177900D03*
X39198D03*
X6219Y249416D03*
X4015D03*
X515Y159216D03*
X2719D03*
X180922Y96110D03*
X178718D03*
X211102Y86800D03*
X208898D03*
X87419Y118116D03*
X85215D03*
X102319Y47316D03*
X100115D03*
X87419Y115916D03*
X85215D03*
X102319Y44816D03*
X100115D03*
X87419Y113716D03*
X85215D03*
X211515Y15716D03*
X213719D03*
X250515Y19616D03*
X252719D03*
X-6918Y272217D03*
X-4714D03*
X250815Y22416D03*
X253019D03*
X222619Y18816D03*
X220415D03*
X250615Y10516D03*
X252819D03*
X250615Y12716D03*
X252819D03*
X250115Y33416D03*
X252319D03*
X222619Y21016D03*
X220415D03*
X250515Y17416D03*
X252719D03*
X250815Y25316D03*
X253019D03*
X223319Y36416D03*
X221115D03*
X250515Y15216D03*
X252719D03*
X250115Y35616D03*
X252319D03*
X294902Y289200D03*
X292698D03*
X193998Y183500D03*
X196202D03*
X213702Y184000D03*
X211498D03*
X229102Y156000D03*
X226898D03*
X179698Y150600D03*
X181902D03*
X179898Y157400D03*
X182102D03*
X179698Y171400D03*
X181902D03*
X179898Y154000D03*
X182102D03*
X222902Y186500D03*
X220698D03*
X222902Y183900D03*
X220698D03*
X181602Y29000D03*
X179398D03*
X185302Y40600D03*
X183098D03*
X107598Y213900D03*
X109802D03*
X115298Y203100D03*
X117502D03*
X114498Y217100D03*
X116702D03*
X23115Y-13184D03*
X25319D03*
X-21985Y-9184D03*
X-19781D03*
X17619Y-9384D03*
X15415D03*
X23819Y-5984D03*
X21615D03*
X-14081Y-10784D03*
X-16285D03*
X-14081Y-12984D03*
X-16285D03*
X-14098Y-15300D03*
X-16302D03*
X6319Y-34284D03*
X4115D03*
X22319Y-15384D03*
X20115D03*
X-21902Y291800D03*
X-19698D03*
X-14698D03*
X-16902D03*
X-17681Y177716D03*
X-19885D03*
X-17081Y168716D03*
X-19285D03*
X-17081Y170916D03*
X-19285D03*
X-17698Y174600D03*
X-19902D03*
X232386Y-54483D03*
X230182D03*
X219886Y-51283D03*
X217682D03*
X222086Y-53883D03*
X219882D03*
X236014Y-54417D03*
X238218D03*
X156815Y-54384D03*
X159019D03*
X211086Y90117D03*
X208882D03*
X-19602Y-1400D03*
X-17398D03*
X-2781Y170916D03*
X-4985D03*
X-2781Y168716D03*
X-4985D03*
X-2898Y174500D03*
X-5102D03*
X-2881Y177716D03*
X-5085D03*
X55319Y-50984D03*
X53115D03*
Y-48684D03*
X55319D03*
X919Y56616D03*
X-1285D03*
X919Y64116D03*
X-1285D03*
X919Y61916D03*
X-1285D03*
X275698Y280800D03*
X273494D03*
X98302Y320200D03*
X96098D03*
X17819Y237316D03*
X15615D03*
X11319Y237516D03*
X9115D03*
X79619Y154916D03*
X77415D03*
X79619Y157316D03*
X77415D03*
X79619Y159616D03*
X77415D03*
X44514Y154383D03*
X46718D03*
X77415Y152716D03*
X79619D03*
X220515Y27716D03*
X222719D03*
X220515Y29916D03*
X222719D03*
X98335Y323182D03*
X96131D03*
X276195Y303496D03*
X278399D03*
X106985Y218484D03*
X104781D03*
X86515Y263716D03*
X88719D03*
X208882Y92817D03*
X211086D03*
X-25785Y155516D03*
X-23581D03*
X698Y156000D03*
X2902D03*
X-23581Y153316D03*
X-25785D03*
X86314Y133983D03*
X88518D03*
X251119Y-44884D03*
X248915D03*
X152746Y-25623D03*
X150542D03*
X213719Y17916D03*
X211515D03*
X104881Y221184D03*
X107085D03*
X47982Y182217D03*
X50186D03*
X47982Y179917D03*
X50186D03*
X65086Y21517D03*
X62882D03*
X-1602Y107700D03*
X602D03*
X-1102Y91700D03*
X1102D03*
X292698Y292000D03*
X294902D03*
X173705Y326123D03*
X175909D03*
X280590Y300945D03*
X282794D03*
X-8898Y300800D03*
X-11102D03*
X98036Y326282D03*
X95832D03*
X8315Y240516D03*
X10519D03*
X19219Y234316D03*
X17015D03*
X114702Y210900D03*
X112498D03*
X232802Y148100D03*
X230598D03*
X236102Y151700D03*
X233898D03*
X230598Y145300D03*
X232802D03*
X226098Y177000D03*
X228302D03*
X189886Y183242D03*
X187682D03*
X232102Y168600D03*
X229898D03*
X174098Y167400D03*
X176302D03*
X181598Y167500D03*
X183802D03*
X179898Y163600D03*
X182102D03*
X172398Y170400D03*
X174602D03*
X179498Y160800D03*
X181702D03*
X176102Y154000D03*
X173898D03*
X226098Y180400D03*
X228302D03*
X181902Y174200D03*
X179698D03*
X176302Y163600D03*
X174098D03*
X182102Y147200D03*
X179898D03*
X229102Y158800D03*
X226898D03*
X175702Y157600D03*
X173498D03*
X-1102Y89000D03*
X1102D03*
X-2402Y83200D03*
X-198D03*
X225998Y183400D03*
X228202D03*
X202Y53100D03*
X-2002D03*
X702Y105000D03*
X-1502D03*
X902Y59300D03*
X-1302D03*
X-198Y80800D03*
X-2402D03*
X9298Y114100D03*
X11502D03*
X180798Y-33400D03*
X183002D03*
X251598Y-28100D03*
X253802D03*
X-16302Y-17600D03*
X-14098D03*
X185898Y-35800D03*
X188102D03*
X254098Y-30700D03*
X256302D03*
X183002Y-35800D03*
X180798D03*
X251402Y-30700D03*
X249198D03*
X65102Y19100D03*
X62898D03*
X23002Y-42800D03*
X20798D03*
X15798D03*
X18002D03*
X276402Y297400D03*
X274198D03*
X102398Y329300D03*
X104602D03*
G54D99*
X123650Y-42142D03*
X141170D03*
M02*
