*
%FSLAX45Y45*%
%MOMM*%
G04 A1 - i274x.macro50.d50+3 *
%AMA1gbp_lev.gbr*
4,1,6,
0.203200,0.304800,
0.203200,-0.304800,
0.000000,-0.304800,
0.000000,0.101600,
-0.203200,0.101600,
-0.203200,0.304800,
0.203200,0.304800,
0.0000*
%
G04 A2 - i274x.macro41.d41 *
%AMA2gbp_lev.gbr*
4,1,6,
-0.304800,-0.203200,
-0.304800,0.203200,
-0.101600,0.203200,
-0.101600,0.000000,
0.304800,0.000000,
0.304800,-0.203200,
-0.304800,-0.203200,
0.0000*
%
G04 A3 - i274x.macro43.d43 *
%AMA3gbp_lev.gbr*
4,1,6,
-0.304800,0.203200,
0.304800,0.203200,
0.304800,0.000000,
-0.101600,0.000000,
-0.101600,-0.203200,
-0.304800,-0.203200,
-0.304800,0.203200,
0.0000*
%
G04 A4 - i274x.macro44.d44 *
%AMA4gbp_lev.gbr*
4,1,6,
0.304800,0.203200,
0.304800,-0.203200,
0.101600,-0.203200,
0.101600,0.000000,
-0.304800,0.000000,
-0.304800,0.203200,
0.304800,0.203200,
0.0000*
%
G04 A5 - i274x.macro45.d45 *
%AMA5gbp_lev.gbr*
4,1,6,
0.304800,-0.203200,
-0.304800,-0.203200,
-0.304800,0.000000,
0.101600,0.000000,
0.101600,0.203200,
0.304800,0.203200,
0.304800,-0.203200,
0.0000*
%
G04 A6 - i274x.macro46.d46 *
%AMA6gbp_lev.gbr*
4,1,6,
0.203200,-0.304800,
-0.203200,-0.304800,
-0.203200,-0.101600,
0.000000,-0.101600,
0.000000,0.304800,
0.203200,0.304800,
0.203200,-0.304800,
0.0000*
%
G04 A7 - i274x.macro48.d48+2 *
%AMA7gbp_lev.gbr*
4,1,6,
-0.203200,-0.304800,
-0.203200,0.304800,
0.000000,0.304800,
0.000000,-0.101600,
0.203200,-0.101600,
0.203200,-0.304800,
-0.203200,-0.304800,
0.0000*
%
G04 A8 - i274x.macro49.d49+1 *
%AMA8gbp_lev.gbr*
4,1,6,
-0.203200,0.304800,
0.203200,0.304800,
0.203200,0.101600,
0.000000,0.101600,
0.000000,-0.304800,
-0.203200,-0.304800,
-0.203200,0.304800,
0.0000*
%
G04 A9 - i274x.macro50.d50+3 180 *
%AMA9gbp_lev.gbr*
4,1,6,
-0.203200,-0.304800,
-0.203200,0.304800,
0.000000,0.304800,
0.000000,-0.101600,
0.203200,-0.101600,
0.203200,-0.304800,
-0.203200,-0.304800,
0.0000*
%
G04 A10 - i274x.macro41.d41 180 *
%AMA10gbp_lev.gbr*
4,1,6,
0.304800,0.203200,
0.304800,-0.203200,
0.101600,-0.203200,
0.101600,0.000000,
-0.304800,0.000000,
-0.304800,0.203200,
0.304800,0.203200,
0.0000*
%
G04 A11 - i274x.macro43.d43 180 *
%AMA11gbp_lev.gbr*
4,1,6,
0.304800,-0.203200,
-0.304800,-0.203200,
-0.304800,0.000000,
0.101600,0.000000,
0.101600,0.203200,
0.304800,0.203200,
0.304800,-0.203200,
0.0000*
%
G04 A12 - i274x.macro44.d44 180 *
%AMA12gbp_lev.gbr*
4,1,6,
-0.304800,-0.203200,
-0.304800,0.203200,
-0.101600,0.203200,
-0.101600,0.000000,
0.304800,0.000000,
0.304800,-0.203200,
-0.304800,-0.203200,
0.0000*
%
G04 A13 - i274x.macro45.d45 180 *
%AMA13gbp_lev.gbr*
4,1,6,
-0.304800,0.203200,
0.304800,0.203200,
0.304800,0.000000,
-0.101600,0.000000,
-0.101600,-0.203200,
-0.304800,-0.203200,
-0.304800,0.203200,
0.0000*
%
G04 A14 - i274x.macro46.d46 180 *
%AMA14gbp_lev.gbr*
4,1,6,
-0.203200,0.304800,
0.203200,0.304800,
0.203200,0.101600,
0.000000,0.101600,
0.000000,-0.304800,
-0.203200,-0.304800,
-0.203200,0.304800,
0.0000*
%
G04 A15 - i274x.macro48.d48+2 180 *
%AMA15gbp_lev.gbr*
4,1,6,
0.203200,0.304800,
0.203200,-0.304800,
0.000000,-0.304800,
0.000000,0.101600,
-0.203200,0.101600,
-0.203200,0.304800,
0.203200,0.304800,
0.0000*
%
G04 A16 - i274x.macro49.d49+1 180 *
%AMA16gbp_lev.gbr*
4,1,6,
0.203200,-0.304800,
-0.203200,-0.304800,
-0.203200,-0.101600,
0.000000,-0.101600,
0.000000,0.304800,
0.203200,0.304800,
0.203200,-0.304800,
0.0000*
%
%ADD10R,1.574800X0.812800*%
%ADD11R,0.558800X0.355600*%
%ADD12R,0.812800X1.574800*%
%ADD13C,0.127000*%
%ADD14R,0.533400X0.609600*%
%ADD15R,1.599945X0.540000*%
%ADD16R,2.717800X0.609600*%
%ADD17R,0.750062X0.899922*%
%ADD18R,2.006600X0.863600*%
%ADD19R,0.203200X0.355600*%
%ADD20R,1.899920X0.500125*%
%ADD21R,0.899922X0.800100*%
%ADD22R,0.711200X0.889000*%
%ADD23R,0.330200X0.685800*%
%ADD24A1gbp_lev.gbr*%
%ADD25R,1.899920X0.599947*%
%ADD26R,0.609600X0.508000*%
%ADD27R,0.508000X0.304800*%
%ADD28A2gbp_lev.gbr*%
%ADD29R,0.910082X1.530095*%
%ADD30R,2.413000X1.905000*%
%ADD31R,0.508000X0.609600*%
%ADD32R,0.304800X0.508000*%
%ADD33R,0.499872X0.203200*%
%ADD34C,0.254000*%
%ADD35R,0.910082X1.329945*%
%ADD36R,0.450087X1.070102*%
%ADD37R,0.406400X0.355600*%
%ADD38R,0.508000X0.406400*%
%ADD39O,0.609600X0.508000*%
%ADD40A3gbp_lev.gbr*%
%ADD41R,0.228600X0.660400*%
%ADD42A4gbp_lev.gbr*%
%ADD43R,0.549910X1.329945*%
%ADD44R,0.299975X1.070102*%
%ADD45R,0.849885X0.279907*%
%ADD46R,1.193800X0.838200*%
%ADD47R,0.330200X0.660400*%
%ADD48R,0.406400X0.508000*%
%ADD49O,0.508000X0.609600*%
%ADD50R,0.979932X0.700025*%
%ADD51R,0.299975X1.150112*%
%ADD52R,0.863600X0.990600*%
%ADD53O,0.279400X0.914400*%
%ADD54A5gbp_lev.gbr*%
%ADD55R,0.838200X0.838200*%
%ADD56R,0.660400X0.228600*%
%ADD57C,0.355600*%
%ADD58R,5.486400X1.397000*%
%ADD59A6gbp_lev.gbr*%
%ADD60R,1.169925X0.540000*%
%ADD61R,0.990600X0.863600*%
%ADD62R,0.457200X0.304800*%
%ADD63R,0.660400X0.330200*%
%ADD64O,0.914400X0.279400*%
%ADD65R,0.508000X0.812800*%
%ADD66C,0.279400*%
%ADD67R,0.889000X2.540000*%
%ADD68R,1.600200X1.803400*%
%ADD69O,0.889000X1.422400*%
%ADD70R,0.812800X1.117600*%
%ADD71R,0.609600X1.016000*%
%ADD72O,0.609600X1.016000*%
%ADD73R,0.203200X0.499872*%
%ADD74R,0.304800X0.304800*%
%ADD75R,0.685800X0.228600*%
%ADD76A7gbp_lev.gbr*%
%ADD77R,0.914400X2.209800*%
%ADD78R,0.812800X1.498600*%
%ADD79O,1.422400X0.889000*%
%ADD80O,1.016000X0.609600*%
%ADD81R,0.228600X0.685800*%
%ADD82R,1.574800X6.502400*%
%ADD83R,2.209800X0.914400*%
%ADD84C,0.203200*%
%ADD85R,1.117600X0.812800*%
%ADD86O,0.381000X0.355600*%
%ADD87A8gbp_lev.gbr*%
%ADD88R,2.794000X1.397000*%
%ADD89R,1.498600X0.812800*%
%ADD90R,1.193800X1.803400*%
%ADD91O,0.355600X0.381000*%
%ADD92R,0.304800X0.812800*%
%ADD93R,0.965200X3.403600*%
%ADD94R,1.803400X1.193800*%
%ADD95R,1.270000X1.219200*%
%ADD96R,0.812800X0.304800*%
%ADD97R,1.600200X1.600200*%
%ADD98R,0.299975X0.854710*%
%ADD99R,0.279907X0.849885*%
%ADD100R,0.711200X0.304800*%
%ADD101R,0.854710X0.299975*%
%ADD102R,1.041400X0.508000*%
%ADD103R,0.355600X0.558800*%
%ADD104A9gbp_lev.gbr*%
%ADD105A10gbp_lev.gbr*%
%ADD106A11gbp_lev.gbr*%
%ADD107A12gbp_lev.gbr*%
%ADD108A13gbp_lev.gbr*%
%ADD109A14gbp_lev.gbr*%
%ADD110A15gbp_lev.gbr*%
%ADD111A16gbp_lev.gbr*%
%ADD112C,1.000000*%
%IPPOS*%
%LNgbp_lev.gbr*%
%LPD*%
%SRX1Y1I0J0*%
G01*
G75*
G36*
X005637328Y009266505D02*
X005804967D01*
Y009103944D01*
X005637328D01*
Y009266505D01*
G37*
G36*
X005444287D02*
X005606848D01*
Y009103944D01*
X005444287D01*
Y009266505D01*
G37*
G36*
X005479848Y009055685D02*
X005630698D01*
Y008900745D01*
X005479848D01*
Y009055685D01*
G37*
G36*
X005656098D02*
X005804967D01*
Y008900745D01*
X005656098D01*
Y009055685D01*
G37*
G36*
X009072805Y009694215D02*
X009094268Y009715653D01*
G03X009153551Y009715653I000029642J000044018D01*
G01X009175014Y009694215D01*
G02X009072805Y009694215I-000051105J000065456D01*
G37*
G36*
X009058453Y009810776D02*
G01X009079891Y009789313D01*
G03X009079891Y009730029I000044018J-000029642D01*
G01X009058453Y009708566D01*
G02X009058453Y009810776I000065456J000051105D01*
G37*
G36*
X009175014Y009825127D02*
G01X009153551Y009803689D01*
G03X009094268Y009803689I-000029642J-000044018D01*
G01X009072805Y009825127D01*
G02X009175014Y009825127I000051105J-000065456D01*
G37*
G36*
X009189365Y009708566D02*
G01X009167928Y009730029D01*
G03X009167928Y009789313I-000044018J000029642D01*
G01X009189365Y009810776D01*
G02X009189365Y009708566I-000065456J-000051105D01*
G37*
G36*
X001035965D02*
G01X001014527Y009730029D01*
G03X001014527Y009789313I-000044018J000029642D01*
G01X001035965Y009810776D01*
G02X001035965Y009708566I-000065456J-000051105D01*
G37*
G36*
X001021614Y009825127D02*
G01X001000151Y009803689D01*
G03X000940867Y009803689I-000029642J-000044018D01*
G01X000919404Y009825127D01*
G02X001021614Y009825127I000051105J-000065456D01*
G37*
G36*
X000905054Y009810776D02*
G01X000926491Y009789313D01*
G03X000926491Y009730029I000044018J-000029642D01*
G01X000905054Y009708566D01*
G02X000905054Y009810776I000065456J000051105D01*
G37*
G36*
X000919404Y009694215D02*
G01X000940867Y009715653D01*
G03X001000151Y009715653I000029642J000044018D01*
G01X001021614Y009694215D01*
G02X000919404Y009694215I-000051105J000065456D01*
G37*
G36*
X003637205Y010338969D02*
G01X003658667Y010360406D01*
G03X003717951Y010360406I000029642J000044018D01*
G01X003739414Y010338969D01*
G02X003637205Y010338969I-000051105J000065456D01*
G37*
G36*
X003622853Y010455529D02*
G01X003644291Y010434066D01*
G03X003644291Y010374783I000044018J-000029642D01*
G01X003622853Y010353320D01*
G02X003622853Y010455529I000065456J000051105D01*
G37*
G36*
X003739414Y010469880D02*
G01X003717951Y010448443D01*
G03X003658667Y010448443I-000029642J-000044018D01*
G01X003637205Y010469880D01*
G02X003739414Y010469880I000051105J-000065456D01*
G37*
G36*
X003753765Y010353320D02*
G01X003732327Y010374783D01*
G03X003732327Y010434066I-000044018J000029642D01*
G01X003753765Y010455529D01*
G02X003753765Y010353320I-000065456J-000051105D01*
G37*
G36*
X006471565D02*
G01X006450127Y010374783D01*
G03X006450127Y010434066I-000044018J000029642D01*
G01X006471565Y010455529D01*
G02X006471565Y010353320I-000065456J-000051105D01*
G37*
G36*
X006457214Y010469880D02*
G01X006435751Y010448443D01*
G03X006376468Y010448443I-000029642J-000044018D01*
G01X006355005Y010469880D01*
G02X006457214Y010469880I000051105J-000065456D01*
G37*
G36*
X006340654Y010455529D02*
G01X006362091Y010434066D01*
G03X006362091Y010374783I000044018J-000029642D01*
G01X006340654Y010353320D01*
G02X006340654Y010455529I000065456J000051105D01*
G37*
G36*
X006355005Y010338969D02*
G01X006376468Y010360406D01*
G03X006435751Y010360406I000029642J000044018D01*
G01X006457214Y010338969D01*
G02X006355005Y010338969I-000051105J000065456D01*
G37*
G36*
X006527191Y004540022D02*
G01Y004425722D01*
X006450991D01*
Y004540022D01*
X006527191D01*
G37*
G36*
Y004405376D02*
Y004291076D01*
X006450991D01*
Y004405376D01*
X006527191D01*
G37*
G36*
X006853784Y006066105D02*
Y006268441D01*
X007047028D01*
Y006066105D01*
X006853784D01*
G37*
G36*
Y006321781D02*
Y006523304D01*
X007047028D01*
Y006321781D01*
X006853784D01*
G37*
G36*
X006602527D02*
Y006523304D01*
X006800444D01*
Y006321781D01*
X006602527D01*
G37*
G36*
Y006066105D02*
Y006268441D01*
X006800444D01*
Y006066105D01*
X006602527D01*
G37*
G36*
X001299439Y006140171D02*
X001207999D01*
Y006277331D01*
X001299439D01*
Y006140171D01*
G37*
G36*
X001416127Y006140120D02*
X001324687D01*
Y006277280D01*
X001416127D01*
Y006140120D01*
G37*
G36*
X001416076Y005977484D02*
X001324636D01*
Y006114644D01*
X001416076D01*
Y005977484D01*
G37*
G36*
X001299439Y005977408D02*
X001207999D01*
Y006114568D01*
X001299439D01*
Y005977408D01*
G37*
G36*
X006585611Y004293616D02*
Y004400296D01*
X006697371D01*
Y004293616D01*
X006585611D01*
G37*
G36*
X006585535Y004430802D02*
Y004537482D01*
X006697295D01*
Y004430802D01*
X006585535D01*
G37*
G36*
X004948861Y007427672D02*
X005093869D01*
Y007282663D01*
X004948861D01*
Y007427672D01*
G37*
G36*
Y007587666D02*
X005093869D01*
Y007442658D01*
X004948861D01*
Y007587666D01*
G37*
G36*
X004788866D02*
X004933875D01*
Y007442658D01*
X004788866D01*
Y007587666D01*
G37*
G36*
Y007427672D02*
X004933875D01*
Y007282663D01*
X004788866D01*
Y007427672D01*
G37*
G54D10*
X005462499Y001834871D03*
G54D11*
X007911059Y001106932D03*
Y001171931D03*
Y001236930D03*
X008099019D03*
Y001171931D03*
Y001106932D03*
X006221959Y000985012D03*
Y001050011D03*
Y001115010D03*
X006409919D03*
Y001050011D03*
Y000985012D03*
G54D12*
X008005039Y001171931D03*
X006315939Y001050011D03*
G54D13*
X000799999Y000599999D02*
Y010600005D01*
X009300008D01*
Y000599999D01*
X000799999D01*
G54D14*
X006198718Y010494417D03*
X006278144D03*
Y010314432D03*
X006198718D03*
Y010404425D03*
X001177900Y009669679D03*
X001098475D03*
Y009849663D03*
X001177900D03*
Y009759671D03*
X003895700Y010314432D03*
X003816275D03*
Y010494417D03*
X003895700D03*
Y010404425D03*
X008916518Y009849663D03*
X008995944D03*
Y009669679D03*
X008916518D03*
Y009759671D03*
G54D15*
X008625790Y006909258D03*
G54D16*
X009097773Y008429244D03*
G54D17*
X008743290Y007092239D03*
G54D18*
X009122792Y006884238D03*
G54D19*
X007927849Y009123579D03*
X007857846D03*
Y009038590D03*
X007892847D03*
X007927849D03*
G54D20*
X008367802Y008429244D03*
G54D21*
X008640776Y007606259D03*
Y007352259D03*
Y007098259D03*
X008725790Y007733259D03*
Y007479259D03*
Y007225259D03*
G54D22*
X005481321Y001355827D03*
X005611318D03*
X005546319Y001165835D03*
X008064501Y000924027D03*
X008194498D03*
X008129499Y000734035D03*
X008359141Y000926567D03*
X008489138D03*
X008424139Y000736575D03*
X008676641Y000929107D03*
X008806638D03*
X008741639Y000739115D03*
X006906261Y001089127D03*
X007036258D03*
X006971259Y000899135D03*
G54D23*
X003650209Y008115757D03*
G54D24*
X006381116Y001388644D03*
X008314056Y001431824D03*
X001552576Y007825004D03*
G54D25*
X007770775Y008424241D03*
G54D26*
X001228218Y007069811D03*
X001340181D03*
X001228218Y007450811D03*
X001340181D03*
X001228218Y006942811D03*
X001340181D03*
X001228218Y007196811D03*
X001340181D03*
X001228218Y007323811D03*
X001340181D03*
X002975738Y001362431D03*
X003087701D03*
G54D27*
X003211170Y006694348D03*
Y006794373D03*
X002952192D03*
Y006694348D03*
X003211170Y006744361D03*
X002952192D03*
G54D28*
X004267886Y007024955D03*
G54D29*
X007653275Y008122743D03*
G54D30*
X001230859Y003434588D03*
Y003024073D03*
G54D31*
X001550899Y000920369D03*
Y001032332D03*
X001835379Y000981329D03*
Y001093293D03*
X000930707Y002154606D03*
Y002042643D03*
X001012419Y000973709D03*
Y001085673D03*
X001141959Y000973709D03*
Y001085673D03*
X001345159Y000981329D03*
Y001093293D03*
X001682979Y000978789D03*
Y001090753D03*
G54D32*
X002981681Y006873850D03*
X003031669D03*
X003181681D03*
X003131694D03*
X002981681Y006614872D03*
X003031669D03*
X003181681D03*
X003131694D03*
X003081681Y006873850D03*
Y006614872D03*
G54D33*
X004267886Y006965265D03*
Y006915277D03*
X004167912D03*
Y006965265D03*
G54D34*
X001789812Y001926463D03*
X001739799D03*
X001689812D03*
X001639799D03*
X001589787D03*
X001539799D03*
X001489787D03*
X001789812Y001876451D03*
X001739799D03*
X001689812D03*
X001639799D03*
X001589787D03*
X001539799D03*
X001489787D03*
X001789812Y001826463D03*
X001739799D03*
X001689812D03*
X001639799D03*
X001589787D03*
X001539799D03*
X001489787D03*
X001789812Y001776451D03*
X001739799D03*
X001689812D03*
X001639799D03*
X001589787D03*
X001539799D03*
X001489787D03*
X001789812Y001726438D03*
X001739799D03*
X001689812D03*
X001639799D03*
X001589787D03*
X001539799D03*
X001489787D03*
X001789812Y001676451D03*
X001739799D03*
X001689812D03*
X001639799D03*
X001589787D03*
X001539799D03*
X001489787D03*
X001789812Y001626438D03*
X001739799D03*
X001689812D03*
X001639799D03*
X001589787D03*
X001539799D03*
X001489787D03*
G54D35*
X007653275Y007659243D03*
G54D36*
X002897531Y001964944D03*
X003209951D03*
X003522371D03*
X004683151Y001609344D03*
X004210711Y001614424D03*
X003834791Y001964944D03*
X003761080Y001026211D03*
X003382620Y001028751D03*
G54D37*
X003091536Y000722351D03*
X002946502D03*
G54D38*
X008176312Y009163863D03*
Y009033866D03*
X008366303D03*
Y009098865D03*
Y009163863D03*
X002697430Y005820334D03*
Y005950331D03*
X002507438D03*
Y005885333D03*
Y005820334D03*
G54D39*
X006978041Y004558183D03*
Y004653890D03*
X007445401Y001337463D03*
Y001433170D03*
X002724379Y009610217D03*
Y009705924D03*
X001154228Y008168818D03*
Y008073111D03*
X007019087Y004056558D03*
Y003960851D03*
X006925108D03*
Y004056558D03*
X006105119Y001141857D03*
Y001237564D03*
X001733754Y009944659D03*
Y010040366D03*
X002891181Y009899803D03*
Y009995510D03*
X004725468Y007076618D03*
Y006980911D03*
X004453688Y007810678D03*
Y007714971D03*
X006076748Y009216111D03*
Y009311818D03*
X006295187Y002593518D03*
Y002497811D03*
X001149148Y001595298D03*
Y001499591D03*
X001319759Y001334085D03*
Y001238377D03*
X008096479Y003333064D03*
Y003237357D03*
X003062199Y008281797D03*
Y008377504D03*
X008233207Y006678651D03*
Y006774358D03*
X008471968Y006130011D03*
Y006225718D03*
X008162087Y006538138D03*
Y006442431D03*
X002980919Y008377504D03*
Y008281797D03*
X001241019Y001334085D03*
Y001238377D03*
X004136619Y002490597D03*
Y002586305D03*
X004057879Y002490597D03*
Y002586305D03*
X004215359Y002490597D03*
Y002586305D03*
X005602199Y002858897D03*
Y002954605D03*
X005520919Y002858897D03*
Y002954605D03*
X005442179Y002858897D03*
Y002954605D03*
X001276579Y003975685D03*
Y003879977D03*
X003979139Y002490597D03*
Y002586305D03*
X004443959Y005078045D03*
Y004982337D03*
X004522699Y005078045D03*
Y004982337D03*
X001114019Y003975685D03*
Y003879977D03*
X001197839Y003975685D03*
Y003879977D03*
X004200119Y005078045D03*
Y004982337D03*
X003819119Y002490597D03*
Y002586305D03*
X004294099Y002490597D03*
Y002586305D03*
X003900399Y002490597D03*
Y002586305D03*
X002074139Y007729804D03*
Y007634097D03*
X004225088Y008661578D03*
Y008565871D03*
X003316199Y008032065D03*
Y007936357D03*
X004283939Y005078045D03*
Y004982337D03*
X004365219Y005078045D03*
Y004982337D03*
X004570528Y001024611D03*
Y001120318D03*
X003316199Y006503797D03*
Y006599505D03*
X000994614Y006271006D03*
Y006175299D03*
X004878299Y006635064D03*
Y006539357D03*
X004087927Y007727671D03*
Y007823378D03*
X009170468Y009424391D03*
Y009520098D03*
X005352847Y008486318D03*
Y008390611D03*
X005225848Y009081491D03*
Y009177198D03*
X007770927Y005631358D03*
Y005535651D03*
X007555053Y005632171D03*
Y005536464D03*
X007461073Y005632171D03*
Y005536464D03*
X007666813Y005632171D03*
Y005536464D03*
X006401868Y005430698D03*
Y005334991D03*
X006508548Y005430698D03*
Y005334991D03*
X006135168Y005487391D03*
Y005583098D03*
X006023408Y005487391D03*
Y005583098D03*
X005723687Y007519391D03*
Y007615098D03*
X005789728Y007361098D03*
Y007265391D03*
X006076748Y009494698D03*
Y009398991D03*
X005992928Y009494698D03*
Y009398991D03*
X001956868Y000919658D03*
Y000823951D03*
G54D40*
X004267886Y006855587D03*
G54D41*
X001755065Y006072759D03*
X001795044D03*
X001835075D03*
X001875054D03*
Y006156782D03*
X001835075D03*
X001795044D03*
G54D42*
X004167912Y006855587D03*
G54D43*
X007635292Y007082740D03*
G54D44*
X002905024Y001841957D03*
X002955037Y001964944D03*
Y001841957D03*
X003055011Y001964944D03*
Y001841957D03*
X003105024Y001964944D03*
Y001841957D03*
X003217444D03*
X003267457Y001964944D03*
Y001841957D03*
X003367431Y001964944D03*
Y001841957D03*
X003417444Y001964944D03*
Y001841957D03*
X003529864D03*
X003579877Y001964944D03*
Y001841957D03*
X003679851Y001964944D03*
Y001841957D03*
X003729864Y001964944D03*
Y001841957D03*
X004690644Y001486357D03*
X004740657Y001609344D03*
Y001486357D03*
X004840631Y001609344D03*
Y001486357D03*
X004890644Y001609344D03*
Y001486357D03*
X004218204Y001491437D03*
X004268217Y001614424D03*
Y001491437D03*
X004368191Y001614424D03*
Y001491437D03*
X004418204Y001614424D03*
Y001491437D03*
X003842284Y001841957D03*
X003892297Y001964944D03*
Y001841957D03*
X003992271Y001964944D03*
Y001841957D03*
X004042284Y001964944D03*
Y001841957D03*
X003753587Y001149198D03*
X003703575Y001026211D03*
Y001149198D03*
X003603600Y001026211D03*
Y001149198D03*
X003553588Y001026211D03*
Y001149198D03*
X003375127Y001151738D03*
X003325115Y001028751D03*
Y001151738D03*
X003225140Y001028751D03*
Y001151738D03*
X003175128Y001028751D03*
Y001151738D03*
G54D45*
X006377941Y004290543D03*
Y004340530D03*
Y004390543D03*
Y004440530D03*
Y004490543D03*
Y004540530D03*
X006772962D03*
Y004490543D03*
Y004440530D03*
Y004390543D03*
Y004340530D03*
Y004290543D03*
G54D46*
X008893354Y009267927D03*
G54D47*
X001749984Y006156782D03*
G54D48*
X001778458Y007103847D03*
X001648461D03*
Y006913855D03*
X001713459D03*
X001778458D03*
G54D49*
X008007986Y008540471D03*
X008103693D03*
X006902654Y004244925D03*
X006998361D03*
X007801433Y001293851D03*
X007705726D03*
X003174366Y000722351D03*
X003270073D03*
X002552066Y001034771D03*
X002647773D03*
X001144906Y007631151D03*
X001240613D03*
X004197554Y008471485D03*
X004293261D03*
X004197554Y008369885D03*
X004293261D03*
X004197554Y008268285D03*
X004293261D03*
X004582821Y007193864D03*
X004487114D03*
X004562501Y007549465D03*
X004466794D03*
X005350714Y006830645D03*
X005446421D03*
X004479494Y007351344D03*
X004575201D03*
X005381194Y007920305D03*
X005476901D03*
X005505654Y009568765D03*
X005601361D03*
X006256681Y009312225D03*
X006160974D03*
X006256681Y009223325D03*
X006160974D03*
X001988186Y001514831D03*
X002083893D03*
X001927226Y002162531D03*
X002022933D03*
X001225754Y002052905D03*
X001321461D03*
X001721486Y002617191D03*
X001817193D03*
X007956373Y003102331D03*
X007860666D03*
X002798420Y001465733D03*
X002894127D03*
X002256613Y008596351D03*
X002160906D03*
X001619073Y008184871D03*
X001523366D03*
X004601414Y001229944D03*
X004697121D03*
X008053274Y006294705D03*
X008148981D03*
X002374266Y008380451D03*
X002469973D03*
X006205475Y004484116D03*
X006109767D03*
X007972426Y002215871D03*
X008068133D03*
X004237813Y003175991D03*
X004142106D03*
X002995753Y007788631D03*
X002900046D03*
X002582114Y006541084D03*
X002677821D03*
X008200213Y003056611D03*
X008104506D03*
X004586606Y006500851D03*
X004682313D03*
X003836493Y007052031D03*
X003740786D03*
X008297546Y006549111D03*
X008393253D03*
X008053274Y006195644D03*
X008148981D03*
X006595314Y004752925D03*
X006691021D03*
X004296614Y007216724D03*
X004392321D03*
X006241441Y002926664D03*
X006145734D03*
X006656274Y007425004D03*
X006751981D03*
X006656274Y007546924D03*
X006751981D03*
X007212534Y007353884D03*
X007308241D03*
X007212534Y007264985D03*
X007308241D03*
X006509208Y007420331D03*
X006413501D03*
X006508141Y007546924D03*
X006412434D03*
X007574941Y006279465D03*
X007479234D03*
X007090614Y006864503D03*
X006994907D03*
X006472581Y006850126D03*
X006568288D03*
X005569154Y007920305D03*
X005664861D03*
X005546294Y006830645D03*
X005642001D03*
X005212741Y007902525D03*
X005117034D03*
X005212741Y007806005D03*
X005117034D03*
X006487821Y004752925D03*
X006392114D03*
X006998361Y004158565D03*
X006902654D03*
G54D50*
X007656780Y007214261D03*
G54D51*
X003005024Y001960957D03*
Y001845945D03*
X003317444Y001960957D03*
Y001845945D03*
X003629864Y001960957D03*
Y001845945D03*
X004790644Y001605357D03*
Y001490345D03*
X004318204Y001610437D03*
Y001495425D03*
X003942284Y001960957D03*
Y001845945D03*
X003653587Y001030199D03*
Y001145210D03*
X003275128Y001032739D03*
Y001147750D03*
G54D52*
X006834937Y003767405D03*
X007000037D03*
X005844338Y006589345D03*
X005679238D03*
X006103418Y007069405D03*
X006268517D03*
G54D53*
X007152107Y005902884D03*
X007102120D03*
X007052108D03*
X007002120D03*
X006952108D03*
X006902120D03*
X006852108D03*
X006802121D03*
X006752108D03*
X006702121D03*
X006652108D03*
X006602121D03*
X006552109D03*
X006502121D03*
Y006687338D03*
X006552109D03*
X006602121D03*
X006652108D03*
X006702121D03*
X006752108D03*
X006802121D03*
X006852108D03*
X006902120D03*
X006952108D03*
X007002120D03*
X007052108D03*
X007102120D03*
X007152107D03*
G54D54*
X004167912Y007024955D03*
G54D55*
X008912657Y009478442D03*
X008720989D03*
Y009267927D03*
G54D56*
X001483488Y008445526D03*
Y008405546D03*
Y008365516D03*
Y008325536D03*
X001567511D03*
Y008365516D03*
Y008405546D03*
G54D57*
X003656737Y004793006D03*
X003543605D03*
X003430474D03*
X003317317D03*
X003204185D03*
X003091054D03*
X002977897D03*
X002864765D03*
X002751634D03*
X002638502D03*
X002525345D03*
X002412213D03*
X002299082D03*
X002185925D03*
X002072793D03*
X001959661D03*
X003713328Y004736440D03*
X003600171D03*
X003487040D03*
X003373908D03*
X003260751D03*
X003147620D03*
X003034488D03*
X002921331D03*
X002808199D03*
X002695068D03*
X002581911D03*
X002468779D03*
X002355648D03*
X002242491D03*
X002129359D03*
X002016227D03*
X001903070D03*
X003769894Y004679849D03*
X003656737D03*
X003543605D03*
X003430474D03*
X003317317D03*
X003204185D03*
X003091054D03*
X002977897D03*
X002864765D03*
X002751634D03*
X002638502D03*
X002525345D03*
X002412213D03*
X002299082D03*
X002185925D03*
X002072793D03*
X001959661D03*
X001846505D03*
X003713328Y004623283D03*
X003600171D03*
X003487040D03*
X003373908D03*
X003260751D03*
X003147620D03*
X003034488D03*
X002921331D03*
X002808199D03*
X002695068D03*
X002581911D03*
X002468779D03*
X002355648D03*
X002242491D03*
X002129359D03*
X002016227D03*
X001903070D03*
X003769894Y004566717D03*
X003656737D03*
X003543605D03*
X003430474D03*
X003317317D03*
X003204185D03*
X003091054D03*
X002977897D03*
X002864765D03*
X002751634D03*
X002638502D03*
X002525345D03*
X002412213D03*
X002299082D03*
X002185925D03*
X002072793D03*
X001959661D03*
X001846505D03*
X003713328Y004510151D03*
X003600171D03*
X003487040D03*
X003373908D03*
X003260751D03*
X003147620D03*
X003034488D03*
X002921331D03*
X002808199D03*
X002695068D03*
X002581911D03*
X002468779D03*
X002355648D03*
X002242491D03*
X002129359D03*
X002016227D03*
X001903070D03*
X003769894Y004453586D03*
X003656737D03*
X003543605D03*
X003430474D03*
X003317317D03*
X003204185D03*
X003091054D03*
X002977897D03*
X002864765D03*
X002751634D03*
X002638502D03*
X002525345D03*
X002412213D03*
X002299082D03*
X002185925D03*
X002072793D03*
X001959661D03*
X001846505D03*
X003713328Y004397020D03*
X003600171D03*
X003487040D03*
X003373908D03*
X003260751D03*
X003147620D03*
X003034488D03*
X002921331D03*
X002808199D03*
X002695068D03*
X002581911D03*
X002468779D03*
X002355648D03*
X002242491D03*
X002129359D03*
X002016227D03*
X001903070D03*
X003769894Y004340429D03*
X003656737D03*
X003543605D03*
X003430474D03*
X003317317D03*
X003204185D03*
X003091054D03*
X002977897D03*
X002864765D03*
X002751634D03*
X002638502D03*
X002525345D03*
X002412213D03*
X002299082D03*
X002185925D03*
X002072793D03*
X001959661D03*
X001846505D03*
X003713328Y004283863D03*
X003600171D03*
X003487040D03*
X003373908D03*
X003260751D03*
X003147620D03*
X003034488D03*
X002921331D03*
X002808199D03*
X002695068D03*
X002581911D03*
X002468779D03*
X002355648D03*
X002242491D03*
X002129359D03*
X002016227D03*
X001903070D03*
X003769894Y004227297D03*
X003656737D03*
X003543605D03*
X003430474D03*
X003317317D03*
X003204185D03*
X003091054D03*
X002977897D03*
X002864765D03*
X002751634D03*
X002638502D03*
X002525345D03*
X002412213D03*
X002299082D03*
X002185925D03*
X002072793D03*
X001959661D03*
X001846505D03*
X003713328Y004170731D03*
X003600171D03*
X003487040D03*
X003373908D03*
X003260751D03*
X003147620D03*
X003034488D03*
X002921331D03*
X002808199D03*
X002695068D03*
X002581911D03*
X002468779D03*
X002355648D03*
X002242491D03*
X002129359D03*
X002016227D03*
X001903070D03*
X003769894Y004114165D03*
X003656737D03*
X003543605D03*
X003430474D03*
X003317317D03*
X003204185D03*
X003091054D03*
X002977897D03*
X002864765D03*
X002751634D03*
X002638502D03*
X002525345D03*
X002412213D03*
X002299082D03*
X002185925D03*
X002072793D03*
X001959661D03*
X001846505D03*
X003713328Y004057600D03*
X003600171D03*
X003487040D03*
X003373908D03*
X003260751D03*
X003147620D03*
X003034488D03*
X002921331D03*
X002808199D03*
X002695068D03*
X002581911D03*
X002468779D03*
X002355648D03*
X002242491D03*
X002129359D03*
X002016227D03*
X001903070D03*
X003769894Y004001008D03*
X003656737D03*
X003543605D03*
X003430474D03*
X003317317D03*
X003204185D03*
X003091054D03*
X002977897D03*
X002864765D03*
X002751634D03*
X002638502D03*
X002525345D03*
X002412213D03*
X002299082D03*
X002185925D03*
X002072793D03*
X001959661D03*
X001846505D03*
X003713328Y003944442D03*
X003600171D03*
X003487040D03*
X003373908D03*
X003260751D03*
X003147620D03*
X003034488D03*
X002921331D03*
X002808199D03*
X002695068D03*
X002581911D03*
X002468779D03*
X002355648D03*
X002242491D03*
X002129359D03*
X002016227D03*
X001903070D03*
X003769894Y003887877D03*
X003656737D03*
X003543605D03*
X003430474D03*
X003317317D03*
X003204185D03*
X003091054D03*
X002977897D03*
X002864765D03*
X002751634D03*
X002638502D03*
X002525345D03*
X002412213D03*
X002299082D03*
X002185925D03*
X002072793D03*
X001959661D03*
X001846505D03*
X003713328Y003831311D03*
X003600171D03*
X003487040D03*
X003373908D03*
X003260751D03*
X003147620D03*
X003034488D03*
X002921331D03*
X002808199D03*
X002695068D03*
X002581911D03*
X002468779D03*
X002355648D03*
X002242491D03*
X002129359D03*
X002016227D03*
X001903070D03*
X003769894Y003774745D03*
X003656737D03*
X003543605D03*
X003430474D03*
X003317317D03*
X003204185D03*
X003091054D03*
X002977897D03*
X002864765D03*
X002751634D03*
X002638502D03*
X002525345D03*
X002412213D03*
X002299082D03*
X002185925D03*
X002072793D03*
X001959661D03*
X001846505D03*
X003713328Y003718179D03*
X003600171D03*
X003487040D03*
X003373908D03*
X003260751D03*
X003147620D03*
X003034488D03*
X002921331D03*
X002808199D03*
X002695068D03*
X002581911D03*
X002468779D03*
X002355648D03*
X002242491D03*
X002129359D03*
X002016227D03*
X001903070D03*
X003769894Y003661613D03*
X003656737D03*
X003543605D03*
X003430474D03*
X003317317D03*
X003204185D03*
X003091054D03*
X002977897D03*
X002864765D03*
X002751634D03*
X002638502D03*
X002525345D03*
X002412213D03*
X002299082D03*
X002185925D03*
X002072793D03*
X001959661D03*
X001846505D03*
X003713328Y003605022D03*
X003600171D03*
X003487040D03*
X003373908D03*
X003260751D03*
X003147620D03*
X003034488D03*
X002921331D03*
X002808199D03*
X002695068D03*
X002581911D03*
X002468779D03*
X002355648D03*
X002242491D03*
X002129359D03*
X002016227D03*
X001903070D03*
X003769894Y003548456D03*
X003656737D03*
X003543605D03*
X003430474D03*
X003317317D03*
X003204185D03*
X003091054D03*
X002977897D03*
X002864765D03*
X002751634D03*
X002638502D03*
X002525345D03*
X002412213D03*
X002299082D03*
X002185925D03*
X002072793D03*
X001959661D03*
X001846505D03*
X003713328Y003491891D03*
X003600171D03*
X003487040D03*
X003373908D03*
X003260751D03*
X003147620D03*
X003034488D03*
X002921331D03*
X002808199D03*
X002695068D03*
X002581911D03*
X002468779D03*
X002355648D03*
X002242491D03*
X002129359D03*
X002016227D03*
X001903070D03*
X003769894Y003435325D03*
X003656737D03*
X003543605D03*
X003430474D03*
X003317317D03*
X003204185D03*
X003091054D03*
X002977897D03*
X002864765D03*
X002751634D03*
X002638502D03*
X002525345D03*
X002412213D03*
X002299082D03*
X002185925D03*
X002072793D03*
X001959661D03*
X001846505D03*
X003713328Y003378759D03*
X003600171D03*
X003487040D03*
X003373908D03*
X003260751D03*
X003147620D03*
X003034488D03*
X002921331D03*
X002808199D03*
X002695068D03*
X002581911D03*
X002468779D03*
X002355648D03*
X002242491D03*
X002129359D03*
X002016227D03*
X001903070D03*
X003769894Y003322193D03*
X003656737D03*
X003543605D03*
X003430474D03*
X003317317D03*
X003204185D03*
X003091054D03*
X002977897D03*
X002864765D03*
X002751634D03*
X002638502D03*
X002525345D03*
X002412213D03*
X002299082D03*
X002185925D03*
X002072793D03*
X001959661D03*
X001846505D03*
X003713328Y003265602D03*
X003600171D03*
X003487040D03*
X003373908D03*
X003260751D03*
X003147620D03*
X003034488D03*
X002921331D03*
X002808199D03*
X002695068D03*
X002581911D03*
X002468779D03*
X002355648D03*
X002242491D03*
X002129359D03*
X002016227D03*
X001903070D03*
X003769894Y003209036D03*
X003656737D03*
X003543605D03*
X003430474D03*
X003317317D03*
X003204185D03*
X003091054D03*
X002977897D03*
X002864765D03*
X002751634D03*
X002638502D03*
X002525345D03*
X002412213D03*
X002299082D03*
X002185925D03*
X002072793D03*
X001959661D03*
X001846505D03*
X003713328Y003152471D03*
X003600171D03*
X003487040D03*
X003373908D03*
X003260751D03*
X003147620D03*
X003034488D03*
X002921331D03*
X002808199D03*
X002695068D03*
X002581911D03*
X002468779D03*
X002355648D03*
X002242491D03*
X002129359D03*
X002016227D03*
X001903070D03*
X003769894Y003095905D03*
X003656737D03*
X003543605D03*
X003430474D03*
X003317317D03*
X003204185D03*
X003091054D03*
X002977897D03*
X002864765D03*
X002751634D03*
X002638502D03*
X002525345D03*
X002412213D03*
X002299082D03*
X002185925D03*
X002072793D03*
X001959661D03*
X001846505D03*
X003713328Y003039339D03*
X003600171D03*
X003487040D03*
X003373908D03*
X003260751D03*
X003147620D03*
X003034488D03*
X002921331D03*
X002808199D03*
X002695068D03*
X002581911D03*
X002468779D03*
X002355648D03*
X002242491D03*
X002129359D03*
X002016227D03*
X001903070D03*
X003769894Y002982773D03*
X003656737D03*
X003543605D03*
X003430474D03*
X003317317D03*
X003204185D03*
X003091054D03*
X002977897D03*
X002864765D03*
X002751634D03*
X002638502D03*
X002525345D03*
X002412213D03*
X002299082D03*
X002185925D03*
X002072793D03*
X001959661D03*
X001846505D03*
X003713328Y002926182D03*
X003600171D03*
X003487040D03*
X003373908D03*
X003260751D03*
X003147620D03*
X003034488D03*
X002921331D03*
X002808199D03*
X002695068D03*
X002581911D03*
X002468779D03*
X002355648D03*
X002242491D03*
X002129359D03*
X002016227D03*
X001903070D03*
X003656737Y002869616D03*
X003543605D03*
X003430474D03*
X003317317D03*
X003204185D03*
X003091054D03*
X002977897D03*
X002864765D03*
X002751634D03*
X002638502D03*
X002525345D03*
X002412213D03*
X002299082D03*
X002185925D03*
X002072793D03*
X001959661D03*
G54D58*
X006330748Y008394015D03*
Y008797874D03*
G54D59*
X006381116Y001488618D03*
X008314056Y001531798D03*
X001552576Y007924978D03*
G54D60*
X007817282Y006909258D03*
G54D61*
X006805727Y008820734D03*
Y008655635D03*
X006008168Y006608395D03*
Y006773495D03*
X006960668Y007357694D03*
Y007192595D03*
G54D62*
X008392567Y006326378D03*
Y006376391D03*
Y006426403D03*
X008257591D03*
Y006376391D03*
Y006326378D03*
G54D63*
X001567511Y008450606D03*
G54D64*
X006434887Y005970118D03*
Y006020105D03*
Y006070118D03*
Y006120105D03*
Y006170118D03*
Y006220105D03*
Y006270117D03*
Y006320105D03*
Y006370117D03*
Y006420104D03*
Y006470117D03*
Y006520104D03*
Y006570117D03*
Y006620104D03*
X007219341D03*
Y006570117D03*
Y006520104D03*
Y006470117D03*
Y006420104D03*
Y006370117D03*
Y006320105D03*
Y006270117D03*
Y006220105D03*
Y006170118D03*
Y006120105D03*
Y006070118D03*
Y006020105D03*
Y005970118D03*
G54D65*
X003004389Y001042416D03*
X002924404D03*
X002844394D03*
X002764410D03*
Y001205942D03*
X002844394D03*
X002924404D03*
X003004389D03*
G54D66*
X004655922Y003145130D03*
X004735932D03*
X004815917D03*
X004895927D03*
X004975937D03*
X005215916D03*
X005295926D03*
X005375936D03*
X005455921D03*
X005535931D03*
X004655922Y003210128D03*
X004735932D03*
X004815917D03*
X004895927D03*
X004975937D03*
X005215916D03*
X005295926D03*
X005375936D03*
X005455921D03*
X005535931D03*
X004655922Y003275127D03*
X004735932D03*
X004815917D03*
X004895927D03*
X004975937D03*
X005215916D03*
X005295926D03*
X005375936D03*
X005455921D03*
X005535931D03*
X004655922Y003340126D03*
X004735932D03*
X004815917D03*
X004895927D03*
X004975937D03*
X005215916D03*
X005295926D03*
X005375936D03*
X005455921D03*
X005535931D03*
X004655922Y003405124D03*
X004735932D03*
X004815917D03*
X004895927D03*
X004975937D03*
X005215916D03*
X005295926D03*
X005375936D03*
X005455921D03*
X005535931D03*
X004655922Y003470123D03*
X004735932D03*
X004815917D03*
X004895927D03*
X004975937D03*
X005215916D03*
X005295926D03*
X005375936D03*
X005455921D03*
X005535931D03*
X004655922Y003535121D03*
X004735932D03*
X004815917D03*
X004895927D03*
X004975937D03*
X005215916D03*
X005295926D03*
X005375936D03*
X005455921D03*
X005535931D03*
X004655922Y003600120D03*
X004735932D03*
X004815917D03*
X004895927D03*
X004975937D03*
X005215916D03*
X005295926D03*
X005375936D03*
X005455921D03*
X005535931D03*
X004655922Y003665119D03*
X004735932D03*
X004815917D03*
X004895927D03*
X004975937D03*
X005215916D03*
X005295926D03*
X005375936D03*
X005455921D03*
X005535931D03*
X004655922Y003730117D03*
X004735932D03*
X004815917D03*
X004895927D03*
X004975937D03*
X005215916D03*
X005295926D03*
X005375936D03*
X005455921D03*
X005535931D03*
X004655922Y003925138D03*
X004735932D03*
X004815917D03*
X004895927D03*
X004975937D03*
X005215916D03*
X005295926D03*
X005375936D03*
X005455921D03*
X005535931D03*
X004655922Y003990137D03*
X004735932D03*
X004815917D03*
X004895927D03*
X004975937D03*
X005215916D03*
X005295926D03*
X005375936D03*
X005455921D03*
X005535931D03*
X004655922Y004055136D03*
X004735932D03*
X004815917D03*
X004895927D03*
X004975937D03*
X005215916D03*
X005295926D03*
X005375936D03*
X005455921D03*
X005535931D03*
X004655922Y004120134D03*
X004735932D03*
X004815917D03*
X004895927D03*
X004975937D03*
X005215916D03*
X005295926D03*
X005375936D03*
X005455921D03*
X005535931D03*
X004655922Y004185133D03*
X004735932D03*
X004815917D03*
X004895927D03*
X004975937D03*
X005215916D03*
X005295926D03*
X005375936D03*
X005455921D03*
X005535931D03*
X004655922Y004250132D03*
X004735932D03*
X004815917D03*
X004895927D03*
X004975937D03*
X005215916D03*
X005295926D03*
X005375936D03*
X005455921D03*
X005535931D03*
X004655922Y004315130D03*
X004735932D03*
X004815917D03*
X004895927D03*
X004975937D03*
X005215916D03*
X005295926D03*
X005375936D03*
X005455921D03*
X005535931D03*
X004655922Y004380129D03*
X004735932D03*
X004815917D03*
X004895927D03*
X004975937D03*
X005215916D03*
X005295926D03*
X005375936D03*
X005455921D03*
X005535931D03*
X004655922Y004445127D03*
X004735932D03*
X004815917D03*
X004895927D03*
X004975937D03*
X005215916D03*
X005295926D03*
X005375936D03*
X005455921D03*
X005535931D03*
X004655922Y004510126D03*
X004735932D03*
X004815917D03*
X004895927D03*
X004975937D03*
X005215916D03*
X005295926D03*
X005375936D03*
X005455921D03*
X005535931D03*
G54D67*
X005595417Y007694244D03*
X005354118D03*
G54D68*
X004943908Y008232724D03*
X005223307D03*
G54D69*
X006692037Y004899406D03*
X006502045D03*
X006057545Y004338066D03*
X006247537D03*
X006883452Y004898975D03*
X007073443D03*
X006692444Y005089475D03*
X006502451D03*
X003653003Y006425921D03*
X003842995D03*
G54D70*
X005830799Y004860011D03*
X001558519Y002543506D03*
X000893039Y004443451D03*
Y003145511D03*
X005830799Y003336011D03*
G54D71*
X001490955Y008928024D03*
X001300963D03*
Y008665998D03*
X001395959D03*
X001490955D03*
G54D72*
X005324907Y005695265D03*
X005172508D03*
X005200447Y006317565D03*
X005352847D03*
X005992928Y007798385D03*
X006145328D03*
X008368259Y001110971D03*
X008215859D03*
X006676619Y000930631D03*
X006524219D03*
X006917488Y003612464D03*
X007069888D03*
X005205528Y006911924D03*
X005053128D03*
X005202988Y007038925D03*
X005050588D03*
X006290108Y009106485D03*
X006137708D03*
X006254548Y006924625D03*
X006102147D03*
X007118148Y007501205D03*
X006965748D03*
G54D73*
X006440806Y001488618D03*
X006490793D03*
Y001388644D03*
X006440806D03*
X008373746Y001531798D03*
X008423733D03*
Y001431824D03*
X008373746D03*
X001612266Y007924978D03*
X001662253D03*
Y007825004D03*
X001612266D03*
G54D74*
X007200113Y005922112D03*
Y006668110D03*
X006454115D03*
Y005922112D03*
G54D75*
X003657347Y008050251D03*
X003818332D03*
G54D76*
X006550483Y001488618D03*
X008483423Y001531798D03*
X001721943Y007924978D03*
G54D77*
X007175958Y005329911D03*
X006965951D03*
X007327697Y007081038D03*
X007117690D03*
X006258764Y005662244D03*
X006468771D03*
G54D78*
X005830799Y004700016D03*
Y005020006D03*
X001558519Y002383511D03*
Y002703500D03*
X000893039Y004603445D03*
Y004283456D03*
Y002985516D03*
Y003305505D03*
X005830799Y003176016D03*
Y003496005D03*
G54D79*
X005859578Y007702881D03*
Y007512889D03*
X005933237Y007177608D03*
Y007367601D03*
X005496358Y008371409D03*
Y008561401D03*
X005211878Y009428049D03*
Y009618041D03*
X005092498Y009178621D03*
Y008988629D03*
X006042458Y004850461D03*
Y004660469D03*
G54D80*
X005942128Y007059245D03*
Y006906845D03*
X005660619Y002086331D03*
Y001933931D03*
X007725639Y000945871D03*
Y001098271D03*
X006087339Y000788391D03*
Y000940791D03*
X006805727Y008524825D03*
Y008372425D03*
X004562908Y007866965D03*
Y007714565D03*
G54D81*
X003657829Y007984744D03*
X003697834D03*
X003737839D03*
X003777844D03*
X003817849D03*
Y008115757D03*
X003777844D03*
X003737839D03*
X003697834D03*
G54D82*
X006556807Y003731844D03*
X006104688D03*
G54D83*
X007233514Y005537327D03*
Y005747334D03*
X006709207Y005293081D03*
Y005503088D03*
X006468974Y007258634D03*
Y007048627D03*
X006750914Y007304354D03*
Y007094347D03*
G54D84*
X002116481Y000849732D03*
Y000899745D03*
Y000949757D03*
X002066494Y000849732D03*
Y000899745D03*
Y000949757D03*
G54D85*
X004880839Y002267077D03*
X003590519D03*
X004522699Y005286731D03*
X001713459D03*
G54D86*
X003008427Y005065395D03*
Y005009414D03*
X002952548Y005065395D03*
Y005009414D03*
X008692948Y009614434D03*
Y009670415D03*
X004118407Y010536555D03*
Y010480574D03*
X001441247Y009883775D03*
Y009827794D03*
X005987847Y010234194D03*
Y010290175D03*
X001306628Y001539774D03*
Y001595755D03*
X001285901Y001928826D03*
Y001984807D03*
X001341781Y001928826D03*
Y001984807D03*
X001449299Y001278560D03*
Y001334542D03*
X001238047Y001539774D03*
Y001595755D03*
X001230021Y001928826D03*
Y001984807D03*
X001390879Y001278560D03*
Y001334542D03*
X002706599Y008177200D03*
Y008233182D03*
X002536419Y007674382D03*
Y007618400D03*
X002846299Y008337322D03*
Y008281340D03*
X002904719Y008337322D03*
Y008281340D03*
X004311448Y008611235D03*
Y008555254D03*
X008325079Y006719240D03*
Y006775222D03*
X003562579Y007928280D03*
Y007984262D03*
Y008154442D03*
Y008098460D03*
X003178201Y006437326D03*
Y006493307D03*
X003315336Y006749009D03*
Y006693027D03*
X002350999Y007069760D03*
Y007125742D03*
X001339647Y008573135D03*
Y008517154D03*
X001761719Y006340882D03*
Y006284900D03*
X007074968Y004145814D03*
Y004201795D03*
X001746479Y007191680D03*
Y007247662D03*
X002799716Y005765927D03*
Y005821909D03*
X008405928Y006721374D03*
Y006777355D03*
X008598968Y009370594D03*
Y009426575D03*
X008085888Y009088654D03*
Y009144635D03*
X001997939Y002553640D03*
Y002609622D03*
X001942059Y002553640D03*
Y002609622D03*
X001886179Y002553640D03*
Y002609622D03*
X003582899Y002505380D03*
Y002561362D03*
X003694659Y002505380D03*
Y002561362D03*
X003638779Y002505380D03*
Y002561362D03*
X003750539Y002505380D03*
Y002561362D03*
X001345159Y003932962D03*
Y003876980D03*
X001456919Y003932962D03*
Y003876980D03*
X001401039Y003932962D03*
Y003876980D03*
X006762141Y004019245D03*
Y004075227D03*
X003245079Y007991882D03*
Y007935900D03*
X001459459Y000780720D03*
Y000836702D03*
X001515339Y000783260D03*
Y000839242D03*
X001136448Y008608594D03*
Y008664575D03*
X007684999Y002393722D03*
Y002337740D03*
X007738339Y003061640D03*
Y003117622D03*
X007080479Y002825522D03*
Y002769540D03*
X007898359Y003371622D03*
Y003315640D03*
X007969479Y003280182D03*
Y003224200D03*
X008024928Y009088654D03*
Y009144635D03*
X007372579Y002142160D03*
Y002198142D03*
X007613879Y002393722D03*
Y002337740D03*
X007575779Y003305582D03*
Y003249600D03*
X007519899Y003305582D03*
Y003249600D03*
X007464019Y003305582D03*
Y003249600D03*
X007408139Y003305582D03*
Y003249600D03*
X007352259Y003305582D03*
Y003249600D03*
X007794219Y003061640D03*
Y003117622D03*
X007824699Y003371622D03*
Y003315640D03*
X007646899Y003059100D03*
Y003115082D03*
X004814367Y007033794D03*
Y007089775D03*
X004834688Y007844155D03*
Y007788174D03*
X005276648Y008456295D03*
Y008400314D03*
X005985308Y009264015D03*
Y009208034D03*
X005987847Y009053094D03*
Y009109075D03*
X006815887Y006914515D03*
Y006858534D03*
X007405168Y006523355D03*
Y006467374D03*
X007328967Y006523355D03*
Y006467374D03*
X006312968Y006739255D03*
Y006683274D03*
X006155488Y006670675D03*
Y006614694D03*
X006236767Y006670675D03*
Y006614694D03*
X007334048Y006325235D03*
Y006269254D03*
X006419647Y002886075D03*
Y002830094D03*
X001360399Y009827794D03*
Y009883775D03*
X008766608Y009670415D03*
Y009614434D03*
X006064048Y010290175D03*
Y010234194D03*
X004047287Y010480574D03*
Y010536555D03*
X006848908Y004069715D03*
Y004013734D03*
X002205787Y000904875D03*
Y000848894D03*
X008471968Y006317514D03*
Y006373495D03*
X002836139Y000823900D03*
Y000879882D03*
X002892019Y000823900D03*
Y000879882D03*
X006894221Y004606087D03*
Y004550106D03*
X005286808Y001735455D03*
Y001679474D03*
X005462499Y001639342D03*
Y001583360D03*
X005299939Y001878000D03*
Y001933982D03*
X002682901Y007899603D03*
Y007843622D03*
X004974819Y002967762D03*
Y002911780D03*
X005216119Y002967762D03*
Y002911780D03*
X000898119Y006754800D03*
Y006810782D03*
X002424659Y007125742D03*
Y007069760D03*
X005507381Y000770687D03*
Y000714706D03*
X002302739Y006902120D03*
Y006958102D03*
X001225779Y000973862D03*
Y000917880D03*
X001459459Y000945922D03*
Y000889940D03*
X001543254Y003954984D03*
Y003899002D03*
X001616914Y004021023D03*
Y003965042D03*
X002660879Y001634262D03*
Y001578280D03*
X002444979Y007394880D03*
Y007450862D03*
X002389099Y007394880D03*
Y007450862D03*
X002262099Y007425360D03*
Y007481342D03*
X002185899Y007425360D03*
Y007481342D03*
X002741321Y007900467D03*
Y007844485D03*
X002624481D03*
Y007900467D03*
X006033568Y010472954D03*
Y010528935D03*
X001865859Y005886120D03*
Y005942102D03*
X008484667Y006774815D03*
Y006718834D03*
X008730539Y009881743D03*
Y009825762D03*
X002939848Y006147435D03*
Y006091454D03*
X005896407Y010472954D03*
Y010528935D03*
X004179368Y007727315D03*
Y007671334D03*
X003008021Y006488227D03*
Y006432245D03*
X002952141D03*
Y006488227D03*
X002896261Y006432245D03*
Y006488227D03*
X007872959Y003620542D03*
Y003564560D03*
X007974559Y003620542D03*
Y003564560D03*
X003801339Y005647360D03*
Y005703342D03*
X006907759Y001171880D03*
Y001227862D03*
X003445739Y005345100D03*
Y005401082D03*
X008276819Y000963600D03*
Y001019582D03*
X003140507Y005613934D03*
Y005669915D03*
X008678139Y001062660D03*
Y001118642D03*
X004763568Y007788174D03*
Y007844155D03*
X004905807Y007788174D03*
Y007844155D03*
X004976928Y007869555D03*
Y007813574D03*
X004890567Y007087235D03*
Y007031254D03*
X004961688Y007087235D03*
Y007031254D03*
X005507787Y009436634D03*
Y009492615D03*
X005647488Y009490075D03*
Y009434094D03*
X005860848Y009490075D03*
Y009434094D03*
X005789728Y009490075D03*
Y009434094D03*
X005718607Y009490075D03*
Y009434094D03*
X007509308Y006165215D03*
Y006109234D03*
X006061507Y005913755D03*
Y005857774D03*
X005919267Y006119495D03*
Y006063514D03*
X007488988Y006698514D03*
Y006754495D03*
X007575347D03*
Y006698514D03*
X005220767Y001877594D03*
Y001933575D03*
X001547928Y007150735D03*
Y007094754D03*
X001512368Y009827794D03*
Y009883775D03*
X005911648Y010290175D03*
Y010234194D03*
G54D87*
X006550483Y001388644D03*
X008483423Y001431824D03*
X001721943Y007825004D03*
G54D88*
X007502119Y001177011D03*
Y000867131D03*
X005856199Y001037311D03*
Y000727431D03*
X004944949Y001208151D03*
Y000898271D03*
X005761788Y008303845D03*
Y008613725D03*
X004834688Y009246185D03*
Y008936305D03*
G54D89*
X005040834Y002267077D03*
X004720845D03*
X003750514D03*
X003430525D03*
X004682694Y005286731D03*
X004362705D03*
X001873454D03*
X001553465D03*
G54D90*
X008119568Y008723351D03*
X007829551D03*
X004896308Y006333211D03*
X004606291D03*
X003653791Y006640551D03*
X003943808D03*
X004896308Y006081751D03*
X004606291D03*
X004303624Y009098458D03*
X004013607D03*
X003653791Y006892011D03*
X003943808D03*
G54D91*
X002043710Y001585951D03*
X001987728D03*
X002079270Y002040611D03*
X002023289D03*
X002043710Y001644371D03*
X001987728D03*
X002079270Y002096491D03*
X002023289D03*
X002815743Y001364133D03*
X002871725D03*
X002066570Y008001991D03*
X002010588D03*
X002945410Y007857211D03*
X002889429D03*
X002201089Y008459191D03*
X002257070D03*
X002424608Y008314411D03*
X002480590D03*
X002201089Y008520151D03*
X002257070D03*
X004527830Y008850351D03*
X004471849D03*
X003783610Y007120611D03*
X003727628D03*
X003783610Y007176491D03*
X003727628D03*
X004626789Y006574511D03*
X004682770D03*
X004527830Y008908771D03*
X004471849D03*
X002945309Y006234151D03*
X003001290D03*
X008220457Y002047825D03*
X008276438D03*
X008220457Y001991945D03*
X008276438D03*
X006277357Y002063065D03*
X006333338D03*
X006277357Y002007185D03*
X006333338D03*
X002650338Y006635064D03*
X002594357D03*
X001756690Y008451571D03*
X001700709D03*
X001611809Y006160491D03*
X001667790D03*
X006194146Y004557599D03*
X006138165D03*
X006960718Y004321125D03*
X006904737D03*
X003819170Y005116551D03*
X003763188D03*
X004197630Y003318231D03*
X004141648D03*
X003819170Y005060671D03*
X003763188D03*
X004197630Y003254731D03*
X004141648D03*
X003819170Y005004791D03*
X003763188D03*
X006971209Y002515591D03*
X007027190D03*
X007961808Y002614651D03*
X008017790D03*
X001423010Y009030716D03*
X001478992D03*
X007969428Y002685771D03*
X008025410D03*
X007253250Y002594331D03*
X007197269D03*
X007964349Y002383511D03*
X008020330D03*
X007964349Y002439391D03*
X008020330D03*
X007951649Y002965171D03*
X008007630D03*
X007253250Y002650211D03*
X007197269D03*
X007961808Y002558771D03*
X008017790D03*
X007969428Y002759431D03*
X008025410D03*
X007271030Y003041371D03*
X007215049D03*
X007961808Y002502891D03*
X008017790D03*
X007951649Y003021051D03*
X008007630D03*
X009089238Y009462084D03*
X009033257D03*
X006526277Y006777305D03*
X006582258D03*
X007026758Y006790004D03*
X006970777D03*
X007417918Y006078805D03*
X007361937D03*
X006163057Y005941645D03*
X006219038D03*
X006168137Y006114364D03*
X006224118D03*
X006163057Y006469964D03*
X006219038D03*
X006168137Y006028004D03*
X006224118D03*
X007260438Y006853505D03*
X007204457D03*
X007260438Y006787465D03*
X007204457D03*
X006211418Y002853004D03*
X006155437D03*
X006305398Y003147645D03*
X006249417D03*
X004331717Y007549465D03*
X004387698D03*
X004527297Y007275145D03*
X004583278D03*
X004506977Y007630745D03*
X004562958D03*
X002185849Y001781531D03*
X002241830D03*
X001040309Y001883131D03*
X001096290D03*
X002046250Y001878051D03*
X001990268D03*
X002203730Y001964411D03*
X002147749D03*
X001241070Y001842491D03*
X001185089D03*
X001241070Y001786611D03*
X001185089D03*
X001240638Y001727785D03*
X001184657D03*
X001759230Y001245591D03*
X001703248D03*
X002165630Y001725651D03*
X002109649D03*
X001042417Y009528125D03*
X001098398D03*
X001225398D03*
X001169417D03*
X001149630Y006630391D03*
X001093649D03*
X001164870Y006401791D03*
X001108889D03*
X001164870Y006457671D03*
X001108889D03*
X001149198Y006551245D03*
X001093217D03*
X007501332Y000732536D03*
X007445350D03*
X007183832Y000813816D03*
X007127850D03*
X007239712Y000747776D03*
X007183730D03*
X007593483Y000734213D03*
X007649465D03*
X005581829Y000735051D03*
X005637810D03*
X006960312Y004405376D03*
X006904330D03*
X001100837Y002080845D03*
X001156818D03*
X001528090Y006457671D03*
X001472108D03*
X001528090Y006401791D03*
X001472108D03*
X001525118Y006548704D03*
X001469137D03*
X001525550Y006630391D03*
X001469569D03*
X003003830Y000821411D03*
X002947849D03*
Y000879831D03*
X003003830D03*
X001622070Y003554451D03*
X001566089D03*
X001622070Y003744951D03*
X001566089D03*
X001622070Y003689071D03*
X001566089D03*
X008601457Y009248724D03*
X008545475D03*
X004095598Y010249485D03*
X004039617D03*
X002051330Y008144231D03*
X001995348D03*
X001886230Y008149311D03*
X001830249D03*
X003621050Y006051271D03*
X003565069D03*
X003621050Y006112231D03*
X003565069D03*
X003621050Y006170651D03*
X003565069D03*
X002729383Y006037733D03*
X002785365D03*
X003565069Y005995391D03*
X003621050D03*
X007199808Y002820391D03*
X007255790D03*
X007199808Y002876271D03*
X007255790D03*
X004096436Y010325227D03*
X004040455D03*
X008614080Y009825203D03*
X008670062D03*
X004316146Y007665898D03*
X004260165D03*
X003796209Y008814791D03*
X003852190D03*
X006904330Y004473956D03*
X006960312D03*
X000943789Y006066511D03*
X000999770D03*
X001616457Y006078805D03*
X001672438D03*
X000999770Y006010631D03*
X000943789D03*
X003791103Y005519573D03*
X003847085D03*
X007977150Y000976351D03*
X007921169D03*
X005478476Y001465580D03*
X005422494D03*
X007027190Y002571471D03*
X006971209D03*
X004262705Y007734478D03*
X004318687D03*
X002817470Y006744716D03*
X002873452D03*
X002817470Y006686296D03*
X002873452D03*
X003251912Y002662936D03*
X003195930D03*
X001558037Y004851985D03*
X001614018D03*
X001570737Y004445585D03*
X001626718D03*
X009033257Y009533205D03*
X009089238D03*
X006010835Y010399929D03*
X006066816D03*
X008725714Y009760408D03*
X008781695D03*
X001372718Y009756725D03*
X001316737D03*
X004088842Y010403967D03*
X004032860D03*
X001809928Y008225511D03*
X001865910D03*
X002086890Y008068031D03*
X002030909D03*
X004512158Y007473264D03*
X004456177D03*
X007511898Y005878144D03*
X007455917D03*
X007595718Y005969584D03*
X007539737D03*
X007455917Y005807024D03*
X007511898D03*
X007341617Y006612205D03*
X007397598D03*
X006421832Y006770751D03*
X006365850D03*
X007494118Y006398844D03*
X007438137D03*
X006020817Y006368364D03*
X006076798D03*
X006211317Y006370905D03*
X006267298D03*
X006168137Y006271845D03*
X006224118D03*
X005977637Y006444565D03*
X006033618D03*
X006157977Y006200725D03*
X006213958D03*
X006071718Y006028004D03*
X006015737D03*
X007341617Y006698564D03*
X007397598D03*
X006219038Y006541084D03*
X006163057D03*
X006076798Y006271845D03*
X006020817D03*
X006224118Y005855285D03*
X006168137D03*
X007417918Y006149924D03*
X007361937D03*
X006061558Y006119444D03*
X006005577D03*
X001570737Y004377005D03*
X001626718D03*
X001537717Y004229685D03*
X001593698D03*
X007339077Y006774764D03*
X007395058D03*
X001603858Y003465145D03*
X001547877D03*
X001616558Y004783405D03*
X001560577D03*
X001621638Y003622625D03*
X001565657D03*
X001593698Y004168724D03*
X001537717D03*
X001834897Y005014544D03*
X001890878D03*
X006190997Y001268045D03*
X006246978D03*
X007989317Y001402665D03*
X008045298D03*
X001184657Y001669365D03*
X001240638D03*
X006320537Y001207085D03*
X006376518D03*
X008052817Y001336625D03*
X008108798D03*
X006246978Y001207085D03*
X006190997D03*
X007984338Y001336625D03*
X007928357D03*
X003252318Y002601545D03*
X003196337D03*
X002182978Y001029285D03*
X002126997D03*
X001999997D03*
X002055978D03*
X008619338Y009670365D03*
X008563357D03*
X004199637Y010480624D03*
X004255618D03*
G54D92*
X004766362Y007195134D03*
X004816374D03*
X004866361D03*
X004916374D03*
X004966361D03*
X005016374D03*
X005066361D03*
X005116374D03*
Y007675194D03*
X005066361D03*
X005016374D03*
X004966361D03*
X004916374D03*
X004866361D03*
X004816374D03*
X004766362D03*
G54D93*
X005628438Y007120205D03*
X005392217D03*
G54D94*
X002556739Y009858959D03*
Y009568942D03*
X007430999Y001628902D03*
Y001918919D03*
X000973888Y008311693D03*
Y008021676D03*
G54D95*
X003333979Y007791374D03*
Y007496328D03*
X005200879Y006186094D03*
Y005891048D03*
G54D96*
X005181398Y007260159D03*
Y007310171D03*
Y007360158D03*
Y007410171D03*
Y007460158D03*
Y007510171D03*
Y007560158D03*
Y007610171D03*
X004701338D03*
Y007560158D03*
Y007510171D03*
Y007460158D03*
Y007410171D03*
Y007360158D03*
Y007310171D03*
Y007260159D03*
G54D97*
X003283179Y006076671D03*
G54D98*
X005799633Y009330284D03*
X005749621D03*
X005699634D03*
X005649621D03*
X005599634D03*
X005549621D03*
X005499634D03*
X005449622D03*
Y008837092D03*
X005499634D03*
X005549621D03*
X005599634D03*
X005649621D03*
X005699634D03*
X005749621D03*
X005799633D03*
G54D99*
X006700444Y004218026D03*
X006650457D03*
X006600445D03*
X006550458D03*
X006500445D03*
X006450458D03*
Y004613047D03*
X006500445D03*
X006550458D03*
X006600445D03*
X006650457D03*
X006700444D03*
G54D100*
X003137637Y006151652D03*
Y006101665D03*
Y006051677D03*
Y006001690D03*
X003428721D03*
Y006051677D03*
Y006101665D03*
Y006151652D03*
G54D101*
X005379390Y009256091D03*
Y009206078D03*
Y009156091D03*
Y009106078D03*
Y009056091D03*
Y009006078D03*
Y008956091D03*
Y008906079D03*
X005869864D03*
Y008956091D03*
Y009006078D03*
Y009056091D03*
Y009106078D03*
Y009156091D03*
Y009206078D03*
Y009256091D03*
G54D102*
X001119455Y006247460D03*
Y006167451D03*
Y006087491D03*
Y006007481D03*
X001504824D03*
Y006087491D03*
Y006167451D03*
Y006247460D03*
G54D103*
X005527498Y001740891D03*
X005462499D03*
X005397501D03*
Y001928851D03*
X005462499D03*
X005527498D03*
G36*
X004462679Y012083505D02*
X004295039D01*
Y012246065D01*
X004462679D01*
Y012083505D01*
G37*
G36*
X004655720D02*
X004493159D01*
Y012246065D01*
X004655720D01*
Y012083505D01*
G37*
G36*
X004620160Y012294326D02*
X004469309D01*
Y012449265D01*
X004620160D01*
Y012294326D01*
G37*
G36*
X004443909D02*
X004295039D01*
Y012449265D01*
X004443909D01*
Y012294326D01*
G37*
G36*
X001027202Y011655795D02*
X001005740Y011634357D01*
G03X000946456Y011634357I-000029642J-000044018D01*
G01X000924993Y011655795D01*
G02X001027202Y011655795I000051105J-000065456D01*
G37*
G36*
X001041554Y011539234D02*
G01X001020116Y011560697D01*
G03X001020116Y011619981I-000044018J000029642D01*
G01X001041554Y011641444D01*
G02X001041554Y011539234I-000065456J-000051105D01*
G37*
G36*
X000924993Y011524883D02*
G01X000946456Y011546321D01*
G03X001005740Y011546321I000029642J000044018D01*
G01X001027202Y011524883D01*
G02X000924993Y011524883I-000051105J000065456D01*
G37*
G36*
X000910642Y011641444D02*
G01X000932079Y011619981D01*
G03X000932079Y011560697I000044018J-000029642D01*
G01X000910642Y011539234D01*
G02X000910642Y011641444I000065456J000051105D01*
G37*
G36*
X009064042D02*
G01X009085480Y011619981D01*
G03X009085480Y011560697I000044018J-000029642D01*
G01X009064042Y011539234D01*
G02X009064042Y011641444I000065456J000051105D01*
G37*
G36*
X009078393Y011524883D02*
G01X009099856Y011546321D01*
G03X009159140Y011546321I000029642J000044018D01*
G01X009180603Y011524883D01*
G02X009078393Y011524883I-000051105J000065456D01*
G37*
G36*
X009194954Y011539234D02*
G01X009173516Y011560697D01*
G03X009173516Y011619981I-000044018J000029642D01*
G01X009194954Y011641444D01*
G02X009194954Y011539234I-000065456J-000051105D01*
G37*
G36*
X009180603Y011655795D02*
G01X009159140Y011634357D01*
G03X009099856Y011634357I-000029642J-000044018D01*
G01X009078393Y011655795D01*
G02X009180603Y011655795I000051105J-000065456D01*
G37*
G36*
X006462803Y011011041D02*
G01X006441339Y010989604D01*
G03X006382056Y010989604I-000029642J-000044018D01*
G01X006360593Y011011041D01*
G02X006462803Y011011041I000051105J-000065456D01*
G37*
G36*
X006477154Y010894481D02*
G01X006455716Y010915944D01*
G03X006455716Y010975227I-000044018J000029642D01*
G01X006477154Y010996690D01*
G02X006477154Y010894481I-000065456J-000051105D01*
G37*
G36*
X006360593Y010880130D02*
G01X006382056Y010901567D01*
G03X006441339Y010901567I000029642J000044018D01*
G01X006462803Y010880130D01*
G02X006360593Y010880130I-000051105J000065456D01*
G37*
G36*
X006346242Y010996690D02*
G01X006367680Y010975227D01*
G03X006367680Y010915944I000044018J-000029642D01*
G01X006346242Y010894481D01*
G02X006346242Y010996690I000065456J000051105D01*
G37*
G36*
X003628442D02*
G01X003649879Y010975227D01*
G03X003649879Y010915944I000044018J-000029642D01*
G01X003628442Y010894481D01*
G02X003628442Y010996690I000065456J000051105D01*
G37*
G36*
X003642793Y010880130D02*
G01X003664256Y010901567D01*
G03X003723539Y010901567I000029642J000044018D01*
G01X003745002Y010880130D01*
G02X003642793Y010880130I-000051105J000065456D01*
G37*
G36*
X003759354Y010894481D02*
G01X003737916Y010915944D01*
G03X003737916Y010975227I-000044018J000029642D01*
G01X003759354Y010996690D01*
G02X003759354Y010894481I-000065456J-000051105D01*
G37*
G36*
X003745002Y011011041D02*
G01X003723539Y010989604D01*
G03X003664256Y010989604I-000029642J-000044018D01*
G01X003642793Y011011041D01*
G02X003745002Y011011041I000051105J-000065456D01*
G37*
G36*
X003572816Y016809988D02*
G01Y016924288D01*
X003649016D01*
Y016809988D01*
X003572816D01*
G37*
G36*
Y016944634D02*
Y017058934D01*
X003649016D01*
Y016944634D01*
X003572816D01*
G37*
G36*
X003246223Y015283906D02*
Y015081569D01*
X003052980D01*
Y015283906D01*
X003246223D01*
G37*
G36*
Y015028229D02*
Y014826706D01*
X003052980D01*
Y015028229D01*
X003246223D01*
G37*
G36*
X003497480D02*
Y014826706D01*
X003299563D01*
Y015028229D01*
X003497480D01*
G37*
G36*
Y015283906D02*
Y015081569D01*
X003299563D01*
Y015283906D01*
X003497480D01*
G37*
G36*
X008800568Y015209839D02*
X008892008D01*
Y015072679D01*
X008800568D01*
Y015209839D01*
G37*
G36*
X008683880Y015209890D02*
X008775320D01*
Y015072730D01*
X008683880D01*
Y015209890D01*
G37*
G36*
X008683931Y015372526D02*
X008775371D01*
Y015235366D01*
X008683931D01*
Y015372526D01*
G37*
G36*
X008800568Y015372602D02*
X008892008D01*
Y015235442D01*
X008800568D01*
Y015372602D01*
G37*
G36*
X003514396Y017056394D02*
Y016949714D01*
X003402636D01*
Y017056394D01*
X003514396D01*
G37*
G36*
X003514472Y016919208D02*
Y016812528D01*
X003402712D01*
Y016919208D01*
X003514472D01*
G37*
G36*
X005151146Y013922339D02*
X005006138D01*
Y014067347D01*
X005151146D01*
Y013922339D01*
G37*
G36*
Y013762344D02*
X005006138D01*
Y013907352D01*
X005151146D01*
Y013762344D01*
G37*
G36*
X005311141D02*
X005166132D01*
Y013907352D01*
X005311141D01*
Y013762344D01*
G37*
G36*
Y013922339D02*
X005166132D01*
Y014067347D01*
X005311141D01*
Y013922339D01*
G37*
G54D10*
X004637508Y019515139D03*
G54D11*
X002188948Y020243078D03*
G54D11*
Y020178079D03*
G54D11*
Y020113080D03*
G54D11*
X002000988D03*
G54D11*
Y020178079D03*
G54D11*
Y020243078D03*
G54D11*
X003878048Y020364998D03*
G54D11*
Y020299999D03*
G54D11*
Y020235001D03*
G54D11*
X003690088D03*
G54D11*
Y020299999D03*
G54D11*
Y020364998D03*
G54D12*
X002094968Y020178079D03*
G54D12*
X003784068Y020299999D03*
G54D13*
X009300008Y020750011D02*
Y010750006D01*
X000799999D01*
Y020750011D01*
X009300008D01*
G54D14*
X003901289Y010855593D03*
G54D14*
X003821863D03*
G54D14*
Y011035578D03*
G54D14*
X003901289D03*
G54D14*
Y010945586D03*
G54D14*
X008922107Y011680331D03*
G54D14*
X009001532D03*
G54D14*
Y011500347D03*
G54D14*
X008922107D03*
G54D14*
Y011590339D03*
G54D14*
X006204307Y011035578D03*
G54D14*
X006283733D03*
G54D14*
Y010855593D03*
G54D14*
X006204307D03*
G54D14*
Y010945586D03*
G54D14*
X001183489Y011500347D03*
G54D14*
X001104063D03*
G54D14*
Y011680331D03*
G54D14*
X001183489D03*
G54D14*
Y011590339D03*
G54D15*
X001474217Y014440753D03*
G54D16*
X001002234Y012920766D03*
G54D17*
X001356717Y014257771D03*
G54D18*
X000977215Y014465772D03*
G54D19*
X002172158Y012226431D03*
G54D19*
X002242161D03*
G54D19*
Y012311420D03*
G54D19*
X002207160D03*
G54D19*
X002172158D03*
G54D20*
X001732205Y012920766D03*
G54D21*
X001459231Y013743751D03*
G54D21*
Y013997751D03*
G54D21*
Y014251751D03*
G54D21*
X001374217Y013616751D03*
G54D21*
Y013870751D03*
G54D21*
Y014124751D03*
G54D22*
X004618686Y019994183D03*
G54D22*
X004488689D03*
G54D22*
X004553688Y020184175D03*
G54D22*
X002035506Y020425983D03*
G54D22*
X001905509D03*
G54D22*
X001970508Y020615975D03*
G54D22*
X001740866Y020423443D03*
G54D22*
X001610869D03*
G54D22*
X001675868Y020613435D03*
G54D22*
X001423366Y020420903D03*
G54D22*
X001293369D03*
G54D22*
X001358368Y020610895D03*
G54D22*
X003193746Y020260883D03*
G54D22*
X003063749D03*
G54D22*
X003128748Y020450875D03*
G54D23*
X006449798Y013234253D03*
G54D104*
X003718891Y019961366D03*
X001785951Y019918186D03*
X008547431Y013525006D03*
G54D25*
X002329232Y012925769D03*
G54D26*
X008871789Y014280199D03*
G54D26*
X008759826D03*
G54D26*
X008871789Y013899199D03*
G54D26*
X008759826D03*
G54D26*
X008871789Y014407199D03*
G54D26*
X008759826D03*
G54D26*
X008871789Y014153199D03*
G54D26*
X008759826D03*
G54D26*
X008871789Y014026199D03*
G54D26*
X008759826D03*
G54D26*
X007124269Y019987579D03*
G54D26*
X007012306D03*
G54D27*
X006888837Y014655662D03*
G54D27*
Y014555637D03*
G54D27*
X007147815D03*
G54D27*
Y014655662D03*
G54D27*
X006888837Y014605649D03*
G54D27*
X007147815D03*
G54D105*
X005832120Y014325056D03*
G54D29*
X002446732Y013227268D03*
G54D30*
X008869148Y017915422D03*
G54D30*
Y018325936D03*
G54D31*
X008549108Y020429641D03*
G54D31*
Y020317678D03*
G54D31*
X008264628Y020368681D03*
G54D31*
Y020256718D03*
G54D31*
X009169300Y019195404D03*
G54D31*
Y019307367D03*
G54D31*
X009087588Y020376301D03*
G54D31*
Y020264338D03*
G54D31*
X008958048Y020376301D03*
G54D31*
Y020264338D03*
G54D31*
X008754848Y020368681D03*
G54D31*
Y020256718D03*
G54D31*
X008417028Y020371221D03*
G54D31*
Y020259258D03*
G54D32*
X007118326Y014476160D03*
G54D32*
X007068339D03*
G54D32*
X006918326D03*
G54D32*
X006968313D03*
G54D32*
X007118326Y014735139D03*
G54D32*
X007068339D03*
G54D32*
X006918326D03*
G54D32*
X006968313D03*
G54D32*
X007018326Y014476160D03*
G54D32*
Y014735139D03*
G54D33*
X005832120Y014384746D03*
G54D33*
Y014434733D03*
G54D33*
X005932095D03*
G54D33*
Y014384746D03*
G54D34*
X008310195Y019423547D03*
G54D34*
X008360208D03*
G54D34*
X008410195D03*
G54D34*
X008460208D03*
G54D34*
X008510220D03*
G54D34*
X008560208D03*
G54D34*
X008610220D03*
G54D34*
X008310195Y019473559D03*
G54D34*
X008360208D03*
G54D34*
X008410195D03*
G54D34*
X008460208D03*
G54D34*
X008510220D03*
G54D34*
X008560208D03*
G54D34*
X008610220D03*
G54D34*
X008310195Y019523546D03*
G54D34*
X008360208D03*
G54D34*
X008410195D03*
G54D34*
X008460208D03*
G54D34*
X008510220D03*
G54D34*
X008560208D03*
G54D34*
X008610220D03*
G54D34*
X008310195Y019573559D03*
G54D34*
X008360208D03*
G54D34*
X008410195D03*
G54D34*
X008460208D03*
G54D34*
X008510220D03*
G54D34*
X008560208D03*
G54D34*
X008610220D03*
G54D34*
X008310195Y019623572D03*
G54D34*
X008360208D03*
G54D34*
X008410195D03*
G54D34*
X008460208D03*
G54D34*
X008510220D03*
G54D34*
X008560208D03*
G54D34*
X008610220D03*
G54D34*
X008310195Y019673559D03*
G54D34*
X008360208D03*
G54D34*
X008410195D03*
G54D34*
X008460208D03*
G54D34*
X008510220D03*
G54D34*
X008560208D03*
G54D34*
X008610220D03*
G54D34*
X008310195Y019723572D03*
G54D34*
X008360208D03*
G54D34*
X008410195D03*
G54D34*
X008460208D03*
G54D34*
X008510220D03*
G54D34*
X008560208D03*
G54D34*
X008610220D03*
G54D35*
X002446732Y013690767D03*
G54D36*
X007202476Y019385066D03*
G54D36*
X006890056D03*
G54D36*
X006577636D03*
G54D36*
X005416856Y019740666D03*
G54D36*
X005889296Y019735586D03*
G54D36*
X006265216Y019385066D03*
G54D36*
X006338927Y020323799D03*
G54D36*
X006717387Y020321259D03*
G54D37*
X007008471Y020627659D03*
G54D37*
X007153505D03*
G54D38*
X001923695Y012186147D03*
G54D38*
Y012316144D03*
G54D38*
X001733703D03*
G54D38*
Y012251145D03*
G54D38*
Y012186147D03*
G54D38*
X007402577Y015529676D03*
G54D38*
Y015399679D03*
G54D38*
X007592569D03*
G54D38*
Y015464677D03*
G54D38*
Y015529676D03*
G54D39*
X003121966Y016791827D03*
G54D39*
Y016696120D03*
G54D39*
X002654606Y020012547D03*
G54D39*
Y019916840D03*
G54D39*
X007375628Y011739793D03*
G54D39*
Y011644085D03*
G54D39*
X008945780Y013181192D03*
G54D39*
Y013276899D03*
G54D39*
X003080919Y017293452D03*
G54D39*
Y017389159D03*
G54D39*
X003174900D03*
G54D39*
Y017293452D03*
G54D39*
X003994888Y020208153D03*
G54D39*
Y020112446D03*
G54D39*
X008366253Y011405351D03*
G54D39*
Y011309644D03*
G54D39*
X007208826Y011450207D03*
G54D39*
Y011354500D03*
G54D39*
X005374539Y014273392D03*
G54D39*
Y014369099D03*
G54D39*
X005646320Y013539332D03*
G54D39*
Y013635039D03*
G54D39*
X004023259Y012133899D03*
G54D39*
Y012038192D03*
G54D39*
X003804820Y018756492D03*
G54D39*
Y018852199D03*
G54D39*
X008950859Y019754712D03*
G54D39*
Y019850419D03*
G54D39*
X008780248Y020015926D03*
G54D39*
Y020111633D03*
G54D39*
X002003528Y018016946D03*
G54D39*
Y018112653D03*
G54D39*
X007037808Y013068213D03*
G54D39*
Y012972506D03*
G54D39*
X001866799Y014671359D03*
G54D39*
Y014575652D03*
G54D39*
X001628039Y015219999D03*
G54D39*
Y015124292D03*
G54D39*
X001937920Y014811872D03*
G54D39*
Y014907579D03*
G54D39*
X007119088Y012972506D03*
G54D39*
Y013068213D03*
G54D39*
X008858988Y020015926D03*
G54D39*
Y020111633D03*
G54D39*
X005963388Y018859413D03*
G54D39*
Y018763705D03*
G54D39*
X006042128Y018859413D03*
G54D39*
Y018763705D03*
G54D39*
X005884648Y018859413D03*
G54D39*
Y018763705D03*
G54D39*
X004497808Y018491113D03*
G54D39*
Y018395406D03*
G54D39*
X004579088Y018491113D03*
G54D39*
Y018395406D03*
G54D39*
X004657828Y018491113D03*
G54D39*
Y018395406D03*
G54D39*
X008823428Y017374325D03*
G54D39*
Y017470033D03*
G54D39*
X006120868Y018859413D03*
G54D39*
Y018763705D03*
G54D39*
X005656048Y016271965D03*
G54D39*
Y016367673D03*
G54D39*
X005577308Y016271965D03*
G54D39*
Y016367673D03*
G54D39*
X008985988Y017374325D03*
G54D39*
Y017470033D03*
G54D39*
X008902168Y017374325D03*
G54D39*
Y017470033D03*
G54D39*
X005899888Y016271965D03*
G54D39*
Y016367673D03*
G54D39*
X006280888Y018859413D03*
G54D39*
Y018763705D03*
G54D39*
X005805908Y018859413D03*
G54D39*
Y018763705D03*
G54D39*
X006199608Y018859413D03*
G54D39*
Y018763705D03*
G54D39*
X008025868Y013620206D03*
G54D39*
Y013715913D03*
G54D39*
X005874920Y012688432D03*
G54D39*
Y012784139D03*
G54D39*
X006783808Y013317945D03*
G54D39*
Y013413653D03*
G54D39*
X005816068Y016271965D03*
G54D39*
Y016367673D03*
G54D39*
X005734788Y016271965D03*
G54D39*
Y016367673D03*
G54D39*
X005529479Y020325399D03*
G54D39*
Y020229692D03*
G54D39*
X006783808Y014846213D03*
G54D39*
Y014750505D03*
G54D39*
X009105393Y015079004D03*
G54D39*
Y015174711D03*
G54D39*
X005221708Y014714945D03*
G54D39*
Y014810653D03*
G54D39*
X006012079Y013622339D03*
G54D39*
Y013526632D03*
G54D39*
X000929539Y011925619D03*
G54D39*
Y011829912D03*
G54D39*
X004747160Y012863692D03*
G54D39*
Y012959399D03*
G54D39*
X004874160Y012268519D03*
G54D39*
Y012172812D03*
G54D39*
X002329080Y015718652D03*
G54D39*
Y015814359D03*
G54D39*
X002544954Y015717839D03*
G54D39*
Y015813546D03*
G54D39*
X002638934Y015717839D03*
G54D39*
Y015813546D03*
G54D39*
X002433194Y015717839D03*
G54D39*
Y015813546D03*
G54D39*
X003698140Y015919312D03*
G54D39*
Y016015019D03*
G54D39*
X003591460Y015919312D03*
G54D39*
Y016015019D03*
G54D39*
X003964840Y015862619D03*
G54D39*
Y015766912D03*
G54D39*
X004076599Y015862619D03*
G54D39*
Y015766912D03*
G54D39*
X004376320Y013830619D03*
G54D39*
Y013734912D03*
G54D39*
X004310279Y013988912D03*
G54D39*
Y014084619D03*
G54D39*
X004023259Y011855312D03*
G54D39*
Y011951019D03*
G54D39*
X004107079Y011855312D03*
G54D39*
Y011951019D03*
G54D39*
X008143139Y020430352D03*
G54D39*
Y020526059D03*
G54D106*
X005832120Y014494423D03*
G54D41*
X008344942Y015277251D03*
G54D41*
X008304963D03*
G54D41*
X008264932D03*
G54D41*
X008224953D03*
G54D41*
Y015193228D03*
G54D41*
X008264932D03*
G54D41*
X008304963D03*
G54D107*
X005932095Y014494423D03*
G54D43*
X002464716Y014267270D03*
G54D44*
X007194983Y019508053D03*
G54D44*
X007144970Y019385066D03*
G54D44*
Y019508053D03*
G54D44*
X007044996Y019385066D03*
G54D44*
Y019508053D03*
G54D44*
X006994983Y019385066D03*
G54D44*
Y019508053D03*
G54D44*
X006882563D03*
G54D44*
X006832550Y019385066D03*
G54D44*
Y019508053D03*
G54D44*
X006732576Y019385066D03*
G54D44*
Y019508053D03*
G54D44*
X006682563Y019385066D03*
G54D44*
Y019508053D03*
G54D44*
X006570143D03*
G54D44*
X006520130Y019385066D03*
G54D44*
Y019508053D03*
G54D44*
X006420156Y019385066D03*
G54D44*
Y019508053D03*
G54D44*
X006370143Y019385066D03*
G54D44*
Y019508053D03*
G54D44*
X005409363Y019863653D03*
G54D44*
X005359350Y019740666D03*
G54D44*
Y019863653D03*
G54D44*
X005259376Y019740666D03*
G54D44*
Y019863653D03*
G54D44*
X005209363Y019740666D03*
G54D44*
Y019863653D03*
G54D44*
X005881803Y019858572D03*
G54D44*
X005831790Y019735586D03*
G54D44*
Y019858572D03*
G54D44*
X005731816Y019735586D03*
G54D44*
Y019858572D03*
G54D44*
X005681803Y019735586D03*
G54D44*
Y019858572D03*
G54D44*
X006257723Y019508053D03*
G54D44*
X006207710Y019385066D03*
G54D44*
Y019508053D03*
G54D44*
X006107736Y019385066D03*
G54D44*
Y019508053D03*
G54D44*
X006057723Y019385066D03*
G54D44*
Y019508053D03*
G54D44*
X006346420Y020200812D03*
G54D44*
X006396432Y020323799D03*
G54D44*
Y020200812D03*
G54D44*
X006496407Y020323799D03*
G54D44*
Y020200812D03*
G54D44*
X006546419Y020323799D03*
G54D44*
Y020200812D03*
G54D44*
X006724880Y020198272D03*
G54D44*
X006774892Y020321259D03*
G54D44*
Y020198272D03*
G54D44*
X006874867Y020321259D03*
G54D44*
Y020198272D03*
G54D44*
X006924879Y020321259D03*
G54D44*
Y020198272D03*
G54D45*
X003722066Y017059467D03*
G54D45*
Y017009480D03*
G54D45*
Y016959467D03*
G54D45*
Y016909480D03*
G54D45*
Y016859468D03*
G54D45*
Y016809480D03*
G54D45*
X003327046D03*
G54D45*
Y016859468D03*
G54D45*
Y016909480D03*
G54D45*
Y016959467D03*
G54D45*
Y017009480D03*
G54D45*
Y017059467D03*
G54D46*
X001206654Y012082083D03*
G54D47*
X008350023Y015193228D03*
G54D48*
X008321549Y014246163D03*
G54D48*
X008451546D03*
G54D48*
Y014436155D03*
G54D48*
X008386548D03*
G54D48*
X008321549D03*
G54D49*
X002092021Y012809539D03*
G54D49*
X001996314D03*
G54D49*
X003197353Y017105086D03*
G54D49*
X003101646D03*
G54D49*
X002298574Y020056159D03*
G54D49*
X002394281D03*
G54D49*
X006925641Y020627659D03*
G54D49*
X006829934D03*
G54D49*
X007547941Y020315239D03*
G54D49*
X007452234D03*
G54D49*
X008955101Y013718859D03*
G54D49*
X008859394D03*
G54D49*
X005902453Y012878526D03*
G54D49*
X005806746D03*
G54D49*
X005902453Y012980126D03*
G54D49*
X005806746D03*
G54D49*
X005902453Y013081726D03*
G54D49*
X005806746D03*
G54D49*
X005517186Y014156146D03*
G54D49*
X005612893D03*
G54D49*
X005537506Y013800545D03*
G54D49*
X005633213D03*
G54D49*
X004749293Y014519366D03*
G54D49*
X004653586D03*
G54D49*
X005620513Y013998665D03*
G54D49*
X005524806D03*
G54D49*
X004718813Y013429706D03*
G54D49*
X004623106D03*
G54D49*
X004594353Y011781245D03*
G54D49*
X004498646D03*
G54D49*
X003843326Y012037786D03*
G54D49*
X003939033D03*
G54D49*
X003843326Y012126686D03*
G54D49*
X003939033D03*
G54D49*
X008111821Y019835179D03*
G54D49*
X008016114D03*
G54D49*
X008172781Y019187479D03*
G54D49*
X008077074D03*
G54D49*
X008874253Y019297105D03*
G54D49*
X008778546D03*
G54D49*
X008378521Y018732819D03*
G54D49*
X008282814D03*
G54D49*
X002143634Y018247679D03*
G54D49*
X002239341D03*
G54D49*
X007301587Y019884277D03*
G54D49*
X007205880D03*
G54D49*
X007843394Y012753659D03*
G54D49*
X007939101D03*
G54D49*
X008480934Y013165139D03*
G54D49*
X008576641D03*
G54D49*
X005498593Y020120066D03*
G54D49*
X005402886D03*
G54D49*
X002046733Y015055305D03*
G54D49*
X001951026D03*
G54D49*
X007725741Y012969559D03*
G54D49*
X007630034D03*
G54D49*
X003894532Y016865894D03*
G54D49*
X003990240D03*
G54D49*
X002127581Y019134139D03*
G54D49*
X002031874D03*
G54D49*
X005862194Y018174019D03*
G54D49*
X005957901D03*
G54D49*
X007104254Y013561379D03*
G54D49*
X007199961D03*
G54D49*
X007517893Y014808926D03*
G54D49*
X007422186D03*
G54D49*
X001899794Y018293399D03*
G54D49*
X001995501D03*
G54D49*
X005513401Y014849159D03*
G54D49*
X005417694D03*
G54D49*
X006263514Y014297979D03*
G54D49*
X006359221D03*
G54D49*
X001802461Y014800899D03*
G54D49*
X001706754D03*
G54D49*
X002046733Y015154366D03*
G54D49*
X001951026D03*
G54D49*
X003504693Y016597086D03*
G54D49*
X003408986D03*
G54D49*
X005803393Y014133286D03*
G54D49*
X005707686D03*
G54D49*
X003858566Y018423346D03*
G54D49*
X003954273D03*
G54D49*
X003443733Y013925006D03*
G54D49*
X003348026D03*
G54D49*
X003443733Y013803086D03*
G54D49*
X003348026D03*
G54D49*
X002887473Y013996126D03*
G54D49*
X002791766D03*
G54D49*
X002887473Y014085026D03*
G54D49*
X002791766D03*
G54D49*
X003590799Y013929679D03*
G54D49*
X003686506D03*
G54D49*
X003591866Y013803086D03*
G54D49*
X003687573D03*
G54D49*
X002525066Y015070546D03*
G54D49*
X002620773D03*
G54D49*
X003009393Y014485507D03*
G54D49*
X003105100D03*
G54D49*
X003627426Y014499884D03*
G54D49*
X003531719D03*
G54D49*
X004530853Y013429706D03*
G54D49*
X004435146D03*
G54D49*
X004553713Y014519366D03*
G54D49*
X004458006D03*
G54D49*
X004887266Y013447486D03*
G54D49*
X004982973D03*
G54D49*
X004887266Y013544006D03*
G54D49*
X004982973D03*
G54D49*
X003612186Y016597086D03*
G54D49*
X003707893D03*
G54D49*
X003101646Y017191445D03*
G54D49*
X003197353D03*
G54D50*
X002443227Y014135749D03*
G54D51*
X007094983Y019389053D03*
G54D51*
Y019504065D03*
G54D51*
X006782563Y019389053D03*
G54D51*
Y019504065D03*
G54D51*
X006470143Y019389053D03*
G54D51*
Y019504065D03*
G54D51*
X005309363Y019744654D03*
G54D51*
Y019859665D03*
G54D51*
X005781803Y019739574D03*
G54D51*
Y019854585D03*
G54D51*
X006157723Y019389053D03*
G54D51*
Y019504065D03*
G54D51*
X006446420Y020319811D03*
G54D51*
Y020204800D03*
G54D51*
X006824880Y020317271D03*
G54D51*
Y020202260D03*
G54D52*
X003265070Y017582606D03*
G54D52*
X003099970D03*
G54D52*
X004255670Y014760665D03*
G54D52*
X004420770D03*
G54D52*
X003996589Y014280605D03*
G54D52*
X003831490D03*
G54D53*
X002947900Y015447126D03*
G54D53*
X002997887D03*
G54D53*
X003047900D03*
G54D53*
X003097887D03*
G54D53*
X003147899D03*
G54D53*
X003197887D03*
G54D53*
X003247899D03*
G54D53*
X003297886D03*
G54D53*
X003347899D03*
G54D53*
X003397886D03*
G54D53*
X003447899D03*
G54D53*
X003497886D03*
G54D53*
X003547899D03*
G54D53*
X003597886D03*
G54D53*
Y014662672D03*
G54D53*
X003547899D03*
G54D53*
X003497886D03*
G54D53*
X003447899D03*
G54D53*
X003397886D03*
G54D53*
X003347899D03*
G54D53*
X003297886D03*
G54D53*
X003247899D03*
G54D53*
X003197887D03*
G54D53*
X003147899D03*
G54D53*
X003097887D03*
G54D53*
X003047900D03*
G54D53*
X002997887D03*
G54D53*
X002947900D03*
G54D108*
X005932095Y014325056D03*
G54D55*
X001187350Y011871568D03*
G54D55*
X001379018D03*
G54D55*
Y012082083D03*
G54D56*
X008616519Y012904484D03*
G54D56*
Y012944464D03*
G54D56*
Y012984494D03*
G54D56*
Y013024474D03*
G54D56*
X008532496D03*
G54D56*
Y012984494D03*
G54D56*
Y012944464D03*
G54D57*
X006443270Y016557004D03*
G54D57*
X006556402D03*
G54D57*
X006669533D03*
G54D57*
X006782690D03*
G54D57*
X006895822D03*
G54D57*
X007008953D03*
G54D57*
X007122110D03*
G54D57*
X007235242D03*
G54D57*
X007348374D03*
G54D57*
X007461505D03*
G54D57*
X007574662D03*
G54D57*
X007687794D03*
G54D57*
X007800925D03*
G54D57*
X007914082D03*
G54D57*
X008027214D03*
G54D57*
X008140345D03*
G54D57*
X006386679Y016613570D03*
G54D57*
X006499836D03*
G54D57*
X006612967D03*
G54D57*
X006726099D03*
G54D57*
X006839256D03*
G54D57*
X006952387D03*
G54D57*
X007065519D03*
G54D57*
X007178676D03*
G54D57*
X007291808D03*
G54D57*
X007404939D03*
G54D57*
X007518096D03*
G54D57*
X007631228D03*
G54D57*
X007744359D03*
G54D57*
X007857517D03*
G54D57*
X007970648D03*
G54D57*
X008083780D03*
G54D57*
X008196937D03*
G54D57*
X006330113Y016670161D03*
G54D57*
X006443270D03*
G54D57*
X006556402D03*
G54D57*
X006669533D03*
G54D57*
X006782690D03*
G54D57*
X006895822D03*
G54D57*
X007008953D03*
G54D57*
X007122110D03*
G54D57*
X007235242D03*
G54D57*
X007348374D03*
G54D57*
X007461505D03*
G54D57*
X007574662D03*
G54D57*
X007687794D03*
G54D57*
X007800925D03*
G54D57*
X007914082D03*
G54D57*
X008027214D03*
G54D57*
X008140345D03*
G54D57*
X008253502D03*
G54D57*
X006386679Y016726727D03*
G54D57*
X006499836D03*
G54D57*
X006612967D03*
G54D57*
X006726099D03*
G54D57*
X006839256D03*
G54D57*
X006952387D03*
G54D57*
X007065519D03*
G54D57*
X007178676D03*
G54D57*
X007291808D03*
G54D57*
X007404939D03*
G54D57*
X007518096D03*
G54D57*
X007631228D03*
G54D57*
X007744359D03*
G54D57*
X007857517D03*
G54D57*
X007970648D03*
G54D57*
X008083780D03*
G54D57*
X008196937D03*
G54D57*
X006330113Y016783293D03*
G54D57*
X006443270D03*
G54D57*
X006556402D03*
G54D57*
X006669533D03*
G54D57*
X006782690D03*
G54D57*
X006895822D03*
G54D57*
X007008953D03*
G54D57*
X007122110D03*
G54D57*
X007235242D03*
G54D57*
X007348374D03*
G54D57*
X007461505D03*
G54D57*
X007574662D03*
G54D57*
X007687794D03*
G54D57*
X007800925D03*
G54D57*
X007914082D03*
G54D57*
X008027214D03*
G54D57*
X008140345D03*
G54D57*
X008253502D03*
G54D57*
X006386679Y016839859D03*
G54D57*
X006499836D03*
G54D57*
X006612967D03*
G54D57*
X006726099D03*
G54D57*
X006839256D03*
G54D57*
X006952387D03*
G54D57*
X007065519D03*
G54D57*
X007178676D03*
G54D57*
X007291808D03*
G54D57*
X007404939D03*
G54D57*
X007518096D03*
G54D57*
X007631228D03*
G54D57*
X007744359D03*
G54D57*
X007857517D03*
G54D57*
X007970648D03*
G54D57*
X008083780D03*
G54D57*
X008196937D03*
G54D57*
X006330113Y016896424D03*
G54D57*
X006443270D03*
G54D57*
X006556402D03*
G54D57*
X006669533D03*
G54D57*
X006782690D03*
G54D57*
X006895822D03*
G54D57*
X007008953D03*
G54D57*
X007122110D03*
G54D57*
X007235242D03*
G54D57*
X007348374D03*
G54D57*
X007461505D03*
G54D57*
X007574662D03*
G54D57*
X007687794D03*
G54D57*
X007800925D03*
G54D57*
X007914082D03*
G54D57*
X008027214D03*
G54D57*
X008140345D03*
G54D57*
X008253502D03*
G54D57*
X006386679Y016952990D03*
G54D57*
X006499836D03*
G54D57*
X006612967D03*
G54D57*
X006726099D03*
G54D57*
X006839256D03*
G54D57*
X006952387D03*
G54D57*
X007065519D03*
G54D57*
X007178676D03*
G54D57*
X007291808D03*
G54D57*
X007404939D03*
G54D57*
X007518096D03*
G54D57*
X007631228D03*
G54D57*
X007744359D03*
G54D57*
X007857517D03*
G54D57*
X007970648D03*
G54D57*
X008083780D03*
G54D57*
X008196937D03*
G54D57*
X006330113Y017009582D03*
G54D57*
X006443270D03*
G54D57*
X006556402D03*
G54D57*
X006669533D03*
G54D57*
X006782690D03*
G54D57*
X006895822D03*
G54D57*
X007008953D03*
G54D57*
X007122110D03*
G54D57*
X007235242D03*
G54D57*
X007348374D03*
G54D57*
X007461505D03*
G54D57*
X007574662D03*
G54D57*
X007687794D03*
G54D57*
X007800925D03*
G54D57*
X007914082D03*
G54D57*
X008027214D03*
G54D57*
X008140345D03*
G54D57*
X008253502D03*
G54D57*
X006386679Y017066147D03*
G54D57*
X006499836D03*
G54D57*
X006612967D03*
G54D57*
X006726099D03*
G54D57*
X006839256D03*
G54D57*
X006952387D03*
G54D57*
X007065519D03*
G54D57*
X007178676D03*
G54D57*
X007291808D03*
G54D57*
X007404939D03*
G54D57*
X007518096D03*
G54D57*
X007631228D03*
G54D57*
X007744359D03*
G54D57*
X007857517D03*
G54D57*
X007970648D03*
G54D57*
X008083780D03*
G54D57*
X008196937D03*
G54D57*
X006330113Y017122713D03*
G54D57*
X006443270D03*
G54D57*
X006556402D03*
G54D57*
X006669533D03*
G54D57*
X006782690D03*
G54D57*
X006895822D03*
G54D57*
X007008953D03*
G54D57*
X007122110D03*
G54D57*
X007235242D03*
G54D57*
X007348374D03*
G54D57*
X007461505D03*
G54D57*
X007574662D03*
G54D57*
X007687794D03*
G54D57*
X007800925D03*
G54D57*
X007914082D03*
G54D57*
X008027214D03*
G54D57*
X008140345D03*
G54D57*
X008253502D03*
G54D57*
X006386679Y017179279D03*
G54D57*
X006499836D03*
G54D57*
X006612967D03*
G54D57*
X006726099D03*
G54D57*
X006839256D03*
G54D57*
X006952387D03*
G54D57*
X007065519D03*
G54D57*
X007178676D03*
G54D57*
X007291808D03*
G54D57*
X007404939D03*
G54D57*
X007518096D03*
G54D57*
X007631228D03*
G54D57*
X007744359D03*
G54D57*
X007857517D03*
G54D57*
X007970648D03*
G54D57*
X008083780D03*
G54D57*
X008196937D03*
G54D57*
X006330113Y017235845D03*
G54D57*
X006443270D03*
G54D57*
X006556402D03*
G54D57*
X006669533D03*
G54D57*
X006782690D03*
G54D57*
X006895822D03*
G54D57*
X007008953D03*
G54D57*
X007122110D03*
G54D57*
X007235242D03*
G54D57*
X007348374D03*
G54D57*
X007461505D03*
G54D57*
X007574662D03*
G54D57*
X007687794D03*
G54D57*
X007800925D03*
G54D57*
X007914082D03*
G54D57*
X008027214D03*
G54D57*
X008140345D03*
G54D57*
X008253502D03*
G54D57*
X006386679Y017292410D03*
G54D57*
X006499836D03*
G54D57*
X006612967D03*
G54D57*
X006726099D03*
G54D57*
X006839256D03*
G54D57*
X006952387D03*
G54D57*
X007065519D03*
G54D57*
X007178676D03*
G54D57*
X007291808D03*
G54D57*
X007404939D03*
G54D57*
X007518096D03*
G54D57*
X007631228D03*
G54D57*
X007744359D03*
G54D57*
X007857517D03*
G54D57*
X007970648D03*
G54D57*
X008083780D03*
G54D57*
X008196937D03*
G54D57*
X006330113Y017349002D03*
G54D57*
X006443270D03*
G54D57*
X006556402D03*
G54D57*
X006669533D03*
G54D57*
X006782690D03*
G54D57*
X006895822D03*
G54D57*
X007008953D03*
G54D57*
X007122110D03*
G54D57*
X007235242D03*
G54D57*
X007348374D03*
G54D57*
X007461505D03*
G54D57*
X007574662D03*
G54D57*
X007687794D03*
G54D57*
X007800925D03*
G54D57*
X007914082D03*
G54D57*
X008027214D03*
G54D57*
X008140345D03*
G54D57*
X008253502D03*
G54D57*
X006386679Y017405567D03*
G54D57*
X006499836D03*
G54D57*
X006612967D03*
G54D57*
X006726099D03*
G54D57*
X006839256D03*
G54D57*
X006952387D03*
G54D57*
X007065519D03*
G54D57*
X007178676D03*
G54D57*
X007291808D03*
G54D57*
X007404939D03*
G54D57*
X007518096D03*
G54D57*
X007631228D03*
G54D57*
X007744359D03*
G54D57*
X007857517D03*
G54D57*
X007970648D03*
G54D57*
X008083780D03*
G54D57*
X008196937D03*
G54D57*
X006330113Y017462133D03*
G54D57*
X006443270D03*
G54D57*
X006556402D03*
G54D57*
X006669533D03*
G54D57*
X006782690D03*
G54D57*
X006895822D03*
G54D57*
X007008953D03*
G54D57*
X007122110D03*
G54D57*
X007235242D03*
G54D57*
X007348374D03*
G54D57*
X007461505D03*
G54D57*
X007574662D03*
G54D57*
X007687794D03*
G54D57*
X007800925D03*
G54D57*
X007914082D03*
G54D57*
X008027214D03*
G54D57*
X008140345D03*
G54D57*
X008253502D03*
G54D57*
X006386679Y017518699D03*
G54D57*
X006499836D03*
G54D57*
X006612967D03*
G54D57*
X006726099D03*
G54D57*
X006839256D03*
G54D57*
X006952387D03*
G54D57*
X007065519D03*
G54D57*
X007178676D03*
G54D57*
X007291808D03*
G54D57*
X007404939D03*
G54D57*
X007518096D03*
G54D57*
X007631228D03*
G54D57*
X007744359D03*
G54D57*
X007857517D03*
G54D57*
X007970648D03*
G54D57*
X008083780D03*
G54D57*
X008196937D03*
G54D57*
X006330113Y017575265D03*
G54D57*
X006443270D03*
G54D57*
X006556402D03*
G54D57*
X006669533D03*
G54D57*
X006782690D03*
G54D57*
X006895822D03*
G54D57*
X007008953D03*
G54D57*
X007122110D03*
G54D57*
X007235242D03*
G54D57*
X007348374D03*
G54D57*
X007461505D03*
G54D57*
X007574662D03*
G54D57*
X007687794D03*
G54D57*
X007800925D03*
G54D57*
X007914082D03*
G54D57*
X008027214D03*
G54D57*
X008140345D03*
G54D57*
X008253502D03*
G54D57*
X006386679Y017631831D03*
G54D57*
X006499836D03*
G54D57*
X006612967D03*
G54D57*
X006726099D03*
G54D57*
X006839256D03*
G54D57*
X006952387D03*
G54D57*
X007065519D03*
G54D57*
X007178676D03*
G54D57*
X007291808D03*
G54D57*
X007404939D03*
G54D57*
X007518096D03*
G54D57*
X007631228D03*
G54D57*
X007744359D03*
G54D57*
X007857517D03*
G54D57*
X007970648D03*
G54D57*
X008083780D03*
G54D57*
X008196937D03*
G54D57*
X006330113Y017688397D03*
G54D57*
X006443270D03*
G54D57*
X006556402D03*
G54D57*
X006669533D03*
G54D57*
X006782690D03*
G54D57*
X006895822D03*
G54D57*
X007008953D03*
G54D57*
X007122110D03*
G54D57*
X007235242D03*
G54D57*
X007348374D03*
G54D57*
X007461505D03*
G54D57*
X007574662D03*
G54D57*
X007687794D03*
G54D57*
X007800925D03*
G54D57*
X007914082D03*
G54D57*
X008027214D03*
G54D57*
X008140345D03*
G54D57*
X008253502D03*
G54D57*
X006386679Y017744988D03*
G54D57*
X006499836D03*
G54D57*
X006612967D03*
G54D57*
X006726099D03*
G54D57*
X006839256D03*
G54D57*
X006952387D03*
G54D57*
X007065519D03*
G54D57*
X007178676D03*
G54D57*
X007291808D03*
G54D57*
X007404939D03*
G54D57*
X007518096D03*
G54D57*
X007631228D03*
G54D57*
X007744359D03*
G54D57*
X007857517D03*
G54D57*
X007970648D03*
G54D57*
X008083780D03*
G54D57*
X008196937D03*
G54D57*
X006330113Y017801553D03*
G54D57*
X006443270D03*
G54D57*
X006556402D03*
G54D57*
X006669533D03*
G54D57*
X006782690D03*
G54D57*
X006895822D03*
G54D57*
X007008953D03*
G54D57*
X007122110D03*
G54D57*
X007235242D03*
G54D57*
X007348374D03*
G54D57*
X007461505D03*
G54D57*
X007574662D03*
G54D57*
X007687794D03*
G54D57*
X007800925D03*
G54D57*
X007914082D03*
G54D57*
X008027214D03*
G54D57*
X008140345D03*
G54D57*
X008253502D03*
G54D57*
X006386679Y017858119D03*
G54D57*
X006499836D03*
G54D57*
X006612967D03*
G54D57*
X006726099D03*
G54D57*
X006839256D03*
G54D57*
X006952387D03*
G54D57*
X007065519D03*
G54D57*
X007178676D03*
G54D57*
X007291808D03*
G54D57*
X007404939D03*
G54D57*
X007518096D03*
G54D57*
X007631228D03*
G54D57*
X007744359D03*
G54D57*
X007857517D03*
G54D57*
X007970648D03*
G54D57*
X008083780D03*
G54D57*
X008196937D03*
G54D57*
X006330113Y017914685D03*
G54D57*
X006443270D03*
G54D57*
X006556402D03*
G54D57*
X006669533D03*
G54D57*
X006782690D03*
G54D57*
X006895822D03*
G54D57*
X007008953D03*
G54D57*
X007122110D03*
G54D57*
X007235242D03*
G54D57*
X007348374D03*
G54D57*
X007461505D03*
G54D57*
X007574662D03*
G54D57*
X007687794D03*
G54D57*
X007800925D03*
G54D57*
X007914082D03*
G54D57*
X008027214D03*
G54D57*
X008140345D03*
G54D57*
X008253502D03*
G54D57*
X006386679Y017971251D03*
G54D57*
X006499836D03*
G54D57*
X006612967D03*
G54D57*
X006726099D03*
G54D57*
X006839256D03*
G54D57*
X006952387D03*
G54D57*
X007065519D03*
G54D57*
X007178676D03*
G54D57*
X007291808D03*
G54D57*
X007404939D03*
G54D57*
X007518096D03*
G54D57*
X007631228D03*
G54D57*
X007744359D03*
G54D57*
X007857517D03*
G54D57*
X007970648D03*
G54D57*
X008083780D03*
G54D57*
X008196937D03*
G54D57*
X006330113Y018027817D03*
G54D57*
X006443270D03*
G54D57*
X006556402D03*
G54D57*
X006669533D03*
G54D57*
X006782690D03*
G54D57*
X006895822D03*
G54D57*
X007008953D03*
G54D57*
X007122110D03*
G54D57*
X007235242D03*
G54D57*
X007348374D03*
G54D57*
X007461505D03*
G54D57*
X007574662D03*
G54D57*
X007687794D03*
G54D57*
X007800925D03*
G54D57*
X007914082D03*
G54D57*
X008027214D03*
G54D57*
X008140345D03*
G54D57*
X008253502D03*
G54D57*
X006386679Y018084408D03*
G54D57*
X006499836D03*
G54D57*
X006612967D03*
G54D57*
X006726099D03*
G54D57*
X006839256D03*
G54D57*
X006952387D03*
G54D57*
X007065519D03*
G54D57*
X007178676D03*
G54D57*
X007291808D03*
G54D57*
X007404939D03*
G54D57*
X007518096D03*
G54D57*
X007631228D03*
G54D57*
X007744359D03*
G54D57*
X007857517D03*
G54D57*
X007970648D03*
G54D57*
X008083780D03*
G54D57*
X008196937D03*
G54D57*
X006330113Y018140974D03*
G54D57*
X006443270D03*
G54D57*
X006556402D03*
G54D57*
X006669533D03*
G54D57*
X006782690D03*
G54D57*
X006895822D03*
G54D57*
X007008953D03*
G54D57*
X007122110D03*
G54D57*
X007235242D03*
G54D57*
X007348374D03*
G54D57*
X007461505D03*
G54D57*
X007574662D03*
G54D57*
X007687794D03*
G54D57*
X007800925D03*
G54D57*
X007914082D03*
G54D57*
X008027214D03*
G54D57*
X008140345D03*
G54D57*
X008253502D03*
G54D57*
X006386679Y018197540D03*
G54D57*
X006499836D03*
G54D57*
X006612967D03*
G54D57*
X006726099D03*
G54D57*
X006839256D03*
G54D57*
X006952387D03*
G54D57*
X007065519D03*
G54D57*
X007178676D03*
G54D57*
X007291808D03*
G54D57*
X007404939D03*
G54D57*
X007518096D03*
G54D57*
X007631228D03*
G54D57*
X007744359D03*
G54D57*
X007857517D03*
G54D57*
X007970648D03*
G54D57*
X008083780D03*
G54D57*
X008196937D03*
G54D57*
X006330113Y018254105D03*
G54D57*
X006443270D03*
G54D57*
X006556402D03*
G54D57*
X006669533D03*
G54D57*
X006782690D03*
G54D57*
X006895822D03*
G54D57*
X007008953D03*
G54D57*
X007122110D03*
G54D57*
X007235242D03*
G54D57*
X007348374D03*
G54D57*
X007461505D03*
G54D57*
X007574662D03*
G54D57*
X007687794D03*
G54D57*
X007800925D03*
G54D57*
X007914082D03*
G54D57*
X008027214D03*
G54D57*
X008140345D03*
G54D57*
X008253502D03*
G54D57*
X006386679Y018310671D03*
G54D57*
X006499836D03*
G54D57*
X006612967D03*
G54D57*
X006726099D03*
G54D57*
X006839256D03*
G54D57*
X006952387D03*
G54D57*
X007065519D03*
G54D57*
X007178676D03*
G54D57*
X007291808D03*
G54D57*
X007404939D03*
G54D57*
X007518096D03*
G54D57*
X007631228D03*
G54D57*
X007744359D03*
G54D57*
X007857517D03*
G54D57*
X007970648D03*
G54D57*
X008083780D03*
G54D57*
X008196937D03*
G54D57*
X006330113Y018367237D03*
G54D57*
X006443270D03*
G54D57*
X006556402D03*
G54D57*
X006669533D03*
G54D57*
X006782690D03*
G54D57*
X006895822D03*
G54D57*
X007008953D03*
G54D57*
X007122110D03*
G54D57*
X007235242D03*
G54D57*
X007348374D03*
G54D57*
X007461505D03*
G54D57*
X007574662D03*
G54D57*
X007687794D03*
G54D57*
X007800925D03*
G54D57*
X007914082D03*
G54D57*
X008027214D03*
G54D57*
X008140345D03*
G54D57*
X008253502D03*
G54D57*
X006386679Y018423828D03*
G54D57*
X006499836D03*
G54D57*
X006612967D03*
G54D57*
X006726099D03*
G54D57*
X006839256D03*
G54D57*
X006952387D03*
G54D57*
X007065519D03*
G54D57*
X007178676D03*
G54D57*
X007291808D03*
G54D57*
X007404939D03*
G54D57*
X007518096D03*
G54D57*
X007631228D03*
G54D57*
X007744359D03*
G54D57*
X007857517D03*
G54D57*
X007970648D03*
G54D57*
X008083780D03*
G54D57*
X008196937D03*
G54D57*
X006443270Y018480394D03*
G54D57*
X006556402D03*
G54D57*
X006669533D03*
G54D57*
X006782690D03*
G54D57*
X006895822D03*
G54D57*
X007008953D03*
G54D57*
X007122110D03*
G54D57*
X007235242D03*
G54D57*
X007348374D03*
G54D57*
X007461505D03*
G54D57*
X007574662D03*
G54D57*
X007687794D03*
G54D57*
X007800925D03*
G54D57*
X007914082D03*
G54D57*
X008027214D03*
G54D57*
X008140345D03*
G54D58*
X003769259Y012955996D03*
G54D58*
Y012552135D03*
G54D109*
X003718891Y019861392D03*
X001785951Y019818212D03*
X008547431Y013425032D03*
G54D60*
X002282725Y014440753D03*
G54D61*
X003294279Y012529276D03*
G54D61*
Y012694375D03*
G54D61*
X004091839Y014741615D03*
G54D61*
Y014576516D03*
G54D61*
X003139340Y013992315D03*
G54D61*
Y014157415D03*
G54D62*
X001707440Y015023632D03*
G54D62*
Y014973619D03*
G54D62*
Y014923607D03*
G54D62*
X001842416D03*
G54D62*
Y014973619D03*
G54D62*
Y015023632D03*
G54D63*
X008532496Y012899404D03*
G54D64*
X003665119Y015379892D03*
G54D64*
Y015329905D03*
G54D64*
Y015279892D03*
G54D64*
Y015229905D03*
G54D64*
Y015179893D03*
G54D64*
Y015129905D03*
G54D64*
Y015079893D03*
G54D64*
Y015029905D03*
G54D64*
Y014979893D03*
G54D64*
Y014929906D03*
G54D64*
Y014879893D03*
G54D64*
Y014829906D03*
G54D64*
Y014779893D03*
G54D64*
Y014729906D03*
G54D64*
X002880666D03*
G54D64*
Y014779893D03*
G54D64*
Y014829906D03*
G54D64*
Y014879893D03*
G54D64*
Y014929906D03*
G54D64*
Y014979893D03*
G54D64*
Y015029905D03*
G54D64*
Y015079893D03*
G54D64*
Y015129905D03*
G54D64*
Y015179893D03*
G54D64*
Y015229905D03*
G54D64*
Y015279892D03*
G54D64*
Y015329905D03*
G54D64*
Y015379892D03*
G54D65*
X007095618Y020307594D03*
G54D65*
X007175603D03*
G54D65*
X007255613D03*
G54D65*
X007335597D03*
G54D65*
Y020144068D03*
G54D65*
X007255613D03*
G54D65*
X007175603D03*
G54D65*
X007095618D03*
G54D66*
X005444085Y018204880D03*
G54D66*
X005364075D03*
G54D66*
X005284090D03*
G54D66*
X005204080D03*
G54D66*
X005124070D03*
G54D66*
X004884091D03*
G54D66*
X004804081D03*
G54D66*
X004724071D03*
G54D66*
X004644086D03*
G54D66*
X004564076D03*
G54D66*
X005444085Y018139882D03*
G54D66*
X005364075D03*
G54D66*
X005284090D03*
G54D66*
X005204080D03*
G54D66*
X005124070D03*
G54D66*
X004884091D03*
G54D66*
X004804081D03*
G54D66*
X004724071D03*
G54D66*
X004644086D03*
G54D66*
X004564076D03*
G54D66*
X005444085Y018074883D03*
G54D66*
X005364075D03*
G54D66*
X005284090D03*
G54D66*
X005204080D03*
G54D66*
X005124070D03*
G54D66*
X004884091D03*
G54D66*
X004804081D03*
G54D66*
X004724071D03*
G54D66*
X004644086D03*
G54D66*
X004564076D03*
G54D66*
X005444085Y018009884D03*
G54D66*
X005364075D03*
G54D66*
X005284090D03*
G54D66*
X005204080D03*
G54D66*
X005124070D03*
G54D66*
X004884091D03*
G54D66*
X004804081D03*
G54D66*
X004724071D03*
G54D66*
X004644086D03*
G54D66*
X004564076D03*
G54D66*
X005444085Y017944886D03*
G54D66*
X005364075D03*
G54D66*
X005284090D03*
G54D66*
X005204080D03*
G54D66*
X005124070D03*
G54D66*
X004884091D03*
G54D66*
X004804081D03*
G54D66*
X004724071D03*
G54D66*
X004644086D03*
G54D66*
X004564076D03*
G54D66*
X005444085Y017879887D03*
G54D66*
X005364075D03*
G54D66*
X005284090D03*
G54D66*
X005204080D03*
G54D66*
X005124070D03*
G54D66*
X004884091D03*
G54D66*
X004804081D03*
G54D66*
X004724071D03*
G54D66*
X004644086D03*
G54D66*
X004564076D03*
G54D66*
X005444085Y017814888D03*
G54D66*
X005364075D03*
G54D66*
X005284090D03*
G54D66*
X005204080D03*
G54D66*
X005124070D03*
G54D66*
X004884091D03*
G54D66*
X004804081D03*
G54D66*
X004724071D03*
G54D66*
X004644086D03*
G54D66*
X004564076D03*
G54D66*
X005444085Y017749890D03*
G54D66*
X005364075D03*
G54D66*
X005284090D03*
G54D66*
X005204080D03*
G54D66*
X005124070D03*
G54D66*
X004884091D03*
G54D66*
X004804081D03*
G54D66*
X004724071D03*
G54D66*
X004644086D03*
G54D66*
X004564076D03*
G54D66*
X005444085Y017684891D03*
G54D66*
X005364075D03*
G54D66*
X005284090D03*
G54D66*
X005204080D03*
G54D66*
X005124070D03*
G54D66*
X004884091D03*
G54D66*
X004804081D03*
G54D66*
X004724071D03*
G54D66*
X004644086D03*
G54D66*
X004564076D03*
G54D66*
X005444085Y017619893D03*
G54D66*
X005364075D03*
G54D66*
X005284090D03*
G54D66*
X005204080D03*
G54D66*
X005124070D03*
G54D66*
X004884091D03*
G54D66*
X004804081D03*
G54D66*
X004724071D03*
G54D66*
X004644086D03*
G54D66*
X004564076D03*
G54D66*
X005444085Y017424871D03*
G54D66*
X005364075D03*
G54D66*
X005284090D03*
G54D66*
X005204080D03*
G54D66*
X005124070D03*
G54D66*
X004884091D03*
G54D66*
X004804081D03*
G54D66*
X004724071D03*
G54D66*
X004644086D03*
G54D66*
X004564076D03*
G54D66*
X005444085Y017359873D03*
G54D66*
X005364075D03*
G54D66*
X005284090D03*
G54D66*
X005204080D03*
G54D66*
X005124070D03*
G54D66*
X004884091D03*
G54D66*
X004804081D03*
G54D66*
X004724071D03*
G54D66*
X004644086D03*
G54D66*
X004564076D03*
G54D66*
X005444085Y017294874D03*
G54D66*
X005364075D03*
G54D66*
X005284090D03*
G54D66*
X005204080D03*
G54D66*
X005124070D03*
G54D66*
X004884091D03*
G54D66*
X004804081D03*
G54D66*
X004724071D03*
G54D66*
X004644086D03*
G54D66*
X004564076D03*
G54D66*
X005444085Y017229876D03*
G54D66*
X005364075D03*
G54D66*
X005284090D03*
G54D66*
X005204080D03*
G54D66*
X005124070D03*
G54D66*
X004884091D03*
G54D66*
X004804081D03*
G54D66*
X004724071D03*
G54D66*
X004644086D03*
G54D66*
X004564076D03*
G54D66*
X005444085Y017164877D03*
G54D66*
X005364075D03*
G54D66*
X005284090D03*
G54D66*
X005204080D03*
G54D66*
X005124070D03*
G54D66*
X004884091D03*
G54D66*
X004804081D03*
G54D66*
X004724071D03*
G54D66*
X004644086D03*
G54D66*
X004564076D03*
G54D66*
X005444085Y017099879D03*
G54D66*
X005364075D03*
G54D66*
X005284090D03*
G54D66*
X005204080D03*
G54D66*
X005124070D03*
G54D66*
X004884091D03*
G54D66*
X004804081D03*
G54D66*
X004724071D03*
G54D66*
X004644086D03*
G54D66*
X004564076D03*
G54D66*
X005444085Y017034880D03*
G54D66*
X005364075D03*
G54D66*
X005284090D03*
G54D66*
X005204080D03*
G54D66*
X005124070D03*
G54D66*
X004884091D03*
G54D66*
X004804081D03*
G54D66*
X004724071D03*
G54D66*
X004644086D03*
G54D66*
X004564076D03*
G54D66*
X005444085Y016969881D03*
G54D66*
X005364075D03*
G54D66*
X005284090D03*
G54D66*
X005204080D03*
G54D66*
X005124070D03*
G54D66*
X004884091D03*
G54D66*
X004804081D03*
G54D66*
X004724071D03*
G54D66*
X004644086D03*
G54D66*
X004564076D03*
G54D66*
X005444085Y016904883D03*
G54D66*
X005364075D03*
G54D66*
X005284090D03*
G54D66*
X005204080D03*
G54D66*
X005124070D03*
G54D66*
X004884091D03*
G54D66*
X004804081D03*
G54D66*
X004724071D03*
G54D66*
X004644086D03*
G54D66*
X004564076D03*
G54D66*
X005444085Y016839884D03*
G54D66*
X005364075D03*
G54D66*
X005284090D03*
G54D66*
X005204080D03*
G54D66*
X005124070D03*
G54D66*
X004884091D03*
G54D66*
X004804081D03*
G54D66*
X004724071D03*
G54D66*
X004644086D03*
G54D66*
X004564076D03*
G54D67*
X004504589Y013655766D03*
G54D67*
X004745890D03*
G54D68*
X005156100Y013117286D03*
G54D68*
X004876700D03*
G54D69*
X003407970Y016450604D03*
G54D69*
X003597962D03*
G54D69*
X004042462Y017011944D03*
G54D69*
X003852470D03*
G54D69*
X003216556Y016451035D03*
G54D69*
X003026564D03*
G54D69*
X003407564Y016260535D03*
G54D69*
X003597556D03*
G54D69*
X006447004Y014924089D03*
G54D69*
X006257012D03*
G54D70*
X004269208Y016489999D03*
G54D70*
X008541488Y018806505D03*
G54D70*
X009206968Y016906559D03*
G54D70*
Y018204499D03*
G54D70*
X004269208Y018013999D03*
G54D71*
X008609052Y012421986D03*
G54D71*
X008799044D03*
G54D71*
Y012684012D03*
G54D71*
X008704048D03*
G54D71*
X008609052D03*
G54D72*
X004775100Y015654746D03*
G54D72*
X004927500D03*
G54D72*
X004899559Y015032446D03*
G54D72*
X004747160D03*
G54D72*
X004107079Y013551626D03*
G54D72*
X003954679D03*
G54D72*
X001731748Y020239039D03*
G54D72*
X001884148D03*
G54D72*
X003423388Y020419379D03*
G54D72*
X003575788D03*
G54D72*
X003182519Y017737546D03*
G54D72*
X003030119D03*
G54D72*
X004894479Y014438086D03*
G54D72*
X005046880D03*
G54D72*
X004897020Y014311086D03*
G54D72*
X005049420D03*
G54D72*
X003809900Y012243526D03*
G54D72*
X003962299D03*
G54D72*
X003845459Y014425385D03*
G54D72*
X003997860D03*
G54D72*
X002981860Y013848806D03*
G54D72*
X003134260D03*
G54D73*
X003659201Y019861392D03*
G54D73*
X003609214D03*
G54D73*
Y019961366D03*
G54D73*
X003659201D03*
G54D73*
X001726261Y019818212D03*
G54D73*
X001676274D03*
G54D73*
Y019918186D03*
G54D73*
X001726261D03*
G54D73*
X008487741Y013425032D03*
G54D73*
X008437754D03*
G54D73*
Y013525006D03*
G54D73*
X008487741D03*
G54D74*
X002899894Y015427898D03*
G54D74*
Y014681900D03*
G54D74*
X003645892D03*
G54D74*
Y015427898D03*
G54D75*
X006442660Y013299759D03*
G54D75*
X006281675D03*
G54D110*
X003549524Y019861392D03*
X001616584Y019818212D03*
X008378064Y013425032D03*
G54D77*
X002924049Y016020099D03*
G54D77*
X003134056D03*
G54D77*
X002772309Y014268972D03*
G54D77*
X002982317D03*
G54D77*
X003841243Y015687766D03*
G54D77*
X003631236D03*
G54D78*
X004269208Y016649994D03*
G54D78*
Y016330004D03*
G54D78*
X008541488Y018966499D03*
G54D78*
Y018646510D03*
G54D78*
X009206968Y016746565D03*
G54D78*
Y017066554D03*
G54D78*
Y018364494D03*
G54D78*
Y018044505D03*
G54D78*
X004269208Y018173994D03*
G54D78*
Y017854005D03*
G54D79*
X004240430Y013647130D03*
G54D79*
Y013837122D03*
G54D79*
X004166769Y014172401D03*
G54D79*
Y013982410D03*
G54D79*
X004603650Y012978602D03*
G54D79*
Y012788610D03*
G54D79*
X004888129Y011921961D03*
G54D79*
Y011731970D03*
G54D79*
X005007510Y012171390D03*
G54D79*
Y012361381D03*
G54D79*
X004057549Y016499549D03*
G54D79*
Y016689541D03*
G54D80*
X004157880Y014290766D03*
G54D80*
Y014443166D03*
G54D80*
X004439388Y019263679D03*
G54D80*
Y019416079D03*
G54D80*
X002374368Y020404139D03*
G54D80*
Y020251739D03*
G54D80*
X004012668Y020561619D03*
G54D80*
Y020409219D03*
G54D80*
X003294279Y012825185D03*
G54D80*
Y012977586D03*
G54D80*
X005537100Y013483046D03*
G54D80*
Y013635446D03*
G54D81*
X006442178Y013365266D03*
G54D81*
X006402173D03*
G54D81*
X006362168D03*
G54D81*
X006322163D03*
G54D81*
X006282158D03*
G54D81*
Y013234253D03*
G54D81*
X006322163D03*
G54D81*
X006362168D03*
G54D81*
X006402173D03*
G54D82*
X003543199Y017618165D03*
G54D82*
X003995320D03*
G54D83*
X002866493Y015812683D03*
G54D83*
Y015602676D03*
G54D83*
X003390800Y016056929D03*
G54D83*
Y015846922D03*
G54D83*
X003631033Y014091376D03*
G54D83*
Y014301383D03*
G54D83*
X003349093Y014045655D03*
G54D83*
Y014255663D03*
G54D84*
X007983526Y020500278D03*
G54D84*
Y020450266D03*
G54D84*
Y020400253D03*
G54D84*
X008033513Y020500278D03*
G54D84*
Y020450266D03*
G54D84*
Y020400253D03*
G54D85*
X005219168Y019082933D03*
G54D85*
X006509488D03*
G54D85*
X005577308Y016063279D03*
G54D85*
X008386548D03*
G54D86*
X007091580Y016284615D03*
G54D86*
Y016340596D03*
G54D86*
X007147459Y016284615D03*
G54D86*
Y016340596D03*
G54D86*
X001407060Y011735576D03*
G54D86*
Y011679595D03*
G54D86*
X005981599Y010813455D03*
G54D86*
Y010869436D03*
G54D86*
X008658760Y011466235D03*
G54D86*
Y011522216D03*
G54D86*
X004112160Y011115816D03*
G54D86*
Y011059835D03*
G54D86*
X008793380Y019810236D03*
G54D86*
Y019754255D03*
G54D86*
X008814106Y019421185D03*
G54D86*
Y019365203D03*
G54D86*
X008758226Y019421185D03*
G54D86*
Y019365203D03*
G54D86*
X008650708Y020071450D03*
G54D86*
Y020015468D03*
G54D86*
X008861960Y019810236D03*
G54D86*
Y019754255D03*
G54D86*
X008869986Y019421185D03*
G54D86*
Y019365203D03*
G54D86*
X008709128Y020071450D03*
G54D86*
Y020015468D03*
G54D86*
X007393408Y013172810D03*
G54D86*
Y013116828D03*
G54D86*
X007563588Y013675628D03*
G54D86*
Y013731610D03*
G54D86*
X007253708Y013012688D03*
G54D86*
Y013068670D03*
G54D86*
X007195288Y013012688D03*
G54D86*
Y013068670D03*
G54D86*
X005788559Y012738775D03*
G54D86*
Y012794756D03*
G54D86*
X001774928Y014630770D03*
G54D86*
Y014574788D03*
G54D86*
X006537428Y013421730D03*
G54D86*
Y013365748D03*
G54D86*
Y013195568D03*
G54D86*
Y013251550D03*
G54D86*
X006921806Y014912685D03*
G54D86*
Y014856703D03*
G54D86*
X006784671Y014601001D03*
G54D86*
Y014656983D03*
G54D86*
X007749008Y014280250D03*
G54D86*
Y014224268D03*
G54D86*
X008760360Y012776875D03*
G54D86*
Y012832856D03*
G54D86*
X008338288Y015009128D03*
G54D86*
Y015065110D03*
G54D86*
X003025039Y017204196D03*
G54D86*
Y017148215D03*
G54D86*
X008353528Y014158330D03*
G54D86*
Y014102348D03*
G54D86*
X007300291Y015584083D03*
G54D86*
Y015528101D03*
G54D86*
X001694080Y014628636D03*
G54D86*
Y014572655D03*
G54D86*
X001501039Y011979416D03*
G54D86*
Y011923435D03*
G54D86*
X002014120Y012261356D03*
G54D86*
Y012205375D03*
G54D86*
X008102068Y018796370D03*
G54D86*
Y018740388D03*
G54D86*
X008157948Y018796370D03*
G54D86*
Y018740388D03*
G54D86*
X008213828Y018796370D03*
G54D86*
Y018740388D03*
G54D86*
X006517108Y018844630D03*
G54D86*
Y018788648D03*
G54D86*
X006405348Y018844630D03*
G54D86*
Y018788648D03*
G54D86*
X006461228Y018844630D03*
G54D86*
Y018788648D03*
G54D86*
X006349468Y018844630D03*
G54D86*
Y018788648D03*
G54D86*
X008754848Y017417048D03*
G54D86*
Y017473030D03*
G54D86*
X008643088Y017417048D03*
G54D86*
Y017473030D03*
G54D86*
X008698968Y017417048D03*
G54D86*
Y017473030D03*
G54D86*
X003337866Y017330764D03*
G54D86*
Y017274783D03*
G54D86*
X006854928Y013358128D03*
G54D86*
Y013414110D03*
G54D86*
X008640548Y020569290D03*
G54D86*
Y020513308D03*
G54D86*
X008584668Y020566750D03*
G54D86*
Y020510768D03*
G54D86*
X008963560Y012741416D03*
G54D86*
Y012685435D03*
G54D86*
X002415008Y018956288D03*
G54D86*
Y019012270D03*
G54D86*
X002361668Y018288370D03*
G54D86*
Y018232388D03*
G54D86*
X003019528Y018524488D03*
G54D86*
Y018580470D03*
G54D86*
X002201648Y017978388D03*
G54D86*
Y018034370D03*
G54D86*
X002130528Y018069828D03*
G54D86*
Y018125810D03*
G54D86*
X002075080Y012261356D03*
G54D86*
Y012205375D03*
G54D86*
X002727428Y019207850D03*
G54D86*
Y019151868D03*
G54D86*
X002486128Y018956288D03*
G54D86*
Y019012270D03*
G54D86*
X002524228Y018044428D03*
G54D86*
Y018100410D03*
G54D86*
X002580108Y018044428D03*
G54D86*
Y018100410D03*
G54D86*
X002635988Y018044428D03*
G54D86*
Y018100410D03*
G54D86*
X002691868Y018044428D03*
G54D86*
Y018100410D03*
G54D86*
X002747748Y018044428D03*
G54D86*
Y018100410D03*
G54D86*
X002305788Y018288370D03*
G54D86*
Y018232388D03*
G54D86*
X002275308Y017978388D03*
G54D86*
Y018034370D03*
G54D86*
X002453108Y018290910D03*
G54D86*
Y018234928D03*
G54D86*
X005285639Y014316216D03*
G54D86*
Y014260235D03*
G54D86*
X005265319Y013505855D03*
G54D86*
Y013561836D03*
G54D86*
X004823359Y012893715D03*
G54D86*
Y012949696D03*
G54D86*
X004114699Y012085995D03*
G54D86*
Y012141976D03*
G54D86*
X004112160Y012296916D03*
G54D86*
Y012240935D03*
G54D86*
X003284120Y014435495D03*
G54D86*
Y014491476D03*
G54D86*
X002694840Y014826655D03*
G54D86*
Y014882636D03*
G54D86*
X002771040Y014826655D03*
G54D86*
Y014882636D03*
G54D86*
X003787039Y014610755D03*
G54D86*
Y014666736D03*
G54D86*
X003944520Y014679335D03*
G54D86*
Y014735316D03*
G54D86*
X003863239Y014679335D03*
G54D86*
Y014735316D03*
G54D86*
X002765960Y015024775D03*
G54D86*
Y015080756D03*
G54D86*
X003680359Y018463935D03*
G54D86*
Y018519916D03*
G54D86*
X008739608Y011522216D03*
G54D86*
Y011466235D03*
G54D86*
X001333400Y011679595D03*
G54D86*
Y011735576D03*
G54D86*
X004035960Y011059835D03*
G54D86*
Y011115816D03*
G54D86*
X006052719Y010869436D03*
G54D86*
Y010813455D03*
G54D86*
X003251099Y017280295D03*
G54D86*
Y017336276D03*
G54D86*
X007894220Y020445135D03*
G54D86*
Y020501116D03*
G54D86*
X001628039Y015032496D03*
G54D86*
Y014976515D03*
G54D86*
X007263868Y020526110D03*
G54D86*
Y020470128D03*
G54D86*
X007207988Y020526110D03*
G54D86*
Y020470128D03*
G54D86*
X003205786Y016743923D03*
G54D86*
Y016799905D03*
G54D86*
X004813200Y019614555D03*
G54D86*
Y019670536D03*
G54D86*
X004637508Y019710668D03*
G54D86*
Y019766650D03*
G54D86*
X004800068Y019472010D03*
G54D86*
Y019416028D03*
G54D86*
X007417106Y013450407D03*
G54D86*
Y013506388D03*
G54D86*
X005125188Y018382248D03*
G54D86*
Y018438230D03*
G54D86*
X004883888Y018382248D03*
G54D86*
Y018438230D03*
G54D86*
X009201888Y014595210D03*
G54D86*
Y014539228D03*
G54D86*
X007675348Y014224268D03*
G54D86*
Y014280250D03*
G54D86*
X004592626Y020579323D03*
G54D86*
Y020635304D03*
G54D86*
X007797268Y014447890D03*
G54D86*
Y014391908D03*
G54D86*
X008874228Y020376148D03*
G54D86*
Y020432130D03*
G54D86*
X008640548Y020404088D03*
G54D86*
Y020460070D03*
G54D86*
X008556753Y017395026D03*
G54D86*
Y017451008D03*
G54D86*
X008483093Y017328987D03*
G54D86*
Y017384968D03*
G54D86*
X007439128Y019715748D03*
G54D86*
Y019771730D03*
G54D86*
X007655028Y013955130D03*
G54D86*
Y013899148D03*
G54D86*
X007710908Y013955130D03*
G54D86*
Y013899148D03*
G54D86*
X007837908Y013924650D03*
G54D86*
Y013868668D03*
G54D86*
X007914108Y013924650D03*
G54D86*
Y013868668D03*
G54D86*
X007358686Y013449543D03*
G54D86*
Y013505524D03*
G54D86*
X007475526D03*
G54D86*
Y013449543D03*
G54D86*
X004066440Y010877056D03*
G54D86*
Y010821075D03*
G54D86*
X008234148Y015463890D03*
G54D86*
Y015407908D03*
G54D86*
X001615340Y014575195D03*
G54D86*
Y014631176D03*
G54D86*
X001369467Y011468267D03*
G54D86*
Y011524248D03*
G54D86*
X007160159Y015202575D03*
G54D86*
Y015258556D03*
G54D86*
X004203599Y010877056D03*
G54D86*
Y010821075D03*
G54D86*
X005920639Y013622695D03*
G54D86*
Y013678676D03*
G54D86*
X007091986Y014861783D03*
G54D86*
Y014917764D03*
G54D86*
X007147866D03*
G54D86*
Y014861783D03*
G54D86*
X007203746Y014917764D03*
G54D86*
Y014861783D03*
G54D86*
X002227048Y017729468D03*
G54D86*
Y017785450D03*
G54D86*
X002125448Y017729468D03*
G54D86*
Y017785450D03*
G54D86*
X006298668Y015702650D03*
G54D86*
Y015646668D03*
G54D86*
X003192248Y020178130D03*
G54D86*
Y020122148D03*
G54D86*
X006654268Y016004910D03*
G54D86*
Y015948928D03*
G54D86*
X001823188Y020386410D03*
G54D86*
Y020330428D03*
G54D86*
X006959500Y015736076D03*
G54D86*
Y015680095D03*
G54D86*
X001421868Y020287350D03*
G54D86*
Y020231368D03*
G54D86*
X005336439Y013561836D03*
G54D86*
Y013505855D03*
G54D86*
X005194199Y013561836D03*
G54D86*
Y013505855D03*
G54D86*
X005123079Y013480455D03*
G54D86*
Y013536436D03*
G54D86*
X005209440Y014262775D03*
G54D86*
Y014318756D03*
G54D86*
X005138320Y014262775D03*
G54D86*
Y014318756D03*
G54D86*
X004592219Y011913376D03*
G54D86*
Y011857395D03*
G54D86*
X004452520Y011859935D03*
G54D86*
Y011915916D03*
G54D86*
X004239159Y011859935D03*
G54D86*
Y011915916D03*
G54D86*
X004310279Y011859935D03*
G54D86*
Y011915916D03*
G54D86*
X004381400Y011859935D03*
G54D86*
Y011915916D03*
G54D86*
X002590699Y015184795D03*
G54D86*
Y015240776D03*
G54D86*
X004038499Y015436255D03*
G54D86*
Y015492236D03*
G54D86*
X004180740Y015230515D03*
G54D86*
Y015286496D03*
G54D86*
X002611019Y014651496D03*
G54D86*
Y014595515D03*
G54D86*
X002524660D03*
G54D86*
Y014651496D03*
G54D86*
X004879239Y019472416D03*
G54D86*
Y019416435D03*
G54D86*
X008552080Y014199275D03*
G54D86*
Y014255256D03*
G54D86*
X008587640Y011522216D03*
G54D86*
Y011466235D03*
G54D86*
X004188359Y011059835D03*
G54D86*
Y011115816D03*
G54D111*
X003549524Y019961366D03*
X001616584Y019918186D03*
X008378064Y013525006D03*
G54D88*
X002597888Y020172999D03*
G54D88*
Y020482879D03*
G54D88*
X004243808Y020312699D03*
G54D88*
Y020622579D03*
G54D88*
X005155058Y020141859D03*
G54D88*
Y020451739D03*
G54D88*
X004338220Y013046166D03*
G54D88*
Y012736286D03*
G54D88*
X005265319Y012103826D03*
G54D88*
Y012413705D03*
G54D89*
X005059173Y019082933D03*
G54D89*
X005379162D03*
G54D89*
X006349493D03*
G54D89*
X006669482D03*
G54D89*
X005417313Y016063279D03*
G54D89*
X005737302D03*
G54D89*
X008226553D03*
G54D89*
X008546542D03*
G54D90*
X001980439Y012626659D03*
G54D90*
X002270456D03*
G54D90*
X005203699Y015016799D03*
G54D90*
X005493716D03*
G54D90*
X006446216Y014709459D03*
G54D90*
X006156199D03*
G54D90*
X005203699Y015268259D03*
G54D90*
X005493716D03*
G54D90*
X005796383Y012251552D03*
G54D90*
X006086400D03*
G54D90*
X006446216Y014457999D03*
G54D90*
X006156199D03*
G54D91*
X008056297Y019764059D03*
G54D91*
X008112278D03*
G54D91*
X008020737Y019309399D03*
G54D91*
X008076719D03*
G54D91*
X008056297Y019705639D03*
G54D91*
X008112278D03*
G54D91*
X008020737Y019253519D03*
G54D91*
X008076719D03*
G54D91*
X007284264Y019985877D03*
G54D91*
X007228282D03*
G54D91*
X008033437Y013348019D03*
G54D91*
X008089418D03*
G54D91*
X007154597Y013492799D03*
G54D91*
X007210579D03*
G54D91*
X007898918Y012890819D03*
G54D91*
X007842937D03*
G54D91*
X007675399Y013035599D03*
G54D91*
X007619417D03*
G54D91*
X007898918Y012829859D03*
G54D91*
X007842937D03*
G54D91*
X005572177Y012499659D03*
G54D91*
X005628158D03*
G54D91*
X006316397Y014229399D03*
G54D91*
X006372379D03*
G54D91*
X006316397Y014173519D03*
G54D91*
X006372379D03*
G54D91*
X005473219Y014775499D03*
G54D91*
X005417237D03*
G54D91*
X005572177Y012441239D03*
G54D91*
X005628158D03*
G54D91*
X007154698Y015115859D03*
G54D91*
X007098717D03*
G54D91*
X001879550Y019302186D03*
G54D91*
X001823569D03*
G54D91*
X001879550Y019358065D03*
G54D91*
X001823569D03*
G54D91*
X003822650Y019286946D03*
G54D91*
X003766669D03*
G54D91*
X003822650Y019342826D03*
G54D91*
X003766669D03*
G54D91*
X007449669Y014714945D03*
G54D91*
X007505650D03*
G54D91*
X008343317Y012898439D03*
G54D91*
X008399299D03*
G54D91*
X008488198Y015189519D03*
G54D91*
X008432217D03*
G54D91*
X003905861Y016792412D03*
G54D91*
X003961842D03*
G54D91*
X003139289Y017028886D03*
G54D91*
X003195270D03*
G54D91*
X006280837Y016233459D03*
G54D91*
X006336819D03*
G54D91*
X005902377Y018031779D03*
G54D91*
X005958358D03*
G54D91*
X006280837Y016289339D03*
G54D91*
X006336819D03*
G54D91*
X005902377Y018095279D03*
G54D91*
X005958358D03*
G54D91*
X006280837Y016345219D03*
G54D91*
X006336819D03*
G54D91*
X003128799Y018834419D03*
G54D91*
X003072817D03*
G54D91*
X002138198Y018735359D03*
G54D91*
X002082217D03*
G54D91*
X008676997Y012319294D03*
G54D91*
X008621015D03*
G54D91*
X002130578Y018664239D03*
G54D91*
X002074597D03*
G54D91*
X002846757Y018755679D03*
G54D91*
X002902739D03*
G54D91*
X002135659Y018966499D03*
G54D91*
X002079677D03*
G54D91*
X002135659Y018910619D03*
G54D91*
X002079677D03*
G54D91*
X002148359Y018384839D03*
G54D91*
X002092377D03*
G54D91*
X002846757Y018699799D03*
G54D91*
X002902739D03*
G54D91*
X002138198Y018791239D03*
G54D91*
X002082217D03*
G54D91*
X002130578Y018590579D03*
G54D91*
X002074597D03*
G54D91*
X002828977Y018308639D03*
G54D91*
X002884958D03*
G54D91*
X002138198Y018847119D03*
G54D91*
X002082217D03*
G54D91*
X002148359Y018328959D03*
G54D91*
X002092377D03*
G54D91*
X001010769Y011887925D03*
G54D91*
X001066750D03*
G54D91*
X003573730Y014572706D03*
G54D91*
X003517749D03*
G54D91*
X003073249Y014560006D03*
G54D91*
X003129230D03*
G54D91*
X002682089Y015271206D03*
G54D91*
X002738070D03*
G54D91*
X003936950Y015408366D03*
G54D91*
X003880969D03*
G54D91*
X003931870Y015235646D03*
G54D91*
X003875889D03*
G54D91*
X003936950Y014880045D03*
G54D91*
X003880969D03*
G54D91*
X003931870Y015322006D03*
G54D91*
X003875889D03*
G54D91*
X002839569Y014496505D03*
G54D91*
X002895550D03*
G54D91*
X002839569Y014562545D03*
G54D91*
X002895550D03*
G54D91*
X003888589Y018497006D03*
G54D91*
X003944570D03*
G54D91*
X003794609Y018202366D03*
G54D91*
X003850590D03*
G54D91*
X005768290Y013800545D03*
G54D91*
X005712309D03*
G54D91*
X005572710Y014074866D03*
G54D91*
X005516729D03*
G54D91*
X005593030Y013719266D03*
G54D91*
X005537049D03*
G54D91*
X007914158Y019568479D03*
G54D91*
X007858177D03*
G54D91*
X009059698Y019466879D03*
G54D91*
X009003717D03*
G54D91*
X008053757Y019471959D03*
G54D91*
X008109738D03*
G54D91*
X007896277Y019385599D03*
G54D91*
X007952258D03*
G54D91*
X008858937Y019507519D03*
G54D91*
X008914918D03*
G54D91*
X008858937Y019563399D03*
G54D91*
X008914918D03*
G54D91*
X008859369Y019622226D03*
G54D91*
X008915350D03*
G54D91*
X008340777Y020104419D03*
G54D91*
X008396758D03*
G54D91*
X007934377Y019624359D03*
G54D91*
X007990358D03*
G54D91*
X009057590Y011821886D03*
G54D91*
X009001609D03*
G54D91*
X008874609D03*
G54D91*
X008930590D03*
G54D91*
X008950377Y014719619D03*
G54D91*
X009006358D03*
G54D91*
X008935137Y014948219D03*
G54D91*
X008991118D03*
G54D91*
X008935137Y014892339D03*
G54D91*
X008991118D03*
G54D91*
X008950809Y014798765D03*
G54D91*
X009006790D03*
G54D91*
X002598675Y020617474D03*
G54D91*
X002654657D03*
G54D91*
X002916175Y020536194D03*
G54D91*
X002972157D03*
G54D91*
X002860295Y020602234D03*
G54D91*
X002916277D03*
G54D91*
X002506524Y020615797D03*
G54D91*
X002450542D03*
G54D91*
X004518179Y020614959D03*
G54D91*
X004462197D03*
G54D91*
X003139695Y016944634D03*
G54D91*
X003195677D03*
G54D91*
X008999170Y019269166D03*
G54D91*
X008943189D03*
G54D91*
X008571917Y014892339D03*
G54D91*
X008627899D03*
G54D91*
X008571917Y014948219D03*
G54D91*
X008627899D03*
G54D91*
X008574889Y014801305D03*
G54D91*
X008630870D03*
G54D91*
X008574457Y014719619D03*
G54D91*
X008630439D03*
G54D91*
X007096177Y020528599D03*
G54D91*
X007152159D03*
G54D91*
Y020470179D03*
G54D91*
X007096177D03*
G54D91*
X008477937Y017795559D03*
G54D91*
X008533919D03*
G54D91*
X008477937Y017605059D03*
G54D91*
X008533919D03*
G54D91*
X008477937Y017660939D03*
G54D91*
X008533919D03*
G54D91*
X001498550Y012101286D03*
G54D91*
X001554532D03*
G54D91*
X006004409Y011100526D03*
G54D91*
X006060390D03*
G54D91*
X008048677Y013205779D03*
G54D91*
X008104658D03*
G54D91*
X008213777Y013200699D03*
G54D91*
X008269758D03*
G54D91*
X006478957Y015298739D03*
G54D91*
X006534939D03*
G54D91*
X006478957Y015237779D03*
G54D91*
X006534939D03*
G54D91*
X006478957Y015179359D03*
G54D91*
X006534939D03*
G54D91*
X007370624Y015312277D03*
G54D91*
X007314642D03*
G54D91*
X006534939Y015354619D03*
G54D91*
X006478957D03*
G54D91*
X002900199Y018529619D03*
G54D91*
X002844217D03*
G54D91*
X002900199Y018473739D03*
G54D91*
X002844217D03*
G54D91*
X006003571Y011024783D03*
G54D91*
X006059552D03*
G54D91*
X001485926Y011524807D03*
G54D91*
X001429945D03*
G54D91*
X005783861Y013684112D03*
G54D91*
X005839842D03*
G54D91*
X006303799Y012535219D03*
G54D91*
X006247817D03*
G54D91*
X003195677Y016876054D03*
G54D91*
X003139695D03*
G54D91*
X009156219Y015283499D03*
G54D91*
X009100237D03*
G54D91*
X008483550Y015271206D03*
G54D91*
X008427569D03*
G54D91*
X009100237Y015339379D03*
G54D91*
X009156219D03*
G54D91*
X006308904Y015830437D03*
G54D91*
X006252922D03*
G54D91*
X002122857Y020373659D03*
G54D91*
X002178839D03*
G54D91*
X004621531Y019884430D03*
G54D91*
X004677513D03*
G54D91*
X003072817Y018778539D03*
G54D91*
X003128799D03*
G54D91*
X005837302Y013615532D03*
G54D91*
X005781321D03*
G54D91*
X007282537Y014605294D03*
G54D91*
X007226555D03*
G54D91*
X007282537Y014663714D03*
G54D91*
X007226555D03*
G54D91*
X006848095Y018687074D03*
G54D91*
X006904077D03*
G54D91*
X008541970Y016498026D03*
G54D91*
X008485989D03*
G54D91*
X008529270Y016904426D03*
G54D91*
X008473289D03*
G54D91*
X001066750Y011816806D03*
G54D91*
X001010769D03*
G54D91*
X004089173Y010950081D03*
G54D91*
X004033191D03*
G54D91*
X001374294Y011589603D03*
G54D91*
X001318312D03*
G54D91*
X008727289Y011593286D03*
G54D91*
X008783270D03*
G54D91*
X006011165Y010946043D03*
G54D91*
X006067147D03*
G54D91*
X008290079Y013124499D03*
G54D91*
X008234097D03*
G54D91*
X008013117Y013281979D03*
G54D91*
X008069099D03*
G54D91*
X005587849Y013876745D03*
G54D91*
X005643830D03*
G54D91*
X002588109Y015471865D03*
G54D91*
X002644090D03*
G54D91*
X002504289Y015380425D03*
G54D91*
X002560270D03*
G54D91*
X002644090Y015542985D03*
G54D91*
X002588109D03*
G54D91*
X002758390Y014737805D03*
G54D91*
X002702409D03*
G54D91*
X003678175Y014579259D03*
G54D91*
X003734157D03*
G54D91*
X002605889Y014951165D03*
G54D91*
X002661870D03*
G54D91*
X004079190Y014981645D03*
G54D91*
X004023209D03*
G54D91*
X003888690Y014979106D03*
G54D91*
X003832709D03*
G54D91*
X003931870Y015078166D03*
G54D91*
X003875889D03*
G54D91*
X004122370Y014905445D03*
G54D91*
X004066389D03*
G54D91*
X003942030Y015149286D03*
G54D91*
X003886049D03*
G54D91*
X004028289Y015322006D03*
G54D91*
X004084270D03*
G54D91*
X002758390Y014651446D03*
G54D91*
X002702409D03*
G54D91*
X003880969Y014808926D03*
G54D91*
X003936950D03*
G54D91*
X004023209Y015078166D03*
G54D91*
X004079190D03*
G54D91*
X003875889Y015494725D03*
G54D91*
X003931870D03*
G54D91*
X002682089Y015200086D03*
G54D91*
X002738070D03*
G54D91*
X004038449Y015230565D03*
G54D91*
X004094430D03*
G54D91*
X008529270Y016973006D03*
G54D91*
X008473289D03*
G54D91*
X008562290Y017120326D03*
G54D91*
X008506309D03*
G54D91*
X002760930Y014575245D03*
G54D91*
X002704949D03*
G54D91*
X008496149Y017884866D03*
G54D91*
X008552130D03*
G54D91*
X008483449Y016566606D03*
G54D91*
X008539430D03*
G54D91*
X008478369Y017727386D03*
G54D91*
X008534350D03*
G54D91*
X008506309Y017181286D03*
G54D91*
X008562290D03*
G54D91*
X008265110Y016335465D03*
G54D91*
X008209129D03*
G54D91*
X003909010Y020081966D03*
G54D91*
X003853029D03*
G54D91*
X002110690Y019947345D03*
G54D91*
X002054709D03*
G54D91*
X008915350Y019680646D03*
G54D91*
X008859369D03*
G54D91*
X003779470Y020142926D03*
G54D91*
X003723489D03*
G54D91*
X002047190Y020013386D03*
G54D91*
X001991209D03*
G54D91*
X003853029Y020142926D03*
G54D91*
X003909010D03*
G54D91*
X002115669Y020013386D03*
G54D91*
X002171650D03*
G54D91*
X006847689Y018748466D03*
G54D91*
X006903670D03*
G54D91*
X007917029Y020320726D03*
G54D91*
X007973010D03*
G54D91*
X008100010D03*
G54D91*
X008044029D03*
G54D91*
X001480669Y011679646D03*
G54D91*
X001536650D03*
G54D91*
X005900370Y010869386D03*
G54D91*
X005844389D03*
G54D92*
X005333646Y014154876D03*
G54D92*
X005283633D03*
G54D92*
X005233646D03*
G54D92*
X005183633D03*
G54D92*
X005133646D03*
G54D92*
X005083633D03*
G54D92*
X005033646D03*
G54D92*
X004983634D03*
G54D92*
Y013674816D03*
G54D92*
X005033646D03*
G54D92*
X005083633D03*
G54D92*
X005133646D03*
G54D92*
X005183633D03*
G54D92*
X005233646D03*
G54D92*
X005283633D03*
G54D92*
X005333646D03*
G54D93*
X004471570Y014229806D03*
G54D93*
X004707790D03*
G54D94*
X007543268Y011491050D03*
G54D94*
Y011781068D03*
G54D94*
X002669008Y019721108D03*
G54D94*
Y019431091D03*
G54D94*
X009126119Y013038317D03*
G54D94*
Y013328334D03*
G54D95*
X006766028Y013558636D03*
G54D95*
Y013853682D03*
G54D95*
X004899128Y015163916D03*
G54D95*
Y015458962D03*
G54D96*
X004918609Y014089852D03*
G54D96*
Y014039839D03*
G54D96*
Y013989852D03*
G54D96*
Y013939839D03*
G54D96*
Y013889852D03*
G54D96*
Y013839839D03*
G54D96*
Y013789852D03*
G54D96*
Y013739840D03*
G54D96*
X005398670D03*
G54D96*
Y013789852D03*
G54D96*
Y013839839D03*
G54D96*
Y013889852D03*
G54D96*
Y013939839D03*
G54D96*
Y013989852D03*
G54D96*
Y014039839D03*
G54D96*
Y014089852D03*
G54D97*
X006816828Y015273339D03*
G54D98*
X004300374Y012019726D03*
G54D98*
X004350386D03*
G54D98*
X004400373D03*
G54D98*
X004450386D03*
G54D98*
X004500373D03*
G54D98*
X004550386D03*
G54D98*
X004600373D03*
G54D98*
X004650386D03*
G54D98*
Y012512918D03*
G54D98*
X004600373D03*
G54D98*
X004550386D03*
G54D98*
X004500373D03*
G54D98*
X004450386D03*
G54D98*
X004400373D03*
G54D98*
X004350386D03*
G54D98*
X004300374D03*
G54D99*
X003399562Y017131984D03*
G54D99*
X003449550D03*
G54D99*
X003499562D03*
G54D99*
X003549550D03*
G54D99*
X003599562D03*
G54D99*
X003649549D03*
G54D99*
Y016736963D03*
G54D99*
X003599562D03*
G54D99*
X003549550D03*
G54D99*
X003499562D03*
G54D99*
X003449550D03*
G54D99*
X003399562D03*
G54D100*
X006962370Y015198358D03*
G54D100*
Y015248346D03*
G54D100*
Y015298333D03*
G54D100*
Y015348320D03*
G54D100*
X006671286D03*
G54D100*
Y015298333D03*
G54D100*
Y015248346D03*
G54D100*
Y015198358D03*
G54D101*
X004720617Y012093920D03*
G54D101*
Y012143932D03*
G54D101*
Y012193919D03*
G54D101*
Y012243932D03*
G54D101*
Y012293919D03*
G54D101*
Y012343932D03*
G54D101*
Y012393919D03*
G54D101*
Y012443932D03*
G54D101*
X004230142D03*
G54D101*
Y012393919D03*
G54D101*
Y012343932D03*
G54D101*
Y012293919D03*
G54D101*
Y012243932D03*
G54D101*
Y012193919D03*
G54D101*
Y012143932D03*
G54D101*
Y012093920D03*
G54D102*
X008980552Y015102549D03*
G54D102*
Y015182560D03*
G54D102*
Y015262519D03*
G54D102*
Y015342529D03*
G54D102*
X008595183D03*
G54D102*
Y015262519D03*
G54D102*
Y015182560D03*
G54D102*
Y015102549D03*
G54D103*
X004572509Y019609119D03*
G54D103*
X004637508D03*
G54D103*
X004702506D03*
G54D103*
Y019421159D03*
G54D103*
X004637508D03*
G54D103*
X004572509D03*
G54D34*
X000799999Y000000000D02*
Y010750005D01*
Y010600005D02*
X009300008D01*
Y000000000D01*
X010100008Y000599999D02*
X000000000D01*
X009300008Y010600005D02*
Y000599999D01*
X000799999D01*
Y010600005D01*
X009300008D01*
X000599999Y007750060D02*
Y008600074D01*
X009450008Y005067899D02*
Y003467900D01*
X005386999Y000399999D02*
X004536999D01*
X000799999D02*
Y000599999D01*
X004149999Y000399999D02*
Y000599999D01*
X004536999Y000399999D02*
Y000599999D01*
X005386999Y000399999D02*
Y000599999D01*
X000599999Y008600074D02*
X000799999D01*
X000599999Y007750060D02*
X000799999D01*
X009450008Y003467900D02*
X009300008D01*
X009450008Y005067899D02*
X009300008D01*
X009450008Y006083899D02*
X009300008D01*
X009450008Y009183899D02*
X009300008D01*
X004149999Y000399999D02*
X000699999D01*
X009450008Y009183899D02*
Y006083899D01*
X009300008Y021350011D02*
Y010600005D01*
Y010750005D02*
X000799999D01*
Y021350011D01*
X000000000Y020750011D02*
X010100008D01*
X000799999Y010750005D02*
Y020750011D01*
X009300008D01*
Y010750005D01*
X000799999D01*
X009500008Y013599950D02*
Y012749936D01*
X000650000Y016282111D02*
Y017882110D01*
X004713008Y020950011D02*
X005563008D01*
X009300008D02*
Y020750011D01*
X005950008Y020950011D02*
Y020750011D01*
X005563008Y020950011D02*
Y020750011D01*
X004713008Y020950011D02*
Y020750011D01*
X009500008Y012749936D02*
X009300008D01*
X009500008Y013599950D02*
X009300008D01*
X000650000Y017882110D02*
X000799999D01*
X000650000Y016282111D02*
X000799999D01*
X000650000Y015266111D02*
X000799999D01*
X000650000Y012166111D02*
X000799999D01*
X005950008Y020950011D02*
X009387623D01*
X000650000Y012166111D02*
Y015266111D01*
X009980008Y000000000D02*
X000120000D01*
Y021350011D02*
X009980008D01*
X000000000Y000120000D02*
Y021230011D01*
X010100008D02*
Y000120000D01*
G54D112*
X009600008Y018750010D03*
Y002600000D03*
X000500000Y002100000D03*
G54D34*
X000000000Y010675005D02*
X010100008D01*
Y000120000D02*
G02X009980008Y000000000I-000120000J000000000D01*
Y021350011D02*
G02X010100008Y021230011I000000000J-000120000D01*
X000000000D02*
G02X000120000Y021350011I000120000J000000000D01*
Y000000000D02*
G02X000000000Y000120000I000000000J000120000D01*
X009400008Y020950011D02*
G01Y020750011D01*
X000699999Y000399999D02*
Y000599999D01*
M02*
