*
%FSLAX45Y45*%
%MOMM*%
G04 A1 - i274x.macro30.d30+1 *
%AMA1gtp_lev.gbr*
4,1,6,
-0.203200,-0.304800,
-0.203200,0.304800,
0.000000,0.304800,
0.000000,-0.101600,
0.203200,-0.101600,
0.203200,-0.304800,
-0.203200,-0.304800,
0.0000*
%
G04 A2 - i274x.macro31.d31+1 *
%AMA2gtp_lev.gbr*
4,1,6,
0.203200,-0.304800,
-0.203200,-0.304800,
-0.203200,-0.101600,
0.000000,-0.101600,
0.000000,0.304800,
0.203200,0.304800,
0.203200,-0.304800,
0.0000*
%
G04 A3 - i274x.macro27.d27+1 *
%AMA3gtp_lev.gbr*
4,1,6,
0.203200,0.304800,
0.203200,-0.304800,
0.000000,-0.304800,
0.000000,0.101600,
-0.203200,0.101600,
-0.203200,0.304800,
0.203200,0.304800,
0.0000*
%
G04 A4 - i274x.macro29.d29+1 *
%AMA4gtp_lev.gbr*
4,1,6,
-0.203200,0.304800,
0.203200,0.304800,
0.203200,0.101600,
0.000000,0.101600,
0.000000,-0.304800,
-0.203200,-0.304800,
-0.203200,0.304800,
0.0000*
%
G04 A5 - i274x.macro30.d30+1 180 *
%AMA5gtp_lev.gbr*
4,1,6,
0.203200,0.304800,
0.203200,-0.304800,
0.000000,-0.304800,
0.000000,0.101600,
-0.203200,0.101600,
-0.203200,0.304800,
0.203200,0.304800,
0.0000*
%
G04 A6 - i274x.macro31.d31+1 180 *
%AMA6gtp_lev.gbr*
4,1,6,
-0.203200,0.304800,
0.203200,0.304800,
0.203200,0.101600,
0.000000,0.101600,
0.000000,-0.304800,
-0.203200,-0.304800,
-0.203200,0.304800,
0.0000*
%
G04 A7 - i274x.macro27.d27+1 180 *
%AMA7gtp_lev.gbr*
4,1,6,
-0.203200,-0.304800,
-0.203200,0.304800,
0.000000,0.304800,
0.000000,-0.101600,
0.203200,-0.101600,
0.203200,-0.304800,
-0.203200,-0.304800,
0.0000*
%
G04 A8 - i274x.macro29.d29+1 180 *
%AMA8gtp_lev.gbr*
4,1,6,
0.203200,-0.304800,
-0.203200,-0.304800,
-0.203200,-0.101600,
0.000000,-0.101600,
0.000000,0.304800,
0.203200,0.304800,
0.203200,-0.304800,
0.0000*
%
%ADD10R,0.762000X0.304800*%
%ADD11R,0.304800X0.762000*%
%ADD12O,0.812800X0.228600*%
%ADD13A1gtp_lev.gbr*%
%ADD14R,1.524000X0.304800*%
%ADD15O,0.228600X0.812800*%
%ADD16R,0.660400X1.599945*%
%ADD17R,1.143000X1.041400*%
%ADD18R,0.304800X1.524000*%
%ADD19A2gtp_lev.gbr*%
%ADD20R,2.209800X1.498600*%
%ADD21R,0.660400X2.133600*%
%ADD22R,1.778000X2.082800*%
%ADD23R,1.270000X0.762000*%
%ADD24R,0.762000X0.762000*%
%ADD25R,0.649985X0.549910*%
%ADD26R,0.400050X1.350000*%
%ADD27R,1.346200X1.803400*%
%ADD28O,1.422400X0.889000*%
%ADD29R,0.914400X1.016000*%
%ADD30R,3.200400X2.311400*%
%ADD31R,1.800097X1.899920*%
%ADD32R,1.117600X2.260600*%
%ADD33R,2.006600X0.609600*%
%ADD34R,1.422400X1.168400*%
%ADD35R,1.498600X0.609600*%
%ADD36R,0.812800X1.397000*%
%ADD37O,0.508000X0.609600*%
%ADD38R,1.350000X0.400050*%
%ADD39R,1.905000X1.092200*%
%ADD40R,1.803400X1.193800*%
%ADD41R,0.660400X1.295400*%
%ADD42O,0.609600X0.508000*%
%ADD43R,0.203200X0.711200*%
%ADD44R,0.228600X0.660400*%
%ADD45R,1.899920X1.800097*%
%ADD46R,0.599947X1.150112*%
%ADD47R,0.863600X0.990600*%
%ADD48R,0.889000X0.711200*%
%ADD49R,0.330200X0.660400*%
%ADD50A3gtp_lev.gbr*%
%ADD51C,0.127000*%
%ADD52R,1.160017X1.500125*%
%ADD53R,1.193800X1.803400*%
%ADD54R,0.508000X2.006600*%
%ADD55R,0.508000X0.660400*%
%ADD56R,0.508000X0.609600*%
%ADD57R,0.203200X0.499872*%
%ADD58R,1.701800X2.108200*%
%ADD59R,1.447800X1.803400*%
%ADD60R,1.143000X0.457200*%
%ADD61O,0.609600X1.016000*%
%ADD62A4gtp_lev.gbr*%
%ADD63R,1.270000X1.219200*%
%ADD64R,1.092200X0.457200*%
%ADD65R,0.787400X0.990600*%
%ADD66O,1.016000X0.609600*%
%ADD67R,0.990600X0.787400*%
%ADD68O,0.381000X0.355600*%
%ADD69C,0.330200*%
%ADD70O,0.355600X0.381000*%
%ADD71R,0.635000X0.152400*%
%ADD72R,0.299975X1.899920*%
%ADD73A5gtp_lev.gbr*%
%ADD74A6gtp_lev.gbr*%
%ADD75A7gtp_lev.gbr*%
%ADD76A8gtp_lev.gbr*%
%ADD77C,0.254000*%
%ADD78C,1.000000*%
%IPPOS*%
%LNgtp_lev.gbr*%
%LPD*%
%SRX1Y1I0J0*%
G01*
G75*
G36*
X002561159Y008179130D02*
Y008079131D01*
X002461159D01*
Y008179130D01*
X002561159D01*
G37*
G36*
Y008029118D02*
Y007929144D01*
X002461159D01*
Y008029118D01*
X002561159D01*
G37*
G36*
Y007879131D02*
Y007779131D01*
X002461159D01*
Y007879131D01*
X002561159D01*
G37*
G36*
X002411147D02*
Y007779131D01*
X002311172D01*
Y007879131D01*
X002411147D01*
G37*
G36*
Y008029118D02*
Y007929144D01*
X002311172D01*
Y008029118D01*
X002411147D01*
G37*
G36*
Y008179130D02*
Y008079131D01*
X002311172D01*
Y008179130D01*
X002411147D01*
G37*
G36*
X002261159D02*
Y008079131D01*
X002161160D01*
Y008179130D01*
X002261159D01*
G37*
G36*
Y008029118D02*
Y007929144D01*
X002161160D01*
Y008029118D01*
X002261159D01*
G37*
G36*
Y007879131D02*
Y007779131D01*
X002161160D01*
Y007879131D01*
X002261159D01*
G37*
G36*
X007727392Y002964383D02*
X007854392D01*
Y002837384D01*
X007727392D01*
Y002964383D01*
G37*
G36*
Y002787371D02*
X007854392D01*
Y002660371D01*
X007727392D01*
Y002787371D01*
G37*
G36*
Y002610358D02*
X007854392D01*
Y002483358D01*
X007727392D01*
Y002610358D01*
G37*
G36*
X007550379D02*
X007677379D01*
Y002483358D01*
X007550379D01*
Y002610358D01*
G37*
G36*
X007373367D02*
X007500367D01*
Y002483358D01*
X007373367D01*
Y002610358D01*
G37*
G36*
Y002787371D02*
X007500367D01*
Y002660371D01*
X007373367D01*
Y002787371D01*
G37*
G36*
Y002964383D02*
X007500367D01*
Y002837384D01*
X007373367D01*
Y002964383D01*
G37*
G36*
X007550379D02*
X007677379D01*
Y002837384D01*
X007550379D01*
Y002964383D01*
G37*
G36*
Y002787371D02*
X007677379D01*
Y002660371D01*
X007550379D01*
Y002787371D01*
G37*
G54D10*
X002705101Y008254137D03*
Y008204124D03*
Y008154137D03*
Y008104124D03*
Y008054137D03*
Y008004124D03*
Y007954137D03*
Y007904125D03*
Y007854137D03*
Y007804125D03*
Y007754138D03*
Y007704125D03*
X002017218D03*
Y007754138D03*
Y007804125D03*
Y007854137D03*
Y007904125D03*
Y007954137D03*
Y008004124D03*
Y008054137D03*
Y008104124D03*
Y008154137D03*
Y008204124D03*
Y008254137D03*
G54D11*
X002636165Y007635190D03*
X002586153D03*
X002536165D03*
X002486153D03*
X002436166D03*
X002386153D03*
X002336166D03*
X002286153D03*
X002236166D03*
X002186153D03*
X002136166D03*
X002086154D03*
Y008323072D03*
X002136166D03*
X002186153D03*
X002236166D03*
X002286153D03*
X002336166D03*
X002386153D03*
X002436166D03*
X002486153D03*
X002536165D03*
X002586153D03*
X002636165D03*
G54D12*
X008006258Y003043860D03*
Y003003881D03*
Y002963875D03*
Y002923871D03*
Y002883866D03*
Y002843860D03*
Y002803881D03*
Y002763876D03*
Y002723871D03*
Y002683866D03*
Y002643861D03*
Y002603881D03*
Y002563876D03*
Y002523871D03*
Y002483866D03*
Y002443861D03*
Y002403882D03*
X007218960D03*
Y002443861D03*
Y002483866D03*
Y002523871D03*
Y002563876D03*
Y002603881D03*
Y002643861D03*
Y002683866D03*
Y002723871D03*
Y002763876D03*
Y002803881D03*
Y002843860D03*
Y002883866D03*
Y002923871D03*
Y002963875D03*
Y003003881D03*
Y003043860D03*
G54D13*
X005025975Y001488618D03*
G54D14*
X002646909Y006938620D03*
Y006888582D03*
Y006838544D03*
Y006788506D03*
Y006738468D03*
Y006688430D03*
Y006638392D03*
Y006588354D03*
Y006538316D03*
Y006488278D03*
Y006438240D03*
Y006388202D03*
X001806169D03*
Y006438240D03*
Y006488278D03*
Y006538316D03*
Y006588354D03*
Y006638392D03*
Y006688430D03*
Y006738468D03*
Y006788506D03*
Y006838544D03*
Y006888582D03*
Y006938620D03*
G54D15*
X007933869Y002331492D03*
X007893889D03*
X007853884D03*
X007813879D03*
X007773874D03*
X007733869D03*
X007693889D03*
X007653884D03*
X007613879D03*
X007573874D03*
X007533869D03*
X007493890D03*
X007453885D03*
X007413880D03*
X007373875D03*
X007333870D03*
X007293890D03*
Y003116250D03*
X007333870D03*
X007373875D03*
X007413880D03*
X007453885D03*
X007493890D03*
X007533869D03*
X007573874D03*
X007613879D03*
X007653884D03*
X007693889D03*
X007733869D03*
X007773874D03*
X007813879D03*
X007853884D03*
X007893889D03*
X007933869D03*
G54D16*
X000900024Y001950289D03*
G54D17*
X001337539Y009461221D03*
X001002259D03*
X001337539Y009606001D03*
X001002259D03*
X008761959D03*
X009097239D03*
X008761959Y009461221D03*
X009097239D03*
G54D18*
X002501748Y006243041D03*
X002451710D03*
X002401672D03*
X002351634D03*
X002301596D03*
X002251558D03*
X002201520D03*
X002151482D03*
X002101444D03*
X002051406D03*
X002001368D03*
X001951330D03*
Y007083781D03*
X002001368D03*
X002051406D03*
X002101444D03*
X002151482D03*
X002201520D03*
X002251558D03*
X002301596D03*
X002351634D03*
X002401672D03*
X002451710D03*
X002501748D03*
G54D19*
X004856608Y001488618D03*
G54D20*
X006352820Y009935083D03*
Y009635059D03*
X005882819D03*
Y009935083D03*
G54D21*
X000900024Y001442289D03*
G54D22*
X007278574Y009885731D03*
Y009448851D03*
G54D23*
X001522223Y006249391D03*
Y006376391D03*
Y006503391D03*
Y006630391D03*
X001112216D03*
Y006503391D03*
Y006376391D03*
Y006249391D03*
G54D24*
X008174635Y004067582D03*
X008024648D03*
X007874661D03*
Y004468902D03*
X008024648D03*
X008174635D03*
X008674253Y003567608D03*
X008574253D03*
X008474253D03*
X008374254D03*
X008274254D03*
X008174254D03*
X008074254D03*
X007974254D03*
X007874255D03*
X007774255D03*
X007674255D03*
X007574255D03*
X007474256D03*
X007374256D03*
X007274256Y003667608D03*
Y003767608D03*
Y003867607D03*
Y003967607D03*
Y004067607D03*
Y004167607D03*
Y004267607D03*
Y004367607D03*
Y004467581D03*
Y004567581D03*
Y004667581D03*
Y004767580D03*
Y004867580D03*
X007374256Y004967580D03*
X007474256D03*
X007574255D03*
X007674255D03*
X007774255D03*
X007874255D03*
X007974254D03*
X008074254D03*
X008174254D03*
X008274254D03*
X008374254D03*
X008474253D03*
X008574253D03*
X008674253D03*
G54D25*
X008332141Y002371040D03*
X008221498D03*
X008332141Y002451862D03*
X008221498Y002451837D03*
G54D26*
X004831944Y001013486D03*
X004896943D03*
X004961942D03*
X005026940D03*
X005091939D03*
G54D27*
X000935025Y000779298D03*
G54D28*
X004445229Y009959315D03*
Y010149307D03*
X004615409Y009959315D03*
Y010149307D03*
X005529809Y009959315D03*
Y010149307D03*
X004785589Y009959315D03*
Y010149307D03*
X006677889Y009692615D03*
Y009882607D03*
G54D29*
X006978879Y004733011D03*
Y004570451D03*
X006856959D03*
Y004733011D03*
G54D30*
X003789147Y009098687D03*
Y006168695D03*
G54D31*
X004846956Y000745998D03*
X005076953D03*
G54D32*
X001800023Y005412512D03*
X002000022D03*
X002200022D03*
X002400021D03*
X002600021D03*
X002800020D03*
X003000020D03*
X003200020D03*
X003400019D03*
X003600019D03*
X003800019D03*
X004000018D03*
X004200018D03*
X004400017D03*
X004600017D03*
X004800017D03*
X005000016D03*
X005200016D03*
X005400015D03*
X005600015D03*
X001800023Y005787517D03*
X002000022D03*
X002200022D03*
X002400021D03*
X002600021D03*
X002800020D03*
X003000020D03*
X003200020D03*
X003400019D03*
X003600019D03*
X003800019D03*
X004000018D03*
X004200018D03*
X004400017D03*
X004600017D03*
X004800017D03*
X005000016D03*
X005200016D03*
X005400015D03*
X005600015D03*
G54D33*
X003729153Y008813699D03*
Y008733689D03*
Y008653679D03*
Y008573694D03*
Y008493684D03*
Y008413700D03*
Y008333690D03*
Y008253680D03*
Y007853680D03*
Y007773696D03*
Y007693686D03*
Y007613701D03*
Y007533691D03*
Y007453681D03*
Y007373697D03*
Y007293687D03*
Y007213702D03*
Y007133692D03*
Y007053682D03*
Y006973697D03*
Y006893687D03*
Y006813703D03*
Y006733693D03*
Y006653683D03*
Y006573698D03*
Y006493688D03*
X004549166Y008773694D03*
Y008693684D03*
Y008613699D03*
Y008533689D03*
Y008453679D03*
Y008373695D03*
Y008293684D03*
Y008213700D03*
Y007813701D03*
Y007733691D03*
Y007653681D03*
Y007573696D03*
Y007493686D03*
Y007413701D03*
Y007333692D03*
Y007253681D03*
Y007173697D03*
Y007093687D03*
Y007013702D03*
Y006933692D03*
Y006853682D03*
Y006773698D03*
Y006693688D03*
Y006613703D03*
Y006533693D03*
Y006453683D03*
G54D34*
X003182367Y008173441D03*
X002962352D03*
X003182367Y008013421D03*
X002962352D03*
G54D35*
X001312546Y005050511D03*
Y004948911D03*
G54D36*
X001791514Y000984301D03*
X001681506D03*
X001571524D03*
X001461517D03*
X001351509D03*
X001241502D03*
X001131520D03*
X001021512D03*
G54D37*
X002917013Y008360131D03*
X002821306D03*
X006983553Y002744191D03*
X006887846D03*
X001731646Y004095471D03*
X001827353D03*
X002992349Y002941498D03*
X002896642D03*
X003377998Y005001921D03*
X003282290D03*
X004021913Y004235171D03*
X003926206D03*
X004169233Y003541751D03*
X004073526D03*
X001619886Y004473931D03*
X001715593D03*
X007002146Y002205711D03*
X007097853D03*
X001299820Y002740813D03*
X001395527D03*
X001299820Y002827173D03*
X001395527D03*
X004237813Y003175991D03*
X004142106D03*
X004237813Y003097251D03*
X004142106D03*
X005064126Y003978631D03*
X005159833D03*
X004628973Y004466311D03*
X004533266D03*
X008260741Y005730825D03*
X008165034D03*
X006958534Y004201744D03*
X007054241D03*
X003181986Y008332191D03*
X003277693D03*
X002966086Y007869911D03*
X003061793D03*
X007002146Y002286991D03*
X007097853D03*
X002135506Y007265391D03*
X002231213D03*
X008221346Y002231111D03*
X008317053D03*
X007239661Y005885765D03*
X007143954D03*
X002597354Y005062805D03*
X002693061D03*
G54D38*
X001212876Y008305064D03*
Y008240065D03*
Y008175067D03*
Y008110068D03*
Y008045069D03*
G54D39*
X001566165Y002646299D03*
Y002896286D03*
G54D40*
X000929387Y005179695D03*
Y004819726D03*
G54D41*
X002290014Y002144294D03*
G54D42*
X007895819Y003288157D03*
Y003383865D03*
X001585596Y003111272D03*
Y003015565D03*
X001980159Y008519744D03*
Y008424037D03*
X008096479Y003333064D03*
Y003237357D03*
X001197839Y003975685D03*
Y003879977D03*
X001035279Y003975685D03*
Y003879977D03*
X005096739Y003521837D03*
Y003617544D03*
X004779239Y004567505D03*
Y004471797D03*
X005520919Y002858897D03*
Y002954605D03*
X005668239Y003354197D03*
Y003449905D03*
X005602199Y002858897D03*
Y002954605D03*
X004522699Y005078045D03*
Y004982337D03*
X001114019Y003975685D03*
Y003879977D03*
X004443959Y005078045D03*
Y004982337D03*
X001276579Y003975685D03*
Y003879977D03*
X002284959Y006081344D03*
Y005985637D03*
X004200119Y005078045D03*
Y004982337D03*
X004283939Y005078045D03*
Y004982337D03*
X004365219Y005078045D03*
Y004982337D03*
X002861539Y006587617D03*
Y006683324D03*
Y006858584D03*
Y006762877D03*
X008449539Y002451684D03*
Y002355977D03*
X006724447Y005802351D03*
Y005898058D03*
X006831127Y005639791D03*
Y005735498D03*
X006549187Y005802351D03*
Y005898058D03*
X002444548Y004976851D03*
Y005072558D03*
G54D43*
X008428280Y002222653D03*
X008478292D03*
X008528279D03*
X008578267D03*
X008628279D03*
Y002117649D03*
X008578267D03*
X008528279D03*
X008478292D03*
X008428280D03*
X006401359Y002222653D03*
X006451372D03*
X006501359D03*
X006551347D03*
X006601359D03*
Y002117649D03*
X006551347D03*
X006501359D03*
X006451372D03*
X006401359D03*
G54D44*
X002799614Y006044819D03*
X002759634D03*
X002719604D03*
X002679625D03*
Y006128842D03*
X002719604D03*
X002759634D03*
G54D45*
X000945389Y008290052D03*
Y008060055D03*
G54D46*
X002292503Y001551813D03*
G54D47*
X005505755Y009337116D03*
X005340656D03*
G54D48*
X005417871Y001325423D03*
Y001195426D03*
X005607864Y001260424D03*
G54D49*
X002804694Y006128842D03*
G54D50*
X004856608Y001388644D03*
G54D51*
X000799999Y000599999D02*
Y010600005D01*
X009300008D01*
Y000599999D01*
X000799999D01*
G54D52*
X002264512Y000754304D03*
G54D53*
X005004639Y009594165D03*
X005294656D03*
G54D54*
X002915006Y001921917D03*
X002994991D03*
X003075001D03*
X003155011D03*
X003234996D03*
X003315005D03*
X003394990D03*
X003475000D03*
X003555010D03*
X003634995D03*
X003715005D03*
X003794989D03*
X003874999D03*
X003955009D03*
X004034994D03*
X004115004D03*
X004194989D03*
X004274998D03*
X004355009D03*
X004434993D03*
X004515003D03*
X004594988D03*
X004674998D03*
X004755008D03*
X004834992D03*
X004915002D03*
X004994987D03*
X005074997D03*
X005155007D03*
X005234992D03*
X002915006Y002362556D03*
X002994991D03*
X003075001D03*
X003155011D03*
X003234996D03*
X003315005D03*
X003394990D03*
X003475000D03*
X003555010D03*
X003634995D03*
X003715005D03*
X003794989D03*
X003874999D03*
X003955009D03*
X004034994D03*
X004115004D03*
X004194989D03*
X004274998D03*
X004355009D03*
X004434993D03*
X004515003D03*
X004594988D03*
X004674998D03*
X004755008D03*
X004834992D03*
X004915002D03*
X004994987D03*
X005074997D03*
X005155007D03*
X005234992D03*
G54D55*
X001573327Y004815307D03*
X001523340Y004929302D03*
X001623315D03*
G54D56*
X001003936Y009246692D03*
Y009134729D03*
X008614208Y009566326D03*
Y009454363D03*
G54D57*
X004916298Y001388644D03*
X004966285D03*
Y001488618D03*
X004916298D03*
G54D58*
X003350489Y007104228D03*
X003078709Y007113118D03*
Y006513424D03*
X003350489D03*
G54D59*
X006973850Y009490431D03*
X006679109D03*
G54D60*
X000925018Y002166798D03*
G54D61*
X005576799Y005126711D03*
X005424399D03*
X005778805Y009337116D03*
X005626405D03*
G54D62*
X005025975Y001388644D03*
G54D63*
X003333979Y007791374D03*
Y007496328D03*
G54D64*
X000922503Y002100809D03*
G54D65*
X003408223Y006228258D03*
X003244495D03*
G54D66*
X008278928Y005393005D03*
Y005240605D03*
G54D67*
X007489419Y000900735D03*
Y000737007D03*
X005673319Y000923595D03*
Y000759867D03*
X005551399Y000923595D03*
Y000759867D03*
X007611339Y000900735D03*
Y000737007D03*
X007245579Y000900735D03*
Y000737007D03*
X007367499Y000900735D03*
Y000737007D03*
G54D68*
X007725208Y003299994D03*
Y003355975D03*
X007781088Y003299994D03*
Y003355975D03*
X002528799Y004341902D03*
Y004285920D03*
X002584679Y004341902D03*
Y004285920D03*
X002696439Y008515122D03*
Y008459140D03*
X002086839Y008489722D03*
Y008433740D03*
X002000479Y006030900D03*
Y006086882D03*
X002427199Y007318782D03*
Y007262800D03*
X005099279Y004357142D03*
Y004301160D03*
X005645379Y004057320D03*
Y004113302D03*
X005023079Y003117622D03*
Y003061640D03*
X005652999Y004352062D03*
Y004296080D03*
X005642839Y003904920D03*
Y003960902D03*
X004545559Y003295320D03*
Y003351302D03*
X005111979Y004448480D03*
Y004504462D03*
X005099279Y004181780D03*
Y004237762D03*
X002630399Y003259760D03*
Y003315742D03*
X002686279Y003259760D03*
Y003315742D03*
X003092679Y004354500D03*
Y004410482D03*
X002925039Y004329100D03*
Y004385082D03*
Y004273322D03*
Y004217340D03*
X002869159Y004341902D03*
Y004285920D03*
X002302739Y004034562D03*
Y003978580D03*
X002411959Y003513862D03*
Y003457880D03*
X004527779Y004219880D03*
Y004275862D03*
X002808199Y004067480D03*
Y004123462D03*
X002874239Y005172482D03*
Y005116500D03*
X002470379Y003605302D03*
Y003549320D03*
X002244319Y003757600D03*
Y003813582D03*
Y003922802D03*
Y003866820D03*
X005089119Y003363900D03*
Y003419882D03*
X002693899Y003435020D03*
Y003491002D03*
X002302739Y003648380D03*
Y003704362D03*
X003316199Y003551962D03*
Y003495980D03*
X003090139Y004110660D03*
Y004166642D03*
X002470379Y004341902D03*
Y004285920D03*
X003209519Y004354500D03*
Y004410482D03*
X002698979Y004285920D03*
Y004341902D03*
X002643099Y004285920D03*
Y004341902D03*
X002754859Y004285920D03*
Y004341902D03*
X002574519Y003282620D03*
Y003338602D03*
X002246859Y003978580D03*
Y004034562D03*
X005129759Y003206420D03*
Y003262402D03*
X004649699Y003605200D03*
Y003661182D03*
X003250159Y003666262D03*
Y003610280D03*
X002930119Y003371622D03*
Y003315640D03*
X002358619Y003978580D03*
Y004034562D03*
X002808199Y003734842D03*
Y003678860D03*
X001515339Y003932962D03*
Y003876980D03*
X001401039Y003932962D03*
Y003876980D03*
X001456919Y003932962D03*
Y003876980D03*
X003034259Y004349420D03*
Y004405402D03*
X003151099Y004354500D03*
Y004410482D03*
X002810739Y004341902D03*
Y004285920D03*
X001664336Y003058389D03*
Y003002407D03*
X003151099Y004110660D03*
Y004166642D03*
X002643099Y003714522D03*
Y003658540D03*
X003034259Y003549320D03*
Y003605302D03*
X002866619Y003734842D03*
Y003678860D03*
X002752319Y004057320D03*
Y004113302D03*
X002467839Y003983660D03*
Y004039642D03*
X002698979Y003717062D03*
Y003661080D03*
X002978379Y003549320D03*
Y003605302D03*
X002925039Y003691662D03*
Y003635680D03*
X002858999Y003516402D03*
Y003460420D03*
X003191739Y003666262D03*
Y003610280D03*
X001345159Y003932962D03*
Y003876980D03*
X005020539Y004598442D03*
Y004542460D03*
X005343119Y003178582D03*
Y003122600D03*
X003374619Y004153942D03*
Y004097960D03*
X007519899Y003305582D03*
Y003249600D03*
X003971519Y003597682D03*
Y003541700D03*
X003913099Y003597682D03*
Y003541700D03*
X003260319Y003495980D03*
Y003551962D03*
X008022819Y002165020D03*
Y002221002D03*
X008027899Y003280182D03*
Y003224200D03*
X007575779Y003305582D03*
Y003249600D03*
X007408139Y003305582D03*
Y003249600D03*
X007464019Y003305582D03*
Y003249600D03*
X007352259Y003305582D03*
Y003249600D03*
X008078699Y002165020D03*
Y002221002D03*
X007733259Y002165020D03*
Y002221002D03*
X007852639Y002121840D03*
Y002177822D03*
X003031719Y004113200D03*
Y004169182D03*
X008134579Y002165020D03*
Y002221002D03*
X007969479Y003280182D03*
Y003224200D03*
X002246859Y003704362D03*
Y003648380D03*
X002742159Y003295320D03*
Y003351302D03*
X006635548Y005852694D03*
Y005908675D03*
X002952548Y004788942D03*
Y004732960D03*
X002500428Y007475855D03*
Y007419874D03*
X001715567Y004963795D03*
Y004907814D03*
X002185899Y003313202D03*
Y003257220D03*
X007062268Y004117975D03*
Y004061994D03*
X003316199Y004402862D03*
Y004346880D03*
X001753261Y003569767D03*
Y003513786D03*
X002901341Y007666686D03*
Y007722667D03*
X003204439Y004509440D03*
Y004565422D03*
X003148559Y004796562D03*
Y004740580D03*
X002932659Y005063262D03*
Y005007280D03*
X003181579Y007778522D03*
Y007722540D03*
X002155419Y002810282D03*
Y002754300D03*
X005652136Y002348459D03*
Y002404440D03*
X002871699Y007443140D03*
Y007499122D03*
X001832408Y003698875D03*
Y003642894D03*
X001906067Y003698875D03*
Y003642894D03*
X001840028Y003317774D03*
Y003373755D03*
X001979728Y003711474D03*
Y003767455D03*
X002444979Y007450862D03*
Y007394880D03*
X002389099Y007450862D03*
Y007394880D03*
X002259559Y007494042D03*
Y007438060D03*
X002203679Y007405142D03*
Y007349160D03*
X004987519Y003752622D03*
Y003696640D03*
X004931639Y003899840D03*
Y003955822D03*
X004990059Y003899840D03*
Y003955822D03*
X002587219Y007227240D03*
Y007283222D03*
X007227799Y003226740D03*
Y003282722D03*
X007286219Y003226740D03*
Y003282722D03*
X002874239Y005063262D03*
Y005007280D03*
X004624299Y003422320D03*
Y003478302D03*
X002215947Y002680335D03*
Y002624354D03*
X001829461Y003457905D03*
Y003513887D03*
X002615159Y004811802D03*
Y004755820D03*
X002864079Y004788942D03*
Y004732960D03*
X002610079Y007534682D03*
Y007478700D03*
X002757399Y004872762D03*
Y004816780D03*
X005162348Y001374775D03*
Y001318794D03*
X006252008Y002517267D03*
Y002573249D03*
X006788354Y002867787D03*
Y002923769D03*
X006782868Y003538754D03*
Y003594735D03*
X001771448Y004288054D03*
Y004344035D03*
X003071928Y002878354D03*
Y002934335D03*
X003150668Y002868194D03*
Y002924175D03*
X003257347Y002840254D03*
Y002896235D03*
G54D69*
X006330036Y002941701D03*
X006230037D03*
X006130037D03*
X006430036D03*
X006530036D03*
X006130037Y002841701D03*
X006230037D03*
X006330036D03*
X006530036D03*
X006430036D03*
X006130037Y002741702D03*
X006230037D03*
X006330036D03*
X006530036D03*
X006430036D03*
X006130037Y003041701D03*
X006230037D03*
X006330036D03*
X006530036D03*
X006430036D03*
X006130037Y003141701D03*
X006230037D03*
X006330036D03*
X006430036D03*
G54D70*
X006798057Y004869765D03*
X006854038D03*
X001156412Y009273693D03*
X001100430D03*
X001822629Y008220431D03*
X001878610D03*
X001825168Y007753071D03*
X001881150D03*
X001825168Y008108671D03*
X001881150D03*
X002843810Y007029171D03*
X002787829D03*
X001591489Y006889471D03*
X001647470D03*
X002978430Y006152871D03*
X002922449D03*
X002978430Y006094451D03*
X002922449D03*
X003819170Y005116551D03*
X003763188D03*
X003819170Y004946371D03*
X003763188D03*
X004675049Y003767811D03*
X004731030D03*
X002523770Y003658591D03*
X002467789D03*
X004802150Y003142971D03*
X004746169D03*
X005315230Y003831311D03*
X005259249D03*
X005299889Y004529811D03*
X005355870D03*
X003034310Y003371571D03*
X002978329D03*
X003034310Y003315691D03*
X002978329D03*
X002917470Y004123411D03*
X002861488D03*
X008230718Y005586045D03*
X008174737D03*
X005655488Y004212311D03*
X005711470D03*
X004906189Y003564611D03*
X004962170D03*
X005279670Y003554451D03*
X005223688D03*
X002356130Y003490951D03*
X002300149D03*
X004146830Y004176751D03*
X004090849D03*
X008230718Y005517465D03*
X008174737D03*
X007011848Y004331691D03*
X007067830D03*
X007011848Y004387571D03*
X007067830D03*
X001776477Y003965524D03*
X001832458D03*
X004873169Y003765271D03*
X004929150D03*
X002310308Y003889731D03*
X002366290D03*
X004738549Y004161511D03*
X004794530D03*
X002808123Y003325013D03*
X002864105D03*
X002356130Y003435071D03*
X002300149D03*
X003127350Y005002276D03*
X003183332D03*
X004146830Y004291051D03*
X004090849D03*
X002643049Y004115791D03*
X002699030D03*
X002300250D03*
X002244269D03*
X002358569Y004169131D03*
X002414550D03*
X002808123Y003261513D03*
X002864105D03*
X002310308Y003831311D03*
X002366290D03*
X004146830Y004235171D03*
X004090849D03*
X002523770Y003714471D03*
X002467789D03*
X003819170Y005060671D03*
X003763188D03*
X003455950Y003889731D03*
X003399968D03*
X005439588Y003836391D03*
X005495570D03*
X005457470Y003148051D03*
X005401489D03*
X003265348Y003836391D03*
X003321330D03*
X003184068Y003442691D03*
X003240050D03*
X002490750Y003320771D03*
X002434769D03*
X002414550Y004227551D03*
X002358569D03*
X003186710Y003882111D03*
X003130729D03*
X004197630Y003254731D03*
X004141648D03*
X002366290Y003775431D03*
X002310308D03*
X003140990Y003666211D03*
X003085009D03*
X003819170Y005004791D03*
X003763188D03*
X004916349Y003366491D03*
X004972330D03*
X002528749Y003828771D03*
X002584730D03*
X001660068Y004405351D03*
X001716050D03*
X008230718Y005654625D03*
X008174737D03*
X007011848Y004275811D03*
X007067830D03*
X002764943Y002951633D03*
X002820925D03*
X002541449Y003770351D03*
X002597430D03*
X002300149Y003379191D03*
X002356130D03*
X003031669Y003998951D03*
X003087650D03*
X002970810Y004014191D03*
X002914829D03*
X002638070Y003493491D03*
X002582089D03*
X002693950Y003998951D03*
X002637969D03*
X003031669Y003943071D03*
X003087650D03*
X003018968Y003780511D03*
X003074950D03*
X003034208Y003724631D03*
X003090190D03*
X003090089Y004057371D03*
X003146070D03*
X002691309Y003887191D03*
X002747290D03*
X002693950Y003943071D03*
X002637969D03*
X003074849Y003493491D03*
X003130830D03*
X002747290Y003772891D03*
X002691309D03*
X004197630Y003318231D03*
X004141648D03*
X003311170Y003948151D03*
X003255189D03*
X004642130Y004400271D03*
X004586148D03*
X005071289Y004047211D03*
X005127270D03*
X004746169Y003087091D03*
X004802150D03*
X003222270Y004283431D03*
X003166289D03*
X003311170Y003892271D03*
X003255189D03*
X003321330Y004166591D03*
X003265348D03*
X003379750Y003717011D03*
X003323769D03*
X003588030Y003945611D03*
X003532049D03*
X002747290Y003828771D03*
X002691309D03*
X003585490Y003887191D03*
X003529509D03*
X007055028Y002358111D03*
X007111010D03*
X003034310Y003259811D03*
X002978329D03*
X003204490Y003381731D03*
X003148509D03*
X007108368Y003282671D03*
X007164350D03*
X006996177Y005895925D03*
X007052158D03*
X006869278Y005903545D03*
X006813297D03*
X006955638Y005819725D03*
X006899657D03*
X006950558Y003391485D03*
X006894577D03*
X002670963Y007475805D03*
X002726945D03*
X002020317Y004791025D03*
X002076298D03*
X006897549Y002955011D03*
X006953530D03*
X006897549Y002899131D03*
X006953530D03*
X001558138Y004694505D03*
X001502157D03*
X001792225Y003045613D03*
X001736243D03*
X002249780Y003393009D03*
X002193799D03*
X006998818Y004951045D03*
X006942837D03*
X006998818Y004869765D03*
X006942837D03*
X007067830Y004453611D03*
X007011848D03*
X007576567Y005126050D03*
X007632548D03*
X006839129Y002373351D03*
X006895110D03*
X006839129Y002429231D03*
X006895110D03*
X002071218Y004506545D03*
X002015237D03*
X003236570Y006347613D03*
X003292552D03*
X003143530Y004677131D03*
X003087548D03*
X002787829Y007110451D03*
X002843810D03*
X001302030Y009202598D03*
X001246048D03*
X002959812Y007600696D03*
X002903830D03*
X002325650Y003595091D03*
X002269669D03*
X002279498Y002748865D03*
X002223517D03*
X002375917Y002743785D03*
X002431898D03*
X005531130Y004070071D03*
X005475148D03*
X001291769Y007069811D03*
X001347750D03*
X001291769Y006942811D03*
X001347750D03*
X002671065Y007414413D03*
X002615083D03*
X006958610Y002510511D03*
X006902628D03*
X001350290Y007323811D03*
X001294309D03*
X004926610Y003699231D03*
X004870629D03*
X001619428Y003546831D03*
X001675410D03*
X001294309Y007450811D03*
X001350290D03*
X001832788Y003148051D03*
X001888770D03*
X007014389Y002805151D03*
X007070370D03*
X007014389Y002873731D03*
X007070370D03*
X003313685Y004795673D03*
X003257703D03*
X001156412Y009202573D03*
X001100430D03*
X008284389Y002551151D03*
X008340370D03*
X008284389Y002607031D03*
X008340370D03*
X005185589Y001674851D03*
X005241570D03*
X004329177Y002548205D03*
X004385158D03*
X004194557Y002545665D03*
X004250538D03*
X004441369Y004067531D03*
X004497350D03*
X005454397Y001456005D03*
X005510378D03*
X002507997Y002743785D03*
X002563978D03*
X005185589Y001618971D03*
X005241570D03*
X002424177Y004829125D03*
X002480158D03*
X002396770Y002888971D03*
X002340788D03*
X002151889Y004993463D03*
X002207870D03*
X001878077Y004214445D03*
X001934058D03*
X002787092Y007414413D03*
X002731110D03*
X002480158Y004763084D03*
X002424177D03*
X006190997Y003368625D03*
X006246978D03*
X006787897Y003457524D03*
X006843878D03*
X006894577Y003315285D03*
X006950558D03*
X006392774Y003368878D03*
X006336793D03*
X001598778Y003432124D03*
X001542797D03*
X001845158Y004458285D03*
X001789177D03*
X001951737Y004681805D03*
X002007718D03*
X002480158Y004895165D03*
X002424177D03*
X002650338Y004940885D03*
X002594357D03*
X002243837Y003151708D03*
X002299818D03*
X003468218Y002921584D03*
X003412237D03*
X003660496Y002914980D03*
X003604515D03*
X003780638Y003048584D03*
X003724657D03*
X003709518Y003142565D03*
X003653537D03*
X003661258Y002847163D03*
X003605277D03*
X002677770Y004745736D03*
X002733752D03*
G54D71*
X006733998Y003385846D03*
Y003350844D03*
Y003315843D03*
X006816497D03*
Y003350844D03*
Y003385846D03*
G54D72*
X003775787Y001447064D03*
X003325775D03*
X003275788D03*
X003225775D03*
X003175788D03*
X003125775D03*
X003075788D03*
X003025776D03*
X002975789D03*
X002925776D03*
X002875789D03*
X003725774D03*
X003675787D03*
X003625775D03*
X003575787D03*
X003525775D03*
X003475788D03*
X003425775D03*
X003375788D03*
G36*
X007538848Y013170880D02*
Y013270879D01*
X007638848D01*
Y013170880D01*
X007538848D01*
G37*
G36*
Y013320892D02*
Y013420866D01*
X007638848D01*
Y013320892D01*
X007538848D01*
G37*
G36*
Y013470879D02*
Y013570879D01*
X007638848D01*
Y013470879D01*
X007538848D01*
G37*
G36*
X007688861D02*
Y013570879D01*
X007788835D01*
Y013470879D01*
X007688861D01*
G37*
G36*
Y013320892D02*
Y013420866D01*
X007788835D01*
Y013320892D01*
X007688861D01*
G37*
G36*
Y013170880D02*
Y013270879D01*
X007788835D01*
Y013170880D01*
X007688861D01*
G37*
G36*
X007838848D02*
Y013270879D01*
X007938847D01*
Y013170880D01*
X007838848D01*
G37*
G36*
Y013320892D02*
Y013420866D01*
X007938847D01*
Y013320892D01*
X007838848D01*
G37*
G36*
Y013470879D02*
Y013570879D01*
X007938847D01*
Y013470879D01*
X007838848D01*
G37*
G36*
X002372615Y018385627D02*
X002245615D01*
Y018512627D01*
X002372615D01*
Y018385627D01*
G37*
G36*
Y018562639D02*
X002245615D01*
Y018689639D01*
X002372615D01*
Y018562639D01*
G37*
G36*
Y018739652D02*
X002245615D01*
Y018866652D01*
X002372615D01*
Y018739652D01*
G37*
G36*
X002549628D02*
X002422628D01*
Y018866652D01*
X002549628D01*
Y018739652D01*
G37*
G36*
X002726640D02*
X002599640D01*
Y018866652D01*
X002726640D01*
Y018739652D01*
G37*
G36*
Y018562639D02*
X002599640D01*
Y018689639D01*
X002726640D01*
Y018562639D01*
G37*
G36*
Y018385627D02*
X002599640D01*
Y018512627D01*
X002726640D01*
Y018385627D01*
G37*
G36*
X002549628D02*
X002422628D01*
Y018512627D01*
X002549628D01*
Y018385627D01*
G37*
G36*
Y018562639D02*
X002422628D01*
Y018689639D01*
X002549628D01*
Y018562639D01*
G37*
G54D10*
X007394906Y013095873D03*
G54D10*
Y013145886D03*
G54D10*
Y013195873D03*
G54D10*
Y013245886D03*
G54D10*
Y013295873D03*
G54D10*
Y013345885D03*
G54D10*
Y013395873D03*
G54D10*
Y013445885D03*
G54D10*
Y013495872D03*
G54D10*
Y013545885D03*
G54D10*
Y013595872D03*
G54D10*
Y013645885D03*
G54D10*
X008082789D03*
G54D10*
Y013595872D03*
G54D10*
Y013545885D03*
G54D10*
Y013495872D03*
G54D10*
Y013445885D03*
G54D10*
Y013395873D03*
G54D10*
Y013345885D03*
G54D10*
Y013295873D03*
G54D10*
Y013245886D03*
G54D10*
Y013195873D03*
G54D10*
Y013145886D03*
G54D10*
Y013095873D03*
G54D11*
X007463842Y013714820D03*
G54D11*
X007513854D03*
G54D11*
X007563842D03*
G54D11*
X007613854D03*
G54D11*
X007663841D03*
G54D11*
X007713854D03*
G54D11*
X007763841D03*
G54D11*
X007813854D03*
G54D11*
X007863841D03*
G54D11*
X007913854D03*
G54D11*
X007963841D03*
G54D11*
X008013853D03*
G54D11*
Y013026938D03*
G54D11*
X007963841D03*
G54D11*
X007913854D03*
G54D11*
X007863841D03*
G54D11*
X007813854D03*
G54D11*
X007763841D03*
G54D11*
X007713854D03*
G54D11*
X007663841D03*
G54D11*
X007613854D03*
G54D11*
X007563842D03*
G54D11*
X007513854D03*
G54D11*
X007463842D03*
G54D12*
X002093748Y018306150D03*
G54D12*
Y018346129D03*
G54D12*
Y018386134D03*
G54D12*
Y018426140D03*
G54D12*
Y018466145D03*
G54D12*
Y018506149D03*
G54D12*
Y018546129D03*
G54D12*
Y018586134D03*
G54D12*
Y018626139D03*
G54D12*
Y018666144D03*
G54D12*
Y018706149D03*
G54D12*
Y018746129D03*
G54D12*
Y018786134D03*
G54D12*
Y018826139D03*
G54D12*
Y018866144D03*
G54D12*
Y018906149D03*
G54D12*
Y018946128D03*
G54D12*
X002881047D03*
G54D12*
Y018906149D03*
G54D12*
Y018866144D03*
G54D12*
Y018826139D03*
G54D12*
Y018786134D03*
G54D12*
Y018746129D03*
G54D12*
Y018706149D03*
G54D12*
Y018666144D03*
G54D12*
Y018626139D03*
G54D12*
Y018586134D03*
G54D12*
Y018546129D03*
G54D12*
Y018506149D03*
G54D12*
Y018466145D03*
G54D12*
Y018426140D03*
G54D12*
Y018386134D03*
G54D12*
Y018346129D03*
G54D12*
Y018306150D03*
G54D73*
X005074032Y019861392D03*
G54D14*
X007453098Y014411390D03*
G54D14*
Y014461428D03*
G54D14*
Y014511466D03*
G54D14*
Y014561504D03*
G54D14*
Y014611542D03*
G54D14*
Y014661580D03*
G54D14*
Y014711618D03*
G54D14*
Y014761656D03*
G54D14*
Y014811694D03*
G54D14*
Y014861732D03*
G54D14*
Y014911770D03*
G54D14*
Y014961808D03*
G54D14*
X008293838D03*
G54D14*
Y014911770D03*
G54D14*
Y014861732D03*
G54D14*
Y014811694D03*
G54D14*
Y014761656D03*
G54D14*
Y014711618D03*
G54D14*
Y014661580D03*
G54D14*
Y014611542D03*
G54D14*
Y014561504D03*
G54D14*
Y014511466D03*
G54D14*
Y014461428D03*
G54D14*
Y014411390D03*
G54D15*
X002166139Y019018518D03*
G54D15*
X002206118D03*
G54D15*
X002246123D03*
G54D15*
X002286128D03*
G54D15*
X002326133D03*
G54D15*
X002366138D03*
G54D15*
X002406118D03*
G54D15*
X002446123D03*
G54D15*
X002486128D03*
G54D15*
X002526133D03*
G54D15*
X002566138D03*
G54D15*
X002606117D03*
G54D15*
X002646122D03*
G54D15*
X002686127D03*
G54D15*
X002726132D03*
G54D15*
X002766137D03*
G54D15*
X002806117D03*
G54D15*
Y018233760D03*
G54D15*
X002766137D03*
G54D15*
X002726132D03*
G54D15*
X002686127D03*
G54D15*
X002646122D03*
G54D15*
X002606117D03*
G54D15*
X002566138D03*
G54D15*
X002526133D03*
G54D15*
X002486128D03*
G54D15*
X002446123D03*
G54D15*
X002406118D03*
G54D15*
X002366138D03*
G54D15*
X002326133D03*
G54D15*
X002286128D03*
G54D15*
X002246123D03*
G54D15*
X002206118D03*
G54D15*
X002166139D03*
G54D16*
X009199983Y019399722D03*
G54D17*
X008762468Y011888789D03*
G54D17*
X009097748D03*
G54D17*
X008762468Y011744009D03*
G54D17*
X009097748D03*
G54D17*
X001338048D03*
G54D17*
X001002768D03*
G54D17*
X001338048Y011888789D03*
G54D17*
X001002768D03*
G54D18*
X007598259Y015106969D03*
G54D18*
X007648297D03*
G54D18*
X007698335D03*
G54D18*
X007748373D03*
G54D18*
X007798411D03*
G54D18*
X007848449D03*
G54D18*
X007898487D03*
G54D18*
X007948525D03*
G54D18*
X007998563D03*
G54D18*
X008048601D03*
G54D18*
X008098639D03*
G54D18*
X008148677D03*
G54D18*
Y014266229D03*
G54D18*
X008098639D03*
G54D18*
X008048601D03*
G54D18*
X007998563D03*
G54D18*
X007948525D03*
G54D18*
X007898487D03*
G54D18*
X007848449D03*
G54D18*
X007798411D03*
G54D18*
X007748373D03*
G54D18*
X007698335D03*
G54D18*
X007648297D03*
G54D18*
X007598259D03*
G54D74*
X005243399Y019861392D03*
G54D20*
X003747187Y011414927D03*
G54D20*
Y011714952D03*
G54D20*
X004217189D03*
G54D20*
Y011414927D03*
G54D21*
X009199983Y019907722D03*
G54D22*
X002821433Y011464279D03*
G54D22*
Y011901159D03*
G54D23*
X008577784Y015100619D03*
G54D23*
Y014973619D03*
G54D23*
Y014846619D03*
G54D23*
Y014719619D03*
G54D23*
X008987791D03*
G54D23*
Y014846619D03*
G54D23*
Y014973619D03*
G54D23*
Y015100619D03*
G54D24*
X001925372Y017282428D03*
G54D24*
X002075359D03*
G54D24*
X002225346D03*
G54D24*
Y016881108D03*
G54D24*
X002075359D03*
G54D24*
X001925372D03*
G54D24*
X001425754Y017782402D03*
G54D24*
X001525754D03*
G54D24*
X001625753D03*
G54D24*
X001725753D03*
G54D24*
X001825753D03*
G54D24*
X001925753D03*
G54D24*
X002025753D03*
G54D24*
X002125752D03*
G54D24*
X002225752D03*
G54D24*
X002325752D03*
G54D24*
X002425752D03*
G54D24*
X002525752D03*
G54D24*
X002625752D03*
G54D24*
X002725751D03*
G54D24*
X002825751Y017682402D03*
G54D24*
Y017582402D03*
G54D24*
Y017482403D03*
G54D24*
Y017382403D03*
G54D24*
Y017282403D03*
G54D24*
Y017182403D03*
G54D24*
Y017082403D03*
G54D24*
Y016982403D03*
G54D24*
Y016882429D03*
G54D24*
Y016782429D03*
G54D24*
Y016682429D03*
G54D24*
Y016582430D03*
G54D24*
Y016482430D03*
G54D24*
X002725751Y016382430D03*
G54D24*
X002625752D03*
G54D24*
X002525752D03*
G54D24*
X002425752D03*
G54D24*
X002325752D03*
G54D24*
X002225752D03*
G54D24*
X002125752D03*
G54D24*
X002025753D03*
G54D24*
X001925753D03*
G54D24*
X001825753D03*
G54D24*
X001725753D03*
G54D24*
X001625753D03*
G54D24*
X001525754D03*
G54D24*
X001425754D03*
G54D25*
X001767866Y018978971D03*
G54D25*
X001878509D03*
G54D25*
X001767866Y018898148D03*
G54D25*
X001878509Y018898173D03*
G54D26*
X005268063Y020336524D03*
G54D26*
X005203064D03*
G54D26*
X005138065D03*
G54D26*
X005073067D03*
G54D26*
X005008068D03*
G54D27*
X009164982Y020570712D03*
G54D28*
X005654778Y011390695D03*
G54D28*
Y011200703D03*
G54D28*
X005484598Y011390695D03*
G54D28*
Y011200703D03*
G54D28*
X004570198Y011390695D03*
G54D28*
Y011200703D03*
G54D28*
X005314418Y011390695D03*
G54D28*
Y011200703D03*
G54D28*
X003422118Y011657395D03*
G54D28*
Y011467403D03*
G54D29*
X003121128Y016616999D03*
G54D29*
Y016779559D03*
G54D29*
X003243048D03*
G54D29*
Y016616999D03*
G54D30*
X006310860Y012251323D03*
G54D30*
Y015181315D03*
G54D31*
X005253051Y020604012D03*
G54D31*
X005023054D03*
G54D32*
X008299984Y015937498D03*
G54D32*
X008099985D03*
G54D32*
X007899985D03*
G54D32*
X007699986D03*
G54D32*
X007499986D03*
G54D32*
X007299986D03*
G54D32*
X007099987D03*
G54D32*
X006899987D03*
G54D32*
X006699988D03*
G54D32*
X006499988D03*
G54D32*
X006299988D03*
G54D32*
X006099989D03*
G54D32*
X005899989D03*
G54D32*
X005699990D03*
G54D32*
X005499990D03*
G54D32*
X005299991D03*
G54D32*
X005099991D03*
G54D32*
X004899991D03*
G54D32*
X004699992D03*
G54D32*
X004499992D03*
G54D32*
X008299984Y015562493D03*
G54D32*
X008099985D03*
G54D32*
X007899985D03*
G54D32*
X007699986D03*
G54D32*
X007499986D03*
G54D32*
X007299986D03*
G54D32*
X007099987D03*
G54D32*
X006899987D03*
G54D32*
X006699988D03*
G54D32*
X006499988D03*
G54D32*
X006299988D03*
G54D32*
X006099989D03*
G54D32*
X005899989D03*
G54D32*
X005699990D03*
G54D32*
X005499990D03*
G54D32*
X005299991D03*
G54D32*
X005099991D03*
G54D32*
X004899991D03*
G54D32*
X004699992D03*
G54D32*
X004499992D03*
G54D33*
X006370855Y012536311D03*
G54D33*
Y012616321D03*
G54D33*
Y012696331D03*
G54D33*
Y012776316D03*
G54D33*
Y012856326D03*
G54D33*
Y012936310D03*
G54D33*
Y013016321D03*
G54D33*
Y013096331D03*
G54D33*
Y013496330D03*
G54D33*
Y013576314D03*
G54D33*
Y013656324D03*
G54D33*
Y013736309D03*
G54D33*
Y013816319D03*
G54D33*
Y013896329D03*
G54D33*
Y013976314D03*
G54D33*
Y014056324D03*
G54D33*
Y014136308D03*
G54D33*
Y014216318D03*
G54D33*
Y014296328D03*
G54D33*
Y014376313D03*
G54D33*
Y014456323D03*
G54D33*
Y014536307D03*
G54D33*
Y014616317D03*
G54D33*
Y014696327D03*
G54D33*
Y014776312D03*
G54D33*
Y014856322D03*
G54D33*
X005550841Y012576316D03*
G54D33*
Y012656326D03*
G54D33*
Y012736311D03*
G54D33*
Y012816321D03*
G54D33*
Y012896331D03*
G54D33*
Y012976316D03*
G54D33*
Y013056326D03*
G54D33*
Y013136310D03*
G54D33*
Y013536309D03*
G54D33*
Y013616319D03*
G54D33*
Y013696329D03*
G54D33*
Y013776314D03*
G54D33*
Y013856324D03*
G54D33*
Y013936308D03*
G54D33*
Y014016319D03*
G54D33*
Y014096329D03*
G54D33*
Y014176313D03*
G54D33*
Y014256323D03*
G54D33*
Y014336308D03*
G54D33*
Y014416318D03*
G54D33*
Y014496328D03*
G54D33*
Y014576312D03*
G54D33*
Y014656322D03*
G54D33*
Y014736307D03*
G54D33*
Y014816317D03*
G54D33*
Y014896327D03*
G54D34*
X006917640Y013176569D03*
G54D34*
X007137655D03*
G54D34*
X006917640Y013336589D03*
G54D34*
X007137655D03*
G54D35*
X008787461Y016299499D03*
G54D35*
Y016401099D03*
G54D36*
X008308494Y020365709D03*
G54D36*
X008418501D03*
G54D36*
X008528483D03*
G54D36*
X008638490D03*
G54D36*
X008748498D03*
G54D36*
X008858505D03*
G54D36*
X008968487D03*
G54D36*
X009078495D03*
G54D37*
X007182994Y012989879D03*
G54D37*
X007278701D03*
G54D37*
X003116454Y018605819D03*
G54D37*
X003212161D03*
G54D37*
X008368361Y017254539D03*
G54D37*
X008272654D03*
G54D37*
X007107658Y018408512D03*
G54D37*
X007203365D03*
G54D37*
X006722010Y016348089D03*
G54D37*
X006817717D03*
G54D37*
X006078094Y017114839D03*
G54D37*
X006173801D03*
G54D37*
X005930774Y017808259D03*
G54D37*
X006026481D03*
G54D37*
X008480121Y016876079D03*
G54D37*
X008384414D03*
G54D37*
X003097861Y019144299D03*
G54D37*
X003002154D03*
G54D37*
X008800187Y018609197D03*
G54D37*
X008704480D03*
G54D37*
X008800187Y018522837D03*
G54D37*
X008704480D03*
G54D37*
X005862194Y018174019D03*
G54D37*
X005957901D03*
G54D37*
X005862194Y018252759D03*
G54D37*
X005957901D03*
G54D37*
X005035881Y017371379D03*
G54D37*
X004940174D03*
G54D37*
X005471034Y016883699D03*
G54D37*
X005566741D03*
G54D37*
X001839266Y015619186D03*
G54D37*
X001934973D03*
G54D37*
X003141473Y017148266D03*
G54D37*
X003045766D03*
G54D37*
X006918021Y013017819D03*
G54D37*
X006822314D03*
G54D37*
X007133921Y013480099D03*
G54D37*
X007038214D03*
G54D37*
X003097861Y019063019D03*
G54D37*
X003002154D03*
G54D37*
X007964501Y014084619D03*
G54D37*
X007868794D03*
G54D37*
X001878661Y019118899D03*
G54D37*
X001782954D03*
G54D37*
X002860346Y015464245D03*
G54D37*
X002956053D03*
G54D37*
X007502653Y016287205D03*
G54D37*
X007406946D03*
G54D38*
X008887131Y013044946D03*
G54D38*
Y013109945D03*
G54D38*
Y013174944D03*
G54D38*
Y013239942D03*
G54D38*
Y013304941D03*
G54D39*
X008533842Y018703711D03*
G54D39*
Y018453724D03*
G54D40*
X009170620Y016170315D03*
G54D40*
Y016530283D03*
G54D41*
X007809993Y019205716D03*
G54D42*
X002204188Y018061853D03*
G54D42*
Y017966146D03*
G54D42*
X008514411Y018238738D03*
G54D42*
Y018334446D03*
G54D42*
X008119848Y012830265D03*
G54D42*
Y012925973D03*
G54D42*
X002003528Y018016946D03*
G54D42*
Y018112653D03*
G54D42*
X008902168Y017374325D03*
G54D42*
Y017470033D03*
G54D42*
X009064728Y017374325D03*
G54D42*
Y017470033D03*
G54D42*
X005003268Y017828173D03*
G54D42*
Y017732465D03*
G54D42*
X005320768Y016782506D03*
G54D42*
Y016878213D03*
G54D42*
X004579088Y018491113D03*
G54D42*
Y018395406D03*
G54D42*
X004431768Y017995813D03*
G54D42*
Y017900105D03*
G54D42*
X004497808Y018491113D03*
G54D42*
Y018395406D03*
G54D42*
X005577308Y016271965D03*
G54D42*
Y016367673D03*
G54D42*
X008985988Y017374325D03*
G54D42*
Y017470033D03*
G54D42*
X005656048Y016271965D03*
G54D42*
Y016367673D03*
G54D42*
X008823428Y017374325D03*
G54D42*
Y017470033D03*
G54D42*
X007815048Y015268666D03*
G54D42*
Y015364373D03*
G54D42*
X005899888Y016271965D03*
G54D42*
Y016367673D03*
G54D42*
X005816068Y016271965D03*
G54D42*
Y016367673D03*
G54D42*
X005734788Y016271965D03*
G54D42*
Y016367673D03*
G54D42*
X007238468Y014762393D03*
G54D42*
Y014666686D03*
G54D42*
Y014491426D03*
G54D42*
Y014587133D03*
G54D42*
X001650468Y018898326D03*
G54D42*
Y018994033D03*
G54D42*
X003375560Y015547659D03*
G54D42*
Y015451952D03*
G54D42*
X003268880Y015710219D03*
G54D42*
Y015614512D03*
G54D42*
X003550820Y015547659D03*
G54D42*
Y015451952D03*
G54D42*
X007655459Y016373159D03*
G54D42*
Y016277452D03*
G54D43*
X001671727Y019127357D03*
G54D43*
X001621715D03*
G54D43*
X001571728D03*
G54D43*
X001521740D03*
G54D43*
X001471728D03*
G54D43*
Y019232361D03*
G54D43*
X001521740D03*
G54D43*
X001571728D03*
G54D43*
X001621715D03*
G54D43*
X001671727D03*
G54D43*
X003698648Y019127357D03*
G54D43*
X003648635D03*
G54D43*
X003598648D03*
G54D43*
X003548660D03*
G54D43*
X003498648D03*
G54D43*
Y019232361D03*
G54D43*
X003548660D03*
G54D43*
X003598648D03*
G54D43*
X003648635D03*
G54D43*
X003698648D03*
G54D44*
X007300393Y015305191D03*
G54D44*
X007340372D03*
G54D44*
X007380403D03*
G54D44*
X007420382D03*
G54D44*
Y015221167D03*
G54D44*
X007380403D03*
G54D44*
X007340372D03*
G54D45*
X009154618Y013059958D03*
G54D45*
Y013289955D03*
G54D46*
X007807504Y019798197D03*
G54D47*
X004594252Y012012893D03*
G54D47*
X004759352D03*
G54D48*
X004682136Y020024587D03*
G54D48*
Y020154584D03*
G54D48*
X004492143Y020089586D03*
G54D49*
X007295313Y015221167D03*
G54D75*
X005243399Y019961366D03*
G54D51*
X009300008Y020750011D02*
Y010750006D01*
X000799999D01*
Y020750011D01*
X009300008D01*
G54D52*
X007835495Y020595706D03*
G54D53*
X005095368Y011755846D03*
G54D53*
X004805351D03*
G54D54*
X007185001Y019428093D03*
G54D54*
X007105016D03*
G54D54*
X007025006D03*
G54D54*
X006944996D03*
G54D54*
X006865012D03*
G54D54*
X006785002D03*
G54D54*
X006705017D03*
G54D54*
X006625007D03*
G54D54*
X006544997D03*
G54D54*
X006465012D03*
G54D54*
X006385002D03*
G54D54*
X006305018D03*
G54D54*
X006225008D03*
G54D54*
X006144998D03*
G54D54*
X006065013D03*
G54D54*
X005985003D03*
G54D54*
X005905019D03*
G54D54*
X005825009D03*
G54D54*
X005744998D03*
G54D54*
X005665014D03*
G54D54*
X005585004D03*
G54D54*
X005505019D03*
G54D54*
X005425009D03*
G54D54*
X005344999D03*
G54D54*
X005265015D03*
G54D54*
X005185005D03*
G54D54*
X005105020D03*
G54D54*
X005025010D03*
G54D54*
X004945000D03*
G54D54*
X004865016D03*
G54D54*
X007185001Y018987454D03*
G54D54*
X007105016D03*
G54D54*
X007025006D03*
G54D54*
X006944996D03*
G54D54*
X006865012D03*
G54D54*
X006785002D03*
G54D54*
X006705017D03*
G54D54*
X006625007D03*
G54D54*
X006544997D03*
G54D54*
X006465012D03*
G54D54*
X006385002D03*
G54D54*
X006305018D03*
G54D54*
X006225008D03*
G54D54*
X006144998D03*
G54D54*
X006065013D03*
G54D54*
X005985003D03*
G54D54*
X005905019D03*
G54D54*
X005825009D03*
G54D54*
X005744998D03*
G54D54*
X005665014D03*
G54D54*
X005585004D03*
G54D54*
X005505019D03*
G54D54*
X005425009D03*
G54D54*
X005344999D03*
G54D54*
X005265015D03*
G54D54*
X005185005D03*
G54D54*
X005105020D03*
G54D54*
X005025010D03*
G54D54*
X004945000D03*
G54D54*
X004865016D03*
G54D55*
X008526680Y016534703D03*
G54D55*
X008576667Y016420708D03*
G54D55*
X008476692D03*
G54D56*
X009096071Y012103318D03*
G54D56*
Y012215281D03*
G54D56*
X001485799Y011783684D03*
G54D56*
Y011895647D03*
G54D57*
X005183709Y019961366D03*
G54D57*
X005133722D03*
G54D57*
Y019861392D03*
G54D57*
X005183709D03*
G54D58*
X006749518Y014245782D03*
G54D58*
X007021298Y014236892D03*
G54D58*
Y014836586D03*
G54D58*
X006749518D03*
G54D59*
X003126157Y011859579D03*
G54D59*
X003420899D03*
G54D60*
X009174989Y019183212D03*
G54D61*
X004523208Y016223299D03*
G54D61*
X004675608D03*
G54D61*
X004321201Y012012893D03*
G54D61*
X004473601D03*
G54D76*
X005074032Y019961366D03*
G54D63*
X006766028Y013558636D03*
G54D63*
Y013853682D03*
G54D64*
X009177504Y019249201D03*
G54D65*
X006691784Y015121752D03*
G54D65*
X006855512D03*
G54D66*
X001821079Y015957006D03*
G54D66*
Y016109406D03*
G54D67*
X002610588Y020449275D03*
G54D67*
Y020613003D03*
G54D67*
X004426688Y020426415D03*
G54D67*
Y020590143D03*
G54D67*
X004548608Y020426415D03*
G54D67*
Y020590143D03*
G54D67*
X002488668Y020449275D03*
G54D67*
Y020613003D03*
G54D67*
X002854428Y020449275D03*
G54D67*
Y020613003D03*
G54D67*
X002732508Y020449275D03*
G54D67*
Y020613003D03*
G54D68*
X002374800Y018050016D03*
G54D68*
Y017994035D03*
G54D68*
X002318920Y018050016D03*
G54D68*
Y017994035D03*
G54D68*
X007571208Y017008108D03*
G54D68*
Y017064090D03*
G54D68*
X007515328Y017008108D03*
G54D68*
Y017064090D03*
G54D68*
X007403568Y012834888D03*
G54D68*
Y012890870D03*
G54D68*
X008013168Y012860288D03*
G54D68*
Y012916270D03*
G54D68*
X008099528Y015319110D03*
G54D68*
Y015263128D03*
G54D68*
X007672808Y014031228D03*
G54D68*
Y014087210D03*
G54D68*
X005000728Y016992868D03*
G54D68*
Y017048850D03*
G54D68*
X004454628Y017292690D03*
G54D68*
Y017236708D03*
G54D68*
X005076928Y018232388D03*
G54D68*
Y018288370D03*
G54D68*
X004447008Y016997948D03*
G54D68*
Y017053930D03*
G54D68*
X004457168Y017445090D03*
G54D68*
Y017389108D03*
G54D68*
X005554448Y018054690D03*
G54D68*
Y017998708D03*
G54D68*
X004988028Y016901530D03*
G54D68*
Y016845548D03*
G54D68*
X005000728Y017168230D03*
G54D68*
Y017112248D03*
G54D68*
X007469608Y018090250D03*
G54D68*
Y018034268D03*
G54D68*
X007413728Y018090250D03*
G54D68*
Y018034268D03*
G54D68*
X007007328Y016995510D03*
G54D68*
Y016939528D03*
G54D68*
X007174968Y017020910D03*
G54D68*
Y016964928D03*
G54D68*
Y017076688D03*
G54D68*
Y017132670D03*
G54D68*
X007230848Y017008108D03*
G54D68*
Y017064090D03*
G54D68*
X007797268Y017315448D03*
G54D68*
Y017371430D03*
G54D68*
X007688048Y017836148D03*
G54D68*
Y017892130D03*
G54D68*
X005572228Y017130130D03*
G54D68*
Y017074148D03*
G54D68*
X007291808Y017282530D03*
G54D68*
Y017226548D03*
G54D68*
X007225768Y016177528D03*
G54D68*
Y016233510D03*
G54D68*
X007629628Y017744708D03*
G54D68*
Y017800690D03*
G54D68*
X007855688Y017592410D03*
G54D68*
Y017536428D03*
G54D68*
Y017427208D03*
G54D68*
Y017483190D03*
G54D68*
X005010888Y017986110D03*
G54D68*
Y017930128D03*
G54D68*
X007406108Y017914990D03*
G54D68*
Y017859008D03*
G54D68*
X007797268Y017701630D03*
G54D68*
Y017645648D03*
G54D68*
X006783808Y017798048D03*
G54D68*
Y017854030D03*
G54D68*
X007009868Y017239350D03*
G54D68*
Y017183368D03*
G54D68*
X007629628Y017008108D03*
G54D68*
Y017064090D03*
G54D68*
X006890488Y016995510D03*
G54D68*
Y016939528D03*
G54D68*
X007401028Y017064090D03*
G54D68*
Y017008108D03*
G54D68*
X007456908Y017064090D03*
G54D68*
Y017008108D03*
G54D68*
X007345148Y017064090D03*
G54D68*
Y017008108D03*
G54D68*
X007525488Y018067390D03*
G54D68*
Y018011408D03*
G54D68*
X007853148Y017371430D03*
G54D68*
Y017315448D03*
G54D68*
X004970248Y018143590D03*
G54D68*
Y018087608D03*
G54D68*
X005450308Y017744810D03*
G54D68*
Y017688828D03*
G54D68*
X006849848Y017683748D03*
G54D68*
Y017739730D03*
G54D68*
X007169888Y017978388D03*
G54D68*
Y018034370D03*
G54D68*
X007741388Y017371430D03*
G54D68*
Y017315448D03*
G54D68*
X007291808Y017615168D03*
G54D68*
Y017671150D03*
G54D68*
X008584668Y017417048D03*
G54D68*
Y017473030D03*
G54D68*
X008698968Y017417048D03*
G54D68*
Y017473030D03*
G54D68*
X008643088Y017417048D03*
G54D68*
Y017473030D03*
G54D68*
X007065748Y017000590D03*
G54D68*
Y016944608D03*
G54D68*
X006948908Y016995510D03*
G54D68*
Y016939528D03*
G54D68*
X007289268Y017008108D03*
G54D68*
Y017064090D03*
G54D68*
X008435671Y018291621D03*
G54D68*
Y018347603D03*
G54D68*
X006948908Y017239350D03*
G54D68*
Y017183368D03*
G54D68*
X007456908Y017635488D03*
G54D68*
Y017691470D03*
G54D68*
X007065748Y017800690D03*
G54D68*
Y017744708D03*
G54D68*
X007233388Y017615168D03*
G54D68*
Y017671150D03*
G54D68*
X007347688Y017292690D03*
G54D68*
Y017236708D03*
G54D68*
X007632168Y017366350D03*
G54D68*
Y017310368D03*
G54D68*
X007401028Y017632948D03*
G54D68*
Y017688930D03*
G54D68*
X007121628Y017800690D03*
G54D68*
Y017744708D03*
G54D68*
X007174968Y017658348D03*
G54D68*
Y017714330D03*
G54D68*
X007241008Y017833608D03*
G54D68*
Y017889590D03*
G54D68*
X006908268Y017683748D03*
G54D68*
Y017739730D03*
G54D68*
X008754848Y017417048D03*
G54D68*
Y017473030D03*
G54D68*
X005079468Y016751568D03*
G54D68*
Y016807550D03*
G54D68*
X004756888Y018171428D03*
G54D68*
Y018227410D03*
G54D68*
X006725388Y017196068D03*
G54D68*
Y017252050D03*
G54D68*
X002580108Y018044428D03*
G54D68*
Y018100410D03*
G54D68*
X006128488Y017752328D03*
G54D68*
Y017808310D03*
G54D68*
X006186908Y017752328D03*
G54D68*
Y017808310D03*
G54D68*
X006839688Y017854030D03*
G54D68*
Y017798048D03*
G54D68*
X002077188Y019184990D03*
G54D68*
Y019129008D03*
G54D68*
X002072108Y018069828D03*
G54D68*
Y018125810D03*
G54D68*
X002524228Y018044428D03*
G54D68*
Y018100410D03*
G54D68*
X002691868Y018044428D03*
G54D68*
Y018100410D03*
G54D68*
X002635988Y018044428D03*
G54D68*
Y018100410D03*
G54D68*
X002747748Y018044428D03*
G54D68*
Y018100410D03*
G54D68*
X002021308Y019184990D03*
G54D68*
Y019129008D03*
G54D68*
X002366748Y019184990D03*
G54D68*
Y019129008D03*
G54D68*
X002247368Y019228170D03*
G54D68*
Y019172188D03*
G54D68*
X007068288Y017236810D03*
G54D68*
Y017180828D03*
G54D68*
X001965428Y019184990D03*
G54D68*
Y019129008D03*
G54D68*
X002130528Y018069828D03*
G54D68*
Y018125810D03*
G54D68*
X007853148Y017645648D03*
G54D68*
Y017701630D03*
G54D68*
X007357848Y018054690D03*
G54D68*
Y017998708D03*
G54D68*
X003464459Y015497316D03*
G54D68*
Y015441335D03*
G54D68*
X007147459Y016561068D03*
G54D68*
Y016617050D03*
G54D68*
X007599579Y013874155D03*
G54D68*
Y013930136D03*
G54D68*
X008384439Y016386215D03*
G54D68*
Y016442196D03*
G54D68*
X007914108Y018036808D03*
G54D68*
Y018092790D03*
G54D68*
X003037740Y017232035D03*
G54D68*
Y017288016D03*
G54D68*
X006783808Y016947148D03*
G54D68*
Y017003130D03*
G54D68*
X008346746Y017780243D03*
G54D68*
Y017836224D03*
G54D68*
X007198666Y013683325D03*
G54D68*
Y013627343D03*
G54D68*
X006895568Y016840570D03*
G54D68*
Y016784588D03*
G54D68*
X006951448Y016553448D03*
G54D68*
Y016609430D03*
G54D68*
X007167348Y016286748D03*
G54D68*
Y016342730D03*
G54D68*
X006918428Y013571488D03*
G54D68*
Y013627470D03*
G54D68*
X007944588Y018539728D03*
G54D68*
Y018595710D03*
G54D68*
X004447871Y019001551D03*
G54D68*
Y018945570D03*
G54D68*
X007228308Y013906870D03*
G54D68*
Y013850888D03*
G54D68*
X008267600Y017651135D03*
G54D68*
Y017707116D03*
G54D68*
X008193939Y017651135D03*
G54D68*
Y017707116D03*
G54D68*
X008259980Y018032236D03*
G54D68*
Y017976255D03*
G54D68*
X008120279Y017638536D03*
G54D68*
Y017582555D03*
G54D68*
X007655028Y013899148D03*
G54D68*
Y013955130D03*
G54D68*
X007710908Y013899148D03*
G54D68*
Y013955130D03*
G54D68*
X007840448Y013855968D03*
G54D68*
Y013911950D03*
G54D68*
X007896328Y013944868D03*
G54D68*
Y014000850D03*
G54D68*
X005112488Y017597388D03*
G54D68*
Y017653370D03*
G54D68*
X005168368Y017450170D03*
G54D68*
Y017394188D03*
G54D68*
X005109948Y017450170D03*
G54D68*
Y017394188D03*
G54D68*
X007512788Y014122770D03*
G54D68*
Y014066788D03*
G54D68*
X002872208Y018123270D03*
G54D68*
Y018067288D03*
G54D68*
X002813788Y018123270D03*
G54D68*
Y018067288D03*
G54D68*
X007225768Y016286748D03*
G54D68*
Y016342730D03*
G54D68*
X005475708Y017927690D03*
G54D68*
Y017871708D03*
G54D68*
X007884059Y018669675D03*
G54D68*
Y018725656D03*
G54D68*
X008270546Y017892105D03*
G54D68*
Y017836123D03*
G54D68*
X007484848Y016538208D03*
G54D68*
Y016594190D03*
G54D68*
X007235928Y016561068D03*
G54D68*
Y016617050D03*
G54D68*
X007489928Y013815328D03*
G54D68*
Y013871310D03*
G54D68*
X007342608Y016477248D03*
G54D68*
Y016533230D03*
G54D68*
X004937660Y019975235D03*
G54D68*
Y020031216D03*
G54D68*
X003847999Y018832743D03*
G54D68*
Y018776761D03*
G54D68*
X003311653Y018482223D03*
G54D68*
Y018426241D03*
G54D68*
X003317139Y017811256D03*
G54D68*
Y017755275D03*
G54D68*
X008328559Y017061956D03*
G54D68*
Y017005975D03*
G54D68*
X007028079Y018471656D03*
G54D68*
Y018415675D03*
G54D68*
X006949339Y018481816D03*
G54D68*
Y018425835D03*
G54D68*
X006842659Y018509756D03*
G54D68*
Y018453775D03*
G54D69*
X003769971Y018408309D03*
G54D69*
X003869971D03*
G54D69*
X003969970D03*
G54D69*
X003669971D03*
G54D69*
X003569971D03*
G54D69*
X003969970Y018508309D03*
G54D69*
X003869971D03*
G54D69*
X003769971D03*
G54D69*
X003569971D03*
G54D69*
X003669971D03*
G54D69*
X003969970Y018608308D03*
G54D69*
X003869971D03*
G54D69*
X003769971D03*
G54D69*
X003569971D03*
G54D69*
X003669971D03*
G54D69*
X003969970Y018308309D03*
G54D69*
X003869971D03*
G54D69*
X003769971D03*
G54D69*
X003569971D03*
G54D69*
X003669971D03*
G54D69*
X003969970Y018208309D03*
G54D69*
X003869971D03*
G54D69*
X003769971D03*
G54D69*
X003669971D03*
G54D70*
X003301950Y016480245D03*
G54D70*
X003245969D03*
G54D70*
X008943595Y012076317D03*
G54D70*
X008999577D03*
G54D70*
X008277379Y013129579D03*
G54D70*
X008221397D03*
G54D70*
X008274838Y013596939D03*
G54D70*
X008218857D03*
G54D70*
X008274838Y013241339D03*
G54D70*
X008218857D03*
G54D70*
X007256197Y014320839D03*
G54D70*
X007312178D03*
G54D70*
X008508519Y014460539D03*
G54D70*
X008452537D03*
G54D70*
X007121577Y015197139D03*
G54D70*
X007177558D03*
G54D70*
X007121577Y015255559D03*
G54D70*
X007177558D03*
G54D70*
X006280837Y016233459D03*
G54D70*
X006336819D03*
G54D70*
X006280837Y016403639D03*
G54D70*
X006336819D03*
G54D70*
X005424959Y017582199D03*
G54D70*
X005368977D03*
G54D70*
X007576237Y017691419D03*
G54D70*
X007632219D03*
G54D70*
X005297857Y018207039D03*
G54D70*
X005353838D03*
G54D70*
X004784777Y017518699D03*
G54D70*
X004840759D03*
G54D70*
X004800118Y016820199D03*
G54D70*
X004744137D03*
G54D70*
X007065697Y017978439D03*
G54D70*
X007121679D03*
G54D70*
X007065697Y018034319D03*
G54D70*
X007121679D03*
G54D70*
X007182537Y017226599D03*
G54D70*
X007238518D03*
G54D70*
X001869289Y015763965D03*
G54D70*
X001925270D03*
G54D70*
X004444518Y017137699D03*
G54D70*
X004388537D03*
G54D70*
X005193819Y017785399D03*
G54D70*
X005137837D03*
G54D70*
X004820337Y017795559D03*
G54D70*
X004876318D03*
G54D70*
X007743877Y017859059D03*
G54D70*
X007799858D03*
G54D70*
X005953177Y017173259D03*
G54D70*
X006009158D03*
G54D70*
X001869289Y015832545D03*
G54D70*
X001925270D03*
G54D70*
X003088158Y017018319D03*
G54D70*
X003032177D03*
G54D70*
X003088158Y016962439D03*
G54D70*
X003032177D03*
G54D70*
X008323530Y017384486D03*
G54D70*
X008267549D03*
G54D70*
X005226838Y017584739D03*
G54D70*
X005170857D03*
G54D70*
X007789699Y017460279D03*
G54D70*
X007733717D03*
G54D70*
X005361459Y017188499D03*
G54D70*
X005305477D03*
G54D70*
X007291884Y018024997D03*
G54D70*
X007235902D03*
G54D70*
X007743877Y017914939D03*
G54D70*
X007799858D03*
G54D70*
X006972657Y016347734D03*
G54D70*
X006916675D03*
G54D70*
X005953177Y017058959D03*
G54D70*
X006009158D03*
G54D70*
X007456959Y017234219D03*
G54D70*
X007400977D03*
G54D70*
X007799757D03*
G54D70*
X007855739D03*
G54D70*
X007741439Y017180879D03*
G54D70*
X007685457D03*
G54D70*
X007291884Y018088497D03*
G54D70*
X007235902D03*
G54D70*
X007789699Y017518699D03*
G54D70*
X007733717D03*
G54D70*
X005953177Y017114839D03*
G54D70*
X006009158D03*
G54D70*
X007576237Y017635539D03*
G54D70*
X007632219D03*
G54D70*
X006280837Y016289339D03*
G54D70*
X006336819D03*
G54D70*
X006644057Y017460279D03*
G54D70*
X006700038D03*
G54D70*
X004660418Y017513619D03*
G54D70*
X004604437D03*
G54D70*
X004642537Y018201959D03*
G54D70*
X004698519D03*
G54D70*
X006834659Y017513619D03*
G54D70*
X006778677D03*
G54D70*
X006915939Y017907319D03*
G54D70*
X006859957D03*
G54D70*
X007609257Y018029239D03*
G54D70*
X007665238D03*
G54D70*
X007685457Y017122459D03*
G54D70*
X007741439D03*
G54D70*
X006913297Y017467899D03*
G54D70*
X006969279D03*
G54D70*
X005902377Y018095279D03*
G54D70*
X005958358D03*
G54D70*
X007733717Y017574579D03*
G54D70*
X007789699D03*
G54D70*
X006959017Y017683799D03*
G54D70*
X007014998D03*
G54D70*
X006280837Y016345219D03*
G54D70*
X006336819D03*
G54D70*
X005183659Y017983519D03*
G54D70*
X005127677D03*
G54D70*
X007571259Y017521239D03*
G54D70*
X007515277D03*
G54D70*
X008439939Y016944659D03*
G54D70*
X008383957D03*
G54D70*
X001869289Y015695386D03*
G54D70*
X001925270D03*
G54D70*
X003088158Y017074199D03*
G54D70*
X003032177D03*
G54D70*
X007335064Y018398377D03*
G54D70*
X007279082D03*
G54D70*
X007558558Y017579659D03*
G54D70*
X007502577D03*
G54D70*
X007799858Y017970819D03*
G54D70*
X007743877D03*
G54D70*
X007068339Y017351059D03*
G54D70*
X007012357D03*
G54D70*
X007129197Y017335819D03*
G54D70*
X007185178D03*
G54D70*
X007461937Y017856519D03*
G54D70*
X007517919D03*
G54D70*
X007406057Y017351059D03*
G54D70*
X007462039D03*
G54D70*
X007068339Y017406939D03*
G54D70*
X007012357D03*
G54D70*
X007081039Y017569499D03*
G54D70*
X007025057D03*
G54D70*
X007065799Y017625379D03*
G54D70*
X007009817D03*
G54D70*
X007009918Y017292639D03*
G54D70*
X006953937D03*
G54D70*
X007408699Y017462819D03*
G54D70*
X007352717D03*
G54D70*
X007406057Y017406939D03*
G54D70*
X007462039D03*
G54D70*
X007025158Y017856519D03*
G54D70*
X006969177D03*
G54D70*
X007352717Y017577119D03*
G54D70*
X007408699D03*
G54D70*
X005902377Y018031779D03*
G54D70*
X005958358D03*
G54D70*
X006788837Y017401859D03*
G54D70*
X006844818D03*
G54D70*
X005457877Y016949739D03*
G54D70*
X005513859D03*
G54D70*
X005028718Y017302799D03*
G54D70*
X004972737D03*
G54D70*
X005353838Y018262919D03*
G54D70*
X005297857D03*
G54D70*
X006877737Y017066579D03*
G54D70*
X006933719D03*
G54D70*
X006788837Y017457739D03*
G54D70*
X006844818D03*
G54D70*
X006778677Y017183419D03*
G54D70*
X006834659D03*
G54D70*
X006720257Y017632999D03*
G54D70*
X006776238D03*
G54D70*
X006511977Y017404399D03*
G54D70*
X006567959D03*
G54D70*
X007352717Y017521239D03*
G54D70*
X007408699D03*
G54D70*
X006514517Y017462819D03*
G54D70*
X006570498D03*
G54D70*
X003044979Y018991899D03*
G54D70*
X002988997D03*
G54D70*
X007065697Y018090199D03*
G54D70*
X007121679D03*
G54D70*
X006895517Y017968279D03*
G54D70*
X006951499D03*
G54D70*
X002991639Y018067339D03*
G54D70*
X002935657D03*
G54D70*
X003103830Y015454086D03*
G54D70*
X003047849D03*
G54D70*
X003230729Y015446466D03*
G54D70*
X003286710D03*
G54D70*
X003144369Y015530286D03*
G54D70*
X003200350D03*
G54D70*
X003149449Y017958526D03*
G54D70*
X003205430D03*
G54D70*
X007429044Y013874206D03*
G54D70*
X007373062D03*
G54D70*
X008079690Y016558986D03*
G54D70*
X008023709D03*
G54D70*
X003202458Y018394999D03*
G54D70*
X003146477D03*
G54D70*
X003202458Y018450879D03*
G54D70*
X003146477D03*
G54D70*
X008541869Y016655505D03*
G54D70*
X008597850D03*
G54D70*
X008307782Y018304397D03*
G54D70*
X008363764D03*
G54D70*
X007850227Y017957002D03*
G54D70*
X007906208D03*
G54D70*
X003101189Y016398965D03*
G54D70*
X003157170D03*
G54D70*
X003101189Y016480245D03*
G54D70*
X003157170D03*
G54D70*
X003032177Y016896399D03*
G54D70*
X003088158D03*
G54D70*
X002523440Y016223960D03*
G54D70*
X002467459D03*
G54D70*
X003260878Y018976659D03*
G54D70*
X003204897D03*
G54D70*
X003260878Y018920779D03*
G54D70*
X003204897D03*
G54D70*
X008028789Y016843466D03*
G54D70*
X008084770D03*
G54D70*
X006863437Y015002397D03*
G54D70*
X006807455D03*
G54D70*
X006956477Y016672879D03*
G54D70*
X007012459D03*
G54D70*
X007312178Y014239559D03*
G54D70*
X007256197D03*
G54D70*
X008797977Y012147412D03*
G54D70*
X008853958D03*
G54D70*
X007140195Y013749314D03*
G54D70*
X007196177D03*
G54D70*
X007774357Y017754919D03*
G54D70*
X007830338D03*
G54D70*
X007820509Y018601146D03*
G54D70*
X007876490D03*
G54D70*
X007724090Y018606226D03*
G54D70*
X007668109D03*
G54D70*
X004568877Y017279939D03*
G54D70*
X004624859D03*
G54D70*
X008808239Y014280199D03*
G54D70*
X008752257D03*
G54D70*
X008808239Y014407199D03*
G54D70*
X008752257D03*
G54D70*
X007428942Y013935597D03*
G54D70*
X007484924D03*
G54D70*
X003141397Y018839499D03*
G54D70*
X003197378D03*
G54D70*
X008749717Y014026199D03*
G54D70*
X008805699D03*
G54D70*
X005173397Y017650779D03*
G54D70*
X005229378D03*
G54D70*
X008480579Y017803179D03*
G54D70*
X008424597D03*
G54D70*
X008805699Y013899199D03*
G54D70*
X008749717D03*
G54D70*
X008267219Y018201959D03*
G54D70*
X008211237D03*
G54D70*
X003085619Y018544859D03*
G54D70*
X003029637D03*
G54D70*
X003085619Y018476279D03*
G54D70*
X003029637D03*
G54D70*
X006786322Y016554337D03*
G54D70*
X006842304D03*
G54D70*
X008943595Y012147437D03*
G54D70*
X008999577D03*
G54D70*
X001815618Y018798859D03*
G54D70*
X001759637D03*
G54D70*
X001815618Y018742979D03*
G54D70*
X001759637D03*
G54D70*
X004914419Y019675159D03*
G54D70*
X004858437D03*
G54D70*
X005770830Y018801806D03*
G54D70*
X005714849D03*
G54D70*
X005905450Y018804346D03*
G54D70*
X005849469D03*
G54D70*
X005658639Y017282479D03*
G54D70*
X005602657D03*
G54D70*
X004645610Y019894006D03*
G54D70*
X004589629D03*
G54D70*
X007592010Y018606226D03*
G54D70*
X007536029D03*
G54D70*
X004914419Y019731039D03*
G54D70*
X004858437D03*
G54D70*
X007675830Y016520885D03*
G54D70*
X007619849D03*
G54D70*
X007703237Y018461039D03*
G54D70*
X007759219D03*
G54D70*
X007948118Y016356548D03*
G54D70*
X007892137D03*
G54D70*
X008221930Y017135566D03*
G54D70*
X008165949D03*
G54D70*
X007312915Y013935597D03*
G54D70*
X007368897D03*
G54D70*
X007619849Y016586926D03*
G54D70*
X007675830D03*
G54D70*
X003909010Y017981386D03*
G54D70*
X003853029D03*
G54D70*
X003312110Y017892485D03*
G54D70*
X003256129D03*
G54D70*
X003205430Y018034726D03*
G54D70*
X003149449D03*
G54D70*
X003707233Y017981131D03*
G54D70*
X003763214D03*
G54D70*
X008501229Y017917886D03*
G54D70*
X008557210D03*
G54D70*
X008254849Y016891726D03*
G54D70*
X008310830D03*
G54D70*
X008148270Y016668206D03*
G54D70*
X008092289D03*
G54D70*
X007619849Y016454845D03*
G54D70*
X007675830D03*
G54D70*
X007449669Y016409125D03*
G54D70*
X007505650D03*
G54D70*
X007856170Y018198302D03*
G54D70*
X007800189D03*
G54D70*
X006631789Y018428426D03*
G54D70*
X006687770D03*
G54D70*
X006439511Y018435030D03*
G54D70*
X006495492D03*
G54D70*
X006319369Y018301426D03*
G54D70*
X006375350D03*
G54D70*
X006390489Y018207446D03*
G54D70*
X006446470D03*
G54D70*
X006438749Y018502848D03*
G54D70*
X006494730D03*
G54D70*
X007422237Y016604274D03*
G54D70*
X007366255D03*
G54D71*
X003366009Y017964164D03*
G54D71*
Y017999166D03*
G54D71*
Y018034167D03*
G54D71*
X003283510D03*
G54D71*
Y017999166D03*
G54D71*
Y017964164D03*
G54D72*
X006324220Y019902946D03*
G54D72*
X006774232D03*
G54D72*
X006824219D03*
G54D72*
X006874232D03*
G54D72*
X006924219D03*
G54D72*
X006974231D03*
G54D72*
X007024219D03*
G54D72*
X007074231D03*
G54D72*
X007124218D03*
G54D72*
X007174231D03*
G54D72*
X007224218D03*
G54D72*
X006374233D03*
G54D72*
X006424220D03*
G54D72*
X006474232D03*
G54D72*
X006524220D03*
G54D72*
X006574232D03*
G54D72*
X006624219D03*
G54D72*
X006674232D03*
G54D72*
X006724219D03*
G54D77*
X000799999Y000000000D02*
Y010750005D01*
Y010600005D02*
X009300008D01*
Y000000000D01*
X010100008Y000599999D02*
X000000000D01*
X009300008Y010600005D02*
Y000599999D01*
X000799999D01*
Y010600005D01*
X009300008D01*
X000599999Y007750060D02*
Y008600074D01*
X009450008Y005067899D02*
Y003467900D01*
X005386999Y000399999D02*
X004536999D01*
X000799999D02*
Y000599999D01*
X004149999Y000399999D02*
Y000599999D01*
X004536999Y000399999D02*
Y000599999D01*
X005386999Y000399999D02*
Y000599999D01*
X000599999Y008600074D02*
X000799999D01*
X000599999Y007750060D02*
X000799999D01*
X009450008Y003467900D02*
X009300008D01*
X009450008Y005067899D02*
X009300008D01*
X009450008Y006083899D02*
X009300008D01*
X009450008Y009183899D02*
X009300008D01*
X004149999Y000399999D02*
X000699999D01*
X009450008Y009183899D02*
Y006083899D01*
X009300008Y021350011D02*
Y010600005D01*
Y010750005D02*
X000799999D01*
Y021350011D01*
X000000000Y020750011D02*
X010100008D01*
X000799999Y010750005D02*
Y020750011D01*
X009300008D01*
Y010750005D01*
X000799999D01*
X009500008Y013599950D02*
Y012749936D01*
X000650000Y016282111D02*
Y017882110D01*
X004713008Y020950011D02*
X005563008D01*
X009300008D02*
Y020750011D01*
X005950008Y020950011D02*
Y020750011D01*
X005563008Y020950011D02*
Y020750011D01*
X004713008Y020950011D02*
Y020750011D01*
X009500008Y012749936D02*
X009300008D01*
X009500008Y013599950D02*
X009300008D01*
X000650000Y017882110D02*
X000799999D01*
X000650000Y016282111D02*
X000799999D01*
X000650000Y015266111D02*
X000799999D01*
X000650000Y012166111D02*
X000799999D01*
X005950008Y020950011D02*
X009387623D01*
X000650000Y012166111D02*
Y015266111D01*
X009980008Y000000000D02*
X000120000D01*
Y021350011D02*
X009980008D01*
X000000000Y000120000D02*
Y021230011D01*
X010100008D02*
Y000120000D01*
G54D78*
X009600008Y018750010D03*
Y002600000D03*
X000500000Y002100000D03*
G54D77*
X000000000Y010675005D02*
X010100008D01*
Y000120000D02*
G02X009980008Y000000000I-000120000J000000000D01*
Y021350011D02*
G02X010100008Y021230011I000000000J-000120000D01*
X000000000D02*
G02X000120000Y021350011I000120000J000000000D01*
Y000000000D02*
G02X000000000Y000120000I000000000J000120000D01*
X009400008Y020950011D02*
G01Y020750011D01*
X000699999Y000399999D02*
Y000599999D01*
M02*
