*
%FSLAX45Y45*%
%MOMM*%
%ADD10C,0.254000*%
%ADD11C,3.000000*%
%ADD12C,1.000000*%
%IPPOS*%
%LNdrill_lev.gbr*%
%LPD*%
%SRX1Y1I0J0*%
G01*
G75*
G54D10*
X000799999Y000000000D02*
Y010750005D01*
Y010600005D02*
X009300008D01*
Y000000000D01*
X010100008Y000599999D02*
X000000000D01*
X009300008Y010600005D02*
Y000599999D01*
X000799999D01*
Y010600005D01*
X009300008D01*
X000599999Y007750060D02*
Y008600074D01*
X009450008Y005067899D02*
Y003467900D01*
X005386999Y000399999D02*
X004536999D01*
X000799999D02*
Y000599999D01*
X004149999Y000399999D02*
Y000599999D01*
X004536999Y000399999D02*
Y000599999D01*
X005386999Y000399999D02*
Y000599999D01*
X000599999Y008600074D02*
X000799999D01*
X000599999Y007750060D02*
X000799999D01*
X009450008Y003467900D02*
X009300008D01*
X009450008Y005067899D02*
X009300008D01*
X009450008Y006083899D02*
X009300008D01*
X009450008Y009183899D02*
X009300008D01*
X004149999Y000399999D02*
X000699999D01*
X009450008Y009183899D02*
Y006083899D01*
X004417168Y007807075D02*
Y003993862D01*
Y007807075D02*
X005814557Y006409686D01*
X009300008Y021350011D02*
Y010600005D01*
Y010750005D02*
X000799999D01*
Y021350011D01*
X000000000Y020750011D02*
X010100008D01*
X000799999Y010750005D02*
Y020750011D01*
X009300008D01*
Y010750005D01*
X000799999D01*
X009500008Y013599950D02*
Y012749936D01*
X000650000Y016282111D02*
Y017882110D01*
X004713008Y020950011D02*
X005563008D01*
X009300008D02*
Y020750011D01*
X005950008Y020950011D02*
Y020750011D01*
X005563008Y020950011D02*
Y020750011D01*
X004713008Y020950011D02*
Y020750011D01*
X009500008Y012749936D02*
X009300008D01*
X009500008Y013599950D02*
X009300008D01*
X000650000Y017882110D02*
X000799999D01*
X000650000Y016282111D02*
X000799999D01*
X000650000Y015266111D02*
X000799999D01*
X000650000Y012166111D02*
X000799999D01*
X005950008Y020950011D02*
X009387623D01*
X000650000Y012166111D02*
Y015266111D01*
X005682839Y013542935D02*
Y017356149D01*
Y013542935D02*
X004285451Y014940324D01*
X009980008Y000000000D02*
X000120000D01*
Y021350011D02*
X009980008D01*
X000000000Y000120000D02*
Y021230011D01*
X010100008D02*
Y000120000D01*
G54D11*
X000500000Y019950011D03*
X009600008Y019550011D03*
G54D12*
Y018750010D03*
G54D11*
Y001799999D03*
G54D12*
Y002600000D03*
X000500000Y002100000D03*
G54D10*
X000000000Y010675005D02*
X010100008D01*
Y000120000D02*
G02X009980008Y000000000I-000120000J000000000D01*
Y021350011D02*
G02X010100008Y021230011I000000000J-000120000D01*
X000000000D02*
G02X000120000Y021350011I000120000J000000000D01*
Y000000000D02*
G02X000000000Y000120000I000000000J000120000D01*
X009400008Y020950011D02*
G01Y020750011D01*
X000699999Y000399999D02*
Y000599999D01*
M02*
