*
%FSLAX45Y45*%
%MOMM*%
%ADD10C,0.200000*%
%ADD11C,0.202000*%
%ADD12C,0.300000*%
%ADD13C,0.302000*%
%ADD14C,0.825000*%
%ADD15C,1.000000*%
%ADD16C,1.150000*%
%ADD17C,1.325000*%
%ADD18C,1.425000*%
%ADD19C,1.725000*%
%ADD20C,2.400000*%
%ADD21C,2.700000*%
%ADD22C,3.300000*%
%ADD23C,0.875000*%
%ADD24C,1.125000*%
%ADD25C,1.225000*%
%ADD26C,1.300000*%
%ADD27C,1.600000*%
%ADD28C,3.250000*%
%ADD29C,0.954000*%
%ADD30C,0.703000*%
%ADD31C,0.804000*%
%ADD32C,3.000000*%
%IPPOS*%
%LNdrl_lev.gbr*%
%LPD*%
%SRX1Y1I0J0*%
G01*
G75*
G54D10*
X001309600Y000785445D03*
X001105968Y001943685D03*
X001354481Y001489025D03*
X001014528Y002116405D03*
X001065328Y003301239D03*
X001319760Y001423391D03*
X001322300Y001809471D03*
X001383971Y001393622D03*
X001116560Y001786611D03*
X001317220Y001748511D03*
X001444931Y001393622D03*
X001299872Y000861619D03*
X000930708Y002230705D03*
X001085648Y000874345D03*
X001154228Y000869265D03*
X001373100Y001715060D03*
X001441248Y002228165D03*
X001392988Y002159585D03*
X001420141Y002079803D03*
X001400608Y002019885D03*
X001136905Y002766899D03*
X001194868Y000818465D03*
X001052628Y003170505D03*
X001334568Y002116405D03*
X001121208Y001669365D03*
X001486968Y003320365D03*
X001495020Y003015565D03*
X001052628Y003033345D03*
G54D11*
X001291998Y001488009D03*
X000898120Y002855951D03*
X000897688Y002784425D03*
X001045440Y002063471D03*
X001040360Y001156692D03*
X001317220Y001174472D03*
X000994640Y002015110D03*
X001047548Y001285825D03*
X001019608Y001600785D03*
X001040309Y001941552D03*
X001039928Y001674445D03*
X001431520Y001893291D03*
X001471322Y001508024D03*
G54D10*
X001205028Y002832685D03*
X001144068Y004196665D03*
X001487070Y004524325D03*
X001062788Y004801185D03*
X001045008Y004425265D03*
X001466648Y005796865D03*
X001451408Y005860365D03*
X001479348Y003617951D03*
X001421995Y003638627D03*
X001146608Y004867225D03*
X001146049Y004369106D03*
X001426440Y004415587D03*
X001039928Y003660725D03*
X001441604Y004329228D03*
X001077748Y004562425D03*
X001172008Y003607563D03*
X000943408Y003777565D03*
X001477240Y003444825D03*
X001479272Y004379469D03*
X001443941Y004474008D03*
X001146608Y004712285D03*
X000956540Y003463011D03*
X001440842Y004790670D03*
X001439140Y005119447D03*
X001316788Y005156785D03*
X001074269Y004637304D03*
X001105968Y004958665D03*
X001159308Y003686125D03*
X000984048Y004702125D03*
X001495020Y004039185D03*
X001156768Y004077285D03*
X000994208Y004323665D03*
X000991668Y004247465D03*
X001065760Y003429585D03*
X001072110Y003493491D03*
G54D11*
X001085648Y005260925D03*
X001339648Y004044265D03*
X001342188Y003983762D03*
X001398068D03*
G54D10*
X000981508Y003353385D03*
X001174980Y006759957D03*
X001124180Y006716751D03*
X001014477Y006390869D03*
X000953568Y006333922D03*
X000997180Y006503391D03*
X001002260Y006630391D03*
X001105689Y006774866D03*
X001025196Y006698895D03*
X001464946Y008204785D03*
X001366852Y007594016D03*
X001352729Y008339125D03*
X001377748Y008394726D03*
X000925628Y006579185D03*
X001415848Y006332805D03*
X001227888Y006393765D03*
Y006457671D03*
X001222808Y006551245D03*
X001223240Y006630391D03*
X001350291Y007516445D03*
X000943789Y006127065D03*
G54D11*
X000931115Y006271007D03*
X001410768Y006505525D03*
X001314248Y008045070D03*
X000981940Y006442431D03*
X001311708Y006073725D03*
X001230860Y006201131D03*
X001227888Y006134685D03*
X001225348Y006055945D03*
X001410768Y006439485D03*
Y006584265D03*
Y006652845D03*
X001420928Y006863665D03*
X001309600Y007262851D03*
X001350291Y007387261D03*
X000898120Y006701461D03*
G54D10*
X001413155Y008306385D03*
X001278688Y009696146D03*
X001441248Y009754185D03*
X001038201Y009909938D03*
X001237464Y008631505D03*
X001408660Y008492212D03*
X001263448Y009276665D03*
G54D11*
X001169468Y009335085D03*
X000943408Y009131885D03*
X001433247Y009627566D03*
X001370560Y009030717D03*
X001437667Y008797646D03*
X000882448Y009578925D03*
X001443788Y009934576D03*
X000897688Y008758505D03*
X001243128Y008550225D03*
X001395960Y008570545D03*
X000969824Y009918269D03*
G54D10*
X003963468Y010351085D03*
X003756585Y010506025D03*
X001909040Y008418552D03*
X002752320Y008459141D03*
X002500860Y008461732D03*
X003896183Y008858784D03*
X002035608Y008730565D03*
X001552653Y009035721D03*
X001525068Y009944685D03*
X001700709Y008517612D03*
X002891181Y009829979D03*
X001733754Y009883725D03*
G54D11*
X003963468Y010290125D03*
X003684068Y010533965D03*
X003927908Y009269045D03*
X004016808Y009263965D03*
X003569768Y010376485D03*
X003986328Y010536556D03*
X003671800Y010178365D03*
X003658668Y008890585D03*
X002498320Y008532852D03*
X003280208Y008410525D03*
X003973628Y008598485D03*
Y008700085D03*
X003887268Y008743265D03*
X003890240Y008652232D03*
X003884728Y008471485D03*
X001810030Y008451572D03*
X003587548Y008486725D03*
X002696440Y008578572D03*
X003890240Y008565871D03*
G54D10*
X002190548Y006391225D03*
X001928928Y006856451D03*
X001941628Y006790412D03*
X002861362Y007911415D03*
X002843328Y007750125D03*
X002977948Y007666686D03*
X002883663Y006269585D03*
X003501188Y005951805D03*
X001627100Y006503391D03*
X001580948Y007277685D03*
X001644880Y006630391D03*
X003879648Y005926405D03*
X003295448Y008174305D03*
X003348788Y008250505D03*
X001712799Y008054518D03*
X001619048Y006434405D03*
X001611504Y006310225D03*
X001712799Y007993558D03*
X003592628Y005936565D03*
X002168120Y005980152D03*
X002290040Y007209511D03*
X001578408Y007638365D03*
X002351635Y007206972D03*
X002202613Y006042915D03*
X001710488Y007089725D03*
X002439798Y007521906D03*
X001873048Y007612965D03*
X001853160Y007511771D03*
X002948103Y007315150D03*
X001690600Y006546165D03*
X002376450Y007511721D03*
X002686280Y007336562D03*
X002841220Y007968971D03*
X003440228Y007783145D03*
X002784933Y008004125D03*
X001939520Y008162012D03*
X002015720Y008365211D03*
X002962708Y007491045D03*
X002201140Y007539712D03*
X001746048Y007376745D03*
X002486153Y007561530D03*
X002236167Y008400771D03*
X001940714Y008054137D03*
X002025474Y007291350D03*
X002906879Y007546951D03*
X002839645Y008035977D03*
X001664794Y007445325D03*
X001860627Y007451243D03*
X002101648Y006370905D03*
X002272260Y007544842D03*
X001925169Y006438240D03*
X001819708Y006315025D03*
X003496108Y008377505D03*
X002198168Y006629985D03*
X003549448Y007793305D03*
X003572308Y007859345D03*
X003351328Y006368365D03*
X003862503Y007849185D03*
X001931900Y008294092D03*
X001911631Y007999451D03*
X002787626Y007804125D03*
X002336166Y007557492D03*
X001964488Y007623125D03*
X002136167Y007543725D03*
X001881151Y007692060D03*
X003988309Y006253328D03*
X003983788Y007656145D03*
X003499080Y007293687D03*
X003572994Y007524065D03*
X002287576Y005921732D03*
X001663853Y007248500D03*
X002051407Y006960719D03*
X001693724Y006245658D03*
X001934440Y005937403D03*
X002886889Y006208700D03*
X002378508Y006114365D03*
X002922423Y006018327D03*
X001665860Y008231658D03*
X002731568Y007219265D03*
X002424660Y006963132D03*
X002947468Y007158305D03*
X002302003Y007269303D03*
X002110360Y006011546D03*
X001629208Y006226125D03*
X002096492Y005901081D03*
X002385442Y005963464D03*
X003056764Y005979516D03*
X002172768Y006477585D03*
X003054148Y006368365D03*
X002170660Y006541085D03*
X003180157Y006369914D03*
X003057120Y006051678D03*
X002632940Y006043652D03*
X002467408Y006035625D03*
X002451254Y006121045D03*
X002146022Y006901257D03*
X002206982D03*
X001576300Y007216725D03*
X001817549Y007191681D03*
X002972868Y007427545D03*
X003036368Y007544385D03*
X003559608Y006276925D03*
X003475788Y006543625D03*
X002864080Y006040680D03*
X001509828Y008280985D03*
X002909800Y006365825D03*
X003537180Y008042631D03*
X001677392Y005895849D03*
X003201900Y007669200D03*
X002833066Y007854138D03*
X002549120Y007509232D03*
X002315440Y007364452D03*
X003079548Y006276925D03*
X003507970Y007986142D03*
G54D11*
X002942820Y006950025D03*
X002739188Y007290385D03*
X001781608Y008009205D03*
X003493568Y006426785D03*
X003402128Y006800165D03*
X003978708Y007364045D03*
X003927908Y007231965D03*
X001655040Y008309331D03*
X001677468Y006315025D03*
X002532610Y006950203D03*
X002537690Y006788507D03*
X001685088Y006972885D03*
X001799413Y007254825D03*
X003867380Y008255560D03*
X002599920Y006096991D03*
X002966594Y006304383D03*
X003491028Y006267603D03*
X002366291Y007318782D03*
X001552576Y007747128D03*
X001766444Y008108672D03*
X001916228Y006685865D03*
X001942060Y006117312D03*
X002401673Y006358205D03*
X003887268Y008050252D03*
X003501645Y008154442D03*
X003509240Y007908011D03*
X001925626Y006056707D03*
X002409547Y006061584D03*
X001540308Y006797625D03*
X002950440Y007092265D03*
X002135506Y007336511D03*
X002359890Y006952972D03*
X003117648Y006368365D03*
X002078483Y006906083D03*
X003219680Y006130011D03*
X003346680Y006132552D03*
X003219680Y006018252D03*
X003275560Y006079211D03*
X003344140Y006018252D03*
X001819708Y007645985D03*
X003379700Y008039685D03*
X002841220Y008149312D03*
X003128240Y007869911D03*
G54D10*
X002000022Y005933568D03*
X002513128Y004978985D03*
X002128801Y004678020D03*
X001657148Y003437205D03*
X001771880Y004524731D03*
X001710488Y005098365D03*
X002185925Y004285108D03*
X003439974Y005203749D03*
X003396768Y005159046D03*
X001829868Y004857065D03*
X002133017Y003661614D03*
X001962126Y003605023D03*
X001791768Y004234765D03*
X001771880Y004580612D03*
X001687628Y003641726D03*
X002185417Y004391737D03*
X003201468Y004933265D03*
X002072793Y004620896D03*
X002242491Y004447820D03*
Y004569003D03*
X001761288Y004806265D03*
X003267813Y005132528D03*
X001931468Y005556048D03*
X001961745Y004283863D03*
X003034057Y004566769D03*
X002014297Y003661614D03*
X002978431Y004511498D03*
X002564360Y004834612D03*
X002629409Y005224248D03*
X002188592Y003491891D03*
X003033726Y004677970D03*
X003219248Y005634305D03*
X002130884Y004228974D03*
X002170939Y005614671D03*
X002975840Y005245075D03*
X002969719Y005636388D03*
X002975840Y005184115D03*
X001931468Y005617008D03*
X001820140Y004397020D03*
X003156078Y005153635D03*
X001962888Y003378759D03*
X003091664Y004620642D03*
X003443428Y005264633D03*
X002921332Y004679392D03*
X003181148Y005578425D03*
X002904288Y004953585D03*
X002808200Y004454170D03*
X001664768Y003350845D03*
X003156078Y005214595D03*
X003800019Y005586045D03*
X002921332Y004569182D03*
X003720060Y005578832D03*
X002018260Y003435325D03*
X002695068Y004457091D03*
X002864765Y004621836D03*
X002517370Y005039945D03*
X001715568Y003406725D03*
X001799388Y004026485D03*
X002638503Y004624909D03*
X002808200Y004678986D03*
X002541474Y004890466D03*
X002691614Y004678732D03*
X002663420Y004880332D03*
X001956868Y003491891D03*
X002864765Y004510736D03*
X002015821Y004453586D03*
X002129995Y004340429D03*
X002072793Y004846346D03*
X003038934Y005234585D03*
X002355648Y004564762D03*
X002638503Y004512082D03*
X002185925Y004734028D03*
X002242491Y004677894D03*
X001959408Y004510152D03*
X003034488Y004457955D03*
X001768908Y005065345D03*
X002355648Y004454043D03*
X002861108Y004902785D03*
X002242491Y004801591D03*
X002129359Y004793972D03*
X002206220Y004887952D03*
X001834897Y005067885D03*
X002412214Y004508882D03*
X002299082Y004623055D03*
X001761593Y003357144D03*
X002751634Y004621887D03*
X002129359Y003439974D03*
X002299082Y004512565D03*
X002132001Y003774745D03*
X002127734Y004001009D03*
X003961360Y005624145D03*
X001958951Y004057600D03*
X002185341D03*
X004039668Y005616525D03*
X003918180Y005572481D03*
X001975892Y005076851D03*
X002355648Y004679722D03*
X002525346Y004622191D03*
X002307541Y004859732D03*
X003260752Y004455339D03*
X001987780Y005006595D03*
X002468780Y004456406D03*
X002525346Y004514368D03*
X002412214Y004623563D03*
X001713028Y005027245D03*
X003260752Y004676623D03*
X003518968Y005245685D03*
X003557068Y005621605D03*
X001634008Y004668826D03*
X002183106Y003605023D03*
X003038908Y005626685D03*
X001903985Y004453586D03*
X002015796Y003548457D03*
X002650720Y005611852D03*
X001959255Y004397020D03*
X002016228Y004339311D03*
X002965655Y005570805D03*
X002071320Y004288232D03*
X002014602Y004001009D03*
X002070609Y004057600D03*
X001901471Y004001009D03*
X002128775Y003548457D03*
X001898448Y003432125D03*
X002013281Y004114166D03*
X002072718Y003831311D03*
X002468983Y004682008D03*
X001792606Y004758005D03*
X002018260Y004227297D03*
X001960576Y003831311D03*
X002294688Y004283863D03*
X002581911Y004681602D03*
Y004567683D03*
Y004455186D03*
X002602460Y005558562D03*
X002130807Y004114166D03*
X002751634Y004512641D03*
X002527199Y003382036D03*
X003430474Y003948152D03*
X003312111Y004061461D03*
X003377109Y003658109D03*
X003204643Y003496108D03*
X003152116Y004222903D03*
X003204643Y003718180D03*
X003204186Y003829203D03*
X003201646Y003944443D03*
X003204186Y004056609D03*
X003204440Y004166592D03*
X002360042Y003548457D03*
X002581911Y004224605D03*
X003257526Y004227297D03*
X002815820Y005138700D03*
X003034488Y004226866D03*
X003593060Y004953991D03*
X003592628Y005014545D03*
X003684500Y004951452D03*
X003686608Y005017085D03*
X002638503Y003380919D03*
X002921026Y003435528D03*
X003091054Y003382417D03*
X002468780Y003436494D03*
X003476220Y004926052D03*
X001705840Y004031971D03*
X002474546Y004227297D03*
X002358239Y004114166D03*
X002695068Y004225215D03*
X002638503Y004172332D03*
X002413154Y003718180D03*
X002467840Y003774745D03*
X002356639Y003661614D03*
X002412214Y003943452D03*
X001636828Y004539565D03*
X002921332Y004452977D03*
X002977897Y004287597D03*
X003029129Y003662884D03*
X002807565Y003549016D03*
X002921332Y003552013D03*
X002860905Y003608757D03*
X002753234Y003607029D03*
X002695068Y003551505D03*
X003034488Y003439567D03*
X002806625Y003435325D03*
X002587068Y003667634D03*
X002414804Y004057600D03*
X002751634Y004168750D03*
X003148306Y003548457D03*
X003147620Y003778098D03*
X003031339Y003887877D03*
X003147620Y004002355D03*
X002921332Y003774695D03*
X002754707Y003718180D03*
X002867991Y004057600D03*
X002751939Y003944443D03*
X002417980Y003831311D03*
X002581911Y003436875D03*
X002638503Y003830524D03*
X002524406Y004061029D03*
X002526437Y003944443D03*
X002638503Y004055288D03*
X002584172Y004001009D03*
X002472590Y004112108D03*
X002525346Y004167455D03*
X002411629Y003605023D03*
X001716050Y004332123D03*
X002808200Y004226663D03*
X003147620Y004566794D03*
X003093543Y004279367D03*
X002411096Y003376728D03*
X003165908Y005085665D03*
X003092401Y004509212D03*
G54D11*
X002470913Y003888919D03*
X003064308Y005039945D03*
X002696440Y005655032D03*
X001621181Y004609212D03*
X003963468Y005012005D03*
X004029940Y005073372D03*
X003887268Y005057725D03*
X003891993Y004965498D03*
X001716000Y003971011D03*
X003356408Y005105985D03*
X003091054Y004733012D03*
X002468780Y004566464D03*
X002695068Y004568343D03*
X002808200Y004568801D03*
X002932660Y005139412D03*
X002751634Y003492882D03*
X002073276Y003378759D03*
X003087955Y003605023D03*
X002074876D03*
X002977897Y003492399D03*
X001897559Y003548457D03*
X003541879Y003491891D03*
X003656128D03*
X002072793Y003717012D03*
X002977897Y003721431D03*
X003088108Y003834918D03*
X003600477Y003661614D03*
X003483942D03*
X003486380Y004001009D03*
X003599613D03*
X003820669Y004005022D03*
X001961212Y003944265D03*
X002072793Y003943072D03*
X003430144Y003831311D03*
X003541650D03*
X003428036Y004170731D03*
X003544114D03*
X002070051Y004168141D03*
X002581911Y003886759D03*
X002977669Y004170833D03*
X002580616Y004114166D03*
X001900379D03*
X002073632Y004397020D03*
X003486329Y004340429D03*
X003713252D03*
X001900531D03*
X002977897Y004621709D03*
X002185925Y004623741D03*
X001901521Y004566718D03*
X003656255Y004510152D03*
X003543047D03*
X003373908Y004567581D03*
X003260752Y004566032D03*
X002686280Y004811752D03*
X003843885Y004659148D03*
X003543606Y004731970D03*
X003430474Y004735399D03*
X003322652Y004739056D03*
X003201976Y004739666D03*
X002890699Y004852874D03*
X002525346Y004737838D03*
X002299082Y004738803D03*
X002072793Y004733189D03*
X001797305Y004692524D03*
X003656738Y004844771D03*
X001956868Y004846905D03*
X002976577Y003944443D03*
X002806168Y003887471D03*
X002638503Y003605454D03*
X002863622Y003831311D03*
X002525346Y003491408D03*
X002187830Y003944443D03*
X002638503Y004400399D03*
X002525346Y004400729D03*
X002751634Y004402760D03*
X002299082Y004398214D03*
X002412214Y004398265D03*
X002245844Y004227297D03*
X002300962Y004170731D03*
X002355648Y004339616D03*
X002242694Y003548457D03*
X002185011Y003718180D03*
X002864765Y004401770D03*
X002412214Y004288029D03*
X003259888Y003775025D03*
X003371648Y003772485D03*
X003265603Y004007029D03*
X003265400Y004110660D03*
X003317445Y003610052D03*
G54D10*
X003602661Y004458412D03*
X003542768Y003718180D03*
X003601290Y004114166D03*
X003890672Y004012642D03*
X003431058Y003718180D03*
X003767939Y004736441D03*
X003821000Y003435528D03*
X003601111Y003774745D03*
X003317318Y004511371D03*
Y004622090D03*
X003655773Y004397020D03*
X003710687Y004455720D03*
X003544774Y004057600D03*
X003834360Y003757652D03*
X003600095Y003548457D03*
X003486253Y003435325D03*
X003543606Y004621912D03*
X003838170Y004233902D03*
X003818587Y004537432D03*
X003824504Y003548457D03*
X003713202Y003435325D03*
X003658363Y004283863D03*
X003824504Y003887877D03*
X003428316Y004397020D03*
X003714954Y003772332D03*
X003600172Y004677894D03*
X003428747Y003491891D03*
X003598597Y003436976D03*
X003657170Y003378759D03*
X003715843Y003887877D03*
X003768117Y004397020D03*
X003427960Y004057600D03*
X003544724Y004283863D03*
X003542336Y003379267D03*
X003768980Y003378963D03*
X003487040Y004796512D03*
X003765653Y004283863D03*
X003598089Y004227297D03*
X003430474Y004620057D03*
X003375813Y003545866D03*
X003485516Y003774745D03*
X003820212Y004121227D03*
X003373908Y004679240D03*
X003430474Y004847311D03*
X003485593Y004114166D03*
X003600172Y004791051D03*
X003429687Y003378759D03*
X003712084Y004566718D03*
X003543606Y004854932D03*
X003656458Y003718180D03*
X003769031Y004623284D03*
X003767939Y003605023D03*
X003658465D03*
X003715005Y003546222D03*
X003774187Y003722218D03*
X003486939Y004453586D03*
X002869160Y004175761D03*
X003908020Y004799051D03*
X003427960Y003607791D03*
X003487371Y003548381D03*
X003484398Y004675582D03*
X003488056Y004227297D03*
X003544088Y004397020D03*
X002864765Y003381985D03*
X003712008Y004227297D03*
X002526260Y003600171D03*
X002129309Y003887877D03*
X002185443Y003831311D03*
X001723112Y002934209D03*
X002253260Y001009524D03*
X003204186Y003036292D03*
X003430322Y003039009D03*
X003260523Y003209672D03*
X003315794Y003033573D03*
X003254935Y002985110D03*
X003147620Y003212263D03*
X003036368Y003207741D03*
X003091994Y003152471D03*
X002355648Y003095651D03*
X003066848Y000917525D03*
X002553768Y001781531D03*
X003318308Y002682825D03*
X003147620Y003097252D03*
X002016228Y003209011D03*
X001761060Y003155036D03*
X002243837Y003096286D03*
X002130198Y002982773D03*
X002180820Y002929612D03*
X002299082D03*
X003233040Y001258317D03*
X003159330Y001258266D03*
X003820288Y001277062D03*
X003754248Y001282142D03*
X003612948Y001288365D03*
X003541828D03*
X003407208Y001247725D03*
X003349067Y001266064D03*
X002844395Y000941427D03*
X002924405Y000946506D03*
X002242491Y003325851D03*
X002072260Y003264968D03*
X002242491Y002986000D03*
X002412214Y003153004D03*
X002074140Y003039340D03*
X002299082Y003269971D03*
X003004390Y000949021D03*
X001713460Y001184631D03*
X001738860Y001524991D03*
X002355648Y002981936D03*
X001862812Y001969187D03*
X001818793Y002139595D03*
X001665200Y001426007D03*
X003648940Y001629132D03*
X002393748Y002819985D03*
X003585338Y001657960D03*
X002793798Y002558771D03*
X003524378Y001657960D03*
X002732838Y002558771D03*
X003206548Y003152471D03*
X002175740Y001898372D03*
X002283436Y001960195D03*
X003158720Y000920471D03*
X001939520Y001375132D03*
X003547365Y000925551D03*
X001608685Y001272211D03*
X005480229Y000668224D03*
X003325115Y000930225D03*
X001759180Y001373175D03*
X003991713Y002129512D03*
X001578840Y001440765D03*
X002708835Y000988365D03*
X005647971Y000668605D03*
X003396235Y000930225D03*
X001698220Y001373175D03*
X003852140Y001588492D03*
Y001649452D03*
X003781045Y000928091D03*
X003618485Y000925551D03*
X001547725Y001272211D03*
X002698548Y001428065D03*
X002072793Y003150592D03*
X002188440Y003155671D03*
X002714220Y000808711D03*
X002751634Y003152192D03*
X002016228Y003099131D03*
X003317318Y003151023D03*
X002908225Y001668908D03*
X002571980Y002523211D03*
X002130045Y003206472D03*
X003315565Y003262427D03*
X003204186Y002921407D03*
X002873630Y001719124D03*
X002511020Y002523211D03*
X003342337Y002182801D03*
X002977897Y003152192D03*
X002921332Y003099233D03*
X003892754Y001713789D03*
X002525346Y003262377D03*
X003831794Y001713789D03*
X002468780Y003206472D03*
X002864765Y003152192D03*
X002695068Y003097252D03*
X002808200Y003097683D03*
X002013002Y003322194D03*
X002638503Y003152192D03*
X002581911Y003097861D03*
X003988513Y001709472D03*
X003260752Y003094889D03*
X003422372Y002716251D03*
X002660448Y001524585D03*
X002881860Y001293852D03*
X003709925Y000928091D03*
X002464030Y003093442D03*
X002338833Y002808783D03*
X001873480Y000897611D03*
X001613028Y000872466D03*
X001682980Y000859512D03*
X003229840Y000920471D03*
X001878560Y001375132D03*
X002057935Y002821026D03*
X003422880Y002655291D03*
X002482902Y001916151D03*
X001959662Y003153309D03*
X002450060Y002805202D03*
X003194280Y001596112D03*
X002251940Y002828012D03*
X002441094Y001970685D03*
X001915440Y001999971D03*
X002244218Y002473224D03*
X001915440Y002060931D03*
X002244218Y002534184D03*
X002570506Y002070203D03*
X002178280Y002177771D03*
X002509546Y002070203D03*
X002178280Y002116811D03*
X002064793Y002524888D03*
X001683869Y002081251D03*
X002125752Y002524888D03*
X001622909Y002081251D03*
X002130122Y003322194D03*
X001644448Y002400885D03*
X003755620Y002116735D03*
X001713053Y002456765D03*
X003816580Y002116735D03*
X001768908Y002413585D03*
X003644520Y002166291D03*
X001817600Y002459305D03*
X003705480Y002166291D03*
X003401975Y002170075D03*
X003462935D03*
X003173554Y002121993D03*
X003234514Y002120520D03*
X002923643Y002204162D03*
X002984603D03*
X002378940Y002516810D03*
X003024125Y001678611D03*
X002439900Y002516810D03*
X003085085Y001678611D03*
X002643100Y002623491D03*
X003211958Y001657960D03*
X002705000Y002623491D03*
X003272918Y001657960D03*
X002338300Y002627352D03*
X003397607Y001593699D03*
X002399260Y002627352D03*
X003440736Y001636827D03*
X001809980Y002683232D03*
X002015288Y002746325D03*
X002025448Y002690445D03*
X002084300Y001341705D03*
X001937945Y002231111D03*
X002276908Y002629485D03*
X001817600Y001245592D03*
X003362276Y002726564D03*
X005568748Y000671145D03*
X002091462Y002743912D03*
G54D11*
X002022908Y000909905D03*
X002203248Y000963245D03*
X001956868Y000981025D03*
X001728268Y001318845D03*
X001847648Y001311225D03*
X001662228Y002507565D03*
X002624888Y002032585D03*
X003839008Y001527125D03*
X003938805Y001673810D03*
X003460548Y001710005D03*
X003193848Y000833705D03*
X003841548Y000996265D03*
X003470708Y000887045D03*
X003275128Y000861645D03*
X003663774Y000869240D03*
X003582468Y002166824D03*
X002985162Y002091412D03*
X002371320Y001471651D03*
X001906500Y003322194D03*
X003270582Y001318972D03*
X003499080Y001593572D03*
X003575788Y001583919D03*
X003709900Y001591032D03*
X002996185Y001752245D03*
X003328900Y001707872D03*
X003674340Y001697712D03*
X003942285Y001751051D03*
X002449425Y000987756D03*
X002813280Y001309092D03*
X001813307Y002530628D03*
X001550900Y001156692D03*
X001652500Y001161772D03*
X001891260Y001166852D03*
X003760496Y002195958D03*
X002240510Y001904721D03*
X003711983Y002982773D03*
X003543606Y002924125D03*
X003486126Y002976983D03*
X003377160Y002982773D03*
X003146020D03*
X003091054Y003038298D03*
X002299794Y003039543D03*
X002072793Y002925446D03*
X003544292Y003152471D03*
X003373908Y003096667D03*
X003378938Y003213329D03*
X002129359Y003096032D03*
X002977897Y003039136D03*
X002864765Y003040584D03*
X002751634Y003037282D03*
X002641170Y003035758D03*
X002412214Y003040330D03*
X001902817Y003095905D03*
X003821228Y003315692D03*
X003490292Y003322194D03*
X003601493D03*
X003257653Y003322651D03*
X002203680Y001464031D03*
X002450060Y001781531D03*
X002361160D03*
X002084300Y001923339D03*
X001855700Y001580872D03*
X002950440Y001121157D03*
X002812010Y001127482D03*
X003295931Y002226108D03*
X002581911Y003204312D03*
X002349882Y003322194D03*
X002411960Y003265603D03*
X002355648Y003207869D03*
X003147620Y003324759D03*
X003096820Y003265603D03*
X003204186Y003266187D03*
X002921332Y003204312D03*
X002695068Y003207335D03*
X002808200Y003204312D03*
X003379675Y003322194D03*
G54D10*
X003715259Y003209037D03*
X003542285Y003039340D03*
X003545257Y003265603D03*
X003433192D03*
X003811500Y003239491D03*
X003489961Y003209037D03*
X003807182Y003155925D03*
X003657500Y003039340D03*
X003434589Y003157602D03*
X003597327Y003095905D03*
X003487218D03*
X003598343Y003210561D03*
X001906500Y002853412D03*
X001794562Y002985517D03*
X001903046Y002982773D03*
X002128750Y002869617D03*
X001695375Y002756536D03*
X002242491Y003212263D03*
X001695375Y002817496D03*
X001956868Y000765531D03*
X005135983Y002077569D03*
X006239257Y003221254D03*
X006285028Y002675205D03*
X006048808Y003203093D03*
X005929327Y003160294D03*
X006547080Y002480031D03*
X006456656Y002312392D03*
X006395696D03*
X006493740Y001266674D03*
X004687063Y001734490D03*
X006432780Y001266674D03*
X004748023Y001734490D03*
X004601516Y001669695D03*
X004558387Y001712825D03*
X004362680Y001718032D03*
X005627168Y001102945D03*
X004423640Y001718032D03*
X002729460Y000740132D03*
X004052673Y002129512D03*
X005244060Y001497052D03*
X005827828Y002149425D03*
X005388205Y002054048D03*
X005327245D03*
X004273678Y001377672D03*
X006267248Y003005405D03*
X006055488Y003263698D03*
X004539159Y001329412D03*
Y001390372D03*
X005087240Y001526845D03*
X004421151Y001330631D03*
X004212718Y001377672D03*
X004360191Y001330631D03*
X004049473Y001709472D03*
X006299277Y002887016D03*
X006040629Y003322829D03*
X004189528Y002078305D03*
X004748328Y001166445D03*
X004684828D03*
X005911648Y003101925D03*
X004960291Y002184985D03*
X005162348Y001461085D03*
X005130370Y001569975D03*
X004293668Y002680285D03*
X006536920Y002045691D03*
X005388840Y001402665D03*
X005575530Y001456005D03*
X005635245Y003287752D03*
X005181703Y003177363D03*
X005447260Y003092172D03*
X005017035Y003299029D03*
X004608527Y003292730D03*
X005021302Y003176804D03*
X004853383Y003177643D03*
X005281093Y003079065D03*
X004519728Y001161365D03*
Y001222325D03*
X006323128Y002427962D03*
X006080507Y002841702D03*
X006178526Y003215768D03*
X005275302Y002166011D03*
X006467908Y002804745D03*
X002142288Y000767665D03*
G54D11*
X004646728Y001783589D03*
X004296208Y001308685D03*
X004161588Y001435685D03*
X006320588Y002304772D03*
X006509412Y002342973D03*
X005093768Y001461085D03*
X006475528Y002896185D03*
X006206288Y002792045D03*
X006368848Y003183205D03*
X004482924Y001442950D03*
X006485688Y002436445D03*
X005335500Y001199872D03*
X005682210Y001190981D03*
X004334207Y001404900D03*
X005536160Y001542772D03*
X005130827Y001227405D03*
X004434994Y002229206D03*
X004674998Y002190065D03*
X004880408Y002192605D03*
X005155008Y002175384D03*
X004425748Y002101165D03*
X004594988Y002080083D03*
X004802176Y001706474D03*
X005310100Y002868652D03*
X005317720Y003015972D03*
X005421860Y001834871D03*
X005513300D03*
X005172457Y003293035D03*
X005495342Y003300705D03*
X004939057Y003306421D03*
X005097578Y003156662D03*
X004856862Y003104186D03*
X005686376Y003230195D03*
X004695115Y003307386D03*
X004857040Y003305252D03*
X005334560Y003305557D03*
X006028488Y001242645D03*
X006381116Y001321792D03*
X006550484Y001322604D03*
G54D10*
X005259427Y003245511D03*
X005258309Y003176982D03*
X005335271Y003245232D03*
X004695776Y003178049D03*
X005415256Y003304109D03*
X005500270Y003074467D03*
X004775506Y003308224D03*
X004936415Y003179421D03*
X004855389Y003243149D03*
X004937888Y003240939D03*
X004697046Y003236520D03*
X005660620Y003178531D03*
X006180888Y005801945D03*
X006551728Y005626685D03*
X004369868Y005578425D03*
X006577128Y003345765D03*
X005921808Y003394025D03*
X005919268Y004486225D03*
X005907000Y004567505D03*
X006091988Y004115385D03*
X005972608Y005060265D03*
X005980228Y004953585D03*
X006046268Y005014545D03*
X006084368Y004930725D03*
X005168698Y005589855D03*
X005469688Y005635982D03*
X005380712Y005613121D03*
X004246678Y005584775D03*
X004658285Y005582362D03*
X004766540Y005636388D03*
X005096308Y005641925D03*
X004526485Y005625847D03*
X005368520Y005014951D03*
X005150207Y003376525D03*
X005253204Y003437433D03*
X005167200Y003568751D03*
X005424324Y003778505D03*
X005332579Y003888969D03*
X005176750Y004087470D03*
X005167428Y004189858D03*
X005176394Y004353993D03*
X005589500Y004347516D03*
X005168190Y004443096D03*
X005413757Y003507208D03*
X005586960Y003600298D03*
X005592040Y003730270D03*
X005414723Y004146703D03*
X005250258Y004553738D03*
X005586960Y003904921D03*
X005592040Y004042132D03*
X005012996Y003441193D03*
X005023588Y004194760D03*
X005015892Y004346500D03*
X005015358Y004484549D03*
Y003560700D03*
X004614394Y004344392D03*
X004854907Y004478732D03*
X004776319Y004222116D03*
X004936136Y004094938D03*
X004596843Y004080942D03*
X004814800Y003828848D03*
X004655923D03*
X004592525Y003586252D03*
X004776421Y003430626D03*
X004611600Y004219881D03*
X005600143Y004194836D03*
X005256481Y004159555D03*
X004938269Y004157016D03*
X005255845Y003494939D03*
X004936770Y003502356D03*
X005586121Y003462250D03*
X004243300Y003541751D03*
X004476980Y003376652D03*
X004090849Y004118382D03*
G54D11*
X006394248Y005492065D03*
X006137708Y005410785D03*
X006424982Y005121225D03*
X006282488Y004760545D03*
X006550458Y004135705D03*
X005830800Y005174565D03*
X005660620Y003584931D03*
X005629353Y003498673D03*
X005830800Y004460825D03*
X005772380Y005720665D03*
Y005807025D03*
X005708448Y005720665D03*
X006305348Y004580205D03*
X006267248Y004504005D03*
X006424982Y005047565D03*
X006361228Y005125035D03*
X006297728Y004430345D03*
X006239308Y004585285D03*
X005830800Y003734385D03*
X006213908Y005466665D03*
X006472988Y005489525D03*
X006074208Y005446345D03*
X005677968Y003663265D03*
X004248380Y004176751D03*
X005340376Y004585057D03*
X005502301Y003776498D03*
X005023283Y004268522D03*
X004857396Y004546144D03*
X004696919Y004347668D03*
X005172229Y003503855D03*
X005095724Y004113124D03*
X004855542Y004159835D03*
X005167276Y004511066D03*
X005589500Y004131031D03*
X004937431Y004548633D03*
X004735933Y003827857D03*
X005030700Y003386811D03*
X004601237Y003356967D03*
X004610635Y003710407D03*
X005253763Y003891255D03*
X005162780Y004250132D03*
X004780510Y004021075D03*
X005416196Y003959175D03*
X005026356Y004128847D03*
X005339183Y004154730D03*
X004613301Y004281527D03*
X005498441Y004214369D03*
X005577562Y004287242D03*
X004937888Y004351427D03*
X005257217Y004346068D03*
X005332452Y004349980D03*
X005496333Y004348303D03*
X005589500Y003976091D03*
X004893540Y003833851D03*
X005258817Y003376270D03*
X005173270Y003438958D03*
X005607534Y003400146D03*
X004584574Y003527883D03*
X004857269Y003501848D03*
X005018000Y003501111D03*
X005412995Y003571215D03*
X005339183Y003499435D03*
X005586960Y003535122D03*
X004774770Y003698037D03*
X005589500Y003665119D03*
X005344314Y003778505D03*
X004604285Y004025545D03*
X005705908Y005807025D03*
G54D10*
X004698925Y004480739D03*
X005258258Y003632658D03*
X005335348Y003950717D03*
X005416780Y004020796D03*
X004773754Y003566237D03*
X005463719Y004572611D03*
X005416247Y003372028D03*
X005256303Y003701772D03*
X004515080Y004123411D03*
X004930649Y004218458D03*
X005495342Y003430702D03*
X004938422Y003434233D03*
X005257243Y004222802D03*
X005255896Y004415511D03*
X005256506Y003950717D03*
X005338269Y003632632D03*
X004854271Y003567253D03*
X004855694Y004290112D03*
X005415916Y004079851D03*
X005256556Y004475202D03*
X004692270Y004088969D03*
X005416780Y003697047D03*
X004691381Y004218611D03*
X004701491Y003568142D03*
X004854043Y004413682D03*
X004695395Y003435249D03*
X004775887Y003371343D03*
X005416780Y003630651D03*
X005253763Y004284676D03*
X005255947Y004079851D03*
X004855440Y004082772D03*
X004696411Y003375381D03*
X004936898Y004412819D03*
X005499228Y003369590D03*
X004772103Y004090137D03*
X004853763Y004023081D03*
X004938396Y004478732D03*
X004700119Y003699663D03*
X005494453Y003952089D03*
X004935881Y004290086D03*
X005492447Y004149701D03*
X004935780Y004015055D03*
X005592040Y004438371D03*
X005336516Y004289553D03*
X005495469Y004281450D03*
X004935907Y003624835D03*
X004856507Y003365704D03*
X005415358Y004275710D03*
X005335500Y003437612D03*
X005338040Y003564612D03*
X005335500Y003374112D03*
X004859352Y003629636D03*
X004693642Y004278275D03*
X005413401Y004414496D03*
X004853078Y004351351D03*
X004537940Y003427452D03*
X005335297Y004090188D03*
X004693870Y004413302D03*
X004696588Y004022269D03*
X006515101Y006070118D03*
X006333288Y006050712D03*
X006310428Y006538545D03*
X006559348Y006969888D03*
X006460288D03*
X005088688Y006825565D03*
X005017568D03*
X006530138Y006905575D03*
X004228644Y006214949D03*
X004771188Y005974665D03*
X005685080Y006487745D03*
X004966361Y007748855D03*
X005856530Y006487237D03*
X004729481Y007741438D03*
X005756708Y007836485D03*
X005771948Y007018605D03*
X004717848Y007140119D03*
X005601768Y006096585D03*
X004677208Y005936565D03*
X005456988Y005933568D03*
X005403648Y005956885D03*
X005347768Y005933568D03*
X005022648Y006035625D03*
X005891328Y006271845D03*
X005876088Y006391225D03*
X004893540Y005919192D03*
X004326688Y006299785D03*
X004372408Y007733691D03*
X004063722Y006909792D03*
X005060748Y005946725D03*
X004063722Y006970752D03*
X004128568Y008268285D03*
X004232708Y006005145D03*
X004194608Y006111825D03*
X004354628Y008400365D03*
X004378758Y008274635D03*
X004128568Y008369885D03*
X005632502Y006754445D03*
X004367328Y007653681D03*
X005911648Y006444565D03*
X006147868Y006370905D03*
X005281754Y006022925D03*
X004306800Y007146012D03*
X004045028Y006230925D03*
X004104260Y006206059D03*
X004273577Y007094881D03*
X004372078Y006970752D03*
Y006909792D03*
X006277408Y006104205D03*
X005188180Y006046191D03*
X006338012Y006821273D03*
X006316524Y005960136D03*
X006107228Y006541085D03*
X005964988Y006271845D03*
X005919268Y006007685D03*
X006271032Y005927650D03*
X004319068Y006726505D03*
X006518708Y006602045D03*
X004963974Y007923099D03*
X006546648Y005987365D03*
G54D11*
X006325668Y006886525D03*
X005664862Y007983805D03*
X005700421Y006830645D03*
X004430828Y006360745D03*
X004491788Y006299785D03*
X004392728Y006637605D03*
X004291560Y006495365D03*
X005213148Y007742505D03*
X005286808Y007917765D03*
X005700828Y007366585D03*
X006053888Y007364045D03*
X005992928Y007529145D03*
X006582208Y007587565D03*
X006579668Y007412305D03*
X006509056Y007617283D03*
X004865422Y007501713D03*
X004997502D03*
X005009440Y007369379D03*
X004877360D03*
X004359708Y006840805D03*
X004209848Y007216725D03*
X004392728Y007298005D03*
X004562908Y007940625D03*
X004275888Y007600265D03*
X006127548Y006066105D03*
X006048808Y005972125D03*
X004151428Y007823379D03*
X006104688Y006469965D03*
X006147868Y006726505D03*
X006236768Y006729045D03*
X006185968Y006828105D03*
X006539028Y007485965D03*
X004382568Y007813625D03*
X004354628Y007493687D03*
X004184448Y007577405D03*
X004367328Y007389445D03*
X004809288Y006861125D03*
X004946448Y006635065D03*
X005205528Y006825565D03*
Y007125285D03*
X005942128Y007450405D03*
X005789728Y007430085D03*
X005652568Y007501205D03*
X005368088Y007445325D03*
X005266488Y007374205D03*
Y007501205D03*
X005073448Y007435165D03*
Y007572325D03*
Y007303085D03*
X004809288Y007435165D03*
Y007572325D03*
Y007303085D03*
X004941368D03*
Y007572325D03*
Y007435165D03*
X005215688Y007968565D03*
X004799128Y007887285D03*
X004702608Y007206565D03*
X004814368Y006977965D03*
X006414162Y006850127D03*
X004385540Y007140931D03*
X004117976Y007069405D03*
X004098520Y006843751D03*
X004291560Y006417031D03*
G54D10*
X005970068Y006363285D03*
X005302048Y009106079D03*
X006048808Y009109076D03*
X006185968Y009406205D03*
X005515586Y008937956D03*
X005769586D03*
X005642586D03*
X005515586Y009029396D03*
X005769586D03*
X005642586D03*
X005863388Y009368105D03*
X006122468Y010462845D03*
X004146805Y010403968D03*
X005973649Y010362744D03*
X004123488Y008456245D03*
X004382568Y008553172D03*
X004410534Y008453680D03*
X004397808Y009223325D03*
X004334308Y009281745D03*
X004265728Y009228405D03*
X004413048Y008895665D03*
X004326688Y008893125D03*
Y008806765D03*
X004413048D03*
X004307664Y010428581D03*
X005858257Y010234194D03*
G54D11*
X004171697Y010536556D03*
X005335068Y008733105D03*
X005256328Y008809305D03*
X005121708Y008738185D03*
X005368088Y008550225D03*
X005269028Y008507096D03*
X005700828Y009245677D03*
X005548428Y009248217D03*
X005812588Y010414585D03*
X004209848Y010401885D03*
X005700828Y009169985D03*
X005548428Y009172525D03*
X004148888Y010249485D03*
X005954828Y010429825D03*
X006325668Y009312225D03*
X005632248Y008745805D03*
X005545888Y008740725D03*
X005454448Y008745805D03*
X005296968Y008928685D03*
X005139488Y008898205D03*
X005048048D03*
X004941368Y008811845D03*
X004834688Y008816925D03*
X004733088Y008822005D03*
X005225848Y009020125D03*
X004577539Y008877885D03*
X005785664Y009124722D03*
X005464100Y009125992D03*
X005624628Y009125230D03*
X005464100Y009212352D03*
X005785664Y009211082D03*
X005624628Y009211590D03*
X005985308Y009314816D03*
X005593157Y009491625D03*
X005912918Y009490076D03*
X006074208Y009053094D03*
X006528614Y010358705D03*
X004313607Y008693684D03*
G54D10*
X008540548Y009487485D03*
X007789394Y009038591D03*
X008845348Y009855785D03*
X008499908Y009550985D03*
X006617768Y010432365D03*
X006977178Y008955355D03*
X009063788Y009891345D03*
X008783931Y009825762D03*
X008664322Y009749816D03*
X008304328Y009098865D03*
X009004301Y009396045D03*
X008057948Y009192871D03*
X008512557Y009670365D03*
G54D11*
X008598968Y009319794D03*
X008545628Y009606865D03*
X008573568Y009888805D03*
X006655868Y010488245D03*
X008450607Y009033867D03*
X007892848Y008987105D03*
X008484668Y009406205D03*
X008986064Y009225865D03*
X009089188Y009330005D03*
X008675168Y009891345D03*
X008007986Y008606105D03*
G54D10*
X006671108Y006800165D03*
X006683808Y006607125D03*
X006793028Y007013068D03*
X006716828D03*
X006744768Y006820485D03*
X006765088Y006607125D03*
X007222288Y006917005D03*
X007549948Y006076265D03*
X007471208Y006342965D03*
X007450888Y006612205D03*
X006815888Y005981624D03*
X007052159Y005987365D03*
X006631179Y005982184D03*
X007024168Y006932245D03*
X006815888Y006805245D03*
X006692089Y005985181D03*
X007781088Y006119445D03*
X006887008Y005987365D03*
X006963208Y005982285D03*
X007707428Y006175325D03*
X006852108Y006607786D03*
X006881928Y006792545D03*
X007010757Y006991732D03*
X007011011Y007059245D03*
X006752947Y005981624D03*
X008393254Y006480125D03*
X008622260Y007479259D03*
X008257592Y006274385D03*
X008550708Y007606260D03*
X008392568Y006274385D03*
X008511338Y006433135D03*
X008232344Y006848425D03*
X008620228Y007733260D03*
X008257592Y006477585D03*
X006602122Y006607531D03*
X007519468Y006467374D03*
X007488988Y006807785D03*
X007387388Y006028005D03*
X007651548Y005969585D03*
X007600748Y005874335D03*
X008484668Y006655385D03*
X006952108Y006608598D03*
X007118148Y005979745D03*
G54D11*
X007107988Y007325945D03*
X007143548Y007254825D03*
Y007394525D03*
X007118148Y007585025D03*
X006805728Y008270825D03*
X007908088Y006012765D03*
X008555788Y006007685D03*
X007974128Y006190565D03*
X008121448Y006627445D03*
X007986828Y006756985D03*
X007562648Y007125285D03*
X007557568Y007364045D03*
X007486448Y008324165D03*
X008489748Y005885765D03*
X006652058Y007615759D03*
X006995720Y006105475D03*
X006663996Y006108777D03*
X006883960Y006106237D03*
X006768898Y006109539D03*
X007041948Y006225871D03*
X006604306Y006224347D03*
X006824270Y006221807D03*
X006700572Y006349061D03*
X006934252D03*
X006595924Y006395543D03*
X007037884Y006390463D03*
X006824524Y006395543D03*
X006939332Y006218505D03*
X008530388Y006096585D03*
X007979208Y006294705D03*
X007285788Y006904711D03*
X007575348Y006807785D03*
X007387388Y006337885D03*
X007450888Y006028005D03*
X006625388Y007488505D03*
X007295948Y005911165D03*
X007548678Y006382335D03*
X007461048Y006523356D03*
X006719368Y006221045D03*
X006936284Y006453963D03*
X006702604D03*
X006596940Y006493587D03*
X007040424Y006489523D03*
X007058458Y006063819D03*
X006602274Y006068391D03*
X006825794Y006063311D03*
X006596686Y006299023D03*
X007043726D03*
X006827064Y006494603D03*
X006826353Y006301970D03*
X008197648Y006376391D03*
X008228128Y006541492D03*
X007125768Y006924625D03*
X007135928Y006220105D03*
X007130340Y006493079D03*
X006841288Y006967805D03*
X008643266Y007178625D03*
G54D10*
X007565188Y005807025D03*
X006836208Y005819725D03*
X006655868Y005796992D03*
X006978448Y005520005D03*
X006912408Y005514925D03*
X006902248Y005743525D03*
X007090005Y005756225D03*
X007014008Y005776545D03*
X006701588Y005581829D03*
X006770168Y005582235D03*
X006762548Y005746065D03*
X007806488Y005154245D03*
X007809028Y003655645D03*
X007814641Y003487700D03*
X007971588Y005078045D03*
Y005326965D03*
X006856528Y003940125D03*
X007723379Y003414752D03*
X007784339D03*
X007558762Y003489936D03*
Y003428975D03*
X007514388Y005166945D03*
X007199428Y003668345D03*
X007474256Y005083125D03*
X007481368Y003650565D03*
X008520660Y003435072D03*
X007821728Y005070425D03*
X007201968Y003867608D03*
Y004167607D03*
X007181648Y003736925D03*
X006678728Y003650565D03*
X007138468Y004046805D03*
X007709968Y005078045D03*
X008607020Y003468092D03*
X007874992Y003496488D03*
X007974560Y003483332D03*
X007280708Y003518485D03*
X006843879Y003523565D03*
X007087668Y003990925D03*
X006998819Y005019676D03*
X007689648Y005177105D03*
X008129068Y005479365D03*
Y005393005D03*
X008024928Y005479365D03*
Y005393005D03*
X007565188Y005370145D03*
X007593128Y005466665D03*
X007839508Y005532705D03*
X007834428Y005367605D03*
X007859828Y005464125D03*
X007654088Y005370145D03*
X007740448D03*
X007682028Y005466665D03*
X007773468D03*
G54D11*
X007090208Y003922345D03*
X008672628Y005072965D03*
X008284008Y005657165D03*
Y005563185D03*
X008268768Y005807025D03*
X007422948Y005700345D03*
X007666788Y005756225D03*
X007141008Y004316045D03*
X006640120Y004423995D03*
X006591098Y004370909D03*
X006684570Y004369893D03*
X007395008Y003467685D03*
X007844639Y003434614D03*
X006839154Y004174161D03*
X007158788Y003973145D03*
X007138468Y003823285D03*
X007133388Y003696285D03*
X006640882Y004528389D03*
X006591860Y004475303D03*
X006685332Y004474287D03*
X006685078Y004304361D03*
X007793788Y005690185D03*
X006739688Y003960445D03*
X006591860Y004302583D03*
X007108369Y003340304D03*
X006950559Y003482925D03*
X007720128Y005680025D03*
X007610908Y005674945D03*
X007509308D03*
X007376796Y003967608D03*
X007574256Y003642336D03*
X008174254Y005062805D03*
X007406997Y004700322D03*
X007956780Y003907511D03*
X008174635Y003937407D03*
X008132040Y004646651D03*
X007874662Y004347770D03*
Y004175913D03*
X007491528Y003472765D03*
X007462902Y003381605D03*
X008245908Y003330525D03*
X007966889Y003371622D03*
X007367500Y003404592D03*
X007408140Y003361412D03*
X007517360Y003369032D03*
X007575780Y003360573D03*
X007930160Y003441548D03*
X007299453Y003369311D03*
G54D10*
X007809054Y003239491D03*
X007763384Y002007591D03*
X008520660Y002530832D03*
X007824344Y002007591D03*
X008586700Y002530832D03*
X008410170Y002290802D03*
X008040600Y002047215D03*
X008490180Y002294612D03*
X008040600Y001986255D03*
X007064808Y002713712D03*
X007123660Y003033751D03*
X007860692Y003198851D03*
X008096480Y003176398D03*
X007977836Y003168295D03*
X006777788Y002515185D03*
X006798997Y002289125D03*
X007487896Y002121892D03*
X006608040Y002480031D03*
X007426936Y002121892D03*
X007259296Y002041374D03*
X007198336D03*
X008175601Y002964918D03*
Y002893798D03*
X008386040Y002653768D03*
X008368260Y001314934D03*
X007164350Y003173045D03*
X008386040Y002724888D03*
X008429220Y001314934D03*
X008111491Y002792731D03*
X008627340Y002043152D03*
X008111491Y002863851D03*
X008566380Y002041780D03*
X008754975Y002942311D03*
X006841720Y002960092D03*
X006846368Y002586305D03*
X007070904Y000900736D03*
X008815935Y002942311D03*
X007693890Y003212821D03*
X007359880Y003196261D03*
X007441160Y003196464D03*
X007560540Y003196261D03*
X007499580Y003196312D03*
X007853884Y002246351D03*
X007159220Y002208251D03*
X007373875Y002255267D03*
X007613880Y002251990D03*
X007662140Y002210792D03*
X008114260Y002281912D03*
X008055840D03*
X007994880Y002307312D03*
X008134580Y002342872D03*
X008076160Y002345412D03*
X007087668Y002517700D03*
X007142633Y002800072D03*
X007128740Y002861031D03*
X006614390Y002049171D03*
X008614005Y003061056D03*
X008570876Y003017927D03*
X006788380Y001344652D03*
X007857720Y000976352D03*
X008187920Y001009372D03*
X008678140Y001375132D03*
X007008928Y003315285D03*
X007125971Y002646732D03*
X006973800Y003012085D03*
X006726988Y002474545D03*
X008099020Y002568677D03*
X008040600Y003122652D03*
X008106640Y002985492D03*
X008162520Y002754352D03*
G54D11*
X006648248Y002545665D03*
X007135928Y002070685D03*
X007308648Y002083385D03*
X007562648Y002124025D03*
X008675168Y003112085D03*
X008517688Y002967305D03*
X008325080Y002301825D03*
X008167168Y002085925D03*
X007704888Y001956385D03*
X007943648Y001984325D03*
X008695488Y002050365D03*
X008891068Y002939365D03*
X008675168Y002941905D03*
X008179868Y002827605D03*
X006733998Y003221305D03*
X006695111Y002045310D03*
X008261148Y003005379D03*
X008591348Y002614245D03*
X008430642Y002796414D03*
X008507528Y003264485D03*
X007036259Y001172973D03*
X008284440Y000801091D03*
X008292949Y002130248D03*
X006884900Y002828012D03*
X008515148Y002355978D03*
X008341539Y002157858D03*
X007682358Y002138452D03*
X007880580Y002038071D03*
X008144740Y002478101D03*
X007377228Y002075765D03*
X006943726Y002291665D03*
X006846368Y002520265D03*
X008507960Y001359892D03*
X008314056Y001365784D03*
G54D10*
X007441160Y000661392D03*
X007109792Y000749174D03*
X007720560Y000762992D03*
X008551140Y000722351D03*
X008205700Y000750291D03*
X008828000Y000717271D03*
X007057620Y000704572D03*
X007146520Y000696952D03*
X007702780Y000674092D03*
G54D11*
X009170468Y009360485D03*
X009218728Y009195385D03*
X009221268Y009589085D03*
G54D12*
X001394690Y000790932D03*
X000897688Y001616025D03*
X000912928Y000930225D03*
X001108940Y001238378D03*
X001067868Y001489025D03*
G54D13*
X001480161Y001223113D03*
X001111048Y001334085D03*
X001111480Y002015211D03*
G54D12*
X001157200Y003821152D03*
X001372668Y003820745D03*
X001446328Y003818205D03*
X001309168Y007631152D03*
X001428548Y006947485D03*
X001490956Y008567396D03*
G54D13*
X001296468Y009886265D03*
G54D12*
X002310360Y009381212D03*
X002475460Y009376132D03*
X002643100Y009371052D03*
X002312900Y008697952D03*
X001967028Y008722945D03*
X001888720Y008598892D03*
X001891260Y008515072D03*
G54D13*
X002069060Y008631912D03*
X002071600Y008550632D03*
X002917014Y008438871D03*
X002447520Y010033992D03*
X002579600Y010031451D03*
X002704060Y010028912D03*
G54D12*
X003511780Y007143472D03*
Y007024092D03*
X003514320Y006914872D03*
X003511780Y006810732D03*
X003146020Y008405852D03*
X002074140Y006109691D03*
X002485188Y006536005D03*
X002511020Y006638393D03*
X001738148Y008171156D03*
X003092680Y007702271D03*
X003445740Y007514311D03*
X004019780Y006444972D03*
X003930880Y006439892D03*
X003971520Y006363691D03*
G54D13*
X002140180Y008187411D03*
X003350490Y007300545D03*
X003908020Y007138392D03*
X004016808Y007176085D03*
X003920288Y007033845D03*
X004019348Y007061785D03*
X003585643Y007693686D03*
X003549880Y007410171D03*
X002249400Y008187411D03*
X002384020Y008184872D03*
X002571980Y008177252D03*
X002147165Y007994803D03*
X002249222Y008015555D03*
X002384020Y008014691D03*
X002566900D03*
X002142085Y007880503D03*
X002243685Y007883043D03*
X002386560Y007885151D03*
X002553768Y007887692D03*
X002142720Y007768311D03*
X002244320Y007770852D03*
X002391640Y007768311D03*
X002569440Y007770852D03*
X003107920Y007808951D03*
X001790066Y008303845D03*
X001700760Y005446752D03*
X001669797Y005814696D03*
G54D12*
X001730808Y000789255D03*
X002309928Y000876885D03*
Y000970865D03*
X004004540Y003219171D03*
X004002000Y003115032D03*
X001746480Y002546072D03*
X001721486Y002691258D03*
X002108278Y001408939D03*
X003575280Y002619731D03*
X003574848Y002690852D03*
G54D13*
X002147800Y001187171D03*
X002353540Y001184631D03*
X002180820Y002048232D03*
X003072360Y000821412D03*
X001581380Y000798552D03*
X006201640Y000671552D03*
X006079720Y000674092D03*
G54D12*
X006374360Y000864592D03*
X006458180Y000862052D03*
X005751628Y002149425D03*
X006173700Y001497052D03*
X006303240D03*
X005802860Y001174472D03*
X005945100D03*
X005691125Y002987625D03*
X005729200Y003051532D03*
X005736921Y002933193D03*
X005127169Y002911780D03*
X004062960Y003163292D03*
X004065500Y003074391D03*
X005561128Y001626185D03*
X005615484Y001697127D03*
X003344140Y000722351D03*
X004537940Y002690852D03*
X004456660Y002693392D03*
G54D13*
X005208500Y001217651D03*
X005096740Y001748511D03*
X005660620Y002165072D03*
X005462500Y002015211D03*
X004306368Y002210792D03*
X004755948Y002174825D03*
X004550640Y002165072D03*
X004377488Y002162125D03*
X004393160Y003074391D03*
X004436340Y003005812D03*
X004355060D03*
X005693208Y002858898D03*
X006315940Y001098272D03*
Y001001752D03*
G54D12*
X005990388Y005723205D03*
X005952288Y005570805D03*
X005992928Y005647005D03*
X005909108Y005725745D03*
Y005649545D03*
X004334308Y004885005D03*
X004408400Y004885412D03*
X004484168Y004882465D03*
X006218988Y005332045D03*
X006272328Y005258385D03*
X006320588Y005334585D03*
X006399328Y005258385D03*
X005007408Y008004531D03*
X004875328D03*
Y008095971D03*
X005007408D03*
X004870248Y008385532D03*
X005002328D03*
X005423968Y006322645D03*
X005528108Y006320105D03*
X004774160Y006528792D03*
X004835120Y006472911D03*
X006305348Y007783145D03*
X006234228Y007780605D03*
X006152948Y007899985D03*
X006343448Y007552005D03*
X006409488Y007625665D03*
X006302808D03*
G54D13*
X004380460Y006160491D03*
Y006056351D03*
X004484168Y006160085D03*
X004487140Y006053812D03*
G54D12*
X005002328Y008497292D03*
X004870248D03*
X004499408Y009848165D03*
Y009721165D03*
Y009594165D03*
X004372408Y009848165D03*
Y009721165D03*
Y009594165D03*
X004245408D03*
Y009975165D03*
Y009848165D03*
Y009721165D03*
X006414568Y009517965D03*
Y009360485D03*
X006541568Y009365565D03*
Y009665285D03*
Y009523045D03*
X006452668Y010173285D03*
X006450560Y010072092D03*
X006198668Y010180905D03*
X006323128Y010178365D03*
X006196560Y010074632D03*
X006326100Y010072092D03*
G54D13*
X004390188Y010246945D03*
X004735628Y010244405D03*
X004570528Y010241865D03*
X005716500Y010199092D03*
X005792700Y010094952D03*
X005934940Y010089872D03*
G54D12*
X008264120Y008769072D03*
X008185380Y008563332D03*
X008264120Y008675092D03*
X008269200Y008563332D03*
X007110528Y009421445D03*
X007105448Y009553525D03*
X006927648Y009233485D03*
Y009330005D03*
X007425488Y009517965D03*
X007568160Y009373592D03*
X007227368Y009289365D03*
X007507200Y009279612D03*
X007649440D03*
X007473748Y008814385D03*
X007476288Y008656905D03*
X007125768Y008837245D03*
X007278168Y008829625D03*
X007328968Y008682305D03*
G54D13*
X007672300Y008545552D03*
X007735800Y008583652D03*
X006821400Y010078442D03*
G54D12*
X008767040Y006909258D03*
X008932140Y006825971D03*
X006760008Y007625665D03*
X007351828Y007605345D03*
Y007478345D03*
X007250228Y007600265D03*
G54D13*
X008819872Y007352260D03*
X008325080Y006648171D03*
X008264120Y005934431D03*
G54D12*
X006777534Y005105985D03*
X006866688Y005108525D03*
X006772200Y005021276D03*
X006840577Y005040885D03*
X008139660Y003412237D03*
X008060920Y003409672D03*
X007738340Y004402812D03*
X007737908Y004511625D03*
X007132118Y004238575D03*
G54D13*
X006973368Y005123765D03*
X007085128Y005070425D03*
X008289520Y003455392D03*
X008355560Y003371571D03*
X007374256Y005058132D03*
X009079460Y003358872D03*
X008655534Y003419577D03*
G54D12*
X008083348Y001555065D03*
X008162088Y001529665D03*
X007306540Y001207492D03*
Y001103352D03*
X008238720Y001281152D03*
X008241260Y001210031D03*
X007220180Y002238731D03*
X006971260Y002078711D03*
X006902680Y002144752D03*
X008193000Y003183611D03*
G54D13*
X007726046Y002957500D03*
X007728586Y002843201D03*
Y002728900D03*
Y002596821D03*
X007494906Y002962581D03*
X007497446Y002848281D03*
Y002733980D03*
Y002601901D03*
X007705320Y000844272D03*
X007608800Y001337032D03*
X008559268Y001026644D03*
X009063788Y002751405D03*
X007144615Y001870253D03*
X007177000Y001806932D03*
X009193760Y000722351D03*
X008485100Y001164312D03*
X008480020Y001077952D03*
X008005040Y001217651D03*
Y001126212D03*
X006722340Y000839191D03*
X007375526Y002962581D03*
X007378066Y002848281D03*
Y002733980D03*
Y002601901D03*
X007614286Y002960041D03*
X007616826Y002845741D03*
Y002731441D03*
Y002599361D03*
X007619366Y002479981D03*
X007850100Y002962632D03*
X007852640Y002848331D03*
Y002734032D03*
Y002601952D03*
X007855180Y002482572D03*
X007799300Y000745211D03*
X009185708Y002751405D03*
X008929600Y000719811D03*
X009069300Y000722351D03*
X006666460Y000783311D03*
X009183600Y003358872D03*
G54D14*
X001106323Y006943243D03*
Y007070243D03*
Y007197243D03*
Y007324243D03*
Y007451243D03*
X000979323Y006943243D03*
Y007070243D03*
Y007197243D03*
Y007324243D03*
Y007451243D03*
X006060822Y001880007D03*
X006260822D03*
X006460822D03*
X006560821Y001729995D03*
X006360822D03*
X006110810D03*
X008000011Y001880007D03*
X008200010D03*
X008400010D03*
X008600010D03*
X008800009D03*
X008750022Y001729995D03*
X008500010D03*
X008300010D03*
X008049998D03*
X006660821Y001880007D03*
X006860821D03*
X006810834Y001729995D03*
G54D15*
X003125242Y008852002D03*
X002871243D03*
X002617242D03*
X002363243D03*
X002109243D03*
X002998243Y009106003D03*
X002744243D03*
X002490243D03*
X002236243D03*
X001982243D03*
G54D16*
X005225848Y010412045D03*
X005035754Y009898533D03*
X005289754D03*
G54D17*
X002963750Y010146996D03*
X002142745D03*
X003218232D03*
X001887246D03*
G54D18*
X002515770Y000857073D03*
X002575790Y001347065D03*
X004025774D03*
X004085795Y000857073D03*
G54D19*
X003339238Y009435999D03*
X001768882D03*
G54D20*
X005803825Y001529995D03*
X009057006D03*
X007743013D03*
X007117818D03*
G54D21*
X001199999Y002450009D03*
Y005600015D03*
Y010200006D03*
X008899984D03*
Y005600015D03*
Y002450009D03*
G54D22*
X008944154Y008843697D03*
Y006423686D03*
G54D14*
X000970510Y009759672D03*
X003688310Y010404425D03*
X005485004Y002142237D03*
X006406110Y010404425D03*
X009123910Y009759672D03*
G54D23*
X001700023Y005600015D03*
X005700015D03*
G54D24*
X004139160Y006383681D03*
G54D25*
X002664994Y002142237D03*
G54D26*
X007799986Y010199981D03*
X008200010D03*
G54D27*
X004139160Y008883702D03*
G54D28*
X003125242Y009741002D03*
X001982243D03*
G54D29*
X008290002Y009364739D02*
Y009455239D01*
Y009654732D02*
Y009745232D01*
G54D30*
X000908939Y007757542D02*
X000981839D01*
X000908939Y008592567D02*
X000981839D01*
G54D31*
X001236489Y007952538D02*
X001254289D01*
X001236489Y008397571D02*
X001254289D01*
G54D30*
X005379442Y000709574D02*
Y000782474D01*
X004544442Y000709574D02*
Y000782474D01*
G54D31*
X005184446Y001037098D02*
Y001054898D01*
X004739438Y001037098D02*
Y001054898D01*
G54D29*
X007949998Y009364739D02*
Y009455239D01*
G54D10*
X008790407Y020564565D03*
G54D10*
X008994039Y019406325D03*
G54D10*
X008745526Y019860985D03*
G54D10*
X009085479Y019233605D03*
G54D10*
X009034679Y018048771D03*
G54D10*
X008780247Y019926618D03*
G54D10*
X008777707Y019540539D03*
G54D10*
X008716036Y019956388D03*
G54D10*
X008983447Y019563399D03*
G54D10*
X008782787Y019601499D03*
G54D10*
X008655076Y019956388D03*
G54D10*
X008800136Y020488391D03*
G54D10*
X009169299Y019119305D03*
G54D10*
X009014359Y020475665D03*
G54D10*
X008945779Y020480745D03*
G54D10*
X008726907Y019634951D03*
G54D10*
X008658759Y019121845D03*
G54D10*
X008707019Y019190425D03*
G54D10*
X008679866Y019270206D03*
G54D10*
X008699399Y019330125D03*
G54D10*
X008963102Y018583111D03*
G54D10*
X008905139Y020531545D03*
G54D10*
X009047379Y018179505D03*
G54D10*
X008765439Y019233605D03*
G54D10*
X008978799Y019680645D03*
G54D10*
X008613039Y018029645D03*
G54D10*
X008604987Y018334445D03*
G54D10*
X009047379Y018316665D03*
G54D11*
X008808010Y019862001D03*
G54D11*
X009201887Y018494059D03*
G54D11*
X009202319Y018565585D03*
G54D11*
X009054567Y019286538D03*
G54D11*
X009059647Y020193318D03*
G54D11*
X008782787Y020175539D03*
G54D11*
X009105367Y019334900D03*
G54D11*
X009052459Y020064185D03*
G54D11*
X009080399Y019749225D03*
G54D11*
X009059698Y019408458D03*
G54D11*
X009060079Y019675565D03*
G54D11*
X008668487Y019456719D03*
G54D11*
X008628685Y019841986D03*
G54D10*
X008894979Y018517325D03*
G54D10*
X008955939Y017153345D03*
G54D10*
X008612938Y016825685D03*
G54D10*
X009037219Y016548825D03*
G54D10*
X009054999Y016924745D03*
G54D10*
X008633359Y015553145D03*
G54D10*
X008648599Y015489645D03*
G54D10*
X008620659Y017732059D03*
G54D10*
X008678012Y017711383D03*
G54D10*
X008953399Y016482785D03*
G54D10*
X008953958Y016980905D03*
G54D10*
X008673567Y016934423D03*
G54D10*
X009060079Y017689285D03*
G54D10*
X008658404Y017020783D03*
G54D10*
X009022259Y016787585D03*
G54D10*
X008927999Y017742447D03*
G54D10*
X009156599Y017572445D03*
G54D10*
X008622767Y017905185D03*
G54D10*
X008620735Y016970541D03*
G54D10*
X008656067Y016876003D03*
G54D10*
X008953399Y016637725D03*
G54D10*
X009143467Y017886999D03*
G54D10*
X008659165Y016559340D03*
G54D10*
X008660867Y016230563D03*
G54D10*
X008783219Y016193225D03*
G54D10*
X009025738Y016712706D03*
G54D10*
X008994039Y016391345D03*
G54D10*
X008940699Y017663885D03*
G54D10*
X009115959Y016647885D03*
G54D10*
X008604987Y017310825D03*
G54D10*
X008943239Y017272725D03*
G54D10*
X009105799Y017026345D03*
G54D10*
X009108339Y017102545D03*
G54D10*
X009034247Y017920425D03*
G54D10*
X009027897Y017856519D03*
G54D11*
X009014359Y016089085D03*
G54D11*
X008760359Y017305745D03*
G54D11*
X008757819Y017366248D03*
G54D11*
X008701939D03*
G54D10*
X009118499Y017996625D03*
G54D10*
X008925027Y014590053D03*
G54D10*
X008975827Y014633259D03*
G54D10*
X009085530Y014959141D03*
G54D10*
X009146439Y015016087D03*
G54D10*
X009102827Y014846618D03*
G54D10*
X009097747Y014719618D03*
G54D10*
X008994319Y014575143D03*
G54D10*
X009074811Y014651115D03*
G54D10*
X008635061Y013145225D03*
G54D10*
X008733156Y013755994D03*
G54D10*
X008747278Y013010885D03*
G54D10*
X008722259Y012955284D03*
G54D10*
X009174379Y014770825D03*
G54D10*
X008684159Y015017205D03*
G54D10*
X008872119Y014956245D03*
G54D10*
Y014892339D03*
G54D10*
X008877199Y014798765D03*
G54D10*
X008876767Y014719618D03*
G54D10*
X008749717Y013833565D03*
G54D10*
X009156218Y015222945D03*
G54D11*
X009168893Y015079003D03*
G54D11*
X008689239Y014844485D03*
G54D11*
X008785759Y013304940D03*
G54D11*
X009118067Y014907578D03*
G54D11*
X008788299Y015276285D03*
G54D11*
X008869147Y015148879D03*
G54D11*
X008872119Y015215325D03*
G54D11*
X008874659Y015294065D03*
G54D11*
X008689239Y014910525D03*
G54D11*
Y014765745D03*
G54D11*
Y014697165D03*
G54D11*
X008679079Y014486345D03*
G54D11*
X008790407Y014087158D03*
G54D11*
X008749717Y013962749D03*
G54D11*
X009201887Y014648550D03*
G54D10*
X008686852Y013043625D03*
G54D10*
X008821319Y011653864D03*
G54D10*
X008658759Y011595825D03*
G54D10*
X009061806Y011440072D03*
G54D10*
X008862543Y012718505D03*
G54D10*
X008691347Y012857798D03*
G54D10*
X008836559Y012073345D03*
G54D11*
X008930539Y012014925D03*
G54D11*
X009156599Y012218125D03*
G54D11*
X008666760Y011722444D03*
G54D11*
X008729447Y012319293D03*
G54D11*
X008662341Y012552363D03*
G54D11*
X009217559Y011771085D03*
G54D11*
X008656219Y011415434D03*
G54D11*
X009202319Y012591505D03*
G54D11*
X008856879Y012799785D03*
G54D11*
X008704047Y012779465D03*
G54D11*
X009130183Y011431741D03*
G54D10*
X006136539Y010998925D03*
G54D10*
X006343422Y010843985D03*
G54D10*
X008190967Y012931459D03*
G54D10*
X007347687Y012890870D03*
G54D10*
X007599147Y012888278D03*
G54D10*
X006203824Y012491226D03*
G54D10*
X008064399Y012619445D03*
G54D10*
X008547355Y012314290D03*
G54D10*
X008574939Y011405325D03*
G54D10*
X008399298Y012832399D03*
G54D10*
X007208826Y011520032D03*
G54D10*
X008366253Y011466285D03*
G54D11*
X006136539Y011059885D03*
G54D11*
X006415939Y010816045D03*
G54D11*
X006172099Y012080965D03*
G54D11*
X006083199Y012086045D03*
G54D11*
X006530239Y010973525D03*
G54D11*
X006113679Y010813454D03*
G54D11*
X006428207Y011171645D03*
G54D11*
X006441339Y012459425D03*
G54D11*
X007601687Y012817159D03*
G54D11*
X006819799Y012939485D03*
G54D11*
X006126379Y012751525D03*
G54D11*
Y012649925D03*
G54D11*
X006212739Y012606745D03*
G54D11*
X006209767Y012697779D03*
G54D11*
X006215279Y012878525D03*
G54D11*
X008289977Y012898439D03*
G54D11*
X006512459Y012863285D03*
G54D11*
X007403567Y012771439D03*
G54D11*
X006209767Y012784139D03*
G54D10*
X007909459Y014958785D03*
G54D10*
X008171079Y014493559D03*
G54D10*
X008158379Y014559598D03*
G54D10*
X007238645Y013438595D03*
G54D10*
X007256679Y013599885D03*
G54D10*
X007122059Y013683324D03*
G54D10*
X007216344Y015080425D03*
G54D10*
X006598819Y015398205D03*
G54D10*
X008472907Y014846618D03*
G54D10*
X008519059Y014072325D03*
G54D10*
X008455127Y014719618D03*
G54D10*
X006220359Y015423605D03*
G54D10*
X006804559Y013175705D03*
G54D10*
X006751219Y013099505D03*
G54D10*
X008387207Y013295492D03*
G54D10*
X008480959Y014915605D03*
G54D10*
X008488503Y015039786D03*
G54D10*
X008387207Y013356452D03*
G54D10*
X006507379Y015413445D03*
G54D10*
X007931887Y015369858D03*
G54D10*
X007809967Y014140498D03*
G54D10*
X008521599Y013711645D03*
G54D10*
X007748372Y014143039D03*
G54D10*
X007897394Y015307095D03*
G54D10*
X008389519Y014260285D03*
G54D10*
X007660209Y013828104D03*
G54D10*
X008226959Y013737045D03*
G54D10*
X008246847Y013838239D03*
G54D10*
X007151904Y014034860D03*
G54D10*
X008409407Y014803845D03*
G54D10*
X007723556Y013838289D03*
G54D10*
X007413727Y014013448D03*
G54D10*
X007258787Y013381039D03*
G54D10*
X006659779Y013566865D03*
G54D10*
X007315074Y013345885D03*
G54D10*
X008160487Y013187999D03*
G54D10*
X008084287Y012984799D03*
G54D10*
X007137299Y013858965D03*
G54D10*
X007898867Y013810298D03*
G54D10*
X008353959Y013973265D03*
G54D10*
X007613854Y013788480D03*
G54D10*
X007863841Y012949238D03*
G54D10*
X008159294Y013295872D03*
G54D10*
X008074534Y014058660D03*
G54D10*
X007193128Y013803059D03*
G54D10*
X007260362Y013314034D03*
G54D10*
X008435213Y013904685D03*
G54D10*
X008239380Y013898767D03*
G54D10*
X007998359Y014979105D03*
G54D10*
X007827747Y013805168D03*
G54D10*
X008174838Y014911770D03*
G54D10*
X008280299Y015034985D03*
G54D10*
X006603899Y012972505D03*
G54D10*
X007901839Y014720025D03*
G54D10*
X006550559Y013556705D03*
G54D10*
X006527699Y013490665D03*
G54D10*
X006748679Y014981645D03*
G54D10*
X006237504Y013500825D03*
G54D10*
X008168107Y013055919D03*
G54D10*
X008188377Y013350559D03*
G54D10*
X007312381Y013545885D03*
G54D10*
X007763841Y013792519D03*
G54D10*
X008135519Y013726885D03*
G54D10*
X007963840Y013806286D03*
G54D10*
X008218857Y013657949D03*
G54D10*
X006111698Y015096682D03*
G54D10*
X006116219Y013693865D03*
G54D10*
X006600927Y014056323D03*
G54D10*
X006527013Y013825945D03*
G54D10*
X007812431Y015428278D03*
G54D10*
X008436154Y014101510D03*
G54D10*
X008048600Y014389291D03*
G54D10*
X008406283Y015104352D03*
G54D10*
X008165567Y015412607D03*
G54D10*
X007213118Y015141310D03*
G54D10*
X007721499Y015235645D03*
G54D10*
X007177583Y015331683D03*
G54D10*
X008434147Y013118352D03*
G54D10*
X007368439Y014130745D03*
G54D10*
X007675347Y014386879D03*
G54D10*
X007152539Y014191705D03*
G54D10*
X007798004Y014080707D03*
G54D10*
X007989647Y015338464D03*
G54D10*
X008470799Y015123885D03*
G54D10*
X008003515Y015448929D03*
G54D10*
X007714565Y015386547D03*
G54D10*
X007043243Y015370494D03*
G54D10*
X007927239Y014872425D03*
G54D10*
X007045859Y014981645D03*
G54D10*
X007929347Y014808925D03*
G54D10*
X006919849Y014980095D03*
G54D10*
X007042887Y015298332D03*
G54D10*
X007467067Y015306358D03*
G54D10*
X007632599Y015314385D03*
G54D10*
X007648753Y015228965D03*
G54D10*
X007953985Y014448753D03*
G54D10*
X007893025D03*
G54D10*
X008523707Y014133285D03*
G54D10*
X008282458Y014158330D03*
G54D10*
X007127139Y013922465D03*
G54D10*
X007063639Y013805625D03*
G54D10*
X006540399Y015073085D03*
G54D10*
X006624219Y014806385D03*
G54D10*
X007235927Y015309330D03*
G54D10*
X008590179Y013069025D03*
G54D10*
X007190207Y014984185D03*
G54D10*
X006562827Y013307378D03*
G54D10*
X008422615Y015454161D03*
G54D10*
X006898107Y013680810D03*
G54D10*
X007266941Y013495872D03*
G54D10*
X007550887Y013840778D03*
G54D10*
X007784567Y013985559D03*
G54D10*
X007020459Y015073085D03*
G54D10*
X006592037Y013363868D03*
G54D11*
X007157187Y014399985D03*
G54D11*
X007360819Y014059625D03*
G54D11*
X008318399Y013340805D03*
G54D11*
X006606439Y014923225D03*
G54D11*
X006697879Y014549845D03*
G54D11*
X006121299Y013985965D03*
G54D11*
X006172099Y014118045D03*
G54D11*
X008444967Y013040678D03*
G54D11*
X008422539Y015034985D03*
G54D11*
X007567397Y014399807D03*
G54D11*
X007562317Y014561504D03*
G54D11*
X008414919Y014377125D03*
G54D11*
X008300593Y014095185D03*
G54D11*
X006232627Y013094451D03*
G54D11*
X007500087Y015253018D03*
G54D11*
X007133413Y015045627D03*
G54D11*
X006608979Y015082407D03*
G54D11*
X007733716Y014031228D03*
G54D11*
X008547431Y013602882D03*
G54D11*
X008333563Y013241338D03*
G54D11*
X008183779Y014664145D03*
G54D11*
X008157947Y015232698D03*
G54D11*
X007698334Y014991805D03*
G54D11*
X006212739Y013299758D03*
G54D11*
X006598362Y013195568D03*
G54D11*
X006590767Y013441999D03*
G54D11*
X008174381Y015293303D03*
G54D11*
X007690460Y015288426D03*
G54D11*
X008559699Y014552385D03*
G54D11*
X007149567Y014257745D03*
G54D11*
X007964501Y014013499D03*
G54D11*
X007740117Y014397039D03*
G54D11*
X006982359Y014981645D03*
G54D11*
X008021524Y014443927D03*
G54D11*
X006880327Y015219999D03*
G54D11*
X006753327Y015217459D03*
G54D11*
X006880327Y015331759D03*
G54D11*
X006824447Y015270799D03*
G54D11*
X006755867Y015331759D03*
G54D11*
X008280299Y013704025D03*
G54D11*
X006720307Y013310325D03*
G54D11*
X007258787Y013200698D03*
G54D11*
X006971767Y013480099D03*
G54D10*
X008099984Y015416442D03*
G54D10*
X007586879Y016371025D03*
G54D10*
X007971207Y016671989D03*
G54D10*
X008442859Y017912805D03*
G54D10*
X008328127Y016825279D03*
G54D10*
X008389519Y016251645D03*
G54D10*
X007914082Y017064902D03*
G54D10*
X006660033Y016146261D03*
G54D10*
X006703238Y016190964D03*
G54D10*
X008270139Y016492945D03*
G54D10*
X007966990Y017688396D03*
G54D10*
X008137881Y017744987D03*
G54D10*
X008308239Y017115245D03*
G54D10*
X008328127Y016769399D03*
G54D10*
X008412379Y017708284D03*
G54D10*
X007914590Y016958273D03*
G54D10*
X006898539Y016416745D03*
G54D10*
X008027213Y016729114D03*
G54D10*
X007857516Y016902190D03*
G54D10*
Y016781007D03*
G54D10*
X008338719Y016543745D03*
G54D10*
X006832194Y016217482D03*
G54D10*
X008168539Y015793963D03*
G54D10*
X008138262Y017066147D03*
G54D10*
X007065951Y016783242D03*
G54D10*
X008085710Y017688396D03*
G54D10*
X007121577Y016838512D03*
G54D10*
X007535647Y016515398D03*
G54D10*
X007470598Y016125762D03*
G54D10*
X007911415Y017858119D03*
G54D10*
X007066280Y016672041D03*
G54D10*
X006880759Y015715705D03*
G54D10*
X007969123Y017121036D03*
G54D10*
X007929068Y015735339D03*
G54D10*
X007124167Y016104934D03*
G54D10*
X007130288Y015713622D03*
G54D10*
X007124167Y016165894D03*
G54D10*
X008168539Y015733003D03*
G54D10*
X008279867Y016952990D03*
G54D10*
X006943929Y016196374D03*
G54D10*
X008137119Y017971251D03*
G54D10*
X007008343Y016729368D03*
G54D10*
X006656578Y016085376D03*
G54D10*
X007178676Y016670618D03*
G54D10*
X006918859Y015771585D03*
G54D10*
X007195719Y016396425D03*
G54D10*
X007291807Y016895840D03*
G54D10*
X008435239Y017999165D03*
G54D10*
X006943929Y016135414D03*
G54D10*
X006299988Y015763965D03*
G54D10*
X007178676Y016780829D03*
G54D10*
X006379947Y015771179D03*
G54D10*
X008081747Y017914685D03*
G54D10*
X007404939Y016892919D03*
G54D10*
X007235241Y016728175D03*
G54D10*
X007582637Y016310065D03*
G54D10*
X008384439Y017943285D03*
G54D10*
X008300619Y017323525D03*
G54D10*
X007461504Y016725101D03*
G54D10*
X007291807Y016671024D03*
G54D10*
X007558533Y016459544D03*
G54D10*
X007408393Y016671279D03*
G54D10*
X007436587Y016469678D03*
G54D10*
X008143139Y017858119D03*
G54D10*
X007235241Y016839274D03*
G54D10*
X008084186Y016896424D03*
G54D10*
X007970013Y017009581D03*
G54D10*
X008027213Y016503664D03*
G54D10*
X007061073Y016115425D03*
G54D10*
X007744359Y016785248D03*
G54D10*
X007461504Y016837928D03*
G54D10*
X007914082Y016615982D03*
G54D10*
X007857516Y016672116D03*
G54D10*
X008140599Y016839858D03*
G54D10*
X007065518Y016892055D03*
G54D10*
X008331099Y016284665D03*
G54D10*
X007744359Y016895967D03*
G54D10*
X007238899Y016447225D03*
G54D10*
X007857516Y016548419D03*
G54D10*
X007970648Y016556038D03*
G54D10*
X007893787Y016462058D03*
G54D10*
X008265110Y016282125D03*
G54D10*
X007687793Y016841128D03*
G54D10*
X007800925Y016726955D03*
G54D10*
X008338414Y017992866D03*
G54D10*
X007348373Y016728123D03*
G54D10*
X007970648Y017910037D03*
G54D10*
X007800925Y016837445D03*
G54D10*
X007968006Y017575265D03*
G54D10*
X007972273Y017349001D03*
G54D10*
X006138647Y015725865D03*
G54D10*
X008141056Y017292410D03*
G54D10*
X007914666D03*
G54D10*
X006060339Y015733485D03*
G54D10*
X006181827Y015777529D03*
G54D10*
X008124114Y016273159D03*
G54D10*
X007744359Y016670288D03*
G54D10*
X007574661Y016727819D03*
G54D10*
X007792466Y016490278D03*
G54D10*
X006839255Y016894672D03*
G54D10*
X008112227Y016343415D03*
G54D10*
X007631228Y016893604D03*
G54D10*
X007574661Y016835642D03*
G54D10*
X007687793Y016726447D03*
G54D10*
X008386979Y016322765D03*
G54D10*
X006839255Y016673387D03*
G54D10*
X006581039Y016104325D03*
G54D10*
X006542939Y015728405D03*
G54D10*
X008465999Y016681184D03*
G54D10*
X007916901Y017744987D03*
G54D10*
X007061099Y015723325D03*
G54D10*
X008196022Y016896424D03*
G54D10*
X008084211Y017801553D03*
G54D10*
X007449287Y015738158D03*
G54D10*
X008140751Y016952990D03*
G54D10*
X008083779Y017010698D03*
G54D10*
X007134352Y015779205D03*
G54D10*
X008028686Y017061778D03*
G54D10*
X008085405Y017349001D03*
G54D10*
X008029398Y017292410D03*
G54D10*
X008198537Y017349001D03*
G54D10*
X007971232Y017801553D03*
G54D10*
X008201559Y017917885D03*
G54D10*
X008086726Y017235844D03*
G54D10*
X008027289Y017518699D03*
G54D10*
X007631024Y016668002D03*
G54D10*
X008307401Y016592005D03*
G54D10*
X008081747Y017122713D03*
G54D10*
X008139430Y017518699D03*
G54D10*
X007805319Y017066147D03*
G54D10*
X007518096Y016668408D03*
G54D10*
Y016782327D03*
G54D10*
Y016894824D03*
G54D10*
X007497547Y015791448D03*
G54D10*
X007969200Y017235844D03*
G54D10*
X007348373Y016837369D03*
G54D10*
X007572808Y017967974D03*
G54D10*
X006669533Y017401858D03*
G54D10*
X006787896Y017288549D03*
G54D10*
X006722898Y017691901D03*
G54D10*
X006895364Y017853902D03*
G54D10*
X006947891Y017127107D03*
G54D10*
X006895364Y017631830D03*
G54D10*
X006895821Y017520807D03*
G54D10*
X006898361Y017405567D03*
G54D10*
X006895821Y017293401D03*
G54D10*
X006895567Y017183419D03*
G54D10*
X007739965Y017801553D03*
G54D10*
X007518096Y017125405D03*
G54D10*
X006842481Y017122713D03*
G54D10*
X007284187Y016211310D03*
G54D10*
X007065518Y017123144D03*
G54D10*
X006506947Y016396019D03*
G54D10*
X006507379Y016335465D03*
G54D10*
X006415507Y016398558D03*
G54D10*
X006413399Y016332925D03*
G54D10*
X007461504Y017969092D03*
G54D10*
X007178980Y017914482D03*
G54D10*
X007008953Y017967593D03*
G54D10*
X007631228Y017913516D03*
G54D10*
X006623787Y016423959D03*
G54D10*
X008394167Y017318039D03*
G54D10*
X007625462Y017122713D03*
G54D10*
X007741768Y017235844D03*
G54D10*
X007404939Y017124796D03*
G54D10*
X007461504Y017177678D03*
G54D10*
X007686853Y017631830D03*
G54D10*
X007632167Y017575265D03*
G54D10*
X007743369Y017688396D03*
G54D10*
X007687793Y017406558D03*
G54D10*
X008463179Y016810445D03*
G54D10*
X007178676Y016897034D03*
G54D10*
X007122110Y017062413D03*
G54D10*
X007070878Y017687126D03*
G54D10*
X007292442Y017800994D03*
G54D10*
X007178676Y017797997D03*
G54D10*
X007239102Y017741254D03*
G54D10*
X007346773Y017742981D03*
G54D10*
X007404939Y017798505D03*
G54D10*
X007065518Y017910443D03*
G54D10*
X007293382Y017914685D03*
G54D10*
X007512940Y017682376D03*
G54D10*
X007685203Y017292410D03*
G54D10*
X007348373Y017181260D03*
G54D10*
X006951701Y017801553D03*
G54D10*
X006952387Y017571912D03*
G54D10*
X007068668Y017462133D03*
G54D10*
X006952387Y017347655D03*
G54D10*
X007178676Y017575315D03*
G54D10*
X007345299Y017631830D03*
G54D10*
X007232016Y017292410D03*
G54D10*
X007348068Y017405567D03*
G54D10*
X007682027Y017518699D03*
G54D10*
X007518096Y017913135D03*
G54D10*
X007461504Y017519486D03*
G54D10*
X007575602Y017288981D03*
G54D10*
X007573569Y017405567D03*
G54D10*
X007461504Y017294721D03*
G54D10*
X007515835Y017349001D03*
G54D10*
X007627418Y017237901D03*
G54D10*
X007574661Y017182555D03*
G54D10*
X007688378Y017744987D03*
G54D10*
X008383956Y017017887D03*
G54D10*
X007291807Y017123347D03*
G54D10*
X006952387Y016783216D03*
G54D10*
X007006464Y017070643D03*
G54D10*
X007688911Y017973283D03*
G54D10*
X006934099Y016264345D03*
G54D10*
X007007607Y016840798D03*
G54D11*
X007629094Y017461091D03*
G54D11*
X007035699Y016310065D03*
G54D11*
X007403567Y015694979D03*
G54D11*
X008478826Y016740798D03*
G54D11*
X006136539Y016338005D03*
G54D11*
X006070067Y016276638D03*
G54D11*
X006212739Y016292285D03*
G54D11*
X006208014Y016384513D03*
G54D11*
X008384007Y017378999D03*
G54D11*
X006743599Y016244025D03*
G54D11*
X007008953Y016616998D03*
G54D11*
X007631228Y016783547D03*
G54D11*
X007404939Y016781667D03*
G54D11*
X007291807Y016781210D03*
G54D11*
X007167347Y016210599D03*
G54D11*
X007348373Y017857128D03*
G54D11*
X008026731Y017971251D03*
G54D11*
X007012052Y017744987D03*
G54D11*
X008025131D03*
G54D11*
X007122110Y017857611D03*
G54D11*
X008202448Y017801553D03*
G54D11*
X006558128Y017858119D03*
G54D11*
X006443879D03*
G54D11*
X008027213Y017632999D03*
G54D11*
X007122110Y017628579D03*
G54D11*
X007011899Y017515092D03*
G54D11*
X006499530Y017688396D03*
G54D11*
X006616066D03*
G54D11*
X006613627Y017349001D03*
G54D11*
X006500394D03*
G54D11*
X006279338Y017344988D03*
G54D11*
X008138796Y017405745D03*
G54D11*
X008027213Y017406939D03*
G54D11*
X006669863Y017518699D03*
G54D11*
X006558357D03*
G54D11*
X006671971Y017179278D03*
G54D11*
X006555893D03*
G54D11*
X008029957Y017181869D03*
G54D11*
X007518096Y017463250D03*
G54D11*
X007122338Y017179177D03*
G54D11*
X007519391Y017235844D03*
G54D11*
X008199628D03*
G54D11*
X008026375Y016952990D03*
G54D11*
X006613678Y017009581D03*
G54D11*
X006386754D03*
G54D11*
X008199476D03*
G54D11*
X007122110Y016728301D03*
G54D11*
X007914082Y016726269D03*
G54D11*
X008198486Y016783293D03*
G54D11*
X006443752Y016839858D03*
G54D11*
X006556960D03*
G54D11*
X006726098Y016782429D03*
G54D11*
X006839255Y016783978D03*
G54D11*
X007413727Y016538258D03*
G54D11*
X006256122Y016690862D03*
G54D11*
X006556401Y016618040D03*
G54D11*
X006669533Y016614611D03*
G54D11*
X006777356Y016610954D03*
G54D11*
X006898031Y016610344D03*
G54D11*
X007209308Y016497136D03*
G54D11*
X007574661Y016612172D03*
G54D11*
X007800925Y016611207D03*
G54D11*
X008027213Y016616821D03*
G54D11*
X008302702Y016657486D03*
G54D11*
X006443270Y016505238D03*
G54D11*
X008143139Y016503105D03*
G54D11*
X007123430Y017405567D03*
G54D11*
X007293839Y017462539D03*
G54D11*
X007461504Y017744556D03*
G54D11*
X007236385Y017518699D03*
G54D11*
X007574661Y017858602D03*
G54D11*
X007912177Y017405567D03*
G54D11*
X007461504Y016949612D03*
G54D11*
X007574661Y016949281D03*
G54D11*
X007348373Y016947249D03*
G54D11*
X007800925Y016951796D03*
G54D11*
X007687793Y016951745D03*
G54D11*
X007854163Y017122713D03*
G54D11*
X007799045Y017179278D03*
G54D11*
X007744359Y017010394D03*
G54D11*
X007857313Y017801553D03*
G54D11*
X007914996Y017631830D03*
G54D11*
X007235241Y016948240D03*
G54D11*
X007687793Y017061981D03*
G54D11*
X006840119Y017574985D03*
G54D11*
X006728359Y017577525D03*
G54D11*
X006834404Y017342982D03*
G54D11*
X006834607Y017239350D03*
G54D11*
X006782563Y017739958D03*
G54D10*
X006497346Y016891598D03*
G54D10*
X006557239Y017631830D03*
G54D10*
X006498717Y017235844D03*
G54D10*
X006209336Y017337368D03*
G54D10*
X006668948Y017631830D03*
G54D10*
X006332068Y016613570D03*
G54D10*
X006279007Y017914482D03*
G54D10*
X006498895Y017575265D03*
G54D10*
X006782689Y016838639D03*
G54D10*
Y016727920D03*
G54D10*
X006444235Y016952990D03*
G54D10*
X006389320Y016894291D03*
G54D10*
X006555233Y017292410D03*
G54D10*
X006265647Y017592359D03*
G54D10*
X006499911Y017801553D03*
G54D10*
X006613754Y017914685D03*
G54D10*
X006556401Y016728098D03*
G54D10*
X006261837Y017116109D03*
G54D10*
X006281420Y016812578D03*
G54D10*
X006275502Y017801553D03*
G54D10*
X006386805Y017914685D03*
G54D10*
X006441644Y017066147D03*
G54D10*
X006275502Y017462133D03*
G54D10*
X006671692Y016952990D03*
G54D10*
X006385052Y017577678D03*
G54D10*
X006499835Y016672116D03*
G54D10*
X006671260Y017858119D03*
G54D10*
X006501410Y017913033D03*
G54D10*
X006442838Y017971251D03*
G54D10*
X006384163Y017462133D03*
G54D10*
X006331890Y016952990D03*
G54D10*
X006672047Y017292410D03*
G54D10*
X006555284Y017066147D03*
G54D10*
X006557671Y017970743D03*
G54D10*
X006331027Y017971047D03*
G54D10*
X006612967Y016553499D03*
G54D10*
X006334354Y017066147D03*
G54D10*
X006501918Y017122713D03*
G54D10*
X006669533Y016729952D03*
G54D10*
X006724194Y017804144D03*
G54D10*
X006614491Y017575265D03*
G54D10*
X006279795Y017228783D03*
G54D10*
X006726098Y016670771D03*
G54D10*
X006669533Y016502699D03*
G54D10*
X006614414Y017235844D03*
G54D10*
X006499835Y016558959D03*
G54D10*
X006670320Y017971251D03*
G54D10*
X006387923Y016783293D03*
G54D10*
X006556401Y016495078D03*
G54D10*
X006443549Y017631830D03*
G54D10*
X006330976Y016726727D03*
G54D10*
X006332068Y017744987D03*
G54D10*
X006441542D03*
G54D10*
X006385002Y017803788D03*
G54D10*
X006325820Y017627792D03*
G54D10*
X006613069Y016896424D03*
G54D10*
X007230847Y017174249D03*
G54D10*
X006191987Y016550958D03*
G54D10*
X006672047Y017742219D03*
G54D10*
X006612637Y017801629D03*
G54D10*
X006615608Y016674428D03*
G54D10*
X006611951Y017122713D03*
G54D10*
X006555919Y016952990D03*
G54D10*
X007235241Y017968025D03*
G54D10*
X006387999Y017122713D03*
G54D10*
X007573747Y017749839D03*
G54D10*
X007970698Y017462133D03*
G54D10*
X007914565Y017518699D03*
G54D10*
X008376895Y018415801D03*
G54D10*
X007846746Y020340486D03*
G54D10*
X006895821Y018313719D03*
G54D10*
X006669685Y018311001D03*
G54D10*
X006839484Y018140338D03*
G54D10*
X006784214Y018316437D03*
G54D10*
X006845072Y018364900D03*
G54D10*
X006952387Y018137747D03*
G54D10*
X007063639Y018142269D03*
G54D10*
X007008013Y018197539D03*
G54D10*
X007744359Y018254359D03*
G54D10*
X007033159Y020432485D03*
G54D10*
X007546239Y019568478D03*
G54D10*
X006781699Y018667185D03*
G54D10*
X006952387Y018252759D03*
G54D10*
X008083779Y018140999D03*
G54D10*
X008338947Y018194974D03*
G54D10*
X007856170Y018253724D03*
G54D10*
X007969809Y018367237D03*
G54D10*
X007919187Y018420399D03*
G54D10*
X007800925D03*
G54D10*
X006866967Y020091693D03*
G54D10*
X006940678Y020091744D03*
G54D10*
X006279719Y020072948D03*
G54D10*
X006345759Y020067868D03*
G54D10*
X006487059Y020061645D03*
G54D10*
X006558179D03*
G54D10*
X006692799Y020102285D03*
G54D10*
X006750940Y020083946D03*
G54D10*
X007255612Y020408583D03*
G54D10*
X007175602Y020403504D03*
G54D10*
X007857516Y018024159D03*
G54D10*
X008027747Y018085043D03*
G54D10*
X007857516Y018364010D03*
G54D10*
X007687793Y018197006D03*
G54D10*
X008025867Y018310670D03*
G54D10*
X007800925Y018080039D03*
G54D10*
X007095617Y020400989D03*
G54D10*
X008386547Y020165379D03*
G54D10*
X008361147Y019825019D03*
G54D10*
X007744359Y018368074D03*
G54D10*
X008237195Y019380823D03*
G54D10*
X008281214Y019210415D03*
G54D10*
X008434807Y019924003D03*
G54D10*
X006451067Y019720878D03*
G54D10*
X007706259Y018530025D03*
G54D10*
X006514669Y019692050D03*
G54D10*
X007306209Y018791239D03*
G54D10*
X006575629Y019692050D03*
G54D10*
X007367169Y018791239D03*
G54D10*
X006893459Y018197539D03*
G54D10*
X007924267Y019451639D03*
G54D10*
X007816571Y019389815D03*
G54D10*
X006941287Y020429539D03*
G54D10*
X008160487Y019974878D03*
G54D10*
X006552642Y020424458D03*
G54D10*
X008491322Y020077799D03*
G54D10*
X004619778Y020681786D03*
G54D10*
X006774892Y020419785D03*
G54D10*
X008340827Y019976835D03*
G54D10*
X006108294Y019220499D03*
G54D10*
X008521167Y019909245D03*
G54D10*
X007391172Y020361644D03*
G54D10*
X004452037Y020681405D03*
G54D10*
X006703772Y020419785D03*
G54D10*
X008401787Y019976835D03*
G54D10*
X006247867Y019761519D03*
G54D10*
Y019700559D03*
G54D10*
X006318962Y020421919D03*
G54D10*
X006481522Y020424458D03*
G54D10*
X008552282Y020077799D03*
G54D10*
X007401459Y019921945D03*
G54D10*
X008027213Y018199419D03*
G54D10*
X007911567Y018194338D03*
G54D10*
X007385787Y020541299D03*
G54D10*
X007348373Y018197819D03*
G54D10*
X008083779Y018250879D03*
G54D10*
X006782689Y018198987D03*
G54D10*
X007191782Y019681102D03*
G54D10*
X007528027Y018826799D03*
G54D10*
X007969962Y018143538D03*
G54D10*
X006784442Y018087583D03*
G54D10*
X006895821Y018428603D03*
G54D10*
X007226377Y019630887D03*
G54D10*
X007588987Y018826799D03*
G54D10*
X006757670Y019167210D03*
G54D10*
X007122110Y018197819D03*
G54D10*
X007178676Y018250777D03*
G54D10*
X006207253Y019636221D03*
G54D10*
X007574661Y018087633D03*
G54D10*
X006268213Y019636221D03*
G54D10*
X007631228Y018143538D03*
G54D10*
X007235241Y018197819D03*
G54D10*
X007404939Y018252759D03*
G54D10*
X007291807Y018252327D03*
G54D10*
X008087005Y018027816D03*
G54D10*
X007461504Y018197819D03*
G54D10*
X007518096Y018252149D03*
G54D10*
X006111495Y019640539D03*
G54D10*
X006839255Y018255121D03*
G54D10*
X006677635Y018633759D03*
G54D10*
X007439559Y019825425D03*
G54D10*
X007218147Y020056158D03*
G54D10*
X006390082Y020421919D03*
G54D10*
X007635977Y018256568D03*
G54D10*
X007761174Y018541227D03*
G54D10*
X008226527Y020452399D03*
G54D10*
X008486979Y020477545D03*
G54D10*
X008417027Y020490498D03*
G54D10*
X006870167Y020429539D03*
G54D10*
X008221447Y019974878D03*
G54D10*
X008042072Y018528984D03*
G54D10*
X006677127Y018694719D03*
G54D10*
X007617105Y019433858D03*
G54D10*
X008140345Y018196701D03*
G54D10*
X007649947Y018544808D03*
G54D10*
X006905727Y019753899D03*
G54D10*
X007848067Y018521998D03*
G54D10*
X007658914Y019379325D03*
G54D10*
X008184567Y019350039D03*
G54D10*
X007855789Y018876786D03*
G54D10*
X008184567Y019289079D03*
G54D10*
X007855789Y018815826D03*
G54D10*
X007529500Y019279808D03*
G54D10*
X007921727Y019172238D03*
G54D10*
X007590460Y019279808D03*
G54D10*
X007921727Y019233198D03*
G54D10*
X008035214Y018825122D03*
G54D10*
X008416138Y019268759D03*
G54D10*
X007974254Y018825122D03*
G54D10*
X008477098Y019268759D03*
G54D10*
X007969885Y018027816D03*
G54D10*
X008455559Y018949125D03*
G54D10*
X006344387Y019233275D03*
G54D10*
X008386953Y018893245D03*
G54D10*
X006283427Y019233275D03*
G54D10*
X008331099Y018936425D03*
G54D10*
X006455487Y019183720D03*
G54D10*
X008282407Y018890705D03*
G54D10*
X006394527Y019183720D03*
G54D10*
X006698031Y019179935D03*
G54D10*
X006637072D03*
G54D10*
X006926453Y019228017D03*
G54D10*
X006865493Y019229490D03*
G54D10*
X007176364Y019145848D03*
G54D10*
X007115404D03*
G54D10*
X007721067Y018833200D03*
G54D10*
X007075882Y019671400D03*
G54D10*
X007660107Y018833200D03*
G54D10*
X007014922Y019671400D03*
G54D10*
X007456907Y018726519D03*
G54D10*
X006888049Y019692050D03*
G54D10*
X007395008Y018726519D03*
G54D10*
X006827089Y019692050D03*
G54D10*
X007761707Y018722659D03*
G54D10*
X006702400Y019756312D03*
G54D10*
X007700747Y018722659D03*
G54D10*
X006659271Y019713183D03*
G54D10*
X008290027Y018666778D03*
G54D10*
X008084719Y018603685D03*
G54D10*
X008074559Y018659565D03*
G54D10*
X008015707Y020008305D03*
G54D10*
X008162062Y019118899D03*
G54D10*
X007823099Y018720525D03*
G54D10*
X008282407Y020104419D03*
G54D10*
X006737732Y018623446D03*
G54D10*
X004531259Y020678865D03*
G54D10*
X008008544Y018606098D03*
G54D11*
X008077099Y020440105D03*
G54D11*
X007896759Y020386765D03*
G54D11*
X008143139Y020368985D03*
G54D11*
X008371739Y020031165D03*
G54D11*
X008252359Y020038785D03*
G54D11*
X008437779Y018842445D03*
G54D11*
X007475119Y019317425D03*
G54D11*
X006260999Y019822885D03*
G54D11*
X006161203Y019676200D03*
G54D11*
X006639459Y019640005D03*
G54D11*
X006906159Y020516305D03*
G54D11*
X006258459Y020353745D03*
G54D11*
X006629299Y020462965D03*
G54D11*
X006824879Y020488365D03*
G54D11*
X006436234Y020480771D03*
G54D11*
X006517539Y019183186D03*
G54D11*
X007114846Y019258599D03*
G54D11*
X007728687Y019878359D03*
G54D11*
X008193507Y018027816D03*
G54D11*
X006829425Y020031038D03*
G54D11*
X006600927Y019756439D03*
G54D11*
X006524219Y019766091D03*
G54D11*
X006390107Y019758978D03*
G54D11*
X007103822Y019597765D03*
G54D11*
X006771107Y019642139D03*
G54D11*
X006425667Y019652298D03*
G54D11*
X006157723Y019598958D03*
G54D11*
X007650582Y020362254D03*
G54D11*
X007286727Y020040919D03*
G54D11*
X008286700Y018819382D03*
G54D11*
X008549107Y020193318D03*
G54D11*
X008447507Y020188239D03*
G54D11*
X008208747Y020183159D03*
G54D11*
X006339511Y019154052D03*
G54D11*
X007859497Y019445288D03*
G54D11*
X006388024Y018367237D03*
G54D11*
X006556401Y018425885D03*
G54D11*
X006613881Y018373027D03*
G54D11*
X006722847Y018367237D03*
G54D11*
X006953987D03*
G54D11*
X007008953Y018311712D03*
G54D11*
X007800214Y018310468D03*
G54D11*
X008027213Y018424564D03*
G54D11*
X006555715Y018197539D03*
G54D11*
X006726098Y018253343D03*
G54D11*
X006721069Y018136680D03*
G54D11*
X007970648Y018253978D03*
G54D11*
X007122110Y018310874D03*
G54D11*
X007235241Y018309426D03*
G54D11*
X007348373Y018312728D03*
G54D11*
X007458838Y018314252D03*
G54D11*
X007687793Y018309680D03*
G54D11*
X008197190Y018254105D03*
G54D11*
X006278779Y018034319D03*
G54D11*
X006609715Y018027816D03*
G54D11*
X006498514D03*
G54D11*
X006842354Y018027359D03*
G54D11*
X007896327Y019885979D03*
G54D11*
X007649947Y019568478D03*
G54D11*
X007738847D03*
G54D11*
X008015707Y019426671D03*
G54D11*
X008244307Y019769139D03*
G54D11*
X007149567Y020228853D03*
G54D11*
X007287997Y020222529D03*
G54D11*
X006804077Y019123903D03*
G54D11*
X007518096Y018145698D03*
G54D11*
X007750125Y018027816D03*
G54D11*
X007688047Y018084407D03*
G54D11*
X007744359Y018142142D03*
G54D11*
X006952387Y018025251D03*
G54D11*
X007003187Y018084407D03*
G54D11*
X006895821Y018083823D03*
G54D11*
X007178676Y018145698D03*
G54D11*
X007404939Y018142675D03*
G54D11*
X007291807Y018145698D03*
G54D11*
X006720332Y018027816D03*
G54D10*
X006384748Y018140973D03*
G54D10*
X006557722Y018310670D03*
G54D10*
X006554750Y018084407D03*
G54D10*
X006666815D03*
G54D10*
X006288507Y018110518D03*
G54D10*
X006610046Y018140973D03*
G54D10*
X006292825Y018194085D03*
G54D10*
X006442508Y018310670D03*
G54D10*
X006665418Y018192408D03*
G54D10*
X006502680Y018254105D03*
G54D10*
X006612789D03*
G54D10*
X006501664Y018139449D03*
G54D10*
X008193507Y018496599D03*
G54D10*
X008305445Y018364493D03*
G54D10*
X008196961Y018367237D03*
G54D10*
X007971257Y018480394D03*
G54D10*
X008404632Y018593474D03*
G54D10*
X007857516Y018137747D03*
G54D10*
X008404632Y018532514D03*
G54D10*
X008143139Y020584478D03*
G54D10*
X004964024Y019272442D03*
G54D10*
X003860750Y018128756D03*
G54D10*
X003814979Y018674805D03*
G54D10*
X004051199Y018146917D03*
G54D10*
X004170680Y018189716D03*
G54D10*
X003552927Y018869979D03*
G54D10*
X003643351Y019037619D03*
G54D10*
X003704311D03*
G54D10*
X003606267Y020083337D03*
G54D10*
X005412944Y019615520D03*
G54D10*
X003667227Y020083337D03*
G54D10*
X005351984Y019615520D03*
G54D10*
X005498491Y019680315D03*
G54D10*
X005541620Y019637186D03*
G54D10*
X005737327Y019631979D03*
G54D10*
X004472839Y020247065D03*
G54D10*
X005676367Y019631979D03*
G54D10*
X007370547Y020609879D03*
G54D10*
X006047334Y019220499D03*
G54D10*
X004855947Y019852958D03*
G54D10*
X004272179Y019200585D03*
G54D10*
X004711802Y019295962D03*
G54D10*
X004772762D03*
G54D10*
X005826329Y019972339D03*
G54D10*
X003832759Y018344605D03*
G54D10*
X004044519Y018086313D03*
G54D10*
X005560848Y020020599D03*
G54D10*
Y019959639D03*
G54D10*
X005012767Y019823165D03*
G54D10*
X005678857Y020019380D03*
G54D10*
X005887289Y019972339D03*
G54D10*
X005739817Y020019380D03*
G54D10*
X006050535Y019640539D03*
G54D10*
X003800729Y018462995D03*
G54D10*
X004059378Y018027181D03*
G54D10*
X005910479Y019271705D03*
G54D10*
X005351679Y020183565D03*
G54D10*
X005415179D03*
G54D10*
X004188359Y018248085D03*
G54D10*
X005139716Y019165025D03*
G54D10*
X004937659Y019888925D03*
G54D10*
X004969638Y019780035D03*
G54D10*
X005806339Y018669725D03*
G54D10*
X003563087Y019304319D03*
G54D10*
X004711167Y019947345D03*
G54D10*
X004524477Y019894005D03*
G54D10*
X004464762Y018062259D03*
G54D10*
X004918304Y018172647D03*
G54D10*
X004652747Y018257838D03*
G54D10*
X005082973Y018050981D03*
G54D10*
X005491480Y018057280D03*
G54D10*
X005078705Y018173206D03*
G54D10*
X005246624Y018172368D03*
G54D10*
X004818914Y018270945D03*
G54D10*
X005580279Y020188645D03*
G54D10*
Y020127685D03*
G54D10*
X003776879Y018922049D03*
G54D10*
X004019500Y018508308D03*
G54D10*
X003921481Y018134242D03*
G54D10*
X004824705Y019183999D03*
G54D10*
X003632099Y018545265D03*
G54D10*
X007957719Y020582345D03*
G54D11*
X005453279Y019566421D03*
G54D11*
X005803799Y020041325D03*
G54D11*
X005938419Y019914325D03*
G54D11*
X003779419Y019045239D03*
G54D11*
X003590596Y019007037D03*
G54D11*
X005006239Y019888925D03*
G54D11*
X003624479Y018453825D03*
G54D11*
X003893719Y018557965D03*
G54D11*
X003731159Y018166805D03*
G54D11*
X005617084Y019907060D03*
G54D11*
X003614319Y018913565D03*
G54D11*
X004764507Y020150138D03*
G54D11*
X004417797Y020159029D03*
G54D11*
X005765801Y019945110D03*
G54D11*
X004563847Y019807239D03*
G54D11*
X004969180Y020122605D03*
G54D11*
X005665014Y019120804D03*
G54D11*
X005425009Y019159945D03*
G54D11*
X005219599Y019157405D03*
G54D11*
X004945000Y019174626D03*
G54D11*
X005674259Y019248845D03*
G54D11*
X005505019Y019269927D03*
G54D11*
X005297831Y019643536D03*
G54D11*
X004789907Y018481359D03*
G54D11*
X004782287Y018334039D03*
G54D11*
X004678147Y019515138D03*
G54D11*
X004586707D03*
G54D11*
X004927550Y018056976D03*
G54D11*
X004604665Y018049305D03*
G54D11*
X005160951Y018043590D03*
G54D11*
X005002429Y018193348D03*
G54D11*
X005243145Y018245825D03*
G54D11*
X004413632Y018119815D03*
G54D11*
X005404892Y018042625D03*
G54D11*
X005242967Y018044758D03*
G54D11*
X004765447Y018044453D03*
G54D11*
X004071519Y020107365D03*
G54D11*
X003718891Y020028218D03*
G54D11*
X003549523Y020027406D03*
G54D10*
X004840580Y018104499D03*
G54D10*
X004841698Y018173028D03*
G54D10*
X004764736Y018104778D03*
G54D10*
X005404232Y018171961D03*
G54D10*
X004684751Y018045901D03*
G54D10*
X004599738Y018275543D03*
G54D10*
X005324501Y018041786D03*
G54D10*
X005163592Y018170589D03*
G54D10*
X005244618Y018106861D03*
G54D10*
X005162119Y018109071D03*
G54D10*
X005402961Y018113490D03*
G54D10*
X004439387Y018171478D03*
G54D10*
X003919119Y015548065D03*
G54D10*
X003548279Y015723325D03*
G54D10*
X005730139Y015771585D03*
G54D10*
X003522879Y018004245D03*
G54D10*
X004178199Y017955985D03*
G54D10*
X004180739Y016863785D03*
G54D10*
X004193007Y016782505D03*
G54D10*
X004008019Y017234625D03*
G54D10*
X004127399Y016289745D03*
G54D10*
X004119779Y016396425D03*
G54D10*
X004053739Y016335465D03*
G54D10*
X004015639Y016419285D03*
G54D10*
X004931309Y015760155D03*
G54D10*
X004630319Y015714029D03*
G54D10*
X004719295Y015736888D03*
G54D10*
X005853329Y015765235D03*
G54D10*
X005441722Y015767648D03*
G54D10*
X005333467Y015713622D03*
G54D10*
X005003699Y015708085D03*
G54D10*
X005573523Y015724163D03*
G54D10*
X004731487Y016335059D03*
G54D10*
X004949800Y017973486D03*
G54D10*
X004846803Y017912577D03*
G54D10*
X004932807Y017781259D03*
G54D10*
X004675683Y017571505D03*
G54D10*
X004767428Y017461041D03*
G54D10*
X004923257Y017262540D03*
G54D10*
X004932579Y017160152D03*
G54D10*
X004923613Y016996018D03*
G54D10*
X004510507Y017002494D03*
G54D10*
X004931817Y016906914D03*
G54D10*
X004686250Y017842803D03*
G54D10*
X004513047Y017749712D03*
G54D10*
X004507967Y017619740D03*
G54D10*
X004685285Y017203307D03*
G54D10*
X004849749Y016796272D03*
G54D10*
X004513047Y017445090D03*
G54D10*
X004507967Y017307879D03*
G54D10*
X005087011Y017908817D03*
G54D10*
X005076419Y017155250D03*
G54D10*
X005084116Y017003511D03*
G54D10*
X005084649Y016865462D03*
G54D10*
Y017789310D03*
G54D10*
X005485613Y017005619D03*
G54D10*
X005245100Y016871278D03*
G54D10*
X005323688Y017127894D03*
G54D10*
X005163872Y017255072D03*
G54D10*
X005503165Y017269068D03*
G54D10*
X005285207Y017521163D03*
G54D10*
X005444084D03*
G54D10*
X005507483Y017763758D03*
G54D10*
X005323587Y017919384D03*
G54D10*
X005488407Y017130130D03*
G54D10*
X004499865Y017155174D03*
G54D10*
X004843527Y017190455D03*
G54D10*
X005161738Y017192994D03*
G54D10*
X004844162Y017855071D03*
G54D10*
X005163236Y017847654D03*
G54D10*
X004513885Y017887761D03*
G54D10*
X005856707Y017808259D03*
G54D10*
X005623027Y017973359D03*
G54D10*
X006009158Y017231628D03*
G54D11*
X003705759Y015857945D03*
G54D11*
X003962299Y015939225D03*
G54D11*
X003675025Y016228785D03*
G54D11*
X003817519Y016589465D03*
G54D11*
X003549549Y017214305D03*
G54D11*
X004269207Y016175445D03*
G54D11*
X004439387Y017765079D03*
G54D11*
X004470655Y017851337D03*
G54D11*
X004269207Y016889185D03*
G54D11*
X004327627Y015629345D03*
G54D11*
Y015542985D03*
G54D11*
X004391559Y015629345D03*
G54D11*
X003794659Y016769805D03*
G54D11*
X003832759Y016846005D03*
G54D11*
X003675025Y016302445D03*
G54D11*
X003738779Y016224975D03*
G54D11*
X003802279Y016919665D03*
G54D11*
X003860699Y016764725D03*
G54D11*
X004269207Y017615625D03*
G54D11*
X003886099Y015883345D03*
G54D11*
X003627019Y015860485D03*
G54D11*
X004025799Y015903665D03*
G54D11*
X004422039Y017686745D03*
G54D11*
X005851627Y017173259D03*
G54D11*
X004759631Y016764953D03*
G54D11*
X004597706Y017573512D03*
G54D11*
X005076724Y017081489D03*
G54D11*
X005242612Y016803866D03*
G54D11*
X005403088Y017002342D03*
G54D11*
X004927779Y017846156D03*
G54D11*
X005004283Y017236886D03*
G54D11*
X005244466Y017190175D03*
G54D11*
X004932732Y016838944D03*
G54D11*
X004510507Y017218978D03*
G54D11*
X005162576Y016801377D03*
G54D11*
X005364074Y017522153D03*
G54D11*
X005069307Y017963199D03*
G54D11*
X005498771Y017993044D03*
G54D11*
X005489373Y017639602D03*
G54D11*
X004846244Y017458754D03*
G54D11*
X004937227Y017099878D03*
G54D11*
X005319497Y017328935D03*
G54D11*
X004683812Y017390835D03*
G54D11*
X005073650Y017221163D03*
G54D11*
X004760824Y017195281D03*
G54D11*
X005486706Y017068484D03*
G54D11*
X004601566Y017135641D03*
G54D11*
X004522445Y017062769D03*
G54D11*
X005162119Y016998583D03*
G54D11*
X004842790Y017003942D03*
G54D11*
X004767555Y017000031D03*
G54D11*
X004603675Y017001707D03*
G54D11*
X004510507Y017373919D03*
G54D11*
X005206467Y017516158D03*
G54D11*
X004841190Y017973740D03*
G54D11*
X004926737Y017911053D03*
G54D11*
X004492473Y017949863D03*
G54D11*
X005515433Y017822127D03*
G54D11*
X005242739Y017848162D03*
G54D11*
X005082007Y017848899D03*
G54D11*
X004687012Y017778795D03*
G54D11*
X004760824Y017850575D03*
G54D11*
X004513047Y017814888D03*
G54D11*
X005325238Y017651973D03*
G54D11*
X004510507Y017684891D03*
G54D11*
X004755694Y017571505D03*
G54D11*
X005495722Y017324465D03*
G54D11*
X004394099Y015542985D03*
G54D10*
X005401082Y016869272D03*
G54D10*
X004841749Y017717352D03*
G54D10*
X004764660Y017399293D03*
G54D10*
X004683227Y017329214D03*
G54D10*
X005326254Y017783773D03*
G54D10*
X004636288Y016777400D03*
G54D10*
X004683761Y017977982D03*
G54D10*
X004843705Y017648239D03*
G54D10*
X005584927Y017226599D03*
G54D10*
X005169358Y017131552D03*
G54D10*
X004604665Y017919308D03*
G54D10*
X005161586Y017915777D03*
G54D10*
X004842765Y017127208D03*
G54D10*
X004844111Y016934498D03*
G54D10*
X004843501Y017399293D03*
G54D10*
X004761739Y017717377D03*
G54D10*
X005245735Y017782757D03*
G54D10*
X005244313Y017059899D03*
G54D10*
X004684091Y017270160D03*
G54D10*
X004843450Y016874809D03*
G54D10*
X005407737Y017261041D03*
G54D10*
X004683227Y017652963D03*
G54D10*
X005408626Y017131400D03*
G54D10*
X005398516Y017781868D03*
G54D10*
X005245964Y016936328D03*
G54D10*
X005404613Y017914761D03*
G54D10*
X005324120Y017978667D03*
G54D10*
X004683227Y017719359D03*
G54D10*
X004846244Y017065334D03*
G54D10*
X004844060Y017270160D03*
G54D10*
X005244567Y017267239D03*
G54D10*
X005403596Y017974629D03*
G54D10*
X005163109Y016937191D03*
G54D10*
X004600779Y017980420D03*
G54D10*
X005327905Y017259873D03*
G54D10*
X005246243Y017326929D03*
G54D10*
X005161611Y016871278D03*
G54D10*
X005399888Y017650347D03*
G54D10*
X004605554Y017397922D03*
G54D10*
X005164125Y017059924D03*
G54D10*
X004607561Y017200310D03*
G54D10*
X005164227Y017334955D03*
G54D10*
X004507967Y016911639D03*
G54D10*
X004763491Y017060457D03*
G54D10*
X004604538Y017068560D03*
G54D10*
X005164100Y017725175D03*
G54D10*
X005243501Y017984306D03*
G54D10*
X004684650Y017074300D03*
G54D10*
X004764507Y017912399D03*
G54D10*
X004761967Y017785398D03*
G54D10*
X004764507Y017975899D03*
G54D10*
X005240656Y017720375D03*
G54D10*
X005406365Y017071735D03*
G54D10*
X004686606Y016935515D03*
G54D10*
X005246930Y016998659D03*
G54D10*
X005562067Y017922559D03*
G54D10*
X004764711Y017259822D03*
G54D10*
X005406137Y016936708D03*
G54D10*
X005403419Y017327742D03*
G54D10*
X003584906Y015279892D03*
G54D10*
X003766719Y015299298D03*
G54D10*
X003789579Y014811465D03*
G54D10*
X003540659Y014380122D03*
G54D10*
X003639719D03*
G54D10*
X005011319Y014524445D03*
G54D10*
X005082439D03*
G54D10*
X003569869Y014444435D03*
G54D10*
X005871363Y015135061D03*
G54D10*
X005328819Y015375345D03*
G54D10*
X004414927Y014862265D03*
G54D10*
X005133645Y013601155D03*
G54D10*
X004243477Y014862773D03*
G54D10*
X005370526Y013608572D03*
G54D10*
X004343299Y013513525D03*
G54D10*
X004328059Y014331405D03*
G54D10*
X005382159Y014209891D03*
G54D10*
X004498239Y015253425D03*
G54D10*
X005422799Y015413445D03*
G54D10*
X004643019Y015416442D03*
G54D10*
X004696359Y015393125D03*
G54D10*
X004752239Y015416442D03*
G54D10*
X005077359Y015314385D03*
G54D10*
X004208679Y015078165D03*
G54D10*
X004223919Y014958785D03*
G54D10*
X005206467Y015430818D03*
G54D10*
X005773319Y015050225D03*
G54D10*
X005727599Y013616319D03*
G54D10*
X006036285Y014440219D03*
G54D10*
X005039259Y015403285D03*
G54D10*
X006036285Y014379259D03*
G54D10*
X005971439Y013081725D03*
G54D10*
X005867299Y015344865D03*
G54D10*
X005905399Y015238185D03*
G54D10*
X005745379Y012949645D03*
G54D10*
X005721249Y013075375D03*
G54D10*
X005971439Y012980125D03*
G54D10*
X004467505Y014595565D03*
G54D10*
X005732679Y013696329D03*
G54D10*
X004188359Y014905445D03*
G54D10*
X003952139Y014979105D03*
G54D10*
X004818253Y015327085D03*
G54D10*
X005793207Y014203999D03*
G54D10*
X006054980Y015119085D03*
G54D10*
X005995747Y015143951D03*
G54D10*
X005826431Y014255129D03*
G54D10*
X005727929Y014379259D03*
G54D10*
Y014440219D03*
G54D10*
X003822599Y015245805D03*
G54D10*
X004911827Y015303819D03*
G54D10*
X003761994Y014528738D03*
G54D10*
X003783483Y015389874D03*
G54D10*
X003992779Y014808925D03*
G54D10*
X004135019Y015078165D03*
G54D10*
X004180739Y015342325D03*
G54D10*
X003828974Y015422361D03*
G54D10*
X005780939Y014623505D03*
G54D10*
X003581299Y014747965D03*
G54D10*
X005136033Y013426911D03*
G54D10*
X003553359Y015362645D03*
G54D11*
X003774339Y014463485D03*
G54D11*
X004435145Y013366205D03*
G54D11*
X004399586Y014519365D03*
G54D11*
X005669179Y014989265D03*
G54D11*
X005608219Y015050225D03*
G54D11*
X005707279Y014712405D03*
G54D11*
X005808447Y014854645D03*
G54D11*
X004886859Y013607505D03*
G54D11*
X004813199Y013432245D03*
G54D11*
X004399179Y013983425D03*
G54D11*
X004046119Y013985965D03*
G54D11*
X004107079Y013820865D03*
G54D11*
X003517799Y013762445D03*
G54D11*
X003520339Y013937705D03*
G54D11*
X003590951Y013732727D03*
G54D11*
X005234585Y013848297D03*
G54D11*
X005102505D03*
G54D11*
X005090567Y013980631D03*
G54D11*
X005222647D03*
G54D11*
X005740299Y014509205D03*
G54D11*
X005890159Y014133285D03*
G54D11*
X005707279Y014052005D03*
G54D11*
X005537099Y013409385D03*
G54D11*
X005824119Y013749745D03*
G54D11*
X003972459Y015283905D03*
G54D11*
X004051199Y015377885D03*
G54D11*
X005948579Y013526632D03*
G54D11*
X003995319Y014880045D03*
G54D11*
X003952139Y014623505D03*
G54D11*
X003863239Y014620965D03*
G54D11*
X003914039Y014521905D03*
G54D11*
X003560979Y013864045D03*
G54D11*
X005717439Y013536385D03*
G54D11*
X005745379Y013856324D03*
G54D11*
X005915559Y013772605D03*
G54D11*
X005732679Y013960565D03*
G54D11*
X005290719Y014488885D03*
G54D11*
X005153559Y014714945D03*
G54D11*
X004894479Y014524445D03*
G54D11*
Y014224725D03*
G54D11*
X004157879Y013899605D03*
G54D11*
X004310279Y013919925D03*
G54D11*
X004447439Y013848805D03*
G54D11*
X004731919Y013904685D03*
G54D11*
X004833519Y013975805D03*
G54D11*
Y013848805D03*
G54D11*
X005026559Y013914845D03*
G54D11*
Y013777685D03*
G54D11*
Y014046925D03*
G54D11*
X005290719Y013914845D03*
G54D11*
Y013777685D03*
G54D11*
Y014046925D03*
G54D11*
X005158639D03*
G54D11*
Y013777685D03*
G54D11*
Y013914845D03*
G54D11*
X004884319Y013381445D03*
G54D11*
X005300879Y013462725D03*
G54D11*
X005397399Y014143445D03*
G54D11*
X005285639Y014372045D03*
G54D11*
X003685846Y014499883D03*
G54D11*
X005714467Y014209078D03*
G54D11*
X005982031Y014280605D03*
G54D11*
X006001487Y014506258D03*
G54D11*
X005808447Y014932978D03*
G54D10*
X004129939Y014986725D03*
G54D10*
X004797959Y012243931D03*
G54D10*
X004051199Y012240934D03*
G54D10*
X003914039Y011943805D03*
G54D10*
X004584421Y012412054D03*
G54D10*
X004330421D03*
G54D10*
X004457421D03*
G54D10*
X004584421Y012320614D03*
G54D10*
X004330421D03*
G54D10*
X004457421D03*
G54D10*
X004236619Y011981905D03*
G54D10*
X003977539Y010887165D03*
G54D10*
X005953202Y010946042D03*
G54D10*
X004126357Y010987266D03*
G54D10*
X005976519Y012893765D03*
G54D10*
X005717439Y012796839D03*
G54D10*
X005689474Y012896331D03*
G54D10*
X005702199Y012126685D03*
G54D10*
X005765699Y012068265D03*
G54D10*
X005834279Y012121605D03*
G54D10*
X005686959Y012454345D03*
G54D10*
X005773319Y012456885D03*
G54D10*
Y012543245D03*
G54D10*
X005686959D03*
G54D10*
X005792344Y010921429D03*
G54D10*
X004241750Y011115816D03*
G54D11*
X005928310Y010813454D03*
G54D11*
X004764939Y012616905D03*
G54D11*
X004843679Y012540705D03*
G54D11*
X004978299Y012611825D03*
G54D11*
X004731919Y012799785D03*
G54D11*
X004830979Y012842914D03*
G54D11*
X004399179Y012104333D03*
G54D11*
X004551579Y012101793D03*
G54D11*
X004287419Y010935425D03*
G54D11*
X005890159Y010948125D03*
G54D11*
X004399179Y012180025D03*
G54D11*
X004551579Y012177485D03*
G54D11*
X005951119Y011100525D03*
G54D11*
X004145179Y010920185D03*
G54D11*
X003774339Y012037785D03*
G54D11*
X004467759Y012604205D03*
G54D11*
X004554119Y012609285D03*
G54D11*
X004645559Y012604205D03*
G54D11*
X004803039Y012421325D03*
G54D11*
X004960519Y012451805D03*
G54D11*
X005051959D03*
G54D11*
X005158639Y012538165D03*
G54D11*
X005265319Y012533085D03*
G54D11*
X005366919Y012528005D03*
G54D11*
X004874159Y012329885D03*
G54D11*
X005522468Y012472125D03*
G54D11*
X004314343Y012225288D03*
G54D11*
X004635907Y012224018D03*
G54D11*
X004475379Y012224780D03*
G54D11*
X004635907Y012137658D03*
G54D11*
X004314343Y012138928D03*
G54D11*
X004475379Y012138420D03*
G54D11*
X004114699Y012035194D03*
G54D11*
X004506850Y011858385D03*
G54D11*
X004187089Y011859934D03*
G54D11*
X004025799Y012296916D03*
G54D11*
X003571393Y010991305D03*
G54D11*
X005786400Y012656326D03*
G54D10*
X001559459Y011862525D03*
G54D10*
X002310613Y012311419D03*
G54D10*
X001254659Y011494225D03*
G54D10*
X001600099Y011799025D03*
G54D10*
X003482239Y010917645D03*
G54D10*
X003122829Y012394655D03*
G54D10*
X001036219Y011458665D03*
G54D10*
X001316076Y011524248D03*
G54D10*
X001435685Y011600194D03*
G54D10*
X001795679Y012251145D03*
G54D10*
X001095706Y011953965D03*
G54D10*
X002042059Y012157140D03*
G54D10*
X001587450Y011679645D03*
G54D11*
X001501039Y012030216D03*
G54D11*
X001554379Y011743145D03*
G54D11*
X001526439Y011461205D03*
G54D11*
X003444139Y010861765D03*
G54D11*
X001649400Y012316143D03*
G54D11*
X002207159Y012362905D03*
G54D11*
X001615339Y011943805D03*
G54D11*
X001113943Y012124145D03*
G54D11*
X001010819Y012020005D03*
G54D11*
X001424839Y011458665D03*
G54D11*
X002092021Y012743905D03*
G54D10*
X003428899Y014549845D03*
G54D10*
X003416199Y014742885D03*
G54D10*
X003306979Y014336942D03*
G54D10*
X003383179D03*
G54D10*
X003355239Y014529525D03*
G54D10*
X003334919Y014742885D03*
G54D10*
X002877719Y014433005D03*
G54D10*
X002550059Y015273745D03*
G54D10*
X002628799Y015007045D03*
G54D10*
X002649119Y014737805D03*
G54D10*
X003284119Y015368386D03*
G54D10*
X003047848Y015362645D03*
G54D10*
X003468828Y015367826D03*
G54D10*
X003075839Y014417765D03*
G54D10*
X003284119Y014544765D03*
G54D10*
X003407918Y015364829D03*
G54D10*
X002318919Y015230565D03*
G54D10*
X003212999Y015362645D03*
G54D10*
X003136799Y015367725D03*
G54D10*
X002392579Y015174685D03*
G54D10*
X003247899Y014742225D03*
G54D10*
X003218079Y014557465D03*
G54D10*
X003089250Y014358278D03*
G54D10*
X003088996Y014290765D03*
G54D10*
X003347060Y015368386D03*
G54D10*
X001706754Y014869885D03*
G54D10*
X001477747Y013870751D03*
G54D10*
X001842415Y015075625D03*
G54D10*
X001549299Y013743750D03*
G54D10*
X001707440Y015075625D03*
G54D10*
X001588669Y014916875D03*
G54D10*
X001867662Y014501585D03*
G54D10*
X001479779Y013616751D03*
G54D10*
X001842415Y014872425D03*
G54D10*
X003497885Y014742478D03*
G54D10*
X002580539Y014882636D03*
G54D10*
X002611019Y014542225D03*
G54D10*
X002712619Y015322005D03*
G54D10*
X002448459Y015380425D03*
G54D10*
X002499259Y015475675D03*
G54D10*
X001615339Y014694625D03*
G54D10*
X003147899Y014741412D03*
G54D10*
X002981859Y015370265D03*
G54D11*
X002992019Y014024065D03*
G54D11*
X002956459Y014095185D03*
G54D11*
Y013955485D03*
G54D11*
X002981859Y013764985D03*
G54D11*
X003294279Y013079185D03*
G54D11*
X002191919Y015337245D03*
G54D11*
X001544219Y015342325D03*
G54D11*
X002125879Y015159445D03*
G54D11*
X001978559Y014722565D03*
G54D11*
X002113179Y014593025D03*
G54D11*
X002537359Y014224725D03*
G54D11*
X002542439Y013985965D03*
G54D11*
X002613559Y013025845D03*
G54D11*
X001610259Y015464245D03*
G54D11*
X003447949Y013734251D03*
G54D11*
X003104287Y015244535D03*
G54D11*
X003436011Y015241233D03*
G54D11*
X003216047Y015243773D03*
G54D11*
X003331109Y015240471D03*
G54D11*
X003058059Y015124139D03*
G54D11*
X003495701Y015125663D03*
G54D11*
X003275737Y015128203D03*
G54D11*
X003399435Y015000949D03*
G54D11*
X003165755D03*
G54D11*
X003504083Y014954467D03*
G54D11*
X003062123Y014959547D03*
G54D11*
X003275483Y014954467D03*
G54D11*
X003160675Y015131505D03*
G54D11*
X001569619Y015253425D03*
G54D11*
X002120799Y015055305D03*
G54D11*
X002814219Y014445298D03*
G54D11*
X002524659Y014542225D03*
G54D11*
X002712619Y015012125D03*
G54D11*
X002649119Y015322005D03*
G54D11*
X003474619Y013861505D03*
G54D11*
X002804059Y015438845D03*
G54D11*
X002551329Y014967675D03*
G54D11*
X002638959Y014826654D03*
G54D11*
X003380639Y015128965D03*
G54D11*
X003163723Y014896047D03*
G54D11*
X003397403D03*
G54D11*
X003503067Y014856423D03*
G54D11*
X003059583Y014860487D03*
G54D11*
X003041549Y015286191D03*
G54D11*
X003497733Y015281619D03*
G54D11*
X003274213Y015286699D03*
G54D11*
X003503321Y015050987D03*
G54D11*
X003056281D03*
G54D11*
X003272943Y014855407D03*
G54D11*
X003273654Y015048040D03*
G54D11*
X001902359Y014973619D03*
G54D11*
X001871879Y014808519D03*
G54D11*
X002974239Y014425385D03*
G54D11*
X002964079Y015129905D03*
G54D11*
X002969667Y014856931D03*
G54D11*
X003258719Y014382205D03*
G54D11*
X001456741Y014171385D03*
G54D10*
X002534819Y015542985D03*
G54D10*
X003263799Y015530285D03*
G54D10*
X003444139Y015553018D03*
G54D10*
X003121559Y015830005D03*
G54D10*
X003187599Y015835085D03*
G54D10*
X003197759Y015606485D03*
G54D10*
X003010002Y015593785D03*
G54D10*
X003085999Y015573465D03*
G54D10*
X003398419Y015768181D03*
G54D10*
X003329839Y015767775D03*
G54D10*
X003337459Y015603945D03*
G54D10*
X002293519Y016195765D03*
G54D10*
X002290979Y017694365D03*
G54D10*
X002285366Y017862310D03*
G54D10*
X002128419Y016271965D03*
G54D10*
Y016023045D03*
G54D10*
X003243479Y017409885D03*
G54D10*
X002376628Y017935258D03*
G54D10*
X002315668D03*
G54D10*
X002541245Y017860075D03*
G54D10*
Y017921035D03*
G54D10*
X002585619Y016183065D03*
G54D10*
X002900579Y017681665D03*
G54D10*
X002625751Y016266885D03*
G54D10*
X002618639Y017699445D03*
G54D10*
X001579347Y017914939D03*
G54D10*
X002278279Y016279585D03*
G54D10*
X002898039Y017482402D03*
G54D10*
Y017182402D03*
G54D10*
X002918359Y017613085D03*
G54D10*
X003421279Y017699445D03*
G54D10*
X002961539Y017303205D03*
G54D10*
X002390039Y016271965D03*
G54D10*
X001492987Y017881918D03*
G54D10*
X002225015Y017853522D03*
G54D10*
X002125447Y017866678D03*
G54D10*
X002819299Y017831525D03*
G54D10*
X003256128Y017826445D03*
G54D10*
X003012339Y017359085D03*
G54D10*
X003101188Y016330334D03*
G54D10*
X002410359Y016172905D03*
G54D10*
X001970939Y015870645D03*
G54D10*
Y015957005D03*
G54D10*
X002075079Y015870645D03*
G54D10*
Y015957005D03*
G54D10*
X002534819Y015979865D03*
G54D10*
X002506879Y015883345D03*
G54D10*
X002260499Y015817305D03*
G54D10*
X002265579Y015982405D03*
G54D10*
X002240179Y015885885D03*
G54D10*
X002445919Y015979865D03*
G54D10*
X002359559D03*
G54D10*
X002417979Y015883345D03*
G54D10*
X002326539D03*
G54D11*
X003009799Y017427665D03*
G54D11*
X001427379Y016277045D03*
G54D11*
X001815999Y015692845D03*
G54D11*
Y015786825D03*
G54D11*
X001831239Y015542985D03*
G54D11*
X002677059Y015649665D03*
G54D11*
X002433219Y015593785D03*
G54D11*
X002958999Y017033965D03*
G54D11*
X003459887Y016926015D03*
G54D11*
X003508909Y016979101D03*
G54D11*
X003415437Y016980117D03*
G54D11*
X002704999Y017882325D03*
G54D11*
X002255368Y017915396D03*
G54D11*
X003260852Y017175850D03*
G54D11*
X002941219Y017376865D03*
G54D11*
X002961539Y017526725D03*
G54D11*
X002966619Y017653725D03*
G54D11*
X003459125Y016821621D03*
G54D11*
X003508147Y016874707D03*
G54D11*
X003414675Y016875723D03*
G54D11*
X003414929Y017045649D03*
G54D11*
X002306219Y015659825D03*
G54D11*
X003360319Y017389565D03*
G54D11*
X003508147Y017047427D03*
G54D11*
X002991638Y018009706D03*
G54D11*
X003149448Y017867085D03*
G54D11*
X002379879Y015669985D03*
G54D11*
X002489099Y015675065D03*
G54D11*
X002590699D03*
G54D11*
X002723211Y017382402D03*
G54D11*
X002525751Y017707675D03*
G54D11*
X001925752Y016287205D03*
G54D11*
X002693010Y016649689D03*
G54D11*
X002143227Y017442499D03*
G54D11*
X001925372Y017412603D03*
G54D11*
X001967967Y016703358D03*
G54D11*
X002225346Y017002241D03*
G54D11*
Y017174097D03*
G54D11*
X002608479Y017877245D03*
G54D11*
X002637105Y017968405D03*
G54D11*
X001854099Y018019485D03*
G54D11*
X002133118Y017978388D03*
G54D11*
X002732507Y017945419D03*
G54D11*
X002691867Y017988598D03*
G54D11*
X002582647Y017980978D03*
G54D11*
X002524227Y017989437D03*
G54D11*
X002169847Y017908462D03*
G54D11*
X002800554Y017980699D03*
G54D10*
X002290954Y018110518D03*
G54D10*
X002336623Y019342419D03*
G54D10*
X001579347Y018819179D03*
G54D10*
X002275663Y019342419D03*
G54D10*
X001513307Y018819179D03*
G54D10*
X001689837Y019059208D03*
G54D10*
X002059407Y019302795D03*
G54D10*
X001609827Y019055399D03*
G54D10*
X002059407Y019363755D03*
G54D10*
X003035199Y018636298D03*
G54D10*
X002976347Y018316259D03*
G54D10*
X002239316Y018151159D03*
G54D10*
X002003527Y018173612D03*
G54D10*
X002122170Y018181715D03*
G54D10*
X003322219Y018834825D03*
G54D10*
X003301010Y019060885D03*
G54D10*
X002612111Y019228119D03*
G54D10*
X003491967Y018869979D03*
G54D10*
X002673071Y019228119D03*
G54D10*
X002840711Y019308637D03*
G54D10*
X002901671D03*
G54D10*
X001924406Y018385093D03*
G54D10*
Y018456212D03*
G54D10*
X001713967Y018696242D03*
G54D10*
X001731747Y020035077D03*
G54D10*
X002935657Y018176965D03*
G54D10*
X001713967Y018625123D03*
G54D10*
X001670787Y020035077D03*
G54D10*
X001988516Y018557279D03*
G54D10*
X001472667Y019306859D03*
G54D10*
X001988516Y018486159D03*
G54D10*
X001533627Y019308230D03*
G54D10*
X001345032Y018407698D03*
G54D10*
X003258287Y018389919D03*
G54D10*
X003253639Y018763705D03*
G54D10*
X003029103Y020449275D03*
G54D10*
X001284072Y018407698D03*
G54D10*
X002406117Y018137189D03*
G54D10*
X002740127Y018153750D03*
G54D10*
X002658847Y018153546D03*
G54D10*
X002539467Y018153750D03*
G54D10*
X002600427Y018153699D03*
G54D10*
X002246123Y019103658D03*
G54D10*
X002940787Y019141759D03*
G54D10*
X002726132Y019094743D03*
G54D10*
X002486127Y019098020D03*
G54D10*
X002437867Y019139219D03*
G54D10*
X001985747Y019068099D03*
G54D10*
X002044167D03*
G54D10*
X002105127Y019042698D03*
G54D10*
X001965427Y019007139D03*
G54D10*
X002023847Y019004599D03*
G54D10*
X003012339Y018832311D03*
G54D10*
X002957374Y018549939D03*
G54D10*
X002971267Y018488979D03*
G54D10*
X003485617Y019300839D03*
G54D10*
X001486002Y018288954D03*
G54D10*
X001529132Y018332083D03*
G54D10*
X003311627Y020005359D03*
G54D10*
X002242287Y020373659D03*
G54D10*
X001912087Y020340638D03*
G54D10*
X001421867Y019974878D03*
G54D10*
X003091079Y018034725D03*
G54D10*
X002974036Y018703279D03*
G54D10*
X003126207Y018337925D03*
G54D10*
X003373019Y018875465D03*
G54D10*
X002000987Y018781333D03*
G54D10*
X002059407Y018227359D03*
G54D10*
X001993367Y018364519D03*
G54D10*
X001937487Y018595659D03*
G54D11*
X003451759Y018804345D03*
G54D11*
X002964079Y019279325D03*
G54D11*
X002791359Y019266625D03*
G54D11*
X002537359Y019225985D03*
G54D11*
X001424839Y018237925D03*
G54D11*
X001582319Y018382705D03*
G54D11*
X001774927Y019048185D03*
G54D11*
X001932839Y019264085D03*
G54D11*
X002395119Y019393625D03*
G54D11*
X002156359Y019365685D03*
G54D11*
X001404519Y019299645D03*
G54D11*
X001208939Y018410645D03*
G54D11*
X001424839Y018408105D03*
G54D11*
X001920139Y018522405D03*
G54D11*
X003366008Y018128705D03*
G54D11*
X003404896Y019304699D03*
G54D11*
X001838859Y018344631D03*
G54D11*
X001508659Y018735765D03*
G54D11*
X001669365Y018553596D03*
G54D11*
X001592479Y018085525D03*
G54D11*
X003063749Y020177037D03*
G54D11*
X001815567Y020548919D03*
G54D11*
X001807058Y019219762D03*
G54D11*
X003215107Y018521998D03*
G54D11*
X001584859Y018994032D03*
G54D11*
X001758468Y019192152D03*
G54D11*
X002417649Y019211558D03*
G54D11*
X002219427Y019311938D03*
G54D11*
X001955267Y018871909D03*
G54D11*
X002722779Y019274245D03*
G54D11*
X003156281Y019058345D03*
G54D11*
X003253639Y018829745D03*
G54D11*
X001592047Y019990119D03*
G54D11*
X001785951Y019984226D03*
G54D10*
X002658847Y020688619D03*
G54D10*
X002990215Y020600836D03*
G54D10*
X002379447Y020587018D03*
G54D10*
X001548867Y020627659D03*
G54D10*
X001894307Y020599719D03*
G54D10*
X001272007Y020632739D03*
G54D10*
X003042387Y020645439D03*
G54D10*
X002953487Y020653058D03*
G54D10*
X002397227Y020675918D03*
G54D11*
X000929539Y011989525D03*
G54D11*
X000881279Y012154625D03*
G54D11*
X000878739Y011760925D03*
G54D12*
X008705317Y020559079D03*
G54D12*
X009202319Y019733985D03*
G54D12*
X009187079Y020419785D03*
G54D12*
X008991067Y020111632D03*
G54D12*
X009032139Y019860985D03*
G54D13*
X008619846Y020126898D03*
G54D13*
X008988959Y020015925D03*
G54D13*
X008988527Y019334799D03*
G54D12*
X008942807Y017528859D03*
G54D12*
X008727339Y017529265D03*
G54D12*
X008653679Y017531805D03*
G54D12*
X008790839Y013718858D03*
G54D12*
X008671459Y014402525D03*
G54D12*
X008609051Y012782614D03*
G54D13*
X008803539Y011463745D03*
G54D12*
X007789647Y011968798D03*
G54D12*
X007624547Y011973879D03*
G54D12*
X007456907Y011978958D03*
G54D12*
X007787107Y012652058D03*
G54D12*
X008132979Y012627065D03*
G54D12*
X008211287Y012751119D03*
G54D12*
X008208747Y012834938D03*
G54D13*
X008030947Y012718099D03*
G54D13*
X008028407Y012799379D03*
G54D13*
X007182993Y012911138D03*
G54D13*
X007652487Y011316018D03*
G54D13*
X007520407Y011318559D03*
G54D13*
X007395947Y011321098D03*
G54D12*
X006588227Y014206539D03*
G54D12*
Y014325919D03*
G54D12*
X006585687Y014435139D03*
G54D12*
X006588227Y014539279D03*
G54D12*
X006953987Y012944159D03*
G54D12*
X008025867Y015240318D03*
G54D12*
X007614819Y014814005D03*
G54D12*
X007588987Y014711618D03*
G54D12*
X008361859Y013178855D03*
G54D12*
X007007327Y013647739D03*
G54D12*
X006654267Y013835698D03*
G54D12*
X006080227Y014905039D03*
G54D12*
X006169127Y014910118D03*
G54D12*
X006128487Y014986318D03*
G54D13*
X007959827Y013162598D03*
G54D13*
X006749517Y014049465D03*
G54D13*
X006191987Y014211618D03*
G54D13*
X006083199Y014173925D03*
G54D13*
X006179719Y014316165D03*
G54D13*
X006080659Y014288225D03*
G54D13*
X006514364Y013656324D03*
G54D13*
X006550127Y013939838D03*
G54D13*
X007850607Y013162598D03*
G54D13*
X007715987Y013165138D03*
G54D13*
X007528027Y013172758D03*
G54D13*
X007952842Y013355207D03*
G54D13*
X007850785Y013334455D03*
G54D13*
X007715987Y013335319D03*
G54D13*
X007533107D03*
G54D13*
X007957922Y013469507D03*
G54D13*
X007856322Y013466967D03*
G54D13*
X007713447Y013464859D03*
G54D13*
X007546239Y013462318D03*
G54D13*
X007957287Y013581698D03*
G54D13*
X007855687Y013579159D03*
G54D13*
X007708367Y013581698D03*
G54D13*
X007530567Y013579159D03*
G54D13*
X006992087Y013541059D03*
G54D13*
X008309941Y013046165D03*
G54D13*
X008399247Y015903258D03*
G54D13*
X008430210Y015535314D03*
G54D12*
X008369199Y020560755D03*
G54D12*
X007790079Y020473125D03*
G54D12*
Y020379145D03*
G54D12*
X006095467Y018130839D03*
G54D12*
X006098007Y018234979D03*
G54D12*
X008353527Y018803939D03*
G54D12*
X008378521Y018658752D03*
G54D12*
X007991730Y019941071D03*
G54D12*
X006524727Y018730279D03*
G54D12*
X006525159Y018659158D03*
G54D13*
X007952207Y020162838D03*
G54D13*
X007746467Y020165379D03*
G54D13*
X007919187Y019301779D03*
G54D13*
X007027647Y020528599D03*
G54D13*
X008518627Y020551459D03*
G54D13*
X003898367Y020678459D03*
G54D13*
X004020287Y020675918D03*
G54D12*
X003725647Y020485419D03*
G54D12*
X003641827Y020487959D03*
G54D12*
X004348379Y019200585D03*
G54D12*
X003926307Y019852958D03*
G54D12*
X003796767D03*
G54D12*
X004297147Y020175539D03*
G54D12*
X004154907D03*
G54D12*
X004408882Y018362385D03*
G54D12*
X004370807Y018298479D03*
G54D12*
X004363086Y018416817D03*
G54D12*
X004972838Y018438230D03*
G54D12*
X006037047Y018186718D03*
G54D12*
X006034507Y018275619D03*
G54D12*
X004538879Y019723825D03*
G54D12*
X004484523Y019652883D03*
G54D12*
X006755867Y020627659D03*
G54D12*
X005562067Y018659158D03*
G54D12*
X005643347Y018656619D03*
G54D13*
X004891507Y020132358D03*
G54D13*
X005003267Y019601499D03*
G54D13*
X004439387Y019184939D03*
G54D13*
X004637507Y019334799D03*
G54D13*
X005793639Y019139219D03*
G54D13*
X005344059Y019175185D03*
G54D13*
X005549367Y019184939D03*
G54D13*
X005722519Y019187885D03*
G54D13*
X005706847Y018275619D03*
G54D13*
X005663667Y018344199D03*
G54D13*
X005744947D03*
G54D13*
X004406799Y018491112D03*
G54D13*
X003784067Y020251739D03*
G54D13*
Y020348259D03*
G54D12*
X004109619Y015626805D03*
G54D12*
X004147719Y015779205D03*
G54D12*
X004107079Y015703005D03*
G54D12*
X004190899Y015624265D03*
G54D12*
Y015700465D03*
G54D12*
X005765699Y016465005D03*
G54D12*
X005691607Y016464599D03*
G54D12*
X005615839Y016467545D03*
G54D12*
X003881019Y016017965D03*
G54D12*
X003827679Y016091625D03*
G54D12*
X003779419Y016015425D03*
G54D12*
X003700679Y016091625D03*
G54D12*
X005092599Y013345478D03*
G54D12*
X005224679D03*
G54D12*
Y013254038D03*
G54D12*
X005092599D03*
G54D12*
X005229759Y012964478D03*
G54D12*
X005097679D03*
G54D12*
X004676039Y015027365D03*
G54D12*
X004571899Y015029905D03*
G54D12*
X005325847Y014821218D03*
G54D12*
X005264887Y014877099D03*
G54D12*
X003794659Y013566865D03*
G54D12*
X003865779Y013569405D03*
G54D12*
X003947059Y013450025D03*
G54D12*
X003756559Y013798005D03*
G54D12*
X003690519Y013724345D03*
G54D12*
X003797199D03*
G54D13*
X005719547Y015189519D03*
G54D13*
Y015293658D03*
G54D13*
X005615839Y015189925D03*
G54D13*
X005612867Y015296199D03*
G54D12*
X005097679Y012852719D03*
G54D12*
X005229759D03*
G54D12*
X005600599Y011501845D03*
G54D12*
Y011628845D03*
G54D12*
Y011755845D03*
G54D12*
X005727599Y011501845D03*
G54D12*
Y011628845D03*
G54D12*
Y011755845D03*
G54D12*
X005854599D03*
G54D12*
Y011374845D03*
G54D12*
Y011501845D03*
G54D12*
Y011628845D03*
G54D12*
X003685439Y011832045D03*
G54D12*
Y011989525D03*
G54D12*
X003558439Y011984445D03*
G54D12*
Y011684725D03*
G54D12*
Y011826965D03*
G54D12*
X003647339Y011176725D03*
G54D12*
X003649447Y011277919D03*
G54D12*
X003901339Y011169105D03*
G54D12*
X003776879Y011171645D03*
G54D12*
X003903447Y011275379D03*
G54D12*
X003773907Y011277919D03*
G54D13*
X005709819Y011103065D03*
G54D13*
X005364379Y011105605D03*
G54D13*
X005529479Y011108145D03*
G54D13*
X004383507Y011150919D03*
G54D13*
X004307307Y011255058D03*
G54D13*
X004165067Y011260138D03*
G54D12*
X001835887Y012580939D03*
G54D12*
X001914627Y012786678D03*
G54D12*
X001835887Y012674919D03*
G54D12*
X001830807Y012786678D03*
G54D12*
X002989479Y011928565D03*
G54D12*
X002994559Y011796485D03*
G54D12*
X003172359Y012116525D03*
G54D12*
Y012020005D03*
G54D12*
X002674519Y011832045D03*
G54D12*
X002531847Y011976418D03*
G54D12*
X002872639Y012060645D03*
G54D12*
X002592807Y012070398D03*
G54D12*
X002450567D03*
G54D12*
X002626259Y012535625D03*
G54D12*
X002623719Y012693105D03*
G54D12*
X002974239Y012512765D03*
G54D12*
X002821839Y012520385D03*
G54D12*
X002771039Y012667705D03*
G54D13*
X002427707Y012804459D03*
G54D13*
X002364207Y012766358D03*
G54D13*
X003278607Y011271569D03*
G54D12*
X001332967Y014440752D03*
G54D12*
X001167867Y014524038D03*
G54D12*
X003339999Y013724345D03*
G54D12*
X002748179Y013744665D03*
G54D12*
Y013871665D03*
G54D12*
X002849779Y013749745D03*
G54D13*
X001280135Y013997751D03*
G54D13*
X001774927Y014701839D03*
G54D13*
X001835887Y015415578D03*
G54D12*
X003322473Y016244025D03*
G54D12*
X003233319Y016241485D03*
G54D12*
X003327807Y016328734D03*
G54D12*
X003259430Y016309125D03*
G54D12*
X001960347Y017937773D03*
G54D12*
X002039087Y017940339D03*
G54D12*
X002361667Y016947199D03*
G54D12*
X002362099Y016838385D03*
G54D12*
X002967889Y017111435D03*
G54D13*
X003126639Y016226245D03*
G54D13*
X003014879Y016279585D03*
G54D13*
X001810487Y017894619D03*
G54D13*
X001744447Y017978439D03*
G54D13*
X002725751Y016291879D03*
G54D13*
X001020547Y017991139D03*
G54D13*
X001444473Y017930432D03*
G54D12*
X002016659Y019794945D03*
G54D12*
X001937919Y019820345D03*
G54D12*
X002793467Y020142519D03*
G54D12*
Y020246658D03*
G54D12*
X001861287Y020068859D03*
G54D12*
X001858747Y020139978D03*
G54D12*
X002879827Y019111278D03*
G54D12*
X003128747Y019271298D03*
G54D12*
X003197327Y019205259D03*
G54D12*
X001907007Y018166399D03*
G54D13*
X002373961Y018392509D03*
G54D13*
X002371421Y018506809D03*
G54D13*
Y018621110D03*
G54D13*
Y018753190D03*
G54D13*
X002605101Y018387430D03*
G54D13*
X002602561Y018501730D03*
G54D13*
Y018616030D03*
G54D13*
Y018748110D03*
G54D13*
X002394687Y020505739D03*
G54D13*
X002491207Y020012979D03*
G54D13*
X001540739Y020323366D03*
G54D13*
X001036219Y018598605D03*
G54D13*
X002955392Y019479757D03*
G54D13*
X002923007Y019543079D03*
G54D13*
X000906247Y020627659D03*
G54D13*
X001614907Y020185698D03*
G54D13*
X001619987Y020272058D03*
G54D13*
X002094967Y020132358D03*
G54D13*
Y020223798D03*
G54D13*
X003377667Y020510819D03*
G54D13*
X002724481Y018387430D03*
G54D13*
X002721941Y018501730D03*
G54D13*
Y018616030D03*
G54D13*
Y018748110D03*
G54D13*
X002485721Y018389970D03*
G54D13*
X002483181Y018504269D03*
G54D13*
Y018618569D03*
G54D13*
Y018750649D03*
G54D13*
X002480641Y018870030D03*
G54D13*
X002249907Y018387378D03*
G54D13*
X002247367Y018501678D03*
G54D13*
Y018615978D03*
G54D13*
Y018748059D03*
G54D13*
X002244827Y018867438D03*
G54D13*
X002300707Y020604799D03*
G54D13*
X000914299Y018598605D03*
G54D13*
X001170407Y020630199D03*
G54D13*
X001030707Y020627659D03*
G54D13*
X003433547Y020566699D03*
G54D13*
X000916407Y017991139D03*
G54D14*
X008993684Y014406767D03*
G54D14*
Y014279767D03*
G54D14*
Y014152767D03*
G54D14*
Y014025767D03*
G54D14*
Y013898767D03*
G54D14*
X009120684Y014406767D03*
G54D14*
Y014279767D03*
G54D14*
Y014152767D03*
G54D14*
Y014025767D03*
G54D14*
Y013898767D03*
G54D14*
X004039185Y019470003D03*
G54D14*
X003839185D03*
G54D14*
X003639186D03*
G54D14*
X003539186Y019620015D03*
G54D14*
X003739186D03*
G54D14*
X003989197D03*
G54D14*
X002099997Y019470003D03*
G54D14*
X001899997D03*
G54D14*
X001699997D03*
G54D14*
X001499998D03*
G54D14*
X001299998D03*
G54D14*
X001349985Y019620015D03*
G54D14*
X001599998D03*
G54D14*
X001799997D03*
G54D14*
X002050009D03*
G54D14*
X003439186Y019470003D03*
G54D14*
X003239186D03*
G54D14*
X003289174Y019620015D03*
G54D15*
X006974764Y012498007D03*
G54D15*
X007228765D03*
G54D15*
X007482765D03*
G54D15*
X007736765D03*
G54D15*
X007990764D03*
G54D15*
X007101765Y012244008D03*
G54D15*
X007355764D03*
G54D15*
X007609765D03*
G54D15*
X007863764D03*
G54D15*
X008117765D03*
G54D16*
X004874159Y010937965D03*
G54D16*
X005064253Y011451477D03*
G54D16*
X004810253D03*
G54D17*
X007136257Y011203014D03*
G54D17*
X007957262D03*
G54D17*
X006881775D03*
G54D17*
X008212760D03*
G54D18*
X007584238Y020492937D03*
G54D18*
X007524217Y020002946D03*
G54D18*
X006074233D03*
G54D18*
X006014212Y020492937D03*
G54D19*
X006760769Y011914011D03*
G54D19*
X008331125D03*
G54D20*
X004296182Y019820015D03*
G54D20*
X001043001D03*
G54D20*
X002356993D03*
G54D20*
X002982189D03*
G54D21*
X008900008Y018900002D03*
G54D21*
Y015749995D03*
G54D21*
Y011150004D03*
G54D21*
X001200023D03*
G54D21*
Y015749995D03*
G54D21*
Y018900002D03*
G54D22*
X001155853Y012506314D03*
G54D22*
Y014926324D03*
G54D14*
X009129497Y011590338D03*
G54D14*
X006411697Y010945585D03*
G54D14*
X004615003Y019207773D03*
G54D14*
X003693897Y010945585D03*
G54D14*
X000976097Y011590338D03*
G54D23*
X008399984Y015749995D03*
G54D23*
X004399992D03*
G54D24*
X005960847Y014966329D03*
G54D25*
X007435012Y019207773D03*
G54D26*
X002300021Y011150030D03*
G54D26*
X001899997D03*
G54D27*
X005960847Y012466309D03*
G54D28*
X006974764Y011609008D03*
G54D28*
X008117765D03*
G54D29*
X001810004Y011985271D02*
Y011894770D01*
Y011695279D02*
Y011604779D01*
G54D30*
X009191068Y013592468D02*
X009118168D01*
X009191068Y012757443D02*
X009118168D01*
G54D31*
X008863519Y013397472D02*
X008845719D01*
X008863519Y012952439D02*
X008845719D01*
G54D30*
X004720565Y020640436D02*
Y020567536D01*
X005555565Y020640436D02*
Y020567536D01*
G54D31*
X004915561Y020312912D02*
Y020295112D01*
X005360569Y020312912D02*
Y020295112D01*
G54D29*
X002150009Y011985271D02*
Y011894770D01*
G54D32*
X000500000Y019950011D03*
X009600008Y019550011D03*
Y001799999D03*
M02*
