*
%FSLAX45Y45*%
%MOMM*%
G04 A1 - i274x.macro49.d49..inc..13.4 *
%AMA1gts_lev.gbr*
4,1,6,
-0.260705,-0.362305,
-0.260705,0.362305,
0.260705,0.362305,
0.260705,0.044095,
0.057505,0.044095,
0.057505,-0.362305,
-0.260705,-0.362305,
0.0000*
%
G04 A2 - i274x.macro50.d50+1..inc..13.4 *
%AMA2gts_lev.gbr*
4,1,6,
-0.260705,-0.362305,
-0.260705,0.362305,
0.057505,0.362305,
0.057505,-0.044095,
0.260705,-0.044095,
0.260705,-0.362305,
-0.260705,-0.362305,
0.0000*
%
G04 A3 - i274x.macro51.d51+1..inc..13.4 *
%AMA3gts_lev.gbr*
4,1,6,
-0.260705,-0.362305,
-0.260705,-0.044095,
-0.057505,-0.044095,
-0.057505,0.362305,
0.260705,0.362305,
0.260705,-0.362305,
-0.260705,-0.362305,
0.0000*
%
G04 A4 - i274x.macro47.d47..inc..13.4 *
%AMA4gts_lev.gbr*
4,1,6,
-0.057505,-0.362305,
-0.057505,0.044095,
-0.260705,0.044095,
-0.260705,0.362305,
0.260705,0.362305,
0.260705,-0.362305,
-0.057505,-0.362305,
0.0000*
%
G04 A5 - rect2225.04x2052.32xr682x23 *
%AMA5gts_lev.gbr*
22,1,2.225035,0.688315,-1.112518,-0.344157,0.0*
1,1,1.364000,-0.430520,0.344160*
1,1,1.364000,0.430520,0.344160*
20,1,1.364000,-0.430520,0.344160,0.430520,0.344160,0.0*
1,1,1.364000,-0.430520,-0.344160*
1,1,1.364000,0.430520,-0.344160*
20,1,1.364000,-0.430520,-0.344160,0.430520,-0.344160,0.0*
21,1,1.026160,1.026160,0.599440,0.513080,0.0*
21,1,1.026160,1.026160,0.599440,-0.513080,0.0*
%
G04 A6 - rect2225.04x2052.32xr682x14 *
%AMA6gts_lev.gbr*
22,1,2.225035,0.688315,-1.112518,-0.344157,0.0*
1,1,1.364000,-0.430520,0.344160*
1,1,1.364000,0.430520,0.344160*
20,1,1.364000,-0.430520,0.344160,0.430520,0.344160,0.0*
1,1,1.364000,-0.430520,-0.344160*
1,1,1.364000,0.430520,-0.344160*
20,1,1.364000,-0.430520,-0.344160,0.430520,-0.344160,0.0*
21,1,1.026160,1.026160,-0.599440,0.513080,0.0*
21,1,1.026160,1.026160,-0.599440,-0.513080,0.0*
%
G04 A7 - i274x.macro49.d49..inc..13.4 180 *
%AMA7gts_lev.gbr*
4,1,6,
0.260705,0.362305,
0.260705,-0.362305,
-0.260705,-0.362305,
-0.260705,-0.044095,
-0.057505,-0.044095,
-0.057505,0.362305,
0.260705,0.362305,
0.0000*
%
G04 A8 - i274x.macro50.d50+1..inc..13.4 180 *
%AMA8gts_lev.gbr*
4,1,6,
0.260705,0.362305,
0.260705,-0.362305,
-0.057505,-0.362305,
-0.057505,0.044095,
-0.260705,0.044095,
-0.260705,0.362305,
0.260705,0.362305,
0.0000*
%
G04 A9 - i274x.macro51.d51+1..inc..13.4 180 *
%AMA9gts_lev.gbr*
4,1,6,
0.260705,0.362305,
0.260705,0.044095,
0.057505,0.044095,
0.057505,-0.362305,
-0.260705,-0.362305,
-0.260705,0.362305,
0.260705,0.362305,
0.0000*
%
G04 A10 - i274x.macro47.d47..inc..13.4 180 *
%AMA10gts_lev.gbr*
4,1,6,
0.057505,0.362305,
0.057505,-0.044095,
0.260705,-0.044095,
0.260705,-0.362305,
-0.260705,-0.362305,
-0.260705,0.362305,
0.057505,0.362305,
0.0000*
%
G04 A11 - rect2225.04x2052.32xr682x23 180 *
%AMA11gts_lev.gbr*
22,1,2.225035,0.688315,-1.112518,-0.344157,0.0*
1,1,1.364000,0.430520,-0.344160*
1,1,1.364000,-0.430520,-0.344160*
20,1,1.364000,0.430520,-0.344160,-0.430520,-0.344160,0.0*
1,1,1.364000,0.430520,0.344160*
1,1,1.364000,-0.430520,0.344160*
20,1,1.364000,0.430520,0.344160,-0.430520,0.344160,0.0*
21,1,1.026160,1.026160,-0.599440,-0.513080,0.0*
21,1,1.026160,1.026160,-0.599440,0.513080,0.0*
%
G04 A12 - rect2225.04x2052.32xr682x14 180 *
%AMA12gts_lev.gbr*
22,1,2.225035,0.688315,-1.112518,-0.344157,0.0*
1,1,1.364000,0.430520,-0.344160*
1,1,1.364000,-0.430520,-0.344160*
20,1,1.364000,0.430520,-0.344160,-0.430520,-0.344160,0.0*
1,1,1.364000,0.430520,0.344160*
1,1,1.364000,-0.430520,0.344160*
20,1,1.364000,0.430520,0.344160,-0.430520,0.344160,0.0*
21,1,1.026160,1.026160,0.599440,-0.513080,0.0*
21,1,1.026160,1.026160,0.599440,0.513080,0.0*
%
%ADD10C,2.015000*%
%ADD11R,1.614000X0.725000*%
%ADD12R,1.905000X1.295400*%
%ADD13R,5.231000X5.231000*%
%ADD14R,0.990600X0.812800*%
%ADD15R,1.004000X0.826000*%
%ADD16R,1.600000X1.600000*%
%ADD17R,0.623000X0.725000*%
%ADD18R,0.609600X0.711200*%
%ADD19C,1.600000*%
%ADD20R,5.703000X5.703000*%
%ADD21A1gts_lev.gbr*%
%ADD22C,0.623000*%
%ADD23C,0.610000*%
%ADD24A2gts_lev.gbr*%
%ADD25R,5.906000X5.906000*%
%ADD26R,1.258000X0.572000*%
%ADD27R,1.817000X2.223000*%
%ADD28R,1.207000X0.572000*%
%ADD29R,1.258000X1.156000*%
%ADD30R,1.244600X1.143000*%
%ADD31A3gts_lev.gbr*%
%ADD32R,3.315000X2.426000*%
%ADD33R,0.762000X1.701545*%
%ADD34R,0.902000X1.106000*%
%ADD35R,1.385000X0.877000*%
%ADD36O,1.092200X0.685800*%
%ADD37R,0.877000X0.877000*%
%ADD38R,0.765000X0.665000*%
%ADD39R,2.286000X1.574800*%
%ADD40R,2.082800X0.685800*%
%ADD41R,0.762000X2.235200*%
%ADD42R,1.106000X0.902000*%
%ADD43R,1.029000X1.131000*%
%ADD44O,0.457200X0.431800*%
%ADD45O,0.496000X0.471000*%
%ADD46C,1.372000*%
%ADD47R,1.193800X2.336800*%
%ADD48R,1.233000X2.376000*%
%ADD49R,1.537000X1.283000*%
%ADD50R,1.422400X2.209800*%
%ADD51R,1.854200X2.159000*%
%ADD52C,3.442000*%
%ADD53O,0.431800X0.457200*%
%ADD54O,0.471000X0.496000*%
%ADD55C,1.118000*%
%ADD56C,1.131000*%
%ADD57C,2.032000*%
%ADD58R,1.976120X1.876297*%
%ADD59R,0.515000X1.465000*%
%ADD60R,2.020000X1.207000*%
%ADD61R,0.928000X1.512000*%
%ADD62O,1.498600X0.965200*%
%ADD63R,0.333000X0.841000*%
%ADD64R,0.623000X2.122000*%
%ADD65R,0.584200X2.082800*%
%ADD66R,0.762000X1.397000*%
%ADD67O,0.584200X0.685800*%
%ADD68O,0.623000X0.725000*%
%ADD69A4gts_lev.gbr*%
%ADD70R,0.701547X1.251712*%
%ADD71O,0.725000X0.623000*%
%ADD72O,0.685800X0.584200*%
%ADD73R,0.333000X0.630000*%
%ADD74R,1.261617X1.601725*%
%ADD75R,1.524000X1.879600*%
%ADD76R,0.979000X1.106000*%
%ADD77R,0.623000X0.775000*%
%ADD78R,1.915000X2.015000*%
%ADD79C,4.293000*%
%ADD80R,1.295400X1.905000*%
%ADD81R,1.385000X1.334000*%
%ADD82R,1.465000X0.515000*%
%ADD83O,0.685800X1.092200*%
%ADD84O,0.725000X1.131000*%
%ADD85C,0.460000*%
%ADD86R,1.447800X1.905000*%
%ADD87C,2.223000*%
%ADD88A5gts_lev.gbr*%
%ADD89A6gts_lev.gbr*%
%ADD90C,1.385000*%
%ADD91R,1.372000X1.372000*%
%ADD92R,1.512000X1.512000*%
%ADD93C,1.512000*%
%ADD94C,1.725000*%
%ADD95R,1.639000X1.639000*%
%ADD96C,1.425000*%
%ADD97C,1.900000*%
%ADD98C,3.550000*%
%ADD99C,0.402000*%
%ADD100C,0.400000*%
%ADD101C,0.502000*%
%ADD102A7gts_lev.gbr*%
%ADD103A8gts_lev.gbr*%
%ADD104A9gts_lev.gbr*%
%ADD105A10gts_lev.gbr*%
%ADD106A11gts_lev.gbr*%
%ADD107A12gts_lev.gbr*%
%ADD108C,3.000000*%
%ADD109C,3.200000*%
%IPPOS*%
%LNgts_lev.gbr*%
%LPD*%
%SRX1Y1I0J0*%
G01*
G75*
G54D10*
X002515770Y000857073D03*
G54D11*
X001312546Y005050512D03*
Y004948912D03*
G54D12*
X000929387Y005179696D03*
Y004819727D03*
G54D13*
X002361160Y007979132D03*
G54D14*
X005417872Y001195427D03*
G54D15*
X005607864Y001260425D03*
G54D16*
X005289754Y009898533D03*
G54D17*
X001003936Y009246693D03*
G54D18*
Y009134730D03*
G54D17*
X008614208Y009566327D03*
G54D19*
X005035754Y009898533D03*
G54D20*
X007613880Y002723872D03*
G54D21*
X005025976Y001388644D03*
G54D22*
X007039840Y003010892D03*
X003257780Y004877791D03*
X002798040Y006526251D03*
X003374620Y003442692D03*
X002150340Y006069051D03*
X001700760Y007196812D03*
X006414060Y002494611D03*
X001967028Y002919045D03*
Y003039340D03*
X002581708Y003007945D03*
X002177848Y003043505D03*
X008454188Y005235525D03*
X001610615Y003620923D03*
X001690168Y004587825D03*
X008555788Y005413325D03*
X008657388Y005235525D03*
X008440675Y003349143D03*
X006940348Y002588845D03*
Y002672665D03*
X007527088Y005878145D03*
X007707428D03*
G54D23*
X007361988D03*
G54D24*
X005025976Y001488618D03*
G54D25*
X008944154Y006423686D03*
Y008843697D03*
G54D26*
X000925019Y002166799D03*
G54D27*
X003350490Y007104228D03*
X003078710Y007113119D03*
Y006513425D03*
X003350490D03*
G54D28*
X000922504Y002100809D03*
G54D29*
X001337540Y009461222D03*
X001002260D03*
G54D30*
Y009606002D03*
G54D29*
X008761960D03*
X009097240D03*
X008761960Y009461222D03*
X009097240D03*
G54D31*
X004856608Y001488618D03*
G54D32*
X003789148Y006168696D03*
G54D33*
X000900025Y001950289D03*
G54D34*
X003408224Y006228259D03*
X003244496D03*
G54D35*
X001522223Y006249391D03*
Y006376391D03*
Y006503391D03*
Y006630391D03*
G54D36*
X008278928Y005393005D03*
Y005240605D03*
G54D37*
X008674254Y003567609D03*
X008574254D03*
X008474254D03*
X008374254D03*
X008274254D03*
X008174254D03*
X008074255D03*
X007974255D03*
X007874255D03*
X007774256D03*
X007674256D03*
X007574256D03*
X007474256D03*
X007374256D03*
X007274257Y003767608D03*
Y003967608D03*
Y004067607D03*
Y004267607D03*
Y004367607D03*
Y004467581D03*
Y004567581D03*
Y004667581D03*
Y004767581D03*
Y004867581D03*
X007374256Y004967581D03*
X007474256D03*
X007574256D03*
X007674256D03*
X007774256D03*
X007874255D03*
X007974255D03*
X008074255D03*
X008174254D03*
X008274254D03*
X008374254D03*
X008474254D03*
X008574254D03*
X008674254D03*
G54D38*
X008332141Y002371040D03*
X008221499D03*
X008332141Y002451863D03*
X008221499Y002451838D03*
G54D39*
X006352820Y009935084D03*
Y009635059D03*
X005882819D03*
Y009935084D03*
G54D40*
X004549167Y006453684D03*
G54D41*
X000900025Y001442289D03*
G54D42*
X007489420Y000900736D03*
Y000737007D03*
X005673320Y000923595D03*
Y000759867D03*
X005551400Y000923595D03*
Y000759867D03*
X007611340Y000900736D03*
Y000737007D03*
X007245580Y000900736D03*
Y000737007D03*
X007367500Y000900736D03*
Y000737007D03*
G54D43*
X006978880Y004733012D03*
Y004570451D03*
X006856960D03*
Y004733012D03*
G54D44*
X002528800Y004341902D03*
X002584680D03*
X002696440Y008515122D03*
G54D45*
Y008459141D03*
G54D44*
X002086840Y008489722D03*
Y008433741D03*
G54D45*
X002000480Y006030901D03*
Y006086882D03*
X002427200Y007318782D03*
Y007262800D03*
G54D44*
X005099280Y004301161D03*
X005645380Y004113302D03*
X005023080Y003061640D03*
X005653000Y004296080D03*
X005642840Y003960902D03*
X005111980Y004504462D03*
X005099280Y004237762D03*
X002630400Y003259760D03*
X002686280D03*
X003092680Y004354501D03*
G54D45*
Y004410482D03*
G54D44*
X002925040Y004329101D03*
G54D45*
Y004385082D03*
G54D44*
Y004273322D03*
X002869160Y004341902D03*
X002302740Y004034562D03*
X002411960Y003457881D03*
X002808200Y004067481D03*
X002874240Y005172482D03*
X002244320Y003757600D03*
Y003813582D03*
Y003922802D03*
Y003866821D03*
X005089120Y003419882D03*
G54D45*
X002693900Y003435020D03*
G54D44*
Y003491002D03*
X002302740Y003704362D03*
X003316200Y003495980D03*
X003090140Y004110660D03*
X002470380Y004341902D03*
X003209520Y004354501D03*
G54D45*
Y004410482D03*
G54D44*
X002698980Y004341902D03*
X002643100D03*
X002754860D03*
G54D45*
X002574520Y003338602D03*
G54D44*
X002246860Y004034562D03*
X005129760Y003262402D03*
X004649700Y003661182D03*
X003250160Y003610281D03*
X002358620Y004034562D03*
X002808200Y003734842D03*
X001515340Y003932962D03*
Y003876981D03*
X001401040Y003932962D03*
Y003876981D03*
X001456920Y003932962D03*
Y003876981D03*
X003034260Y004349421D03*
G54D45*
Y004405402D03*
G54D44*
X003151100Y004354501D03*
G54D45*
Y004410482D03*
G54D44*
X002810740Y004341902D03*
G54D45*
X001664336Y003058390D03*
Y003002408D03*
G54D44*
X002643100Y003714522D03*
X003034260Y003549321D03*
X002866620Y003734842D03*
X002752320Y004057321D03*
X002467840Y003983661D03*
X002698980Y003717062D03*
X002978380Y003549321D03*
X002925040Y003691662D03*
X002859000Y003516402D03*
G54D45*
Y003460420D03*
X003191740Y003610281D03*
G54D44*
X001345160Y003932962D03*
Y003876981D03*
X005020540Y004598442D03*
X005343120Y003178582D03*
X003374620Y004153942D03*
X007519900Y003305582D03*
Y003249600D03*
X003971520Y003597682D03*
G54D45*
Y003541700D03*
G54D44*
X003913100Y003597682D03*
G54D45*
Y003541700D03*
G54D44*
X003260320Y003495980D03*
X008022820Y002165021D03*
Y002221002D03*
X008027900Y003280182D03*
G54D45*
Y003224201D03*
G54D44*
X007575780Y003305582D03*
Y003249600D03*
X007408140Y003305582D03*
Y003249600D03*
X007464020Y003305582D03*
Y003249600D03*
X007352260Y003305582D03*
Y003249600D03*
X008078700Y002165021D03*
Y002221002D03*
X007733260Y002165021D03*
G54D45*
Y002221002D03*
X007852640Y002121841D03*
Y002177822D03*
G54D44*
X003031720Y004113201D03*
X008134580Y002165021D03*
Y002221002D03*
X007969480Y003280182D03*
G54D45*
Y003224201D03*
G54D44*
X002246860Y003704362D03*
X002742160Y003295320D03*
G54D45*
Y003351302D03*
X002952548Y004788942D03*
G54D44*
Y004732961D03*
G54D45*
X002500428Y007475856D03*
Y007419874D03*
X001715568Y004963796D03*
Y004907814D03*
X002185900Y003313202D03*
X007062268Y004117976D03*
Y004061994D03*
X003316200Y004402862D03*
G54D44*
Y004346881D03*
G54D45*
X001753262Y003569767D03*
Y003513786D03*
X002901342Y007666686D03*
Y007722668D03*
G54D44*
X003204440Y004509440D03*
X003148560Y004796562D03*
G54D45*
Y004740580D03*
G54D44*
X002932660Y005063262D03*
G54D45*
Y005007281D03*
X003181580Y007778522D03*
Y007722540D03*
X002155420Y002810282D03*
Y002754300D03*
X002871700Y007443141D03*
Y007499122D03*
X001832408Y003698876D03*
Y003642894D03*
X001906068Y003698876D03*
Y003642894D03*
X001840028Y003317774D03*
Y003373756D03*
X001979728Y003711474D03*
Y003767456D03*
X002259560Y007494042D03*
Y007438060D03*
X002203680Y007405142D03*
Y007349160D03*
G54D44*
X004987520Y003752622D03*
X004931640Y003899841D03*
X004990060D03*
G54D45*
X002587220Y007227240D03*
Y007283222D03*
X007227800Y003226741D03*
Y003282722D03*
X007286220Y003226741D03*
Y003282722D03*
X002874240Y005007281D03*
X002215948Y002680336D03*
Y002624354D03*
X001829462Y003457906D03*
Y003513888D03*
X002615160Y004811802D03*
Y004755820D03*
X002864080Y004788942D03*
Y004732961D03*
X002610080Y007534682D03*
Y007478700D03*
X002757400Y004872762D03*
Y004816780D03*
X005162348Y001374776D03*
Y001318794D03*
X006252008Y002517268D03*
Y002573249D03*
X006788355Y002867788D03*
Y002923770D03*
X006782868Y003538754D03*
Y003594736D03*
X001771448Y004288054D03*
Y004344036D03*
X003071928Y002878354D03*
Y002934336D03*
X003150668Y002868194D03*
Y002924176D03*
X003257348Y002840254D03*
Y002896236D03*
G54D46*
X006810834Y001729995D03*
X008750022D03*
G54D47*
X001800023Y005412512D03*
G54D48*
X002000022D03*
X002200022D03*
X002400022D03*
X002600021D03*
X002800021D03*
X003000020D03*
X003200020D03*
X003400020D03*
X003600020D03*
X003800019D03*
X004000018D03*
X004200018D03*
X004400018D03*
X004600018D03*
X004800017D03*
X005000017D03*
X005200016D03*
G54D47*
X005400016D03*
G54D48*
X005600015D03*
G54D47*
X001800023Y005787518D03*
G54D48*
X002000022D03*
X002200022D03*
X002400022D03*
X002600021D03*
X002800021D03*
X003000020D03*
X003200020D03*
X003400020D03*
X003600020D03*
X003800019D03*
X004000018D03*
X004200018D03*
X004400018D03*
X004600018D03*
X004800017D03*
X005000017D03*
G54D47*
X005200016D03*
X005400016D03*
G54D48*
X005600015D03*
G54D49*
X003182367Y008173441D03*
X002962352D03*
X003182367Y008013422D03*
X002962352D03*
G54D50*
X007949998Y009409990D03*
X008290002D03*
Y009699981D03*
G54D51*
X007278575Y009885732D03*
Y009448852D03*
G54D52*
X005803825Y001529995D03*
X007743013D03*
X009057006D03*
G54D53*
X006798057Y004869765D03*
G54D54*
X006854039D03*
G54D53*
X001156413Y009273693D03*
G54D54*
X001100431D03*
X001822629Y008220431D03*
X001878611D03*
X001825169Y007753072D03*
X001881151D03*
G54D53*
X001825169Y008108672D03*
G54D54*
X001881151D03*
X002843810Y007029172D03*
X002787829D03*
G54D53*
X001591489Y006889472D03*
G54D54*
X001647471D03*
X002978431Y006152872D03*
X002922449D03*
X002978431Y006094452D03*
X002922449D03*
G54D53*
X003819171Y005116551D03*
X003763189D03*
X003819171Y004946372D03*
X003763189D03*
X004731031Y003767812D03*
X002523771Y003658592D03*
X004746169Y003142972D03*
X005259249Y003831311D03*
X005355870Y004529812D03*
X003034311Y003371571D03*
Y003315692D03*
X002917471Y004123411D03*
X008230719Y005586045D03*
X008174737D03*
X005711470Y004212312D03*
X004962171Y003564612D03*
X005223689Y003554451D03*
X002300149Y003490951D03*
X008230719Y005517465D03*
X008174737D03*
G54D54*
X001776477Y003965525D03*
G54D53*
X001832459D03*
X004929151Y003765272D03*
X002310309Y003889732D03*
G54D54*
X002366291D03*
G54D53*
X004794531Y004161511D03*
X002808124Y003325013D03*
G54D54*
X002864105D03*
G54D53*
X002300149Y003435072D03*
X003127351Y005002277D03*
G54D54*
X003183332D03*
G54D53*
X002699031Y004115792D03*
X002244269D03*
X002358569Y004169131D03*
X002808124Y003261513D03*
G54D54*
X002864105D03*
G54D53*
X002310309Y003831311D03*
X002523771Y003714472D03*
X003819171Y005060671D03*
X003763189D03*
X003399969Y003889732D03*
X005495570Y003836392D03*
G54D54*
X005457470Y003148052D03*
G54D53*
X005401489D03*
X003321331Y003836392D03*
X003240051Y003442692D03*
G54D54*
X002490751Y003320771D03*
G54D53*
X002434769D03*
X002358569Y004227552D03*
X003130729Y003882112D03*
X004197631Y003254731D03*
X004141649D03*
X002310309Y003775432D03*
X003819171Y005004792D03*
X003763189D03*
X004916349Y003366492D03*
X002528749Y003828772D03*
X001660069Y004405352D03*
X008230719Y005654625D03*
X008174737D03*
X002764944Y002951633D03*
X002820925D03*
X002541449Y003770351D03*
X003031669Y003998951D03*
X002970810Y004014191D03*
X002638071Y003493491D03*
X002693950Y003998951D03*
X003031669Y003943072D03*
X003018969Y003780512D03*
X003034209Y003724631D03*
X003090089Y004057372D03*
X002691309Y003887192D03*
X002693950Y003943072D03*
X003074849Y003493491D03*
G54D54*
X003130830D03*
G54D53*
X002747291Y003772892D03*
X004197631Y003318232D03*
X004141649D03*
X003311171Y003948152D03*
X005071289Y004047211D03*
X004746169Y003087092D03*
X003222271Y004283432D03*
X003311171Y003892271D03*
X003321331Y004166592D03*
G54D54*
X003323769Y003717012D03*
G54D53*
X003588031Y003945611D03*
X002747291Y003828772D03*
X003585490Y003887192D03*
X007055029Y002358112D03*
X007111011D03*
X003204491Y003381732D03*
G54D54*
X007108369Y003282672D03*
X007164350D03*
X006950559Y003391485D03*
X006894577D03*
X002670964Y007475805D03*
X002726945D03*
X001558139Y004694505D03*
G54D53*
X001502157D03*
G54D54*
X001792225Y003045613D03*
X001736243D03*
X002193799Y003393009D03*
X006998819Y004951045D03*
X006942837D03*
X006998819Y004869765D03*
X006942837D03*
X007067830Y004453611D03*
X007011849D03*
X007576567Y005126051D03*
X007632549D03*
G54D53*
X002071219Y004506545D03*
G54D54*
X003236571Y006347613D03*
X003292553D03*
G54D53*
X003143531Y004677131D03*
G54D54*
X003087549D03*
X002787829Y007110451D03*
X002843810D03*
X001302031Y009202599D03*
X001246049D03*
X002959813Y007600697D03*
X002903831D03*
X002325650Y003595092D03*
X002269669D03*
X002279499Y002748865D03*
X002223517D03*
X002375917Y002743785D03*
X002431899D03*
G54D53*
X005531131Y004070072D03*
G54D54*
X002671065Y007414413D03*
X002615083D03*
X006958611Y002510512D03*
X006902629D03*
G54D53*
X004926611Y003699232D03*
G54D54*
X001619429Y003546831D03*
X001675411D03*
X001832789Y003148052D03*
X001888771D03*
X007014389Y002805152D03*
X007070371D03*
X007014389Y002873732D03*
X007070371D03*
G54D53*
X003313685Y004795673D03*
G54D54*
X003257704D03*
X001156413Y009202573D03*
X001100431D03*
X004329177Y002548205D03*
X004385159D03*
X004194557Y002545665D03*
X004250539D03*
X002507997Y002743785D03*
X002563979D03*
X002424177Y004829125D03*
X002480159D03*
X002396771Y002888972D03*
X002340789D03*
X002151889Y004993463D03*
X002207871D03*
X001878077Y004214445D03*
X002787092Y007414413D03*
X002731111D03*
X002480159Y004763085D03*
X002424177D03*
X006190997Y003368625D03*
X006246979D03*
X006787897Y003457525D03*
X006843879D03*
X006894577Y003315285D03*
X006950559D03*
X006392775Y003368879D03*
X006336793D03*
X001598779Y003432125D03*
X001542797D03*
G54D53*
X001845159Y004458285D03*
G54D54*
X001789177D03*
X001951737Y004681805D03*
X002007719D03*
X002480159Y004895165D03*
X002424177D03*
X002650339Y004940885D03*
X002594357D03*
X002243837Y003151709D03*
X002299819D03*
X003468219Y002921585D03*
X003412237D03*
X003660497Y002914981D03*
X003604515D03*
X003780639Y003048585D03*
X003724657D03*
X003709519Y003142565D03*
X003653537D03*
X003661259Y002847163D03*
X002677771Y004745737D03*
X002733753D03*
G54D55*
X004677208Y009777045D03*
X006020868Y005149165D03*
X001608888Y003835985D03*
G54D56*
X001438708Y003127325D03*
G54D55*
X008065568Y005974665D03*
X006973800Y009746972D03*
G54D57*
X000945948Y005918785D03*
X000951028Y010452685D03*
X009109508Y005281245D03*
G54D58*
X000945389Y008290053D03*
Y008060056D03*
G54D59*
X004896944Y001013486D03*
X004961942D03*
X005026941D03*
G54D60*
X001566165Y002646300D03*
Y002896286D03*
G54D61*
X001791514Y000984301D03*
X001681507D03*
X001571525D03*
X001461517D03*
X001351510D03*
X001241502D03*
X001131521D03*
X001021513D03*
G54D62*
X004445230Y009959316D03*
Y010149307D03*
X004615410Y009959316D03*
Y010149307D03*
X005529810Y009959316D03*
Y010149307D03*
X004785590Y009959316D03*
Y010149307D03*
X006677890Y009692616D03*
Y009882608D03*
G54D63*
X008478293Y002222653D03*
X008528280D03*
X008578267D03*
X008628280D03*
Y002117650D03*
X008578267D03*
X008528280D03*
X008478293D03*
X008428280D03*
G54D64*
X002915007Y001921917D03*
X002994991D03*
X003075001D03*
X003155011D03*
X003234996D03*
X003315006D03*
G54D65*
X003394991D03*
G54D64*
X003475001D03*
X003555010D03*
G54D65*
X003634995D03*
G54D64*
X003715005D03*
X003794990D03*
G54D65*
X003875000D03*
G54D64*
X003955010D03*
X004034995D03*
G54D65*
X004115005D03*
G54D64*
X004194989D03*
X004274999D03*
G54D65*
X004355009D03*
G54D64*
X004434994D03*
X004515004D03*
G54D65*
X004594988D03*
X004834993D03*
G54D64*
X004915003D03*
X004994988D03*
G54D65*
X005074997D03*
G54D64*
X005155008D03*
X005234992D03*
X002915007Y002362557D03*
X002994991D03*
X003075001D03*
X003155011D03*
X003234996D03*
X003315006D03*
X003394991D03*
X003475001D03*
G54D65*
X003555010D03*
G54D64*
X003634995D03*
X003715005D03*
X003794990D03*
X003875000D03*
X003955010D03*
G54D65*
X004034995D03*
G54D64*
X004115005D03*
X004194989D03*
X004274999D03*
X004355009D03*
G54D65*
X004434994D03*
X004674998D03*
X004915003D03*
X005155008D03*
G54D66*
X002290015Y002144294D03*
G54D67*
X002917014Y008360132D03*
G54D68*
X002821306D03*
X006983553Y002744192D03*
G54D67*
X006887846D03*
G54D68*
X001731646Y004095472D03*
G54D67*
X001827354D03*
G54D68*
X002992350Y002941499D03*
G54D67*
X002896643D03*
G54D68*
X003377998Y005001921D03*
X003282291D03*
X004169234Y003541751D03*
X004073526D03*
X001619886Y004473932D03*
G54D67*
X007002146Y002205712D03*
X007097853D03*
G54D68*
X001299821Y002740813D03*
X001395528D03*
X001299821Y002827173D03*
X001395528D03*
G54D67*
X004237814Y003175992D03*
X004142106D03*
X004237814Y003097252D03*
X004142106D03*
X005064126Y003978632D03*
X004628973Y004466312D03*
X008260741Y005730825D03*
X008165034D03*
X006958534Y004201745D03*
G54D68*
X007054242D03*
X003181986Y008332191D03*
G54D67*
X003277693D03*
G54D68*
X002966086Y007869911D03*
X003061793D03*
G54D67*
X007002146Y002286992D03*
X007097853D03*
G54D68*
X002135506Y007265392D03*
X002231214D03*
X008221346Y002231111D03*
X008317053D03*
X002597355Y005062805D03*
X002693061D03*
G54D69*
X004856608Y001388644D03*
G54D70*
X002292504Y001551814D03*
G54D71*
X007895820Y003288158D03*
G54D72*
Y003383865D03*
G54D71*
X001585596Y003111272D03*
Y003015565D03*
G54D72*
X001980160Y008519745D03*
Y008424038D03*
X008096480Y003333065D03*
G54D71*
Y003237358D03*
G54D72*
X001197840Y003975685D03*
Y003879978D03*
X001035280Y003975685D03*
Y003879978D03*
X005096740Y003521838D03*
X004779240Y004567505D03*
G54D71*
X005520920Y002858898D03*
G54D72*
Y002954605D03*
X005668240Y003354198D03*
G54D71*
X005602200Y002858898D03*
G54D72*
Y002954605D03*
X004522700Y005078045D03*
X001114020Y003975685D03*
Y003879978D03*
X004443960Y005078045D03*
X001276580Y003975685D03*
Y003879978D03*
G54D71*
X002284960Y006081345D03*
Y005985638D03*
G54D72*
X004200120Y005078045D03*
X004283940D03*
X004365220D03*
G54D71*
X002861540Y006587618D03*
Y006683325D03*
Y006858585D03*
Y006762878D03*
X008449540Y002451685D03*
Y002355978D03*
X002444548Y004976852D03*
G54D72*
Y005072558D03*
G54D73*
X004916298Y001388644D03*
X004966285D03*
Y001488618D03*
X004916298D03*
G54D74*
X002264513Y000754304D03*
G54D75*
X006973850Y009490432D03*
X006679109D03*
G54D76*
X005505756Y009337117D03*
X005340656D03*
G54D77*
X001573328Y004815307D03*
X001523341Y004929303D03*
X001623315D03*
G54D78*
X004846956Y000745999D03*
X005076953D03*
G54D79*
X001199999Y002450009D03*
X008899984D03*
Y010200006D03*
X001199999D03*
Y005600015D03*
X008899984D03*
G54D80*
X005004640Y009594165D03*
X005294657D03*
G54D81*
X003333980Y007791374D03*
Y007496328D03*
G54D82*
X001212877Y008240066D03*
Y008175067D03*
Y008110068D03*
G54D83*
X005576800Y005126711D03*
X005424400D03*
G54D84*
X005778806Y009337117D03*
X005626406D03*
G54D85*
X006330037Y002941702D03*
X006230037D03*
X006130037D03*
X006430037D03*
X006130037Y002841702D03*
X006230037D03*
X006330037D03*
X006530037D03*
X006430037D03*
X006130037Y002741702D03*
X006230037D03*
X006330037D03*
X006530037D03*
X006430037D03*
X006130037Y003041702D03*
X006230037D03*
X006330037D03*
X006430037D03*
X006130037Y003141701D03*
X006230037D03*
X006330037D03*
X006430037D03*
G54D10*
X004025774Y001347065D03*
X002575790D03*
X004085795Y000857073D03*
G54D15*
X005417872Y001325424D03*
G54D30*
X001337540Y009606002D03*
G54D32*
X003789148Y009098687D03*
G54D35*
X001112217Y006630391D03*
Y006503391D03*
Y006249391D03*
G54D37*
X008174635Y004067582D03*
X008024649D03*
X007874662D03*
Y004468902D03*
X008024649D03*
X008174635D03*
G54D40*
X004549167Y008773694D03*
G54D45*
X005099280Y004357142D03*
X005645380Y004057321D03*
X005023080Y003117622D03*
X005653000Y004352062D03*
X005642840Y003904921D03*
X004545560Y003295320D03*
G54D44*
Y003351302D03*
G54D45*
X005111980Y004448480D03*
X005099280Y004181781D03*
X002925040Y004217341D03*
X002869160Y004285921D03*
X004527780Y004219881D03*
G54D44*
Y004275862D03*
G54D45*
X005089120Y003363900D03*
X003090140Y004166642D03*
X002470380Y004285921D03*
X005129760Y003206421D03*
X004649700Y003605201D03*
X003250160Y003666262D03*
X002808200Y003678860D03*
X002866620D03*
X002467840Y004039642D03*
X002925040Y003635680D03*
X005020540Y004542461D03*
X005343120Y003122600D03*
X003374620Y004097961D03*
X003031720Y004169182D03*
G54D44*
X006635548Y005852694D03*
Y005908676D03*
G54D45*
X005652136Y002348460D03*
Y002404441D03*
X004987520Y003696640D03*
X004931640Y003955822D03*
X004990060D03*
X004624300Y003422321D03*
Y003478302D03*
G54D86*
X000935026Y000779298D03*
G54D52*
X007117818Y001529995D03*
G54D54*
X005315231Y003831311D03*
X005299889Y004529812D03*
X005655489Y004212312D03*
X005279671Y003554451D03*
G54D53*
X004146831Y004176751D03*
G54D54*
X004090849D03*
X004873169Y003765272D03*
X004738549Y004161511D03*
G54D53*
X004146831Y004291052D03*
G54D54*
X002643049Y004115792D03*
X002300251D03*
X002414550Y004169131D03*
G54D53*
X004146831Y004235172D03*
G54D54*
X003455951Y003889732D03*
X005439589Y003836392D03*
X002414550Y004227552D03*
X003186710Y003882112D03*
X003085009Y003666212D03*
X002584731Y003828772D03*
X002597430Y003770351D03*
X002914829Y004014191D03*
X002582089Y003493491D03*
X003074951Y003780512D03*
X003090191Y003724631D03*
X002747291Y003887192D03*
G54D53*
X004642131Y004400271D03*
G54D54*
X004586149D03*
X005127270Y004047211D03*
X003265349Y004166592D03*
X003532049Y003945611D03*
X003529509Y003887192D03*
G54D53*
X006996177Y005895925D03*
X007052159D03*
G54D54*
X006869279Y005903545D03*
G54D53*
X006813297D03*
X006955639Y005819725D03*
X006899657D03*
X002020317Y004791025D03*
G54D54*
X002076299D03*
X002015237Y004506545D03*
X005475149Y004070072D03*
X001291769Y007069811D03*
X001347751D03*
X001291769Y006942812D03*
X001347751D03*
G54D53*
X001350291Y007323811D03*
G54D54*
X001294309D03*
X004870629Y003699232D03*
X001294309Y007450811D03*
X001350291D03*
X004441369Y004067531D03*
X004497351D03*
X005454397Y001456005D03*
X005510379D03*
G54D56*
X005947208Y005446345D03*
G54D87*
X001768882Y009435999D03*
X003339238D03*
G54D63*
X006401360Y002222653D03*
X006451372D03*
X006501360D03*
X006551347D03*
X006601359D03*
X006551347Y002117650D03*
X006501360D03*
X006451372D03*
X006401360D03*
G54D64*
X004674998Y001921917D03*
X004755008D03*
X004515004Y002362557D03*
X004594988D03*
X004755008D03*
X004834993D03*
X004994988D03*
X005074997D03*
X005234992D03*
G54D68*
X004021914Y004235172D03*
X003926206D03*
X005159834Y003978632D03*
X004533266Y004466312D03*
G54D67*
X007239662Y005885765D03*
X007143955D03*
G54D71*
X005096740Y003617545D03*
X004779240Y004471798D03*
G54D72*
X004522700Y004982338D03*
X004443960D03*
X004200120D03*
X004283940D03*
X004365220D03*
X006724448Y005802351D03*
Y005898059D03*
X006831128Y005639792D03*
Y005735499D03*
X006549188Y005802351D03*
Y005898059D03*
G54D85*
X006530037Y002941702D03*
Y003041702D03*
G54D88*
X004598189Y000745999D03*
G54D89*
X005325696D03*
G54D90*
X006060822Y001880007D03*
X006260822D03*
X006460822D03*
X006560821Y001729995D03*
X006360822D03*
G54D91*
X006110810D03*
G54D90*
X008000011Y001880007D03*
X008200010D03*
X008600010D03*
X008800009D03*
X008500010Y001729995D03*
X008300010D03*
G54D91*
X008049998D03*
G54D90*
X006660821Y001880007D03*
X006860821D03*
G54D92*
X003125242Y008852002D03*
G54D93*
X002871243D03*
X002617242D03*
X002363243D03*
X002109243D03*
X002998243Y009106003D03*
X002744243D03*
X002490243D03*
X002236243D03*
X001982243D03*
G54D94*
X002963750Y010146996D03*
X002142745D03*
X003218232D03*
X001887246D03*
G54D95*
X005225848Y010412045D03*
G54D53*
X003034311Y003259811D03*
X003379751Y003717012D03*
G54D44*
X002574520Y003282621D03*
G54D96*
X004139160Y006383681D03*
G54D97*
Y008883702D03*
G54D98*
X003125242Y009741002D03*
X001982243D03*
G54D99*
X001311708Y006073725D03*
X001230860Y006201131D03*
X001227888Y006134685D03*
X001225348Y006055945D03*
X003219680Y006130011D03*
X003346680Y006132552D03*
X003219680Y006018252D03*
X003275560Y006079211D03*
X003344140Y006018252D03*
X005421860Y001834871D03*
X005513300D03*
X004865422Y007501713D03*
X004997502D03*
X005009440Y007369379D03*
X004877360D03*
X005073448Y007435165D03*
Y007572325D03*
Y007303085D03*
X004809288Y007435165D03*
Y007572325D03*
Y007303085D03*
X004941368D03*
Y007572325D03*
Y007435165D03*
G54D100*
X005515586Y008937956D03*
X005769586D03*
X005642586D03*
X005515586Y009029396D03*
X005769586D03*
X005642586D03*
G54D99*
X005700828Y009245677D03*
X005548428Y009248217D03*
X005700828Y009169985D03*
X005548428Y009172525D03*
X005785664Y009124722D03*
X005464100Y009125992D03*
X005624628Y009125230D03*
X005464100Y009212352D03*
X005785664Y009211082D03*
X005624628Y009211590D03*
X006995720Y006105475D03*
X006663996Y006108777D03*
X006883960Y006106237D03*
X006768898Y006109539D03*
X007041948Y006225871D03*
X006604306Y006224347D03*
X006824270Y006221807D03*
X006700572Y006349061D03*
X006934252D03*
X006595924Y006395543D03*
X007037884Y006390463D03*
X006824524Y006395543D03*
X006939332Y006218505D03*
X006719368Y006221045D03*
X006936284Y006453963D03*
X006702604D03*
X006596940Y006493587D03*
X007040424Y006489523D03*
X007058458Y006063819D03*
X006602274Y006068391D03*
X006825794Y006063311D03*
X006596686Y006299023D03*
X007043726D03*
X006827064Y006494603D03*
X006826353Y006301970D03*
X006640120Y004423995D03*
X006591098Y004370909D03*
X006684570Y004369893D03*
X006640882Y004528389D03*
X006591860Y004475303D03*
X006685332Y004474287D03*
X006685078Y004304361D03*
X006591860Y004302583D03*
G54D101*
X006315940Y001098272D03*
Y001001752D03*
X008005040Y001217651D03*
Y001126212D03*
G54D10*
X007584238Y020492937D03*
G54D11*
X008787461Y016299498D03*
G54D11*
Y016401098D03*
G54D12*
X009170620Y016170314D03*
G54D12*
Y016530283D03*
G54D13*
X007738847Y013370879D03*
G54D14*
X004682135Y020154584D03*
G54D15*
X004492143Y020089585D03*
G54D16*
X004810253Y011451477D03*
G54D17*
X009096071Y012103317D03*
G54D18*
Y012215280D03*
G54D17*
X001485799Y011783684D03*
G54D19*
X005064253Y011451477D03*
G54D20*
X002486127Y018626139D03*
G54D102*
X005074032Y019961366D03*
G54D22*
X003060167Y018339118D03*
G54D22*
X006842227Y016472219D03*
G54D22*
X007301967Y014823759D03*
G54D22*
X006725387Y017907319D03*
G54D22*
X007949667Y015280959D03*
G54D22*
X008399247Y014153199D03*
G54D22*
X003685947Y018855399D03*
G54D22*
X008132979Y018430965D03*
G54D22*
Y018310670D03*
G54D22*
X007518299Y018342065D03*
G54D22*
X007922159Y018306505D03*
G54D22*
X001645819Y016114485D03*
G54D22*
X008489392Y017729087D03*
G54D22*
X008409839Y016762185D03*
G54D22*
X001544219Y015936685D03*
G54D22*
X001442619Y016114485D03*
G54D22*
X001659332Y018000867D03*
G54D22*
X003159659Y018761165D03*
G54D22*
Y018677345D03*
G54D22*
X002572919Y015471865D03*
G54D22*
X002392579D03*
G54D23*
X002738019D03*
G54D103*
X005074032Y019861392D03*
G54D25*
X001155853Y014926324D03*
G54D25*
Y012506314D03*
G54D26*
X009174989Y019183212D03*
G54D27*
X006749517Y014245782D03*
G54D27*
X007021297Y014236892D03*
G54D27*
Y014836585D03*
G54D27*
X006749517D03*
G54D28*
X009177503Y019249201D03*
G54D29*
X008762467Y011888789D03*
G54D29*
X009097747D03*
G54D30*
Y011744008D03*
G54D29*
X001338047D03*
G54D29*
X001002767D03*
G54D29*
X001338047Y011888789D03*
G54D29*
X001002767D03*
G54D104*
X005243399Y019861392D03*
G54D32*
X006310859Y015181315D03*
G54D33*
X009199982Y019399721D03*
G54D34*
X006691783Y015121752D03*
G54D34*
X006855512D03*
G54D35*
X008577784Y015100618D03*
G54D35*
Y014973619D03*
G54D35*
Y014846618D03*
G54D35*
Y014719618D03*
G54D36*
X001821079Y015957005D03*
G54D36*
Y016109405D03*
G54D37*
X001425754Y017782401D03*
G54D37*
X001525753D03*
G54D37*
X001625753D03*
G54D37*
X001725753D03*
G54D37*
X001825752D03*
G54D37*
X001925752D03*
G54D37*
X002025752D03*
G54D37*
X002125752D03*
G54D37*
X002225752D03*
G54D37*
X002325752D03*
G54D37*
X002425752D03*
G54D37*
X002525751D03*
G54D37*
X002625751D03*
G54D37*
X002725751D03*
G54D37*
X002825751Y017582402D03*
G54D37*
Y017382402D03*
G54D37*
Y017282403D03*
G54D37*
Y017082403D03*
G54D37*
Y016982403D03*
G54D37*
Y016882429D03*
G54D37*
Y016782429D03*
G54D37*
Y016682429D03*
G54D37*
Y016582429D03*
G54D37*
Y016482429D03*
G54D37*
X002725751Y016382429D03*
G54D37*
X002625751D03*
G54D37*
X002525751D03*
G54D37*
X002425752D03*
G54D37*
X002325752D03*
G54D37*
X002225752D03*
G54D37*
X002125752D03*
G54D37*
X002025752D03*
G54D37*
X001925752D03*
G54D37*
X001825752D03*
G54D37*
X001725753D03*
G54D37*
X001625753D03*
G54D37*
X001525753D03*
G54D37*
X001425754D03*
G54D38*
X001767866Y018978970D03*
G54D38*
X001878508D03*
G54D38*
X001767866Y018898147D03*
G54D38*
X001878508Y018898173D03*
G54D39*
X003747186Y011414926D03*
G54D39*
Y011714951D03*
G54D39*
X004217188D03*
G54D39*
Y011414926D03*
G54D40*
X005550841Y014896327D03*
G54D41*
X009199982Y019907721D03*
G54D42*
X002610587Y020449275D03*
G54D42*
Y020613003D03*
G54D42*
X004426687Y020426415D03*
G54D42*
Y020590143D03*
G54D42*
X004548607Y020426415D03*
G54D42*
Y020590143D03*
G54D42*
X002488667Y020449275D03*
G54D42*
Y020613003D03*
G54D42*
X002854427Y020449275D03*
G54D42*
Y020613003D03*
G54D42*
X002732507Y020449275D03*
G54D42*
Y020613003D03*
G54D43*
X003121127Y016616998D03*
G54D43*
Y016779559D03*
G54D43*
X003243047D03*
G54D43*
Y016616998D03*
G54D44*
X007571207Y017008108D03*
G54D44*
X007515327D03*
G54D44*
X007403567Y012834888D03*
G54D45*
Y012890870D03*
G54D44*
X008013167Y012860288D03*
G54D44*
Y012916269D03*
G54D45*
X008099527Y015319109D03*
G54D45*
Y015263128D03*
G54D45*
X007672807Y014031228D03*
G54D45*
Y014087210D03*
G54D44*
X005000727Y017048849D03*
G54D44*
X004454627Y017236708D03*
G54D44*
X005076927Y018288370D03*
G54D44*
X004447007Y017053930D03*
G54D44*
X004457167Y017389108D03*
G54D44*
X004988027Y016845548D03*
G54D44*
X005000727Y017112248D03*
G54D44*
X007469607Y018090250D03*
G54D44*
X007413727D03*
G54D44*
X007007327Y016995510D03*
G54D45*
Y016939528D03*
G54D44*
X007174967Y017020910D03*
G54D45*
Y016964928D03*
G54D44*
Y017076688D03*
G54D44*
X007230847Y017008108D03*
G54D44*
X007797267Y017315448D03*
G54D44*
X007688047Y017892130D03*
G54D44*
X007291807Y017282530D03*
G54D44*
X007225767Y016177528D03*
G54D44*
X007855687Y017592410D03*
G54D44*
Y017536428D03*
G54D44*
Y017427208D03*
G54D44*
Y017483190D03*
G54D44*
X005010887Y017930128D03*
G54D45*
X007406107Y017914990D03*
G54D44*
Y017859008D03*
G54D44*
X007797267Y017645648D03*
G54D44*
X006783807Y017854030D03*
G54D44*
X007009867Y017239350D03*
G54D44*
X007629627Y017008108D03*
G54D44*
X006890487Y016995510D03*
G54D45*
Y016939528D03*
G54D44*
X007401027Y017008108D03*
G54D44*
X007456907D03*
G54D44*
X007345147D03*
G54D45*
X007525487Y018011408D03*
G54D44*
X007853147Y017315448D03*
G54D44*
X004970247Y018087608D03*
G54D44*
X005450307Y017688828D03*
G54D44*
X006849847Y017739730D03*
G54D44*
X007741387Y017315448D03*
G54D44*
X007291807Y017615168D03*
G54D44*
X008584667Y017417048D03*
G54D44*
Y017473030D03*
G54D44*
X008698967Y017417048D03*
G54D44*
Y017473030D03*
G54D44*
X008643087Y017417048D03*
G54D44*
Y017473030D03*
G54D44*
X007065747Y017000589D03*
G54D45*
Y016944608D03*
G54D44*
X006948907Y016995510D03*
G54D45*
Y016939528D03*
G54D44*
X007289267Y017008108D03*
G54D45*
X008435671Y018291621D03*
G54D45*
Y018347602D03*
G54D44*
X007456907Y017635488D03*
G54D44*
X007065747Y017800690D03*
G54D44*
X007233387Y017615168D03*
G54D44*
X007347687Y017292689D03*
G54D44*
X007632167Y017366350D03*
G54D44*
X007401027Y017632948D03*
G54D44*
X007121627Y017800690D03*
G54D44*
X007174967Y017658348D03*
G54D44*
X007241007Y017833608D03*
G54D45*
Y017889590D03*
G54D45*
X006908267Y017739730D03*
G54D44*
X008754847Y017417048D03*
G54D44*
Y017473030D03*
G54D44*
X005079467Y016751568D03*
G54D44*
X004756887Y018171428D03*
G54D44*
X006725387Y017196068D03*
G54D44*
X002580107Y018044428D03*
G54D44*
Y018100410D03*
G54D44*
X006128487Y017752328D03*
G54D45*
Y017808310D03*
G54D44*
X006186907Y017752328D03*
G54D45*
Y017808310D03*
G54D44*
X006839687Y017854030D03*
G54D44*
X002077187Y019184989D03*
G54D44*
Y019129008D03*
G54D44*
X002072107Y018069828D03*
G54D45*
Y018125810D03*
G54D44*
X002524227Y018044428D03*
G54D44*
Y018100410D03*
G54D44*
X002691867Y018044428D03*
G54D44*
Y018100410D03*
G54D44*
X002635987Y018044428D03*
G54D44*
Y018100410D03*
G54D44*
X002747747Y018044428D03*
G54D44*
Y018100410D03*
G54D44*
X002021307Y019184989D03*
G54D44*
Y019129008D03*
G54D44*
X002366747Y019184989D03*
G54D45*
Y019129008D03*
G54D45*
X002247367Y019228170D03*
G54D45*
Y019172188D03*
G54D44*
X007068287Y017236810D03*
G54D44*
X001965427Y019184989D03*
G54D44*
Y019129008D03*
G54D44*
X002130527Y018069828D03*
G54D45*
Y018125810D03*
G54D44*
X007853147Y017645648D03*
G54D44*
X007357847Y018054689D03*
G54D45*
Y017998708D03*
G54D45*
X007147459Y016561068D03*
G54D44*
Y016617049D03*
G54D45*
X007599579Y013874154D03*
G54D45*
Y013930136D03*
G54D45*
X008384439Y016386214D03*
G54D45*
Y016442196D03*
G54D45*
X007914107Y018036808D03*
G54D45*
X003037739Y017232034D03*
G54D45*
Y017288016D03*
G54D45*
X006783807Y016947148D03*
G54D44*
Y017003130D03*
G54D45*
X008346746Y017780243D03*
G54D45*
Y017836224D03*
G54D45*
X007198666Y013683324D03*
G54D45*
Y013627343D03*
G54D44*
X006895567Y016840569D03*
G54D44*
X006951447Y016553448D03*
G54D45*
Y016609429D03*
G54D44*
X007167347Y016286748D03*
G54D45*
Y016342729D03*
G54D45*
X006918427Y013571488D03*
G54D45*
Y013627470D03*
G54D45*
X007944587Y018539728D03*
G54D45*
Y018595709D03*
G54D45*
X007228307Y013906870D03*
G54D45*
Y013850888D03*
G54D45*
X008267599Y017651134D03*
G54D45*
Y017707116D03*
G54D45*
X008193939Y017651134D03*
G54D45*
Y017707116D03*
G54D45*
X008259979Y018032236D03*
G54D45*
Y017976254D03*
G54D45*
X008120279Y017638536D03*
G54D45*
Y017582554D03*
G54D45*
X007840447Y013855968D03*
G54D45*
Y013911950D03*
G54D45*
X007896327Y013944868D03*
G54D45*
Y014000849D03*
G54D44*
X005112487Y017597388D03*
G54D44*
X005168367Y017450170D03*
G54D44*
X005109947D03*
G54D45*
X007512787Y014122769D03*
G54D45*
Y014066788D03*
G54D45*
X002872207Y018123269D03*
G54D45*
Y018067288D03*
G54D45*
X002813787Y018123269D03*
G54D45*
Y018067288D03*
G54D45*
X007225767Y016342729D03*
G54D45*
X007884059Y018669674D03*
G54D45*
Y018725656D03*
G54D45*
X008270546Y017892104D03*
G54D45*
Y017836123D03*
G54D45*
X007484847Y016538208D03*
G54D45*
Y016594189D03*
G54D45*
X007235927Y016561068D03*
G54D45*
Y016617049D03*
G54D45*
X007489927Y013815328D03*
G54D45*
Y013871310D03*
G54D45*
X007342607Y016477248D03*
G54D45*
Y016533229D03*
G54D45*
X004937659Y019975234D03*
G54D45*
Y020031216D03*
G54D45*
X003847999Y018832742D03*
G54D45*
Y018776761D03*
G54D45*
X003311652Y018482222D03*
G54D45*
Y018426240D03*
G54D45*
X003317139Y017811256D03*
G54D45*
Y017755274D03*
G54D45*
X008328559Y017061956D03*
G54D45*
Y017005974D03*
G54D45*
X007028079Y018471656D03*
G54D45*
Y018415674D03*
G54D45*
X006949339Y018481816D03*
G54D45*
Y018425834D03*
G54D45*
X006842659Y018509756D03*
G54D45*
Y018453774D03*
G54D46*
X003289174Y019620015D03*
G54D46*
X001349985D03*
G54D47*
X008299984Y015937498D03*
G54D48*
X008099984D03*
G54D48*
X007899985D03*
G54D48*
X007699985D03*
G54D48*
X007499986D03*
G54D48*
X007299986D03*
G54D48*
X007099987D03*
G54D48*
X006899987D03*
G54D48*
X006699987D03*
G54D48*
X006499988D03*
G54D48*
X006299988D03*
G54D48*
X006099989D03*
G54D48*
X005899989D03*
G54D48*
X005699989D03*
G54D48*
X005499990D03*
G54D48*
X005299990D03*
G54D48*
X005099991D03*
G54D48*
X004899991D03*
G54D47*
X004699991D03*
G54D48*
X004499991D03*
G54D47*
X008299984Y015562492D03*
G54D48*
X008099984D03*
G54D48*
X007899985D03*
G54D48*
X007699985D03*
G54D48*
X007499986D03*
G54D48*
X007299986D03*
G54D48*
X007099987D03*
G54D48*
X006899987D03*
G54D48*
X006699987D03*
G54D48*
X006499988D03*
G54D48*
X006299988D03*
G54D48*
X006099989D03*
G54D48*
X005899989D03*
G54D48*
X005699989D03*
G54D48*
X005499990D03*
G54D48*
X005299990D03*
G54D48*
X005099991D03*
G54D47*
X004899991D03*
G54D47*
X004699991D03*
G54D48*
X004499991D03*
G54D49*
X006917640Y013176568D03*
G54D49*
X007137654D03*
G54D49*
X006917640Y013336589D03*
G54D49*
X007137654D03*
G54D50*
X002150009Y011940021D03*
G54D50*
X001810004D03*
G54D50*
Y011650029D03*
G54D51*
X002821433Y011464278D03*
G54D51*
Y011901158D03*
G54D52*
X004296182Y019820015D03*
G54D52*
X002356993D03*
G54D52*
X001043001D03*
G54D53*
X003301950Y016480245D03*
G54D54*
X003245968D03*
G54D53*
X008943595Y012076317D03*
G54D54*
X008999576D03*
G54D54*
X008277378Y013129579D03*
G54D54*
X008221397D03*
G54D54*
X008274838Y013596938D03*
G54D54*
X008218857D03*
G54D53*
X008274838Y013241338D03*
G54D54*
X008218857D03*
G54D54*
X007256197Y014320839D03*
G54D54*
X007312178D03*
G54D53*
X008508518Y014460539D03*
G54D54*
X008452537D03*
G54D54*
X007121577Y015197139D03*
G54D54*
X007177558D03*
G54D54*
X007121577Y015255558D03*
G54D54*
X007177558D03*
G54D53*
X006280836Y016233458D03*
G54D53*
X006336818D03*
G54D53*
X006280836Y016403639D03*
G54D53*
X006336818D03*
G54D53*
X005368976Y017582199D03*
G54D53*
X007576237Y017691418D03*
G54D53*
X005353838Y018207039D03*
G54D53*
X004840758Y017518699D03*
G54D53*
X004744137Y016820198D03*
G54D53*
X007065697Y017978439D03*
G54D53*
Y018034319D03*
G54D53*
X007182537Y017226599D03*
G54D53*
X001869288Y015763965D03*
G54D53*
X001925270D03*
G54D53*
X004388536Y017137699D03*
G54D53*
X005137836Y017785398D03*
G54D53*
X004876318Y017795559D03*
G54D53*
X007799858Y017859059D03*
G54D53*
X001869288Y015832545D03*
G54D53*
X001925270D03*
G54D54*
X008323530Y017384485D03*
G54D53*
X008267548D03*
G54D53*
X005170856Y017584738D03*
G54D53*
X007789698Y017460279D03*
G54D54*
X007733716D03*
G54D53*
X005305477Y017188499D03*
G54D53*
X007291883Y018024997D03*
G54D54*
X007235902D03*
G54D53*
X007799858Y017914939D03*
G54D53*
X006972656Y016347733D03*
G54D54*
X006916675D03*
G54D53*
X007400977Y017234219D03*
G54D53*
X007855738D03*
G54D53*
X007741438Y017180879D03*
G54D53*
X007291883Y018088497D03*
G54D54*
X007235902D03*
G54D53*
X007789698Y017518699D03*
G54D53*
X007576237Y017635539D03*
G54D53*
X006280836Y016289339D03*
G54D53*
X006336818D03*
G54D53*
X006700038Y017460279D03*
G54D53*
X004604437Y017513619D03*
G54D54*
X004642537Y018201959D03*
G54D53*
X004698518D03*
G54D53*
X006778676Y017513619D03*
G54D53*
X006859957Y017907319D03*
G54D54*
X007609256Y018029239D03*
G54D53*
X007665238D03*
G54D53*
X007741438Y017122459D03*
G54D53*
X006969278Y017467899D03*
G54D53*
X005902377Y018095279D03*
G54D53*
X005958358D03*
G54D53*
X007789698Y017574579D03*
G54D53*
X006280836Y016345218D03*
G54D53*
X006336818D03*
G54D53*
X005183658Y017983519D03*
G54D53*
X007571258Y017521239D03*
G54D53*
X008439938Y016944659D03*
G54D53*
X001869288Y015695385D03*
G54D53*
X001925270D03*
G54D53*
X007335064Y018398377D03*
G54D53*
X007279082D03*
G54D53*
X007558558Y017579659D03*
G54D53*
X007068338Y017351059D03*
G54D53*
X007129196Y017335819D03*
G54D53*
X007461937Y017856519D03*
G54D53*
X007406057Y017351059D03*
G54D53*
X007068338Y017406939D03*
G54D53*
X007081038Y017569498D03*
G54D53*
X007065798Y017625379D03*
G54D53*
X007009918Y017292639D03*
G54D53*
X007408698Y017462818D03*
G54D53*
X007406057Y017406939D03*
G54D53*
X007025158Y017856519D03*
G54D54*
X006969177D03*
G54D53*
X007352717Y017577118D03*
G54D53*
X005902377Y018031779D03*
G54D53*
X005958358D03*
G54D53*
X006788836Y017401858D03*
G54D53*
X005028718Y017302799D03*
G54D53*
X005353838Y018262919D03*
G54D53*
X006877737Y017066579D03*
G54D53*
X006788836Y017457739D03*
G54D53*
X006778676Y017183419D03*
G54D54*
X006776238Y017632999D03*
G54D53*
X006511977Y017404399D03*
G54D53*
X007352717Y017521239D03*
G54D53*
X006514516Y017462818D03*
G54D53*
X003044978Y018991899D03*
G54D53*
X002988996D03*
G54D53*
X006895517Y017968279D03*
G54D54*
X002991638Y018067339D03*
G54D54*
X002935657D03*
G54D54*
X003149448Y017958525D03*
G54D54*
X003205430D03*
G54D54*
X007429044Y013874205D03*
G54D54*
X007373062D03*
G54D54*
X008541868Y016655505D03*
G54D53*
X008597850D03*
G54D54*
X008307782Y018304397D03*
G54D54*
X008363763D03*
G54D54*
X007906208Y017957001D03*
G54D54*
X003101188Y016398965D03*
G54D54*
X003157170D03*
G54D54*
X003101188Y016480245D03*
G54D54*
X003157170D03*
G54D54*
X003032177Y016896398D03*
G54D54*
X003088158D03*
G54D54*
X002523440Y016223959D03*
G54D54*
X002467458D03*
G54D53*
X008028788Y016843465D03*
G54D54*
X006863436Y015002397D03*
G54D54*
X006807455D03*
G54D53*
X006956476Y016672878D03*
G54D54*
X007012458D03*
G54D54*
X007312178Y014239558D03*
G54D54*
X007256197D03*
G54D54*
X008797976Y012147412D03*
G54D54*
X008853958D03*
G54D54*
X007140195Y013749313D03*
G54D54*
X007196176D03*
G54D54*
X007774356Y017754919D03*
G54D54*
X007830338D03*
G54D54*
X007820508Y018601145D03*
G54D54*
X007876490D03*
G54D54*
X007724090Y018606225D03*
G54D54*
X007668108D03*
G54D53*
X004568877Y017279938D03*
G54D54*
X007428942Y013935597D03*
G54D54*
X007484923D03*
G54D54*
X003141396Y018839499D03*
G54D54*
X003197378D03*
G54D53*
X005173396Y017650779D03*
G54D54*
X008480578Y017803179D03*
G54D54*
X008424597D03*
G54D54*
X008267218Y018201959D03*
G54D54*
X008211237D03*
G54D54*
X003085618Y018544858D03*
G54D54*
X003029637D03*
G54D54*
X003085618Y018476278D03*
G54D54*
X003029637D03*
G54D53*
X006786322Y016554337D03*
G54D54*
X006842304D03*
G54D54*
X008943595Y012147437D03*
G54D54*
X008999576D03*
G54D54*
X005770830Y018801805D03*
G54D54*
X005714848D03*
G54D54*
X005905450Y018804345D03*
G54D54*
X005849468D03*
G54D54*
X007592010Y018606225D03*
G54D54*
X007536028D03*
G54D54*
X007675830Y016520885D03*
G54D54*
X007619848D03*
G54D54*
X007703236Y018461038D03*
G54D54*
X007759218D03*
G54D54*
X007948118Y016356547D03*
G54D54*
X007892136D03*
G54D54*
X008221930Y017135565D03*
G54D54*
X007312914Y013935597D03*
G54D54*
X007368896D03*
G54D54*
X007619848Y016586925D03*
G54D54*
X007675830D03*
G54D54*
X003909010Y017981385D03*
G54D54*
X003853028D03*
G54D54*
X003312110Y017892485D03*
G54D54*
X003256128D03*
G54D54*
X003205430Y018034725D03*
G54D54*
X003149448D03*
G54D54*
X003707232Y017981131D03*
G54D54*
X003763214D03*
G54D54*
X008501228Y017917885D03*
G54D54*
X008557210D03*
G54D53*
X008254848Y016891725D03*
G54D54*
X008310830D03*
G54D54*
X008148270Y016668205D03*
G54D54*
X008092288D03*
G54D54*
X007619848Y016454845D03*
G54D54*
X007675830D03*
G54D54*
X007449668Y016409125D03*
G54D54*
X007505650D03*
G54D54*
X007856170Y018198301D03*
G54D54*
X007800188D03*
G54D54*
X006631788Y018428425D03*
G54D54*
X006687770D03*
G54D54*
X006439510Y018435029D03*
G54D54*
X006495492D03*
G54D54*
X006319368Y018301425D03*
G54D54*
X006375350D03*
G54D54*
X006390488Y018207445D03*
G54D54*
X006446470D03*
G54D54*
X006438748Y018502847D03*
G54D54*
X007422236Y016604273D03*
G54D54*
X007366254D03*
G54D55*
X005422799Y011572965D03*
G54D55*
X004079139Y016200845D03*
G54D55*
X008491119Y017514025D03*
G54D56*
X008661299Y018222685D03*
G54D55*
X002034439Y015375345D03*
G54D55*
X003126207Y011603039D03*
G54D57*
X009154059Y015431225D03*
G54D57*
X009148979Y010897325D03*
G54D57*
X000990499Y016068765D03*
G54D58*
X009154618Y013059957D03*
G54D58*
Y013289954D03*
G54D59*
X005203064Y020336524D03*
G54D59*
X005138065D03*
G54D59*
X005073066D03*
G54D60*
X008533842Y018703710D03*
G54D60*
Y018453724D03*
G54D61*
X008308493Y020365708D03*
G54D61*
X008418500D03*
G54D61*
X008528482D03*
G54D61*
X008638490D03*
G54D61*
X008748497D03*
G54D61*
X008858505D03*
G54D61*
X008968486D03*
G54D61*
X009078494D03*
G54D62*
X005654777Y011390695D03*
G54D62*
Y011200703D03*
G54D62*
X005484597Y011390695D03*
G54D62*
Y011200703D03*
G54D62*
X004570197Y011390695D03*
G54D62*
Y011200703D03*
G54D62*
X005314417Y011390695D03*
G54D62*
Y011200703D03*
G54D62*
X003422117Y011657395D03*
G54D62*
Y011467402D03*
G54D63*
X001621714Y019127357D03*
G54D63*
X001571727D03*
G54D63*
X001521740D03*
G54D63*
X001471728D03*
G54D63*
Y019232361D03*
G54D63*
X001521740D03*
G54D63*
X001571727D03*
G54D63*
X001621714D03*
G54D63*
X001671727D03*
G54D64*
X007185000Y019428093D03*
G54D64*
X007105016D03*
G54D64*
X007025006D03*
G54D64*
X006944995D03*
G54D64*
X006865011D03*
G54D64*
X006785001D03*
G54D65*
X006705016D03*
G54D64*
X006625007D03*
G54D64*
X006544996D03*
G54D65*
X006465012D03*
G54D64*
X006385002D03*
G54D64*
X006305017D03*
G54D65*
X006225007D03*
G54D64*
X006144997D03*
G54D64*
X006065013D03*
G54D65*
X005985003D03*
G54D64*
X005905018D03*
G54D64*
X005825008D03*
G54D65*
X005744998D03*
G54D64*
X005665014D03*
G54D64*
X005585004D03*
G54D65*
X005505019D03*
G54D65*
X005265014D03*
G54D64*
X005185004D03*
G54D64*
X005105020D03*
G54D65*
X005025009D03*
G54D64*
X004945000D03*
G54D64*
X004865015D03*
G54D64*
X007185000Y018987453D03*
G54D64*
X007105016D03*
G54D64*
X007025006D03*
G54D64*
X006944995D03*
G54D64*
X006865011D03*
G54D64*
X006785001D03*
G54D64*
X006705016D03*
G54D64*
X006625007D03*
G54D65*
X006544996D03*
G54D64*
X006465012D03*
G54D64*
X006385002D03*
G54D64*
X006305017D03*
G54D64*
X006225007D03*
G54D64*
X006144997D03*
G54D65*
X006065013D03*
G54D64*
X005985003D03*
G54D64*
X005905018D03*
G54D64*
X005825008D03*
G54D64*
X005744998D03*
G54D65*
X005665014D03*
G54D65*
X005425009D03*
G54D65*
X005185004D03*
G54D65*
X004945000D03*
G54D66*
X007809992Y019205716D03*
G54D67*
X007182993Y012989878D03*
G54D68*
X007278701D03*
G54D68*
X003116454Y018605818D03*
G54D67*
X003212161D03*
G54D68*
X008368361Y017254539D03*
G54D67*
X008272654D03*
G54D68*
X007107657Y018408512D03*
G54D67*
X007203365D03*
G54D68*
X006722009Y016348089D03*
G54D68*
X006817716D03*
G54D68*
X005930774Y017808259D03*
G54D68*
X006026481D03*
G54D68*
X008480121Y016876079D03*
G54D67*
X003097861Y019144299D03*
G54D67*
X003002153D03*
G54D68*
X008800186Y018609197D03*
G54D68*
X008704479D03*
G54D68*
X008800186Y018522837D03*
G54D68*
X008704479D03*
G54D67*
X005862193Y018174019D03*
G54D67*
X005957901D03*
G54D67*
X005862193Y018252759D03*
G54D67*
X005957901D03*
G54D67*
X005035881Y017371379D03*
G54D67*
X005471034Y016883699D03*
G54D67*
X001839265Y015619185D03*
G54D67*
X001934973D03*
G54D67*
X003141472Y017148265D03*
G54D68*
X003045766D03*
G54D68*
X006918021Y013017818D03*
G54D67*
X006822314D03*
G54D68*
X007133921Y013480099D03*
G54D68*
X007038214D03*
G54D67*
X003097861Y019063019D03*
G54D67*
X003002153D03*
G54D68*
X007964501Y014084619D03*
G54D68*
X007868794D03*
G54D68*
X001878661Y019118899D03*
G54D68*
X001782954D03*
G54D68*
X007502652Y016287205D03*
G54D68*
X007406945D03*
G54D105*
X005243399Y019961366D03*
G54D70*
X007807504Y019798196D03*
G54D71*
X002204187Y018061852D03*
G54D72*
Y017966145D03*
G54D71*
X008514411Y018238738D03*
G54D71*
Y018334445D03*
G54D72*
X008119847Y012830265D03*
G54D72*
Y012925972D03*
G54D72*
X002003527Y018016945D03*
G54D71*
Y018112652D03*
G54D72*
X008902167Y017374325D03*
G54D72*
Y017470032D03*
G54D72*
X009064727Y017374325D03*
G54D72*
Y017470032D03*
G54D72*
X005003267Y017828172D03*
G54D72*
X005320767Y016782505D03*
G54D71*
X004579087Y018491112D03*
G54D72*
Y018395405D03*
G54D72*
X004431767Y017995812D03*
G54D71*
X004497807Y018491112D03*
G54D72*
Y018395405D03*
G54D72*
X005577307Y016271965D03*
G54D72*
X008985987Y017374325D03*
G54D72*
Y017470032D03*
G54D72*
X005656047Y016271965D03*
G54D72*
X008823427Y017374325D03*
G54D72*
Y017470032D03*
G54D71*
X007815047Y015268665D03*
G54D71*
Y015364372D03*
G54D72*
X005899887Y016271965D03*
G54D72*
X005816067D03*
G54D72*
X005734787D03*
G54D71*
X007238467Y014762392D03*
G54D71*
Y014666685D03*
G54D71*
Y014491425D03*
G54D71*
Y014587132D03*
G54D71*
X001650467Y018898325D03*
G54D71*
Y018994032D03*
G54D71*
X007655459Y016373158D03*
G54D72*
Y016277451D03*
G54D73*
X005183709Y019961366D03*
G54D73*
X005133722D03*
G54D73*
Y019861392D03*
G54D73*
X005183709D03*
G54D74*
X007835494Y020595705D03*
G54D75*
X003126156Y011859579D03*
G54D75*
X003420898D03*
G54D76*
X004594251Y012012893D03*
G54D76*
X004759351D03*
G54D77*
X008526679Y016534702D03*
G54D77*
X008576666Y016420707D03*
G54D77*
X008476692D03*
G54D78*
X005253051Y020604011D03*
G54D78*
X005023054D03*
G54D79*
X008900008Y018900002D03*
G54D79*
X001200023D03*
G54D79*
Y011150004D03*
G54D79*
X008900008D03*
G54D79*
Y015749995D03*
G54D79*
X001200023D03*
G54D80*
X005095368Y011755845D03*
G54D80*
X004805351D03*
G54D81*
X006766027Y013558636D03*
G54D81*
Y013853682D03*
G54D82*
X008887131Y013109945D03*
G54D82*
Y013174943D03*
G54D82*
Y013239942D03*
G54D83*
X004523207Y016223298D03*
G54D83*
X004675607D03*
G54D84*
X004321201Y012012893D03*
G54D84*
X004473601D03*
G54D85*
X003769970Y018408308D03*
G54D85*
X003869970D03*
G54D85*
X003969970D03*
G54D85*
X003669970D03*
G54D85*
X003969970Y018508308D03*
G54D85*
X003869970D03*
G54D85*
X003769970D03*
G54D85*
X003569971D03*
G54D85*
X003669970D03*
G54D85*
X003969970Y018608308D03*
G54D85*
X003869970D03*
G54D85*
X003769970D03*
G54D85*
X003569971D03*
G54D85*
X003669970D03*
G54D85*
X003969970Y018308309D03*
G54D85*
X003869970D03*
G54D85*
X003769970D03*
G54D85*
X003669970D03*
G54D85*
X003969970Y018208309D03*
G54D85*
X003869970D03*
G54D85*
X003769970D03*
G54D85*
X003669970D03*
G54D10*
X006074233Y020002946D03*
G54D10*
X007524217D03*
G54D10*
X006014212Y020492937D03*
G54D15*
X004682135Y020024586D03*
G54D30*
X008762467Y011744008D03*
G54D32*
X006310859Y012251323D03*
G54D35*
X008987791Y014719618D03*
G54D35*
Y014846618D03*
G54D35*
Y015100618D03*
G54D37*
X001925372Y017282428D03*
G54D37*
X002075359D03*
G54D37*
X002225346D03*
G54D37*
Y016881108D03*
G54D37*
X002075359D03*
G54D37*
X001925372D03*
G54D40*
X005550841Y012576316D03*
G54D45*
X005000727Y016992868D03*
G54D45*
X004454627Y017292689D03*
G54D45*
X005076927Y018232388D03*
G54D45*
X004447007Y016997948D03*
G54D45*
X004457167Y017445090D03*
G54D45*
X005554447Y018054689D03*
G54D44*
Y017998708D03*
G54D45*
X004988027Y016901529D03*
G54D45*
X005000727Y017168230D03*
G54D45*
X007174967Y017132670D03*
G54D45*
X007230847Y017064090D03*
G54D45*
X005572227Y017130130D03*
G54D44*
Y017074148D03*
G54D45*
X005010887Y017986110D03*
G54D45*
X007009867Y017183368D03*
G54D45*
X007629627Y017064090D03*
G54D45*
X004970247Y018143590D03*
G54D45*
X005450307Y017744810D03*
G54D45*
X006849847Y017683748D03*
G54D45*
X007291807Y017671150D03*
G54D45*
X007233387D03*
G54D45*
X007632167Y017310368D03*
G54D45*
X007174967Y017714330D03*
G54D45*
X005079467Y016807550D03*
G54D45*
X004756887Y018227410D03*
G54D45*
X006725387Y017252050D03*
G54D45*
X007068287Y017180828D03*
G54D44*
X003464459Y015497316D03*
G54D44*
Y015441334D03*
G54D45*
X004447871Y019001551D03*
G54D45*
Y018945569D03*
G54D45*
X005112487Y017653370D03*
G54D45*
X005168367Y017394188D03*
G54D45*
X005109947D03*
G54D45*
X005475707Y017927690D03*
G54D45*
Y017871708D03*
G54D86*
X009164981Y020570712D03*
G54D52*
X002982189Y019820015D03*
G54D54*
X004784777Y017518699D03*
G54D54*
X004800118Y016820198D03*
G54D54*
X004444518Y017137699D03*
G54D54*
X004820337Y017795559D03*
G54D53*
X005953177Y017173259D03*
G54D54*
X006009158D03*
G54D54*
X005226838Y017584738D03*
G54D54*
X005361458Y017188499D03*
G54D53*
X005953177Y017058959D03*
G54D54*
X007456958Y017234219D03*
G54D54*
X007799756D03*
G54D54*
X007685456Y017180879D03*
G54D53*
X005953177Y017114839D03*
G54D54*
X006644056Y017460279D03*
G54D54*
X004660418Y017513619D03*
G54D54*
X007685456Y017122459D03*
G54D54*
X006913297Y017467899D03*
G54D54*
X007014998Y017683798D03*
G54D54*
X007515277Y017521239D03*
G54D54*
X007502576Y017579659D03*
G54D54*
X007185178Y017335819D03*
G54D54*
X007517918Y017856519D03*
G54D54*
X007025056Y017569498D03*
G54D54*
X007009816Y017625379D03*
G54D54*
X007352717Y017462818D03*
G54D53*
X005457877Y016949738D03*
G54D54*
X005513858D03*
G54D54*
X004972737Y017302799D03*
G54D54*
X006834658Y017183419D03*
G54D54*
X006567958Y017404399D03*
G54D54*
X006570498Y017462818D03*
G54D53*
X003103830Y015454085D03*
G54D53*
X003047848D03*
G54D54*
X003230728Y015446465D03*
G54D53*
X003286710D03*
G54D53*
X003144368Y015530285D03*
G54D53*
X003200350D03*
G54D53*
X008079690Y016558985D03*
G54D54*
X008023708D03*
G54D54*
X008084770Y016843465D03*
G54D54*
X004624858Y017279938D03*
G54D54*
X008808238Y014280198D03*
G54D54*
X008752257D03*
G54D54*
X008808238Y014407199D03*
G54D54*
X008752257D03*
G54D53*
X008749717Y014026198D03*
G54D54*
X008805698D03*
G54D54*
X005229378Y017650779D03*
G54D54*
X008805698Y013899199D03*
G54D54*
X008749717D03*
G54D54*
X005658638Y017282479D03*
G54D54*
X005602656D03*
G54D54*
X004645610Y019894005D03*
G54D54*
X004589628D03*
G54D56*
X004152799Y015903665D03*
G54D87*
X008331125Y011914011D03*
G54D87*
X006760769D03*
G54D63*
X003698647Y019127357D03*
G54D63*
X003648635D03*
G54D63*
X003598647D03*
G54D63*
X003548660D03*
G54D63*
X003498648D03*
G54D63*
X003548660Y019232361D03*
G54D63*
X003598647D03*
G54D63*
X003648635D03*
G54D63*
X003698647D03*
G54D64*
X005425009Y019428093D03*
G54D64*
X005344999D03*
G54D64*
X005585004Y018987453D03*
G54D64*
X005505019D03*
G54D64*
X005344999D03*
G54D64*
X005265014D03*
G54D64*
X005105020D03*
G54D64*
X005025009D03*
G54D64*
X004865015D03*
G54D68*
X006078093Y017114839D03*
G54D68*
X006173801D03*
G54D68*
X004940173Y017371379D03*
G54D68*
X005566741Y016883699D03*
G54D67*
X002860346Y015464245D03*
G54D67*
X002956053D03*
G54D71*
X005003267Y017732465D03*
G54D71*
X005320767Y016878212D03*
G54D72*
X005577307Y016367672D03*
G54D72*
X005656047D03*
G54D72*
X005899887D03*
G54D72*
X005816067D03*
G54D72*
X005734787D03*
G54D72*
X003375559Y015547659D03*
G54D72*
Y015451952D03*
G54D72*
X003268879Y015710219D03*
G54D72*
Y015614512D03*
G54D72*
X003550819Y015547659D03*
G54D72*
Y015451952D03*
G54D85*
X003569971Y018408308D03*
G54D85*
Y018308309D03*
G54D106*
X005501819Y020604011D03*
G54D107*
X004774312D03*
G54D90*
X004039185Y019470003D03*
G54D90*
X003839185D03*
G54D90*
X003639186D03*
G54D90*
X003539186Y019620015D03*
G54D90*
X003739186D03*
G54D91*
X003989197D03*
G54D90*
X002099997Y019470003D03*
G54D90*
X001899997D03*
G54D90*
X001499998D03*
G54D90*
X001299998D03*
G54D90*
X001599998Y019620015D03*
G54D90*
X001799997D03*
G54D91*
X002050009D03*
G54D90*
X003439186Y019470003D03*
G54D90*
X003239186D03*
G54D92*
X006974764Y012498007D03*
G54D93*
X007228765D03*
G54D93*
X007482765D03*
G54D93*
X007736765D03*
G54D93*
X007990764D03*
G54D93*
X007101765Y012244008D03*
G54D93*
X007355764D03*
G54D93*
X007609765D03*
G54D93*
X007863764D03*
G54D93*
X008117765D03*
G54D94*
X007136257Y011203014D03*
G54D94*
X007957262D03*
G54D94*
X006881775D03*
G54D94*
X008212760D03*
G54D95*
X004874159Y010937965D03*
G54D53*
X007065697Y018090199D03*
G54D53*
X006720256Y017632999D03*
G54D44*
X007525487Y018067390D03*
G54D96*
X005960847Y014966329D03*
G54D97*
Y012466309D03*
G54D98*
X006974764Y011609008D03*
G54D98*
X008117765D03*
G54D99*
X008788299Y015276285D03*
G54D99*
X008869147Y015148879D03*
G54D99*
X008872119Y015215325D03*
G54D99*
X008874659Y015294065D03*
G54D99*
X006880327Y015219999D03*
G54D99*
X006753327Y015217459D03*
G54D99*
X006880327Y015331759D03*
G54D99*
X006824447Y015270799D03*
G54D99*
X006755867Y015331759D03*
G54D99*
X004678147Y019515138D03*
G54D99*
X004586707D03*
G54D99*
X005234585Y013848297D03*
G54D99*
X005102505D03*
G54D99*
X005090567Y013980631D03*
G54D99*
X005222647D03*
G54D99*
X005026559Y013914845D03*
G54D99*
Y013777685D03*
G54D99*
Y014046925D03*
G54D99*
X005290719Y013914845D03*
G54D99*
Y013777685D03*
G54D99*
Y014046925D03*
G54D99*
X005158639D03*
G54D99*
Y013777685D03*
G54D99*
Y013914845D03*
G54D100*
X004584421Y012412054D03*
G54D100*
X004330421D03*
G54D100*
X004457421D03*
G54D100*
X004584421Y012320614D03*
G54D100*
X004330421D03*
G54D100*
X004457421D03*
G54D99*
X004399179Y012104333D03*
G54D99*
X004551579Y012101793D03*
G54D99*
X004399179Y012180025D03*
G54D99*
X004551579Y012177485D03*
G54D99*
X004314343Y012225288D03*
G54D99*
X004635907Y012224018D03*
G54D99*
X004475379Y012224780D03*
G54D99*
X004635907Y012137658D03*
G54D99*
X004314343Y012138928D03*
G54D99*
X004475379Y012138420D03*
G54D99*
X003104287Y015244535D03*
G54D99*
X003436011Y015241233D03*
G54D99*
X003216047Y015243773D03*
G54D99*
X003331109Y015240471D03*
G54D99*
X003058059Y015124139D03*
G54D99*
X003495701Y015125663D03*
G54D99*
X003275737Y015128203D03*
G54D99*
X003399435Y015000949D03*
G54D99*
X003165755D03*
G54D99*
X003504083Y014954467D03*
G54D99*
X003062123Y014959547D03*
G54D99*
X003275483Y014954467D03*
G54D99*
X003160675Y015131505D03*
G54D99*
X003380639Y015128965D03*
G54D99*
X003163723Y014896047D03*
G54D99*
X003397403D03*
G54D99*
X003503067Y014856423D03*
G54D99*
X003059583Y014860487D03*
G54D99*
X003041549Y015286191D03*
G54D99*
X003497733Y015281619D03*
G54D99*
X003274213Y015286699D03*
G54D99*
X003503321Y015050987D03*
G54D99*
X003056281D03*
G54D99*
X003272943Y014855407D03*
G54D99*
X003273654Y015048040D03*
G54D99*
X003459887Y016926015D03*
G54D99*
X003508909Y016979101D03*
G54D99*
X003415437Y016980117D03*
G54D99*
X003459125Y016821621D03*
G54D99*
X003508147Y016874707D03*
G54D99*
X003414675Y016875723D03*
G54D99*
X003414929Y017045649D03*
G54D99*
X003508147Y017047427D03*
G54D101*
X003784067Y020251739D03*
G54D101*
Y020348259D03*
G54D101*
X002094967Y020132358D03*
G54D101*
Y020223798D03*
G54D108*
X009600008Y018750010D03*
Y002600000D03*
X000500000Y002100000D03*
G54D109*
Y019950011D03*
X009600008Y019550011D03*
Y001799999D03*
G36*
X007232907Y004123758D02*
Y004211457D01*
X007318106D01*
Y004123758D01*
X007232907D01*
G37*
G36*
Y003823758D02*
Y003911458D01*
X007318106D01*
Y003823758D01*
X007232907D01*
G37*
G36*
X007232902Y003623758D02*
Y003711459D01*
X007318106D01*
Y003623758D01*
X007232902D01*
G37*
G36*
X002660501Y008272816D02*
X002663573Y008275887D01*
X002749701D01*
Y008233131D01*
X002660501D01*
Y008272816D01*
G37*
G36*
Y008183131D02*
Y008225131D01*
X002749701D01*
Y008183131D01*
X002660501D01*
G37*
G36*
Y008133131D02*
Y008175131D01*
X002749701D01*
Y008133131D01*
X002660501D01*
G37*
G36*
Y008083131D02*
Y008125131D01*
X002749701D01*
Y008083131D01*
X002660501D01*
G37*
G36*
Y008033131D02*
Y008075131D01*
X002749701D01*
Y008033131D01*
X002660501D01*
G37*
G36*
Y007983131D02*
Y008025131D01*
X002749701D01*
Y007983131D01*
X002660501D01*
G37*
G36*
Y007933131D02*
Y007975132D01*
X002749701D01*
Y007933131D01*
X002660501D01*
G37*
G36*
Y007883132D02*
Y007925131D01*
X002749701D01*
Y007883132D01*
X002660501D01*
G37*
G36*
Y007833132D02*
Y007875132D01*
X002749701D01*
Y007833132D01*
X002660501D01*
G37*
G36*
Y007783132D02*
Y007825132D01*
X002749701D01*
Y007783132D01*
X002660501D01*
G37*
G36*
Y007733132D02*
Y007775132D01*
X002749701D01*
Y007733132D01*
X002660501D01*
G37*
G36*
X002663573Y007682376D02*
X002660501Y007685447D01*
Y007725132D01*
X002749701D01*
Y007682376D01*
X002663573D01*
G37*
G36*
X002058747D02*
X001972618D01*
Y007725132D01*
X002061818D01*
Y007685447D01*
X002058747Y007682376D01*
G37*
G36*
X001972618Y007775132D02*
X002061818D01*
Y007733132D01*
X001972618D01*
Y007775132D01*
G37*
G36*
Y007825132D02*
X002061818D01*
Y007783132D01*
X001972618D01*
Y007825132D01*
G37*
G36*
Y007875131D02*
X002061818D01*
Y007833132D01*
X001972618D01*
Y007875131D01*
G37*
G36*
Y007925131D02*
X002061818D01*
Y007883131D01*
X001972618D01*
Y007925131D01*
G37*
G36*
Y007975131D02*
X002061818D01*
Y007933131D01*
X001972618D01*
Y007975131D01*
G37*
G36*
Y008025131D02*
X002061818D01*
Y007983131D01*
X001972618D01*
Y008025131D01*
G37*
G36*
Y008075131D02*
X002061818D01*
Y008033131D01*
X001972618D01*
Y008075131D01*
G37*
G36*
Y008125131D02*
X002061818D01*
Y008083131D01*
X001972618D01*
Y008125131D01*
G37*
G36*
Y008175131D02*
X002061818D01*
Y008133131D01*
X001972618D01*
Y008175131D01*
G37*
G36*
Y008225131D02*
X002061818D01*
Y008183131D01*
X001972618D01*
Y008225131D01*
G37*
G36*
X002061818Y008272816D02*
Y008233131D01*
X001972618D01*
Y008275887D01*
X002058747D01*
X002061818Y008272816D01*
G37*
G36*
X002615159Y007590590D02*
Y007679790D01*
X002654845D01*
X002657916Y007676719D01*
Y007590590D01*
X002615159D01*
G37*
G36*
X002565159D02*
Y007679790D01*
X002607159D01*
Y007590590D01*
X002565159D01*
G37*
G36*
X002515159D02*
Y007679790D01*
X002557160D01*
Y007590590D01*
X002515159D01*
G37*
G36*
X002465160D02*
Y007679790D01*
X002507160D01*
Y007590590D01*
X002465160D01*
G37*
G36*
X002415160D02*
Y007679790D01*
X002457160D01*
Y007590590D01*
X002415160D01*
G37*
G36*
X002365160D02*
Y007679790D01*
X002407160D01*
Y007590590D01*
X002365160D01*
G37*
G36*
X002315160D02*
Y007679790D01*
X002357160D01*
Y007590590D01*
X002315160D01*
G37*
G36*
X002265160D02*
Y007679790D01*
X002307160D01*
Y007590590D01*
X002265160D01*
G37*
G36*
X002215160D02*
Y007679790D01*
X002257160D01*
Y007590590D01*
X002215160D01*
G37*
G36*
X002165160D02*
Y007679790D01*
X002207160D01*
Y007590590D01*
X002165160D01*
G37*
G36*
X002115160D02*
Y007679790D01*
X002157160D01*
Y007590590D01*
X002115160D01*
G37*
G36*
X002107160D02*
X002064404D01*
Y007676719D01*
X002067475Y007679790D01*
X002107160D01*
Y007590590D01*
G37*
G36*
Y008278473D02*
X002067475D01*
X002064404Y008281544D01*
Y008367673D01*
X002107160D01*
Y008278473D01*
G37*
G36*
X002157160D02*
X002115160D01*
Y008367673D01*
X002157160D01*
Y008278473D01*
G37*
G36*
X002207160D02*
X002165160D01*
Y008367673D01*
X002207160D01*
Y008278473D01*
G37*
G36*
X002257160D02*
X002215160D01*
Y008367673D01*
X002257160D01*
Y008278473D01*
G37*
G36*
X002307160D02*
X002265160D01*
Y008367673D01*
X002307160D01*
Y008278473D01*
G37*
G36*
X002357160D02*
X002315160D01*
Y008367673D01*
X002357160D01*
Y008278473D01*
G37*
G36*
X002407160D02*
X002365160D01*
Y008367673D01*
X002407160D01*
Y008278473D01*
G37*
G36*
X002457160D02*
X002415160D01*
Y008367673D01*
X002457160D01*
Y008278473D01*
G37*
G36*
X002507160D02*
X002465160D01*
Y008367673D01*
X002507160D01*
Y008278473D01*
G37*
G36*
X002557159D02*
X002515159D01*
Y008367673D01*
X002557159D01*
Y008278473D01*
G37*
G36*
X002615159D02*
Y008367673D01*
X002657916D01*
Y008281544D01*
X002654845Y008278473D01*
X002615159D01*
G37*
G36*
X002607159D02*
X002565159D01*
Y008367673D01*
X002607159D01*
Y008278473D01*
G37*
G36*
X002564210Y006917601D02*
Y006960371D01*
X002729610D01*
Y006917601D01*
X002564210D01*
G37*
G36*
Y006867563D02*
Y006909601D01*
X002729610D01*
Y006867563D01*
X002564210D01*
G37*
G36*
Y006817525D02*
Y006859564D01*
X002729610D01*
Y006817525D01*
X002564210D01*
G37*
G36*
Y006767488D02*
Y006809525D01*
X002729610D01*
Y006767488D01*
X002564210D01*
G37*
G36*
Y006717449D02*
Y006759488D01*
X002729610D01*
Y006717449D01*
X002564210D01*
G37*
G36*
Y006667412D02*
Y006709449D01*
X002729610D01*
Y006667412D01*
X002564210D01*
G37*
G36*
Y006617374D02*
Y006659412D01*
X002729610D01*
Y006617374D01*
X002564210D01*
G37*
G36*
Y006567336D02*
Y006609373D01*
X002729610D01*
Y006567336D01*
X002564210D01*
G37*
G36*
Y006517297D02*
Y006559335D01*
X002729610D01*
Y006517297D01*
X002564210D01*
G37*
G36*
Y006467259D02*
Y006509298D01*
X002729610D01*
Y006467259D01*
X002564210D01*
G37*
G36*
Y006409222D02*
X002729610D01*
Y006366452D01*
X002564210D01*
Y006409222D01*
G37*
G36*
Y006417221D02*
Y006459260D01*
X002729610D01*
Y006417221D01*
X002564210D01*
G37*
G36*
X001723470Y006409222D02*
X001888870D01*
Y006366452D01*
X001723470D01*
Y006409222D01*
G37*
G36*
Y006459260D02*
X001888870D01*
Y006417221D01*
X001723470D01*
Y006459260D01*
G37*
G36*
Y006509298D02*
X001888870D01*
Y006467259D01*
X001723470D01*
Y006509298D01*
G37*
G36*
Y006559335D02*
X001888870D01*
Y006517297D01*
X001723470D01*
Y006559335D01*
G37*
G36*
Y006609373D02*
X001888870D01*
Y006567336D01*
X001723470D01*
Y006609373D01*
G37*
G36*
Y006659412D02*
X001888870D01*
Y006617374D01*
X001723470D01*
Y006659412D01*
G37*
G36*
Y006709449D02*
X001888870D01*
Y006667412D01*
X001723470D01*
Y006709449D01*
G37*
G36*
Y006759488D02*
X001888870D01*
Y006717449D01*
X001723470D01*
Y006759488D01*
G37*
G36*
Y006809525D02*
X001888870D01*
Y006767488D01*
X001723470D01*
Y006809525D01*
G37*
G36*
Y006859564D02*
X001888870D01*
Y006817525D01*
X001723470D01*
Y006859564D01*
G37*
G36*
Y006909601D02*
X001888870D01*
Y006867563D01*
X001723470D01*
Y006909601D01*
G37*
G36*
Y006917601D02*
Y006960371D01*
X001888870D01*
Y006917601D01*
X001723470D01*
G37*
G36*
X002480730Y006160342D02*
Y006325741D01*
X002523499D01*
Y006160342D01*
X002480730D01*
G37*
G36*
X002430692D02*
Y006325741D01*
X002472730D01*
Y006160342D01*
X002430692D01*
G37*
G36*
X002380654D02*
Y006325741D01*
X002422692D01*
Y006160342D01*
X002380654D01*
G37*
G36*
X002330616D02*
Y006325741D01*
X002372654D01*
Y006160342D01*
X002330616D01*
G37*
G36*
X002280578D02*
Y006325741D01*
X002322616D01*
Y006160342D01*
X002280578D01*
G37*
G36*
X002230540D02*
Y006325741D01*
X002272578D01*
Y006160342D01*
X002230540D01*
G37*
G36*
X002180502D02*
Y006325741D01*
X002222540D01*
Y006160342D01*
X002180502D01*
G37*
G36*
X002130464D02*
Y006325741D01*
X002172502D01*
Y006160342D01*
X002130464D01*
G37*
G36*
X002080426D02*
Y006325741D01*
X002122464D01*
Y006160342D01*
X002080426D01*
G37*
G36*
X002030388D02*
Y006325741D01*
X002072426D01*
Y006160342D01*
X002030388D01*
G37*
G36*
X001980350D02*
Y006325741D01*
X002022388D01*
Y006160342D01*
X001980350D01*
G37*
G36*
X001929581Y006325326D02*
X001929581Y006325326D01*
X001929996Y006325741D01*
X001929997Y006325741D01*
X001972350D01*
Y006160342D01*
X001929581D01*
Y006325326D01*
G37*
G36*
X001972350Y007001081D02*
X001929581D01*
Y007166481D01*
X001972350D01*
Y007001081D01*
G37*
G36*
X002022388D02*
X001980350D01*
Y007166481D01*
X002022388D01*
Y007001081D01*
G37*
G36*
X002072426D02*
X002030388D01*
Y007166481D01*
X002072426D01*
Y007001081D01*
G37*
G36*
X002122464D02*
X002080426D01*
Y007166481D01*
X002122464D01*
Y007001081D01*
G37*
G36*
X002172502D02*
X002130464D01*
Y007166481D01*
X002172502D01*
Y007001081D01*
G37*
G36*
X002222540D02*
X002180502D01*
Y007166481D01*
X002222540D01*
Y007001081D01*
G37*
G36*
X002272578D02*
X002230540D01*
Y007166481D01*
X002272578D01*
Y007001081D01*
G37*
G36*
X002322616D02*
X002280578D01*
Y007166481D01*
X002322616D01*
Y007001081D01*
G37*
G36*
X002372654D02*
X002330616D01*
Y007166481D01*
X002372654D01*
Y007001081D01*
G37*
G36*
X002422692D02*
X002380654D01*
Y007166481D01*
X002422692D01*
Y007001081D01*
G37*
G36*
X002480730D02*
Y007166481D01*
X002523499D01*
Y007001081D01*
X002480730D01*
G37*
G36*
X002472730D02*
X002430692D01*
Y007166481D01*
X002472730D01*
Y007001081D01*
G37*
G36*
X007967653Y003027871D02*
G02X007975809Y003061811I000008157J000015990D01*
G01X008036709D01*
G02X008044866Y003027871I000000000J-000017950D01*
G01X007967653D01*
G37*
G36*
X007967677Y002987878D02*
G02X007967653Y003019871I000008132J000016003D01*
G01X008044866D01*
G02X008044840Y002987878I-000008157J-000015990D01*
G01X007967677D01*
G37*
G36*
Y002947873D02*
G02X007967677Y002979879I000008132J000016003D01*
G01X008044840D01*
G02X008044840Y002947873I-000008132J-000016003D01*
G01X007967677D01*
G37*
G36*
Y002907869D02*
G02X007967677Y002939873I000008132J000016003D01*
G01X008044840D01*
G02X008044840Y002907869I-000008132J-000016003D01*
G01X007967677D01*
G37*
G36*
Y002867863D02*
G02X007967677Y002899869I000008132J000016003D01*
G01X008044840D01*
G02X008044840Y002867863I-000008132J-000016003D01*
G01X007967677D01*
G37*
G36*
X007967653Y002827871D02*
G02X007967677Y002859864I000008157J000015990D01*
G01X008044840D01*
G02X008044866Y002827871I-000008132J-000016003D01*
G01X007967653D01*
G37*
G36*
X007967677Y002787879D02*
G02X007967653Y002819871I000008132J000016003D01*
G01X008044866D01*
G02X008044840Y002787879I-000008157J-000015990D01*
G01X007967677D01*
G37*
G36*
Y002747874D02*
G02X007967677Y002779879I000008132J000016003D01*
G01X008044840D01*
G02X008044840Y002747874I-000008132J-000016003D01*
G01X007967677D01*
G37*
G36*
Y002707869D02*
G02X007967677Y002739874I000008132J000016003D01*
G01X008044840D01*
G02X008044840Y002707869I-000008132J-000016003D01*
G01X007967677D01*
G37*
G36*
Y002667864D02*
G02X007967677Y002699869I000008132J000016003D01*
G01X008044840D01*
G02X008044840Y002667864I-000008132J-000016003D01*
G01X007967677D01*
G37*
G36*
X007967653Y002627872D02*
G02X007967677Y002659864I000008157J000015990D01*
G01X008044840D01*
G02X008044866Y002627872I-000008132J-000016003D01*
G01X007967653D01*
G37*
G36*
X007967677Y002587879D02*
G02X007967653Y002619872I000008132J000016003D01*
G01X008044865D01*
G02X008044840Y002587879I-000008156J-000015990D01*
G01X007967677D01*
G37*
G36*
Y002547874D02*
G02X007967677Y002579879I000008132J000016003D01*
G01X008044840D01*
G02X008044840Y002547874I-000008132J-000016003D01*
G01X007967677D01*
G37*
G36*
Y002507869D02*
G02X007967677Y002539874I000008132J000016003D01*
G01X008044840D01*
G02X008044840Y002507869I-000008132J-000016003D01*
G01X007967677D01*
G37*
G36*
Y002467864D02*
G02X007967677Y002499869I000008132J000016003D01*
G01X008044840D01*
G02X008044840Y002467864I-000008132J-000016003D01*
G01X007967677D01*
G37*
G36*
X007967653Y002419872D02*
X008044866D01*
G02X008036709Y002385932I-000008157J-000015990D01*
G01X007975809D01*
G02X007967653Y002419872I000000000J000017950D01*
G37*
G36*
Y002427872D02*
G02X007967677Y002459864I000008157J000015990D01*
G01X008044840D01*
G02X008044866Y002427872I-000008132J-000016003D01*
G01X007967653D01*
G37*
G36*
X007180354Y002419872D02*
X007257567D01*
G02X007249410Y002385932I-000008157J-000015990D01*
G01X007188511D01*
G02X007180354Y002419872I000000000J000017950D01*
G37*
G36*
X007180379Y002459864D02*
G01X007257542D01*
G02X007257567Y002427872I-000008132J-000016003D01*
G01X007180354D01*
G02X007180379Y002459864I000008157J000015990D01*
G37*
G36*
Y002499869D02*
G01X007257542D01*
G02X007257542Y002467864I-000008132J-000016003D01*
G01X007180379D01*
G02X007180379Y002499869I000008132J000016003D01*
G37*
G36*
Y002539874D02*
G01X007257542D01*
G02X007257542Y002507869I-000008132J-000016003D01*
G01X007180379D01*
G02X007180379Y002539874I000008132J000016003D01*
G37*
G36*
Y002579879D02*
G01X007257542D01*
G02X007257542Y002547874I-000008132J-000016003D01*
G01X007180379D01*
G02X007180379Y002579879I000008132J000016003D01*
G37*
G36*
X007180354Y002619872D02*
G01X007257567D01*
G02X007257542Y002587879I-000008157J-000015990D01*
G01X007180379D01*
G02X007180354Y002619872I000008132J000016003D01*
G37*
G36*
X007180379Y002659864D02*
G01X007257542D01*
G02X007257567Y002627872I-000008132J-000016003D01*
G01X007180354D01*
G02X007180379Y002659864I000008156J000015990D01*
G37*
G36*
Y002699869D02*
G01X007257542D01*
G02X007257542Y002667864I-000008132J-000016003D01*
G01X007180379D01*
G02X007180379Y002699869I000008132J000016003D01*
G37*
G36*
Y002739874D02*
G01X007257542D01*
G02X007257542Y002707869I-000008132J-000016003D01*
G01X007180379D01*
G02X007180379Y002739874I000008132J000016003D01*
G37*
G36*
Y002779879D02*
G01X007257542D01*
G02X007257542Y002747874I-000008132J-000016003D01*
G01X007180379D01*
G02X007180379Y002779879I000008132J000016003D01*
G37*
G36*
X007180354Y002819871D02*
G01X007257567D01*
G02X007257542Y002787879I-000008157J-000015990D01*
G01X007180379D01*
G02X007180354Y002819871I000008132J000016003D01*
G37*
G36*
X007180379Y002859864D02*
G01X007257542D01*
G02X007257567Y002827871I-000008132J-000016003D01*
G01X007180354D01*
G02X007180379Y002859864I000008157J000015990D01*
G37*
G36*
Y002899869D02*
G01X007257542D01*
G02X007257542Y002867863I-000008132J-000016003D01*
G01X007180379D01*
G02X007180379Y002899869I000008132J000016003D01*
G37*
G36*
Y002939873D02*
G01X007257542D01*
G02X007257542Y002907869I-000008132J-000016003D01*
G01X007180379D01*
G02X007180379Y002939873I000008132J000016003D01*
G37*
G36*
Y002979879D02*
G01X007257542D01*
G02X007257542Y002947873I-000008132J-000016003D01*
G01X007180379D01*
G02X007180379Y002979879I000008132J000016003D01*
G37*
G36*
X007180354Y003019871D02*
G01X007257567D01*
G02X007257542Y002987878I-000008157J-000015990D01*
G01X007180379D01*
G02X007180354Y003019871I000008132J000016003D01*
G37*
G36*
Y003027871D02*
G02X007188511Y003061811I000008157J000015990D01*
G01X007249410D01*
G02X007257567Y003027871I000000000J-000017950D01*
G01X007180354D01*
G37*
G36*
X007917879Y002292886D02*
Y002370099D01*
G02X007951819Y002361942I000015990J-000008157D01*
G01Y002301042D01*
G02X007917879Y002292886I-000017950J000000000D01*
G37*
G36*
X007877887Y002292911D02*
G01Y002370074D01*
G02X007909879Y002370099I000016003J-000008132D01*
G01Y002292886D01*
G02X007877887Y002292911I-000015990J000008157D01*
G37*
G36*
X007837882D02*
G01Y002370074D01*
G02X007869887Y002370074I000016003J-000008132D01*
G01Y002292911D01*
G02X007837882Y002292911I-000016003J000008132D01*
G37*
G36*
X007797877D02*
G01Y002370074D01*
G02X007829882Y002370074I000016003J-000008132D01*
G01Y002292911D01*
G02X007797877Y002292911I-000016003J000008132D01*
G37*
G36*
X007757872D02*
G01Y002370074D01*
G02X007789877Y002370074I000016003J-000008132D01*
G01Y002292911D01*
G02X007757872Y002292911I-000016003J000008132D01*
G37*
G36*
X007717880Y002292886D02*
G01Y002370099D01*
G02X007749872Y002370074I000015990J-000008157D01*
G01Y002292911D01*
G02X007717880Y002292886I-000016003J000008132D01*
G37*
G36*
X007677887Y002292911D02*
G01Y002370074D01*
G02X007709880Y002370099I000016003J-000008132D01*
G01Y002292886D01*
G02X007677887Y002292911I-000015990J000008156D01*
G37*
G36*
X007637882D02*
G01Y002370074D01*
G02X007669887Y002370074I000016003J-000008132D01*
G01Y002292911D01*
G02X007637882Y002292911I-000016003J000008132D01*
G37*
G36*
X007597877D02*
G01Y002370074D01*
G02X007629882Y002370074I000016003J-000008132D01*
G01Y002292911D01*
G02X007597877Y002292911I-000016003J000008132D01*
G37*
G36*
X007557872D02*
G01Y002370074D01*
G02X007589877Y002370074I000016003J-000008132D01*
G01Y002292911D01*
G02X007557872Y002292911I-000016003J000008132D01*
G37*
G36*
X007517880Y002292886D02*
G01Y002370099D01*
G02X007549872Y002370074I000015990J-000008157D01*
G01Y002292911D01*
G02X007517880Y002292886I-000016003J000008132D01*
G37*
G36*
X007477888Y002292911D02*
G01Y002370074D01*
G02X007509880Y002370099I000016003J-000008132D01*
G01Y002292886D01*
G02X007477888Y002292911I-000015990J000008157D01*
G37*
G36*
X007437883D02*
G01Y002370074D01*
G02X007469888Y002370074I000016003J-000008132D01*
G01Y002292911D01*
G02X007437883Y002292911I-000016003J000008132D01*
G37*
G36*
X007397878D02*
G01Y002370074D01*
G02X007429883Y002370074I000016003J-000008132D01*
G01Y002292911D01*
G02X007397878Y002292911I-000016003J000008132D01*
G37*
G36*
X007357873D02*
G01Y002370074D01*
G02X007389878Y002370074I000016003J-000008132D01*
G01Y002292911D01*
G02X007357873Y002292911I-000016003J000008132D01*
G37*
G36*
X007317881Y002292886D02*
G01Y002370099D01*
G02X007349873Y002370074I000015990J-000008157D01*
G01Y002292911D01*
G02X007317881Y002292886I-000016003J000008132D01*
G37*
G36*
X007309881Y002292886D02*
G02X007275941Y002301042I-000015990J000008156D01*
G01Y002361942D01*
G02X007309881Y002370099I000017950J000000000D01*
G01Y002292886D01*
G37*
G36*
X007309880Y003077644D02*
G02X007275941Y003085801I-000015990J000008157D01*
G01Y003146701D01*
G02X007309880Y003154857I000017950J000000000D01*
G01Y003077644D01*
G37*
G36*
X007349873Y003077669D02*
G02X007317880Y003077644I-000016003J000008132D01*
G01Y003154857D01*
G02X007349873Y003154832I000015990J-000008156D01*
G01Y003077669D01*
G37*
G36*
X007389878D02*
G02X007357873Y003077669I-000016003J000008132D01*
G01Y003154832D01*
G02X007389878Y003154832I000016003J-000008132D01*
G01Y003077669D01*
G37*
G36*
X007429883D02*
G02X007397878Y003077669I-000016003J000008132D01*
G01Y003154832D01*
G02X007429883Y003154832I000016003J-000008132D01*
G01Y003077669D01*
G37*
G36*
X007469888D02*
G02X007437883Y003077669I-000016003J000008132D01*
G01Y003154832D01*
G02X007469888Y003154832I000016003J-000008132D01*
G01Y003077669D01*
G37*
G36*
X007509880Y003077644D02*
G02X007477888Y003077669I-000015990J000008157D01*
G01Y003154832D01*
G02X007509880Y003154857I000016003J-000008132D01*
G01Y003077644D01*
G37*
G36*
X007549872Y003077669D02*
G02X007517880Y003077644I-000016003J000008132D01*
G01Y003154857D01*
G02X007549872Y003154832I000015990J-000008157D01*
G01Y003077669D01*
G37*
G36*
X007589877D02*
G02X007557872Y003077669I-000016003J000008132D01*
G01Y003154832D01*
G02X007589877Y003154832I000016003J-000008132D01*
G01Y003077669D01*
G37*
G36*
X007629882D02*
G02X007597877Y003077669I-000016003J000008132D01*
G01Y003154832D01*
G02X007629882Y003154832I000016003J-000008132D01*
G01Y003077669D01*
G37*
G36*
X007669887D02*
G02X007637882Y003077669I-000016003J000008132D01*
G01Y003154832D01*
G02X007669887Y003154832I000016003J-000008132D01*
G01Y003077669D01*
G37*
G36*
X007709880Y003077644D02*
G02X007677887Y003077669I-000015990J000008157D01*
G01Y003154832D01*
G02X007709880Y003154857I000016003J-000008132D01*
G01Y003077644D01*
G37*
G36*
X007749872Y003077669D02*
G02X007717879Y003077644I-000016003J000008132D01*
G01Y003154857D01*
G02X007749872Y003154832I000015990J-000008156D01*
G01Y003077669D01*
G37*
G36*
X007789877D02*
G02X007757872Y003077669I-000016003J000008132D01*
G01Y003154832D01*
G02X007789877Y003154832I000016003J-000008132D01*
G01Y003077669D01*
G37*
G36*
X007829882D02*
G02X007797877Y003077669I-000016003J000008132D01*
G01Y003154832D01*
G02X007829882Y003154832I000016003J-000008132D01*
G01Y003077669D01*
G37*
G36*
X007869887D02*
G02X007837882Y003077669I-000016003J000008132D01*
G01Y003154832D01*
G02X007869887Y003154832I000016003J-000008132D01*
G01Y003077669D01*
G37*
G36*
X007917879Y003077644D02*
Y003154857D01*
G02X007951819Y003146701I000015990J-000008157D01*
G01Y003085801D01*
G02X007917879Y003077644I-000017950J000000000D01*
G37*
G36*
X007909879D02*
G02X007877887Y003077669I-000015990J000008157D01*
G01Y003154832D01*
G02X007909879Y003154857I000016003J-000008132D01*
G01Y003077644D01*
G37*
G36*
X003623053Y008777694D02*
Y008849949D01*
X003835253D01*
Y008777694D01*
X003623053D01*
G37*
G36*
Y008697684D02*
Y008769694D01*
X003835253D01*
Y008697684D01*
X003623053D01*
G37*
G36*
Y008617687D02*
Y008689684D01*
X003835253D01*
Y008617687D01*
X003623053D01*
G37*
G36*
Y008537690D02*
Y008609687D01*
X003835253D01*
Y008537690D01*
X003623053D01*
G37*
G36*
Y008457692D02*
Y008529690D01*
X003835253D01*
Y008457692D01*
X003623053D01*
G37*
G36*
Y008377695D02*
Y008449692D01*
X003835253D01*
Y008377695D01*
X003623053D01*
G37*
G36*
Y008289685D02*
X003835253D01*
Y008217430D01*
X003623053D01*
Y008289685D01*
G37*
G36*
Y008297685D02*
Y008369695D01*
X003835253D01*
Y008297685D01*
X003623053D01*
G37*
G36*
Y007817689D02*
Y007889931D01*
X003835253D01*
Y007817689D01*
X003623053D01*
G37*
G36*
Y007737691D02*
Y007809689D01*
X003835253D01*
Y007737691D01*
X003623053D01*
G37*
G36*
Y007657694D02*
Y007729691D01*
X003835253D01*
Y007657694D01*
X003623053D01*
G37*
G36*
Y007577696D02*
Y007649694D01*
X003835253D01*
Y007577696D01*
X003623053D01*
G37*
G36*
Y007497687D02*
Y007569696D01*
X003835253D01*
Y007497687D01*
X003623053D01*
G37*
G36*
Y007417689D02*
Y007489686D01*
X003835253D01*
Y007417689D01*
X003623053D01*
G37*
G36*
Y007337692D02*
Y007409689D01*
X003835253D01*
Y007337692D01*
X003623053D01*
G37*
G36*
Y007257695D02*
Y007329692D01*
X003835253D01*
Y007257695D01*
X003623053D01*
G37*
G36*
Y007177697D02*
Y007249695D01*
X003835253D01*
Y007177697D01*
X003623053D01*
G37*
G36*
Y007097687D02*
Y007169697D01*
X003835253D01*
Y007097687D01*
X003623053D01*
G37*
G36*
Y007017690D02*
Y007089687D01*
X003835253D01*
Y007017690D01*
X003623053D01*
G37*
G36*
Y006937693D02*
Y007009690D01*
X003835253D01*
Y006937693D01*
X003623053D01*
G37*
G36*
Y006857696D02*
Y006929693D01*
X003835253D01*
Y006857696D01*
X003623053D01*
G37*
G36*
Y006777698D02*
Y006849695D01*
X003835253D01*
Y006777698D01*
X003623053D01*
G37*
G36*
Y006697688D02*
Y006769698D01*
X003835253D01*
Y006697688D01*
X003623053D01*
G37*
G36*
Y006617691D02*
Y006689688D01*
X003835253D01*
Y006617691D01*
X003623053D01*
G37*
G36*
Y006529694D02*
X003835253D01*
Y006457438D01*
X003623053D01*
Y006529694D01*
G37*
G36*
Y006537693D02*
Y006609691D01*
X003835253D01*
Y006537693D01*
X003623053D01*
G37*
G36*
X004443067Y007777696D02*
Y007849951D01*
X004655267D01*
Y007777696D01*
X004443067D01*
G37*
G36*
Y007697686D02*
Y007769696D01*
X004655267D01*
Y007697686D01*
X004443067D01*
G37*
G36*
Y007617689D02*
Y007689686D01*
X004655267D01*
Y007617689D01*
X004443067D01*
G37*
G36*
Y007537692D02*
Y007609689D01*
X004655267D01*
Y007537692D01*
X004443067D01*
G37*
G36*
Y007457694D02*
Y007529692D01*
X004655267D01*
Y007457694D01*
X004443067D01*
G37*
G36*
Y007377697D02*
Y007449694D01*
X004655267D01*
Y007377697D01*
X004443067D01*
G37*
G36*
Y007297687D02*
Y007369697D01*
X004655267D01*
Y007297687D01*
X004443067D01*
G37*
G36*
Y007217690D02*
Y007289687D01*
X004655267D01*
Y007217690D01*
X004443067D01*
G37*
G36*
Y007137693D02*
Y007209690D01*
X004655267D01*
Y007137693D01*
X004443067D01*
G37*
G36*
Y007057695D02*
Y007129693D01*
X004655267D01*
Y007057695D01*
X004443067D01*
G37*
G36*
Y006977698D02*
Y007049695D01*
X004655267D01*
Y006977698D01*
X004443067D01*
G37*
G36*
Y006897688D02*
Y006969698D01*
X004655267D01*
Y006897688D01*
X004443067D01*
G37*
G36*
Y006817691D02*
Y006889688D01*
X004655267D01*
Y006817691D01*
X004443067D01*
G37*
G36*
Y006737693D02*
Y006809690D01*
X004655267D01*
Y006737693D01*
X004443067D01*
G37*
G36*
Y006657696D02*
Y006729693D01*
X004655267D01*
Y006657696D01*
X004443067D01*
G37*
G36*
Y006569699D02*
X004655267D01*
Y006497444D01*
X004443067D01*
Y006569699D01*
G37*
G36*
Y006577699D02*
Y006649696D01*
X004655267D01*
Y006577699D01*
X004443067D01*
G37*
G36*
X007757148Y003293688D02*
Y003306300D01*
G02X007779838Y003323544I000022690J-000006306D01*
G01X007782338D01*
G02X007782338Y003276444I000000000J-000023550D01*
G01X007779838D01*
G02X007757148Y003293688I000000000J000023550D01*
G37*
G36*
X007749148Y003306300D02*
G01Y003293688D01*
G02X007726458Y003276444I-000022690J000006306D01*
G01X007723958D01*
G02X007723958Y003323544I000000000J000023550D01*
G01X007726458D01*
G02X007749148Y003306300I000000000J-000023550D01*
G37*
G36*
X007757148Y003349670D02*
G01Y003362282D01*
G02X007779838Y003379526I000022690J-000006306D01*
G01X007782338D01*
G02X007782338Y003332426I000000000J-000023550D01*
G01X007779838D01*
G02X007757148Y003349670I000000000J000023550D01*
G37*
G36*
X007749148Y003362282D02*
G01Y003349670D01*
G02X007726458Y003332426I-000022690J000006306D01*
G01X007723958D01*
G02X007723958Y003379526I000000000J000023550D01*
G01X007726458D01*
G02X007749148Y003362282I000000000J-000023550D01*
G37*
G36*
X002662340Y003309436D02*
G01Y003322048D01*
G02X002685030Y003339292I000022690J-000006306D01*
G01X002687530D01*
G02X002687530Y003292192I000000000J-000023550D01*
G01X002685030D01*
G02X002662340Y003309436I000000000J000023550D01*
G37*
G36*
X002654340Y003322048D02*
G01Y003309436D01*
G02X002631650Y003292192I-000022690J000006306D01*
G01X002629150D01*
G02X002629150Y003339292I000000000J000023550D01*
G01X002631650D01*
G02X002654340Y003322048I000000000J-000023550D01*
G37*
G36*
X002270800Y003984886D02*
G01Y003972274D01*
G02X002248110Y003955030I-000022690J000006306D01*
G01X002245610D01*
G02X002245610Y004002131I000000000J000023550D01*
G01X002248110D01*
G02X002270800Y003984886I000000000J-000023550D01*
G37*
G36*
X002334680Y003972274D02*
G01Y003984886D01*
G02X002357370Y004002131I000022690J-000006306D01*
G01X002359870D01*
G02X002359870Y003955030I000000000J-000023550D01*
G01X002357370D01*
G02X002334680Y003972274I000000000J000023550D01*
G37*
G36*
X002326680Y003984886D02*
G01Y003972274D01*
G02X002303990Y003955030I-000022690J000006306D01*
G01X002301490D01*
G02X002278800Y003972274I000000000J000023550D01*
G01Y003984886D01*
G02X002301490Y004002131I000022690J-000006306D01*
G01X002303990D01*
G02X002326680Y003984886I000000000J-000023550D01*
G37*
G36*
X002866435Y005085882D02*
G01X002882045D01*
G02X002875490Y005039712I-000006555J-000022619D01*
G01X002872990D01*
G02X002866435Y005085882I000000000J000023550D01*
G37*
G36*
X002866434Y005093882D02*
G02X002872990Y005140051I000006556J000022619D01*
G01X002875490D01*
G02X002882046Y005093882I000000000J-000023550D01*
G01X002866434D01*
G37*
G36*
X002460238Y003627109D02*
X002479213Y003627598D01*
G02X002471630Y003581752I-000007583J-000022296D01*
G01X002469130D01*
G02X002460238Y003627109I000000000J000023550D01*
G37*
G36*
X002278800Y003642074D02*
G01Y003654686D01*
G02X002301490Y003671931I000022690J-000006306D01*
G01X002303990D01*
G02X002303990Y003624831I000000000J-000023550D01*
G01X002301490D01*
G02X002278800Y003642074I000000000J000023550D01*
G37*
G36*
X002270800Y003654686D02*
G01Y003642074D01*
G02X002248110Y003624831I-000022690J000006306D01*
G01X002245610D01*
G02X002245610Y003671931I000000000J000023550D01*
G01X002248110D01*
G02X002270800Y003654686I000000000J-000023550D01*
G37*
G36*
X002461483Y003682531D02*
G01X002474095D01*
G02X002491339Y003659842I-000006306J-000022690D01*
G01Y003657341D01*
G02X002476682Y003635535I-000023550J000000000D01*
G01X002460031Y003635106D01*
G02X002444239Y003657341I000007759J000022235D01*
G01Y003659842D01*
G02X002461483Y003682531I000023550J000000000D01*
G37*
G36*
X002474095Y003690531D02*
G01X002461483D01*
G02X002444239Y003713222I000006306J000022690D01*
G01Y003715722D01*
G02X002491339Y003715722I000023550J000000000D01*
G01Y003713222D01*
G02X002474095Y003690531I-000023550J000000000D01*
G37*
G36*
X002362436Y003467011D02*
G01X002349824D01*
G02X002332581Y003489701I000006306J000022690D01*
G01Y003492201D01*
G02X002379681Y003492201I000023550J000000000D01*
G01Y003489701D01*
G02X002362436Y003467011I-000023550J000000000D01*
G37*
G36*
Y003411131D02*
G01X002349824D01*
G02X002332581Y003433822I000006306J000022690D01*
G01Y003436321D01*
G02X002349824Y003459011I000023550J000000000D01*
G01X002362436D01*
G02X002379681Y003436321I-000006306J-000022690D01*
G01Y003433822D01*
G02X002362436Y003411131I-000023550J000000000D01*
G37*
G36*
X002359985Y003799372D02*
G01X002372597D01*
G02X002389841Y003776682I-000006306J-000022690D01*
G01Y003774182D01*
G02X002342741Y003774182I-000023550J000000000D01*
G01Y003776682D01*
G02X002359985Y003799372I000023550J000000000D01*
G37*
G36*
X002270720Y003380980D02*
G02X002226231Y003391759I-000020939J000010779D01*
G01Y003394259D01*
G02X002273331Y003394259I000023550J000000000D01*
G01Y003392623D01*
X002270720Y003380980D01*
G37*
G36*
X002278559Y003379379D02*
X002281067Y003390561D01*
G02X002321739Y003380462I000019082J-000010100D01*
G01Y003377921D01*
G02X002278559Y003377921I-000021590J000000000D01*
G01Y003379379D01*
G37*
G36*
X002425437Y003533990D02*
X002436628Y003516351D01*
G02X002413210Y003490312I-000023418J-000002489D01*
G01X002410710D01*
G02X002410710Y003537412I000000000J000023550D01*
G01X002413210D01*
G02X002425437Y003533990I000000000J-000023550D01*
G37*
G36*
X002456903Y003529193D02*
G01X002445712Y003546831D01*
G02X002469130Y003572871I000023418J000002489D01*
G01X002471630D01*
G02X002471630Y003525770I000000000J-000023550D01*
G01X002469130D01*
G02X002456903Y003529193I000000000J000023550D01*
G37*
G36*
X002389666Y003835424D02*
G03X002389369Y003831311I000028313J-000004112D01*
G03X002389666Y003827199I000028611J-000000000D01*
G02X002372597Y003807371I-000023376J000002862D01*
G01X002359985D01*
G02X002342741Y003830061I000006306J000022690D01*
G01Y003832561D01*
G02X002389666Y003835424I000023550J000000000D01*
G37*
G36*
X002335936Y003365826D02*
G02X002332581Y003377942I000020195J000012115D01*
G01Y003380442D01*
G02X002349824Y003403132I000023550J000000000D01*
G01X002362436D01*
G02X002379681Y003380442I-000006306J-000022690D01*
G01Y003377942D01*
G02X002344015Y003357747I-000023550J000000000D01*
G01X002344014Y003357748D01*
X002335937Y003365825D01*
X002335936Y003365826D01*
G37*
G36*
X003284260Y003558268D02*
Y003545656D01*
G02X003261570Y003528412I-000022690J000006306D01*
G01X003259070D01*
G02X003259070Y003575512I000000000J000023550D01*
G01X003261570D01*
G02X003284260Y003558268I000000000J-000023550D01*
G37*
G36*
X003295326Y003564981D02*
G01X003295334Y003564986D01*
G03X003298802Y003567765I-000007311J000012680D01*
G01X003298834Y003567799D01*
G02X003329621Y003571271I000017375J-000015836D01*
G03X003329917Y003571078I000002869J000004095D01*
G03X003332792Y003569829I000006183J000010299D01*
G02X003317450Y003528412I-000015342J-000017867D01*
G01X003314950D01*
G02X003292260Y003545656I000000000J000023550D01*
G01Y003558268D01*
G02X003295326Y003564981I000022690J-000006306D01*
G37*
G36*
X002951359Y003359171D02*
G02X002931370Y003348072I-000019989J000012451D01*
G01X002928870D01*
G02X002928870Y003395172I000000000J000023550D01*
G01X002931370D01*
G02X002951359Y003384073I000000000J-000023550D01*
G01Y003359171D01*
G37*
G36*
X002984635Y003347632D02*
X002972023D01*
G02X002958359Y003357840I000006306J000022690D01*
G01Y003385304D01*
G02X003001879Y003372822I000019970J-000012482D01*
G01Y003370322D01*
G02X002984635Y003347632I-000023550J000000000D01*
G37*
G36*
X002951219Y003324181D02*
G01Y003307100D01*
G02X002931390Y003294051I-000019829J000008541D01*
G01X002928850D01*
G02X002928850Y003337230I000000000J000021590D01*
G01X002931390D01*
G02X002951219Y003324181I000000000J-000021590D01*
G37*
G36*
X002972023Y003283751D02*
G01X002984635D01*
G02X003001879Y003261061I-000006306J-000022690D01*
G01Y003258561D01*
G02X002954779Y003258561I-000023550J000000000D01*
G01Y003261061D01*
G02X002972023Y003283751I000023550J000000000D01*
G37*
G36*
X002984635Y003291752D02*
G01X002972023D01*
G02X002958285Y003302079I000006306J000022690D01*
G01Y003329304D01*
G02X002972023Y003339632I000020044J-000012363D01*
G01X002984635D01*
G02X003001879Y003316942I-000006306J-000022690D01*
G01Y003314442D01*
G02X002984635Y003291752I-000023550J000000000D01*
G37*
G36*
X003141043Y004081629D02*
G01X003154353Y004080667D01*
G02X003169621Y004058622I-000008283J-000022046D01*
G01Y004056121D01*
G02X003122520Y004056121I-000023550J000000000D01*
G01Y004058622D01*
G02X003141043Y004081629I000023550J000000000D01*
G37*
G36*
X003148405Y004089117D02*
G01X003148142Y004089137D01*
G02X003149830Y004132250I000001687J000021524D01*
G01X003152370D01*
G02X003152370Y004089070I000000000J-000021590D01*
G01X003149830D01*
G02X003148405Y004089117I-000000001J000021590D01*
G37*
G36*
X003081345Y003967011D02*
G01X003093957D01*
G02X003111200Y003944321I-000006306J-000022690D01*
G01Y003941821D01*
G02X003064101Y003941821I-000023550J000000000D01*
G01Y003944321D01*
G02X003081345Y003967011I000023550J000000000D01*
G37*
G36*
X003093957Y003975012D02*
G01X003081345D01*
G02X003064101Y003997701I000006306J000022690D01*
G01Y004000202D01*
G02X003111200Y004000202I000023550J000000000D01*
G01Y003997701D01*
G02X003093957Y003975012I-000023550J000000000D01*
G37*
G36*
X003175827Y004164793D02*
G02X003152350Y004143092I-000023477J000001850D01*
G01X003149850D01*
G02X003149850Y004190192I000000000J000023550D01*
G01X003152350D01*
G02X003175831Y004168447I000000000J-000023550D01*
G01Y004168442D01*
X003175827Y004164797D01*
Y004164793D01*
G37*
G36*
X003169440Y003661377D02*
Y003671148D01*
G02X003190470Y003687852I000021030J-000004886D01*
G01X003193010D01*
G02X003193010Y003644672I000000000J-000021590D01*
G01X003190470D01*
G02X003169440Y003661377I000000000J000021590D01*
G37*
G36*
X003162021Y003660057D02*
G02X003119400Y003664941I-000021030J000004884D01*
G01Y003667481D01*
G02X003162021Y003672366I000021590J000000000D01*
G01Y003660057D01*
G37*
G36*
X002421040Y007444556D02*
Y007457168D01*
G02X002443730Y007474412I000022690J-000006306D01*
G01X002446230D01*
G02X002446230Y007427312I000000000J-000023550D01*
G01X002443730D01*
G02X002421040Y007444556I000000000J000023550D01*
G37*
G36*
X002413040Y007457168D02*
G01Y007444556D01*
G02X002390350Y007427312I-000022690J000006306D01*
G01X002387850D01*
G02X002387850Y007474412I000000000J000023550D01*
G01X002390350D01*
G02X002413040Y007457168I000000000J-000023550D01*
G37*
G36*
X002421040Y007388575D02*
G01Y007401187D01*
G02X002443730Y007418430I000022690J-000006306D01*
G01X002446230D01*
G02X002446230Y007371330I000000000J-000023550D01*
G01X002443730D01*
G02X002421040Y007388575I000000000J000023550D01*
G37*
G36*
X002413040Y007401187D02*
G01Y007388575D01*
G02X002390350Y007371330I-000022690J000006306D01*
G01X002387850D01*
G02X002387850Y007418430I000000000J000023550D01*
G01X002390350D01*
G02X002413040Y007401187I000000000J-000023550D01*
G37*
G36*
X007018155Y004363632D02*
G01X007005543D01*
G02X006988299Y004386322I000006306J000022690D01*
G01Y004388821D01*
G02X007035399Y004388821I000023550J000000000D01*
G01Y004386322D01*
G02X007018155Y004363632I-000023550J000000000D01*
G37*
G36*
X007005543Y004299751D02*
G01X007018155D01*
G02X007035399Y004277062I-000006306J-000022690D01*
G01Y004274561D01*
G02X006988299Y004274561I-000023550J000000000D01*
G01Y004277062D01*
G02X007005543Y004299751I000023550J000000000D01*
G37*
G36*
X007018155Y004307752D02*
G01X007005543D01*
G02X006988299Y004330442I000006306J000022690D01*
G01Y004332942D01*
G02X007005543Y004355632I000023550J000000000D01*
G01X007018155D01*
G02X007035399Y004332942I-000006306J-000022690D01*
G01Y004330442D01*
G02X007018155Y004307752I-000023550J000000000D01*
G37*
G36*
X007074136Y004363632D02*
G01X007061525D01*
G02X007044281Y004386322I000006306J000022690D01*
G01Y004388821D01*
G02X007091381Y004388821I000023550J000000000D01*
G01Y004386322D01*
G02X007074136Y004363632I-000023550J000000000D01*
G37*
G36*
X007061525Y004299751D02*
G01X007074136D01*
G02X007091381Y004277062I-000006306J-000022690D01*
G01Y004274561D01*
G02X007044281Y004274561I-000023550J000000000D01*
G01Y004277062D01*
G02X007061525Y004299751I000023550J000000000D01*
G37*
G36*
X007074136Y004307752D02*
G01X007061525D01*
G02X007044281Y004330442I000006306J000022690D01*
G01Y004332942D01*
G02X007061525Y004355632I000023550J000000000D01*
G01X007074136D01*
G02X007091381Y004332942I-000006306J-000022690D01*
G01Y004330442D01*
G02X007074136Y004307752I-000023550J000000000D01*
G37*
G36*
X002775540Y004121782D02*
G01X002777119Y004113494D01*
G02X002753570Y004089752I-000023549J-000000192D01*
G01X002751070D01*
G02X002728447Y004106759I000000000J000023550D01*
G01X002728779Y004120898D01*
G02X002751070Y004136852I000022291J-000007596D01*
G01X002753570D01*
G02X002775540Y004121782I000000000J-000023550D01*
G37*
G36*
X002831469Y004131814D02*
G01Y004115111D01*
G02X002809450Y004099912I-000022019J000008351D01*
G01X002806950D01*
G02X002784979Y004114983I000000000J000023550D01*
G01X002783400Y004123270D01*
G02X002806950Y004147012I000023549J000000193D01*
G01X002809450D01*
G02X002831469Y004131814I000000000J-000023550D01*
G37*
G36*
X002861440Y004148212D02*
G03X002868450Y004147159I000007720J000027549D01*
G02X002885039Y004124661I-000006961J-000022497D01*
G01Y004122161D01*
G02X002839469Y004113811I-000023550J000000000D01*
G01Y004133012D01*
G02X002861440Y004148212I000022020J-000008351D01*
G37*
G36*
X001719630Y004437944D02*
G01X001712011Y004437888D01*
G02X001684444Y004468832I000003582J000030943D01*
G01Y004479032D01*
G02X001746744Y004479032I000031150J000000000D01*
G01Y004468832D01*
G02X001719630Y004437944I-000031150J000000000D01*
G37*
G36*
X001712564Y004429892D02*
G01X001719195Y004429941D01*
G02X001739600Y004406602I-000003144J-000023339D01*
G01Y004404102D01*
G02X001692500Y004404102I-000023550J000000000D01*
G01Y004406602D01*
G02X001712564Y004429892I000023550J000000000D01*
G37*
G36*
X006891243Y002923072D02*
G01X006903855D01*
G02X006921099Y002900381I-000006306J-000022690D01*
G01Y002897881D01*
G02X006873999Y002897881I-000023550J000000000D01*
G01Y002900381D01*
G02X006891243Y002923072I000023550J000000000D01*
G37*
G36*
X006903855Y002931072D02*
G01X006891243D01*
G02X006873999Y002953761I000006306J000022690D01*
G01Y002956261D01*
G02X006921099Y002956261I000023550J000000000D01*
G01Y002953761D01*
G02X006903855Y002931072I-000023550J000000000D01*
G37*
G36*
X006947225Y002923072D02*
G01X006959837D01*
G02X006977081Y002900381I-000006306J-000022690D01*
G01Y002897881D01*
G02X006929980Y002897881I-000023550J000000000D01*
G01Y002900381D01*
G02X006947225Y002923072I000023550J000000000D01*
G37*
G36*
X006959837Y002931072D02*
G01X006947225D01*
G02X006929980Y002953761I000006306J000022690D01*
G01Y002956261D01*
G02X006977081Y002956261I000023550J000000000D01*
G01Y002953761D01*
G02X006959837Y002931072I-000023550J000000000D01*
G37*
G36*
X006832823Y002397292D02*
G01X006845435D01*
G02X006862679Y002374602I-000006306J-000022690D01*
G01Y002372102D01*
G02X006815579Y002372102I-000023550J000000000D01*
G01Y002374602D01*
G02X006832823Y002397292I000023550J000000000D01*
G37*
G36*
X006845435Y002405292D02*
G01X006832823D01*
G02X006815579Y002427982I000006306J000022690D01*
G01Y002430482D01*
G02X006862679Y002430482I000023550J000000000D01*
G01Y002427982D01*
G02X006845435Y002405292I-000023550J000000000D01*
G37*
G36*
X006888804Y002397292D02*
G01X006901416D01*
G02X006918661Y002374602I-000006306J-000022690D01*
G01Y002372102D01*
G02X006871561Y002372102I-000023550J000000000D01*
G01Y002374602D01*
G02X006888804Y002397292I000023550J000000000D01*
G37*
G36*
X006901416Y002405292D02*
G01X006888804D01*
G02X006871561Y002427982I000006306J000022690D01*
G01Y002430482D01*
G02X006918661Y002430482I000023550J000000000D01*
G01Y002427982D01*
G02X006901416Y002405292I-000023550J000000000D01*
G37*
G36*
X008278083Y002575092D02*
G01X008290695D01*
G02X008307939Y002552401I-000006306J-000022690D01*
G01Y002549901D01*
G02X008260839Y002549901I-000023550J000000000D01*
G01Y002552401D01*
G02X008278083Y002575092I000023550J000000000D01*
G37*
G36*
X008290695Y002583091D02*
G01X008278083D01*
G02X008260839Y002605782I000006306J000022690D01*
G01Y002608281D01*
G02X008307939Y002608281I000023550J000000000D01*
G01Y002605782D01*
G02X008290695Y002583091I-000023550J000000000D01*
G37*
G36*
X008334064Y002575092D02*
G01X008346676D01*
G02X008363920Y002552401I-000006306J-000022690D01*
G01Y002549901D01*
G02X008316821Y002549901I-000023550J000000000D01*
G01Y002552401D01*
G02X008334064Y002575092I000023550J000000000D01*
G37*
G36*
X008346676Y002583091D02*
G01X008334064D01*
G02X008316821Y002605782I000006306J000022690D01*
G01Y002608281D01*
G02X008363920Y002608281I000023550J000000000D01*
G01Y002605782D01*
G02X008346676Y002583091I-000023550J000000000D01*
G37*
G36*
X005179283Y001642912D02*
G01X005191895D01*
G02X005209139Y001620222I-000006306J-000022690D01*
G01Y001617722D01*
G02X005162039Y001617722I-000023550J000000000D01*
G01Y001620222D01*
G02X005179283Y001642912I000023550J000000000D01*
G37*
G36*
X005191895Y001650911D02*
G01X005179283D01*
G02X005162039Y001673601I000006306J000022690D01*
G01Y001676102D01*
G02X005209139Y001676102I000023550J000000000D01*
G01Y001673601D01*
G02X005191895Y001650911I-000023550J000000000D01*
G37*
G36*
X005235265Y001642912D02*
G01X005247877D01*
G02X005265120Y001620222I-000006306J-000022690D01*
G01Y001617722D01*
G02X005218020Y001617722I-000023550J000000000D01*
G01Y001620222D01*
G02X005235265Y001642912I000023550J000000000D01*
G37*
G36*
X005247877Y001650911D02*
G01X005235265D01*
G02X005218020Y001673601I000006306J000022690D01*
G01Y001676102D01*
G02X005265120Y001676102I000023550J000000000D01*
G01Y001673601D01*
G02X005247877Y001650911I-000023550J000000000D01*
G37*
G36*
X002783625Y006082819D02*
G01X002817565Y006082617D01*
Y006005320D01*
X002783625D01*
Y006082819D01*
G37*
G36*
X002743620Y006082831D02*
X002775625D01*
Y006005320D01*
X002743620D01*
Y006082831D01*
G37*
G36*
X002703615D02*
X002735620D01*
Y006005320D01*
X002703615D01*
Y006082831D01*
G37*
G36*
X002661675D02*
X002695615D01*
Y006005320D01*
X002661675D01*
Y006082831D01*
G37*
G36*
X002695615Y006090831D02*
X002661675D01*
Y006168343D01*
X002695615D01*
Y006090831D01*
G37*
G36*
X002735620D02*
X002703615D01*
Y006168343D01*
X002735620D01*
Y006090831D01*
G37*
G36*
X002783640Y006090819D02*
Y006168343D01*
X002827694D01*
Y006090557D01*
X002783640Y006090819D01*
G37*
G36*
X002775640Y006090831D02*
X002743620D01*
Y006168343D01*
X002775640D01*
Y006090831D01*
G37*
G36*
X001139627Y008329393D02*
X001286127D01*
Y008279314D01*
X001139627D01*
Y008329393D01*
G37*
G36*
X001190825Y008437315D02*
G02X001237888Y008459171I000047064J-000039744D01*
G01X001252889D01*
G02X001299997Y008437262I000000000J-000061600D01*
G02X001302858Y008433593I-000047117J-000039689D01*
G03X001302918Y008433509I000004076J000002896D01*
G02X001266046Y008337393I-000050030J-000035938D01*
G01X001224731D01*
G02X001179717Y008377307I000013157J000060179D01*
G03X001179671Y008377442I-000004760J-000001529D01*
G02X001190825Y008437315I000058225J000020129D01*
G37*
G36*
X001139627Y008020742D02*
G01Y008070820D01*
X001286127D01*
Y008020742D01*
X001139627D01*
G37*
G36*
X001298864Y007911565D02*
G02X001252889Y007890963I-000045975J000040998D01*
G01X001237888D01*
G02X001191884Y007911598I000000000J000061600D01*
G02X001184854Y007983896I000046012J000040965D01*
G03X001184910Y007983992I-000004296J000002559D01*
G02X001224731Y008012742I000052979J-000031429D01*
G01X001266046D01*
G02X001305867Y007983993I-000013157J-000060179D01*
G01X001305913Y007983914D01*
G02X001298864Y007911565I-000053032J-000031351D01*
G37*
G36*
X006771248Y003372346D02*
G01X006695748D01*
Y003399946D01*
X006771248D01*
Y003372346D01*
G37*
G36*
Y003337344D02*
X006695748D01*
Y003364346D01*
X006771248D01*
Y003337344D01*
G37*
G36*
Y003301744D02*
X006695748D01*
Y003329345D01*
X006771248D01*
Y003301744D01*
G37*
G36*
X006779248Y003329344D02*
X006854747D01*
Y003301744D01*
X006779248D01*
Y003329344D01*
G37*
G36*
Y003364345D02*
X006854747D01*
Y003337344D01*
X006779248D01*
Y003364345D01*
G37*
G36*
Y003372346D02*
Y003399946D01*
X006854747D01*
Y003372346D01*
X006779248D01*
G37*
G36*
X003754781Y001345564D02*
Y001548564D01*
X003797288D01*
Y001345564D01*
X003754781D01*
G37*
G36*
X003346782D02*
X003304782D01*
Y001548564D01*
X003346782D01*
Y001345564D01*
G37*
G36*
X003254782D02*
Y001548564D01*
X003296782D01*
Y001345564D01*
X003254782D01*
G37*
G36*
X003204782D02*
Y001548564D01*
X003246782D01*
Y001345564D01*
X003204782D01*
G37*
G36*
X003154782D02*
Y001548564D01*
X003196782D01*
Y001345564D01*
X003154782D01*
G37*
G36*
X003104782D02*
Y001548564D01*
X003146782D01*
Y001345564D01*
X003104782D01*
G37*
G36*
X003054783D02*
Y001548564D01*
X003096783D01*
Y001345564D01*
X003054783D01*
G37*
G36*
X003004783D02*
Y001548564D01*
X003046783D01*
Y001345564D01*
X003004783D01*
G37*
G36*
X002954783D02*
Y001548564D01*
X002996783D01*
Y001345564D01*
X002954783D01*
G37*
G36*
X002904783D02*
Y001548564D01*
X002946783D01*
Y001345564D01*
X002904783D01*
G37*
G36*
X002896783D02*
X002854289D01*
Y001548564D01*
X002896783D01*
Y001345564D01*
G37*
G36*
X003654781D02*
Y001548564D01*
X003696781D01*
Y001345564D01*
X003654781D01*
G37*
G36*
X003604781D02*
Y001548564D01*
X003646781D01*
Y001345564D01*
X003604781D01*
G37*
G36*
X003554782D02*
Y001548564D01*
X003596782D01*
Y001345564D01*
X003554782D01*
G37*
G36*
X003504782D02*
Y001548564D01*
X003546782D01*
Y001345564D01*
X003504782D01*
G37*
G36*
X003454782D02*
Y001548564D01*
X003496782D01*
Y001345564D01*
X003454782D01*
G37*
G36*
X003404782D02*
Y001548564D01*
X003446782D01*
Y001345564D01*
X003404782D01*
G37*
G36*
X003396782D02*
X003354782D01*
Y001548564D01*
X003396782D01*
Y001345564D01*
G37*
G36*
X003704957D02*
X003704781Y001345741D01*
Y001548564D01*
X003746781D01*
Y001345564D01*
X003704957D01*
G37*
G36*
X004443067Y008657692D02*
Y008729934D01*
X004655267D01*
Y008657692D01*
X004443067D01*
G37*
G36*
Y008577695D02*
Y008649692D01*
X004655267D01*
Y008577695D01*
X004443067D01*
G37*
G36*
Y008497685D02*
Y008569694D01*
X004655267D01*
Y008497685D01*
X004443067D01*
G37*
G36*
Y008417687D02*
Y008489685D01*
X004655267D01*
Y008417687D01*
X004443067D01*
G37*
G36*
Y008337690D02*
Y008409687D01*
X004655267D01*
Y008337690D01*
X004443067D01*
G37*
G36*
Y008249693D02*
X004655267D01*
Y008177450D01*
X004443067D01*
Y008249693D01*
G37*
G36*
Y008257693D02*
Y008329690D01*
X004655267D01*
Y008257693D01*
X004443067D01*
G37*
G36*
X002560740Y004279615D02*
Y004292227D01*
G02X002583430Y004309471I000022690J-000006306D01*
G01X002585930D01*
G02X002585930Y004262370I000000000J-000023550D01*
G01X002583430D01*
G02X002560740Y004279615I000000000J000023550D01*
G37*
G36*
X002552740Y004292227D02*
G01Y004279615D01*
G02X002530050Y004262370I-000022690J000006306D01*
G01X002527550D01*
G02X002527550Y004309471I000000000J000023550D01*
G01X002530050D01*
G02X002552740Y004292227I000000000J-000023550D01*
G37*
G36*
X002667040D02*
G01Y004279615D01*
G02X002644350Y004262370I-000022690J000006306D01*
G01X002641850D01*
G02X002641850Y004309471I000000000J000023550D01*
G01X002644350D01*
G02X002667040Y004292227I000000000J-000023550D01*
G37*
G36*
X002722920D02*
G01Y004279615D01*
G02X002700230Y004262370I-000022690J000006306D01*
G01X002697730D01*
G02X002675040Y004279615I000000000J000023550D01*
G01Y004292227D01*
G02X002697730Y004309471I000022690J-000006306D01*
G01X002700230D01*
G02X002722920Y004292227I000000000J-000023550D01*
G37*
G36*
X002786800Y004279615D02*
G01Y004292227D01*
G02X002809490Y004309471I000022690J-000006306D01*
G01X002811990D01*
G02X002811990Y004262370I000000000J-000023550D01*
G01X002809490D01*
G02X002786800Y004279615I000000000J000023550D01*
G37*
G36*
X002778800Y004292227D02*
G01Y004279615D01*
G02X002756110Y004262370I-000022690J000006306D01*
G01X002753610D01*
G02X002730920Y004279615I000000000J000023550D01*
G01Y004292227D01*
G02X002753610Y004309471I000022690J-000006306D01*
G01X002756110D01*
G02X002778800Y004292227I000000000J-000023550D01*
G37*
G36*
X002675330Y003653810D02*
G01X002674740Y003666189D01*
G02X002697730Y003684631I000022989J-000005109D01*
G01X002700230D01*
G02X002700230Y003637530I000000000J-000023550D01*
G01X002697730D01*
G02X002675330Y003653810I000000000J000023550D01*
G37*
G36*
X002666750Y003665811D02*
G01X002667339Y003653432D01*
G02X002644350Y003634991I-000022989J000005109D01*
G01X002641850D01*
G02X002641850Y003682090I000000000J000023550D01*
G01X002644350D01*
G02X002666750Y003665811I000000000J-000023550D01*
G37*
G36*
X003010320Y003598996D02*
G01Y003611608D01*
G02X003033010Y003628852I000022690J-000006306D01*
G01X003035510D01*
G02X003035510Y003581752I000000000J-000023550D01*
G01X003033010D01*
G02X003010320Y003598996I000000000J000023550D01*
G37*
G36*
X003002320Y003611608D02*
G01Y003598996D01*
G02X002979630Y003581752I-000022690J000006306D01*
G01X002977130D01*
G02X002977130Y003628852I000000000J000023550D01*
G01X002979630D01*
G02X003002320Y003611608I000000000J-000023550D01*
G37*
G36*
X004795845Y003111031D02*
G01X004808457D01*
G02X004825701Y003088341I-000006306J-000022690D01*
G01Y003085841D01*
G02X004778601Y003085841I-000023550J000000000D01*
G01Y003088341D01*
G02X004795845Y003111031I000023550J000000000D01*
G37*
G36*
X004808457Y003119032D02*
G01X004795845D01*
G02X004778601Y003141722I000006306J000022690D01*
G01Y003144221D01*
G02X004825701Y003144221I000023550J000000000D01*
G01Y003141722D01*
G02X004808457Y003119032I-000023550J000000000D01*
G37*
G36*
X004084543Y004259111D02*
G01X004097155D01*
G02X004114399Y004236421I-000006306J-000022690D01*
G01Y004233922D01*
G02X004067299Y004233922I-000023550J000000000D01*
G01Y004236421D01*
G02X004084543Y004259111I000023550J000000000D01*
G37*
G36*
X004097155Y004267112D02*
G01X004084543D01*
G02X004067299Y004289801I000006306J000022690D01*
G01Y004292302D01*
G02X004114399Y004292302I000023550J000000000D01*
G01Y004289801D01*
G02X004097155Y004267112I-000023550J000000000D01*
G37*
G36*
X003256870Y003859612D02*
G01X003265156Y003861191D01*
G02X003288899Y003837641I000000193J-000023549D01*
G01Y003835141D01*
G02X003241799Y003835141I-000023550J000000000D01*
G01Y003837641D01*
G02X003256870Y003859612I000023550J000000000D01*
G37*
G36*
X003248883Y003916212D02*
G01X003261495D01*
G02X003278739Y003893521I-000006306J-000022690D01*
G01Y003891021D01*
G02X003263669Y003869051I-000023550J000000000D01*
G01X003255381Y003867472D01*
G02X003231639Y003891021I-000000192J000023549D01*
G01Y003893521D01*
G02X003248883Y003916212I000023550J000000000D01*
G37*
G36*
X003261495Y003924212D02*
G01X003248883D01*
G02X003231639Y003946902I000006306J000022690D01*
G01Y003949401D01*
G02X003278739Y003949401I000023550J000000000D01*
G01Y003946902D01*
G02X003261495Y003924212I-000023550J000000000D01*
G37*
G36*
X002631663Y003967011D02*
G01X002644275D01*
G02X002661519Y003944321I-000006306J-000022690D01*
G01Y003941821D01*
G02X002614419Y003941821I-000023550J000000000D01*
G01Y003944321D01*
G02X002631663Y003967011I000023550J000000000D01*
G37*
G36*
X002644275Y003975012D02*
G01X002631663D01*
G02X002614419Y003997701I000006306J000022690D01*
G01Y004000202D01*
G02X002661519Y004000202I000023550J000000000D01*
G01Y003997701D01*
G02X002644275Y003975012I-000023550J000000000D01*
G37*
G36*
X002685003Y003796831D02*
G01X002697615D01*
G02X002714859Y003774141I-000006306J-000022690D01*
G01Y003771642D01*
G02X002667759Y003771642I-000023550J000000000D01*
G01Y003774141D01*
G02X002685003Y003796831I000023550J000000000D01*
G37*
G36*
X002697615Y003804832D02*
G01X002685003D01*
G02X002667759Y003827521I000006306J000022690D01*
G01Y003830022D01*
G02X002714859Y003830022I000023550J000000000D01*
G01Y003827521D01*
G02X002697615Y003804832I-000023550J000000000D01*
G37*
G36*
X004807617Y000940236D02*
G01Y001086736D01*
X004857695D01*
Y000940236D01*
X004807617D01*
G37*
G36*
X004799617Y001025341D02*
G02X004677838Y001038498I-000060179J000013157D01*
G01Y001053498D01*
G02X004799617Y001066655I000061600J000000000D01*
G01Y001025341D01*
G37*
G36*
X005124268D02*
Y001066655D01*
G02X005246046Y001053498I000060179J-000013157D01*
G01Y001038498D01*
G02X005124268Y001025341I-000061600J000000000D01*
G37*
G36*
X005116267Y000940236D02*
G01X005066189D01*
Y001086736D01*
X005116267D01*
Y000940236D01*
G37*
G36*
X001046215Y006921230D02*
Y006965256D01*
G02X001101224Y007002493I000055009J-000022013D01*
G01X001111424D01*
G02X001111424Y006883993I000000000J-000059250D01*
G01X001101224D01*
G02X001046215Y006921230I000000000J000059250D01*
G37*
G36*
X001039214Y006920693D02*
G02X000984423Y006883993I-000054791J000022550D01*
G01X000974223D01*
G02X000974223Y007002493I000000000J000059250D01*
G01X000984423D01*
G02X001039214Y006965793I000000000J-000059250D01*
G01Y006920693D01*
G37*
G36*
X001046215Y007048230D02*
Y007092256D01*
G02X001101224Y007129493I000055009J-000022013D01*
G01X001111424D01*
G02X001111424Y007010993I000000000J-000059250D01*
G01X001101224D01*
G02X001046215Y007048230I000000000J000059250D01*
G37*
G36*
X001039214Y007047693D02*
G02X000984423Y007010993I-000054791J000022550D01*
G01X000974223D01*
G02X000974223Y007129493I000000000J000059250D01*
G01X000984423D01*
G02X001039214Y007092793I000000000J-000059250D01*
G01Y007047693D01*
G37*
G36*
X001046215Y007175230D02*
Y007219256D01*
G02X001101224Y007256493I000055009J-000022013D01*
G01X001111424D01*
G02X001111424Y007137993I000000000J-000059250D01*
G01X001101224D01*
G02X001046215Y007175230I000000000J000059250D01*
G37*
G36*
Y007302230D02*
G01Y007346256D01*
G02X001101224Y007383493I000055009J-000022013D01*
G01X001111424D01*
G02X001111424Y007264993I000000000J-000059250D01*
G01X001101224D01*
G02X001046215Y007302230I000000000J000059250D01*
G37*
G36*
Y007429230D02*
G01Y007473256D01*
G02X001101224Y007510493I000055009J-000022013D01*
G01X001111424D01*
G02X001111424Y007391993I000000000J-000059250D01*
G01X001101224D01*
G02X001046215Y007429230I000000000J000059250D01*
G37*
G36*
X001039214Y007391993D02*
G01X000914974D01*
Y007510493D01*
X001039214D01*
Y007391993D01*
G37*
G36*
X000957200Y007253995D02*
X000975865D01*
G03X000981239Y007256493I000000000J000007030D01*
G01X000984423D01*
G02X001039214Y007219793I000000000J-000059250D01*
G01Y007174693D01*
G02X000984423Y007137993I-000054791J000022550D01*
G01X000974223D01*
G02X000957200Y007253995I000000000J000059250D01*
G37*
G36*
X000980970Y007264993D02*
G03X000975865Y007267492I-000005106J-000003968D01*
G01X000957200D01*
G02X000974223Y007383493I000017023J000056752D01*
G01X000984423D01*
G02X001039214Y007346794I000000000J-000059250D01*
G01Y007301693D01*
G02X000984423Y007264993I-000054791J000022550D01*
G01X000980970D01*
G37*
G36*
X008596954Y009418114D02*
G03X008588808Y009420633I-000008146J-000011909D01*
G01X008583058D01*
Y009490614D01*
X008645358D01*
Y009418114D01*
X008596954D01*
G37*
G36*
X002112778Y004548069D02*
X002100017Y004560830D01*
G02X002096330Y004575532I000027463J000014702D01*
G02X002112778Y004548069I000031150J000000000D01*
G37*
G36*
X001943022Y002816976D02*
G01X001945490Y002819629D01*
G02X001935878Y002797125I000021538J-000022505D01*
G02X001943022Y002816976I000031150J000000000D01*
G37*
G36*
X002531446Y003125263D02*
G01X002518686Y003138023D01*
G02X002514998Y003152725I000027462J000014702D01*
G02X002531446Y003125263I000031150J000000000D01*
G37*
G36*
X002174471Y003235984D02*
G01X002163413Y003247042D01*
G02X002184650Y003280771I000021237J000010178D01*
G01X002187150D01*
G02X002187150Y003233670I000000000J-000023550D01*
G01X002184650D01*
G02X002174471Y003235984I000000000J000023550D01*
G37*
G36*
X003218553Y004545696D02*
G02X003205690Y004541872I-000012864J000019726D01*
G01X003203190D01*
G02X003203190Y004588972I000000000J000023550D01*
G01X003205690D01*
G02X003225416Y004552558I000000000J-000023550D01*
G01X003225415Y004552558D01*
X003218554Y004545697D01*
X003218553Y004545696D01*
G37*
G36*
X003179199Y003418401D02*
X003165840Y003426532D01*
G02X003160519Y003441442I000018229J000014910D01*
G01Y003443942D01*
G02X003207619Y003443942I000023550J000000000D01*
G01Y003441442D01*
G02X003179199Y003418401I-000023550J000000000D01*
G37*
G36*
X003153379Y003406022D02*
G01X003166739Y003397891D01*
G02X003172059Y003382982I-000018230J-000014909D01*
G01Y003380482D01*
G02X003124959Y003380482I-000023550J000000000D01*
G01Y003382982D01*
G02X003153379Y003406022I000023550J000000000D01*
G37*
G36*
X001936633Y004239104D02*
G01X001936634Y004239103D01*
X001948540Y004234266D01*
X001948541Y004234266D01*
G02X001957609Y004215695I-000014482J-000018570D01*
G01Y004213195D01*
G02X001910509Y004213195I-000023550J000000000D01*
G01Y004215695D01*
G02X001936633Y004239104I000023550J000000000D01*
G37*
G36*
X003598886Y002823247D02*
G02X003581727Y002845913I000006392J000022666D01*
G01Y002848413D01*
G02X003628827Y002848413I000023550J000000000D01*
G01Y002845913D01*
G02X003611669Y002823247I-000023550J000000000D01*
G01X003611665D01*
X003598889D01*
X003598886D01*
G37*
G36*
X008411630Y002262228D02*
G03X008421893Y002264703I-000001460J000028573D01*
G01X008444930D01*
Y002180603D01*
X008411630D01*
Y002262228D01*
G37*
G36*
X001042967Y006388238D02*
G03X001042967Y006393502I-000028489J000002632D01*
G01Y006420241D01*
X001181466D01*
Y006332542D01*
X001042967D01*
Y006388238D01*
G37*
G36*
X004673661Y003743052D02*
G02X004651499Y003766561I000001388J000023509D01*
G01Y003769062D01*
G02X004698599Y003769062I000023550J000000000D01*
G01Y003766561D01*
G02X004691550Y003749759I-000023550J000000000D01*
G01X004691548Y003749758D01*
X004673662Y003743053D01*
X004673661Y003743052D01*
G37*
G36*
X004882639Y003563532D02*
G03X004882835Y003568893I-000028367J000003721D01*
G02X004929739Y003565861I000023354J-000003032D01*
G01Y003563362D01*
G02X004882639Y003563362I-000023550J000000000D01*
G01Y003563532D01*
G37*
G36*
X004958279Y003386640D02*
X004965282Y003390212D01*
G02X004995881Y003367741I000007049J-000022470D01*
G01Y003365242D01*
G02X004948780Y003365242I-000023550J000000000D01*
G01Y003367741D01*
G02X004958279Y003386640I000023550J000000000D01*
G37*
G36*
X003144368Y004273575D02*
G01X003144368Y004273576D01*
X003143469Y004290497D01*
Y004290499D01*
G02X003189839Y004284682I000022820J-000005817D01*
G01Y004282182D01*
G02X003144368Y004273575I-000023550J000000000D01*
G37*
G36*
X006603431Y002075599D02*
G01X006584710D01*
Y002159700D01*
X006618009D01*
Y002077552D01*
G03X006603431Y002075599I-000003619J-000028381D01*
G37*
G36*
X005642573Y003473300D02*
G03X005648462Y003477380I-000013222J000025372D01*
G02X005663140Y003481055I000014678J-000027475D01*
G01X005673340D01*
G02X005673340Y003418755I000000000J-000031150D01*
G01X005663140D01*
G02X005642573Y003473300I000000000J000031150D01*
G37*
G36*
X001038585Y008612756D02*
G02X001046135Y008582027I-000058752J-000030729D01*
G01X001046135Y008429320D01*
X000979839D01*
X000945389D01*
X000910939D01*
X000844639D01*
Y008495621D01*
Y008530071D01*
Y008582021D01*
G02X000910939Y008648321I000066300J000000000D01*
G01X000979839D01*
G02X001038585Y008612756I000000000J-000066300D01*
G37*
G36*
Y007737378D02*
G02X000979839Y007701814I-000058745J000030735D01*
G01X000910939D01*
G02X000844639Y007768114I000000000J000066300D01*
G01Y007820063D01*
Y007854513D01*
Y007920814D01*
X000910939D01*
X000945389D01*
X000979839D01*
X001046135D01*
X001046135Y007768107D01*
G02X001038585Y007737378I-000066303J000000000D01*
G37*
G36*
X008429415Y001942704D02*
G01X008447917Y001930012D01*
G02X008330760Y001880007I-000047908J-000050004D01*
G02X008429415Y001942704I000069250J000000000D01*
G37*
G36*
X000915249Y009759672D02*
G02X000915249Y009759672I000055261J000000000D01*
G37*
G36*
X003633049Y010404425D02*
G02X003633049Y010404425I000055261J000000000D01*
G37*
G36*
X005429744Y002142237D02*
G02X005429744Y002142237I000055261J000000000D01*
G37*
G36*
X006350849Y010404425D02*
G02X006350849Y010404425I000055261J000000000D01*
G37*
G36*
X009068649Y009759672D02*
G02X009068649Y009759672I000055261J000000000D01*
G37*
G36*
X001642223Y005600015D02*
G02X001642223Y005600015I000057801J000000000D01*
G37*
G36*
X005690905Y005658054D02*
G03X005695586Y005657653I000003573J000014198D01*
G01X005695594Y005657654D01*
G02X005757670Y005602335I000004322J-000057639D01*
G01X005757671Y005602297D01*
G02X005757707Y005601055I-000057756J-000002284D01*
G02X005757671Y005597732I-000057791J-000001040D01*
G01X005757670Y005597696D01*
G02X005695615Y005542375I-000057754J000002319D01*
G01X005695604Y005542375D01*
G03X005690905Y005541976I-000001126J-000014597D01*
G02X005641265Y005600015I000009110J000058039D01*
G02X005690905Y005658054I000058750J000000000D01*
G37*
G36*
X002593138Y002116728D02*
G03X002592524Y002120751I-000014636J-000000177D01*
G01X002592522Y002120758D01*
G02X002625056Y002078056I000072476J000021475D01*
G01X002625039Y002078067D01*
G03X002621378Y002079693I-000007717J-000012435D01*
G02X002593138Y002116728I000043617J000062543D01*
G37*
G36*
X007720595Y010199981D02*
G02X007720595Y010199981I000079391J000000000D01*
G37*
G36*
X008120619D02*
G02X008120619Y010199981I000079391J000000000D01*
G37*
G36*
X002867100Y017138552D02*
G01X002781900D01*
Y017226253D01*
X002867100D01*
Y017138552D01*
G37*
G36*
Y017438552D02*
X002781900D01*
Y017526252D01*
X002867100D01*
Y017438552D01*
G37*
G36*
X002867106Y017638552D02*
X002781900D01*
Y017726251D01*
X002867106D01*
Y017638552D01*
G37*
G36*
X007436434Y013074123D02*
X007350306D01*
Y013116879D01*
X007439506D01*
Y013077194D01*
X007436434Y013074123D01*
G37*
G36*
X007350306Y013166879D02*
X007439506D01*
Y013124879D01*
X007350306D01*
Y013166879D01*
G37*
G36*
Y013216879D02*
X007439506D01*
Y013174879D01*
X007350306D01*
Y013216879D01*
G37*
G36*
Y013266879D02*
X007439506D01*
Y013224879D01*
X007350306D01*
Y013266879D01*
G37*
G36*
Y013316879D02*
X007439506D01*
Y013274879D01*
X007350306D01*
Y013316879D01*
G37*
G36*
Y013366878D02*
X007439506D01*
Y013324879D01*
X007350306D01*
Y013366878D01*
G37*
G36*
Y013416878D02*
X007439506D01*
Y013374879D01*
X007350306D01*
Y013416878D01*
G37*
G36*
Y013466878D02*
X007439506D01*
Y013424879D01*
X007350306D01*
Y013466878D01*
G37*
G36*
Y013516878D02*
X007439506D01*
Y013474878D01*
X007350306D01*
Y013516878D01*
G37*
G36*
Y013566878D02*
X007439506D01*
Y013524878D01*
X007350306D01*
Y013566878D01*
G37*
G36*
Y013616878D02*
X007439506D01*
Y013574878D01*
X007350306D01*
Y013616878D01*
G37*
G36*
X007439506Y013664563D02*
Y013624878D01*
X007350306D01*
Y013667635D01*
X007436435D01*
X007439506Y013664563D01*
G37*
G36*
X008038189Y013664563D02*
X008041260Y013667635D01*
X008127388D01*
Y013624878D01*
X008038189D01*
Y013664563D01*
G37*
G36*
Y013574878D02*
Y013616878D01*
X008127388D01*
Y013574878D01*
X008038189D01*
G37*
G36*
Y013524878D02*
Y013566878D01*
X008127388D01*
Y013524878D01*
X008038189D01*
G37*
G36*
Y013474879D02*
Y013516878D01*
X008127388D01*
Y013474879D01*
X008038189D01*
G37*
G36*
Y013424879D02*
Y013466878D01*
X008127388D01*
Y013424879D01*
X008038189D01*
G37*
G36*
Y013374879D02*
Y013416878D01*
X008127388D01*
Y013374879D01*
X008038189D01*
G37*
G36*
Y013324879D02*
Y013366879D01*
X008127388D01*
Y013324879D01*
X008038189D01*
G37*
G36*
Y013274879D02*
Y013316879D01*
X008127388D01*
Y013274879D01*
X008038189D01*
G37*
G36*
Y013224879D02*
Y013266879D01*
X008127388D01*
Y013224879D01*
X008038189D01*
G37*
G36*
Y013174879D02*
Y013216879D01*
X008127388D01*
Y013174879D01*
X008038189D01*
G37*
G36*
Y013124879D02*
Y013166879D01*
X008127388D01*
Y013124879D01*
X008038189D01*
G37*
G36*
X008041260Y013074123D02*
X008038189Y013077194D01*
Y013116879D01*
X008127388D01*
Y013074123D01*
X008041260D01*
G37*
G36*
X007484848Y013670220D02*
X007445162D01*
X007442091Y013673291D01*
Y013759420D01*
X007484848D01*
Y013670220D01*
G37*
G36*
X007534847D02*
X007492848D01*
Y013759420D01*
X007534847D01*
Y013670220D01*
G37*
G36*
X007584847D02*
X007542848D01*
Y013759420D01*
X007584847D01*
Y013670220D01*
G37*
G36*
X007634847D02*
X007592848D01*
Y013759420D01*
X007634847D01*
Y013670220D01*
G37*
G36*
X007684847D02*
X007642847D01*
Y013759420D01*
X007684847D01*
Y013670220D01*
G37*
G36*
X007734847D02*
X007692847D01*
Y013759420D01*
X007734847D01*
Y013670220D01*
G37*
G36*
X007784847D02*
X007742847D01*
Y013759420D01*
X007784847D01*
Y013670220D01*
G37*
G36*
X007834847D02*
X007792847D01*
Y013759420D01*
X007834847D01*
Y013670220D01*
G37*
G36*
X007884847D02*
X007842847D01*
Y013759420D01*
X007884847D01*
Y013670220D01*
G37*
G36*
X007934847D02*
X007892847D01*
Y013759420D01*
X007934847D01*
Y013670220D01*
G37*
G36*
X007992847D02*
Y013759420D01*
X008035603D01*
Y013673291D01*
X008032532Y013670220D01*
X007992847D01*
G37*
G36*
X007984847D02*
X007942847D01*
Y013759420D01*
X007984847D01*
Y013670220D01*
G37*
G36*
X007992847Y012982337D02*
Y013071537D01*
X008032532D01*
X008035603Y013068466D01*
Y012982337D01*
X007992847D01*
G37*
G36*
X007942847D02*
Y013071537D01*
X007984847D01*
Y012982337D01*
X007942847D01*
G37*
G36*
X007892847D02*
Y013071537D01*
X007934847D01*
Y012982337D01*
X007892847D01*
G37*
G36*
X007842847D02*
Y013071537D01*
X007884847D01*
Y012982337D01*
X007842847D01*
G37*
G36*
X007792847D02*
Y013071537D01*
X007834847D01*
Y012982337D01*
X007792847D01*
G37*
G36*
X007742847D02*
Y013071537D01*
X007784847D01*
Y012982337D01*
X007742847D01*
G37*
G36*
X007692847D02*
Y013071537D01*
X007734847D01*
Y012982337D01*
X007692847D01*
G37*
G36*
X007642847D02*
Y013071537D01*
X007684847D01*
Y012982337D01*
X007642847D01*
G37*
G36*
X007592848D02*
Y013071537D01*
X007634847D01*
Y012982337D01*
X007592848D01*
G37*
G36*
X007542848D02*
Y013071537D01*
X007584847D01*
Y012982337D01*
X007542848D01*
G37*
G36*
X007492848D02*
Y013071537D01*
X007534848D01*
Y012982337D01*
X007492848D01*
G37*
G36*
X007484848D02*
X007442091D01*
Y013068466D01*
X007445162Y013071537D01*
X007484848D01*
Y012982337D01*
G37*
G36*
X007370397Y014432408D02*
X007535797D01*
Y014389639D01*
X007370397D01*
Y014432408D01*
G37*
G36*
Y014482446D02*
X007535797D01*
Y014440408D01*
X007370397D01*
Y014482446D01*
G37*
G36*
Y014532484D02*
X007535797D01*
Y014490446D01*
X007370397D01*
Y014532484D01*
G37*
G36*
Y014582522D02*
X007535797D01*
Y014540485D01*
X007370397D01*
Y014582522D01*
G37*
G36*
Y014632561D02*
X007535797D01*
Y014590523D01*
X007370397D01*
Y014632561D01*
G37*
G36*
Y014682599D02*
X007535797D01*
Y014640561D01*
X007370397D01*
Y014682599D01*
G37*
G36*
Y014732637D02*
X007535797D01*
Y014690598D01*
X007370397D01*
Y014732637D01*
G37*
G36*
Y014782674D02*
X007535797D01*
Y014740637D01*
X007370397D01*
Y014782674D01*
G37*
G36*
Y014832713D02*
X007535797D01*
Y014790675D01*
X007370397D01*
Y014832713D01*
G37*
G36*
Y014882751D02*
X007535797D01*
Y014840712D01*
X007370397D01*
Y014882751D01*
G37*
G36*
Y014932788D02*
X007535797D01*
Y014890750D01*
X007370397D01*
Y014932788D01*
G37*
G36*
Y014940789D02*
Y014983557D01*
X007535797D01*
Y014940789D01*
X007370397D01*
G37*
G36*
X008211137D02*
Y014983557D01*
X008376537D01*
Y014940789D01*
X008211137D01*
G37*
G36*
Y014890750D02*
Y014932788D01*
X008376537D01*
Y014890750D01*
X008211137D01*
G37*
G36*
Y014840712D02*
Y014882751D01*
X008376537D01*
Y014840712D01*
X008211137D01*
G37*
G36*
Y014790675D02*
Y014832713D01*
X008376537D01*
Y014790675D01*
X008211137D01*
G37*
G36*
Y014740637D02*
Y014782674D01*
X008376537D01*
Y014740637D01*
X008211137D01*
G37*
G36*
Y014690598D02*
Y014732637D01*
X008376537D01*
Y014690598D01*
X008211137D01*
G37*
G36*
Y014640561D02*
Y014682599D01*
X008376537D01*
Y014640561D01*
X008211137D01*
G37*
G36*
Y014590523D02*
Y014632561D01*
X008376537D01*
Y014590523D01*
X008211137D01*
G37*
G36*
Y014540485D02*
Y014582522D01*
X008376537D01*
Y014540485D01*
X008211137D01*
G37*
G36*
Y014490446D02*
Y014532484D01*
X008376537D01*
Y014490446D01*
X008211137D01*
G37*
G36*
Y014432408D02*
X008376537D01*
Y014389639D01*
X008211137D01*
Y014432408D01*
G37*
G36*
Y014440408D02*
Y014482446D01*
X008376537D01*
Y014440408D01*
X008211137D01*
G37*
G36*
X007619277Y015024269D02*
X007576508D01*
Y015189669D01*
X007619277D01*
Y015024269D01*
G37*
G36*
X007669315D02*
X007627277D01*
Y015189669D01*
X007669315D01*
Y015024269D01*
G37*
G36*
X007719353D02*
X007677315D01*
Y015189669D01*
X007719353D01*
Y015024269D01*
G37*
G36*
X007769391D02*
X007727353D01*
Y015189669D01*
X007769391D01*
Y015024269D01*
G37*
G36*
X007819429D02*
X007777391D01*
Y015189669D01*
X007819429D01*
Y015024269D01*
G37*
G36*
X007869467D02*
X007827429D01*
Y015189669D01*
X007869467D01*
Y015024269D01*
G37*
G36*
X007919505D02*
X007877467D01*
Y015189669D01*
X007919505D01*
Y015024269D01*
G37*
G36*
X007969543D02*
X007927505D01*
Y015189669D01*
X007969543D01*
Y015024269D01*
G37*
G36*
X008019581D02*
X007977543D01*
Y015189669D01*
X008019581D01*
Y015024269D01*
G37*
G36*
X008069619D02*
X008027581D01*
Y015189669D01*
X008069619D01*
Y015024269D01*
G37*
G36*
X008119657D02*
X008077619D01*
Y015189669D01*
X008119657D01*
Y015024269D01*
G37*
G36*
X008170426Y015024684D02*
X008170426Y015024684D01*
X008170011Y015024269D01*
X008170010Y015024269D01*
X008127657D01*
Y015189669D01*
X008170426D01*
Y015024684D01*
G37*
G36*
X008127657Y014183529D02*
Y014348929D01*
X008170426D01*
Y014183529D01*
X008127657D01*
G37*
G36*
X008077619D02*
Y014348929D01*
X008119657D01*
Y014183529D01*
X008077619D01*
G37*
G36*
X008027581D02*
Y014348929D01*
X008069619D01*
Y014183529D01*
X008027581D01*
G37*
G36*
X007977543D02*
Y014348929D01*
X008019581D01*
Y014183529D01*
X007977543D01*
G37*
G36*
X007927505D02*
Y014348929D01*
X007969543D01*
Y014183529D01*
X007927505D01*
G37*
G36*
X007877467D02*
Y014348929D01*
X007919505D01*
Y014183529D01*
X007877467D01*
G37*
G36*
X007827429D02*
Y014348929D01*
X007869467D01*
Y014183529D01*
X007827429D01*
G37*
G36*
X007777391D02*
Y014348929D01*
X007819429D01*
Y014183529D01*
X007777391D01*
G37*
G36*
X007727353D02*
Y014348929D01*
X007769391D01*
Y014183529D01*
X007727353D01*
G37*
G36*
X007677315D02*
Y014348929D01*
X007719353D01*
Y014183529D01*
X007677315D01*
G37*
G36*
X007627277D02*
Y014348929D01*
X007669315D01*
Y014183529D01*
X007627277D01*
G37*
G36*
X007619277D02*
X007576508D01*
Y014348929D01*
X007619277D01*
Y014183529D01*
G37*
G36*
X002055141Y018322139D02*
X002132355D01*
G02X002124198Y018288200I-000008157J-000015990D01*
G01X002063298D01*
G02X002055141Y018322139I000000000J000017950D01*
G37*
G36*
X002055167Y018362132D02*
G01X002132330D01*
G02X002132355Y018330139I-000008132J-000016003D01*
G01X002055141D01*
G02X002055167Y018362132I000008157J000015990D01*
G37*
G36*
Y018402137D02*
G01X002132330D01*
G02X002132330Y018370132I-000008132J-000016003D01*
G01X002055167D01*
G02X002055167Y018402137I000008132J000016003D01*
G37*
G36*
Y018442142D02*
G01X002132330D01*
G02X002132330Y018410137I-000008132J-000016003D01*
G01X002055167D01*
G02X002055167Y018442142I000008132J000016003D01*
G37*
G36*
Y018482147D02*
G01X002132330D01*
G02X002132330Y018450142I-000008132J-000016003D01*
G01X002055167D01*
G02X002055167Y018482147I000008132J000016003D01*
G37*
G36*
X002055141Y018522139D02*
G01X002132355D01*
G02X002132330Y018490147I-000008157J-000015990D01*
G01X002055167D01*
G02X002055141Y018522139I000008132J000016003D01*
G37*
G36*
X002055167Y018562131D02*
G01X002132330D01*
G02X002132355Y018530139I-000008132J-000016003D01*
G01X002055141D01*
G02X002055167Y018562131I000008157J000015990D01*
G37*
G36*
Y018602136D02*
G01X002132330D01*
G02X002132330Y018570131I-000008132J-000016003D01*
G01X002055167D01*
G02X002055167Y018602136I000008132J000016003D01*
G37*
G36*
Y018642141D02*
G01X002132330D01*
G02X002132330Y018610136I-000008132J-000016003D01*
G01X002055167D01*
G02X002055167Y018642141I000008132J000016003D01*
G37*
G36*
Y018682146D02*
G01X002132330D01*
G02X002132330Y018650141I-000008132J-000016003D01*
G01X002055167D01*
G02X002055167Y018682146I000008132J000016003D01*
G37*
G36*
X002055141Y018722138D02*
G01X002132355D01*
G02X002132330Y018690146I-000008157J-000015990D01*
G01X002055167D01*
G02X002055141Y018722138I000008132J000016003D01*
G37*
G36*
X002055167Y018762131D02*
G01X002132330D01*
G02X002132354Y018730138I-000008132J-000016003D01*
G01X002055142D01*
G02X002055167Y018762131I000008156J000015990D01*
G37*
G36*
Y018802136D02*
G01X002132330D01*
G02X002132330Y018770131I-000008132J-000016003D01*
G01X002055167D01*
G02X002055167Y018802136I000008132J000016003D01*
G37*
G36*
Y018842141D02*
G01X002132330D01*
G02X002132330Y018810136I-000008132J-000016003D01*
G01X002055167D01*
G02X002055167Y018842141I000008132J000016003D01*
G37*
G36*
Y018882146D02*
G01X002132330D01*
G02X002132330Y018850141I-000008132J-000016003D01*
G01X002055167D01*
G02X002055167Y018882146I000008132J000016003D01*
G37*
G36*
X002055141Y018922138D02*
G01X002132355D01*
G02X002132330Y018890146I-000008157J-000015990D01*
G01X002055167D01*
G02X002055141Y018922138I000008132J000016003D01*
G37*
G36*
Y018930138D02*
G02X002063298Y018964078I000008157J000015990D01*
G01X002124198D01*
G02X002132355Y018930138I000000000J-000017950D01*
G01X002055141D01*
G37*
G36*
X002842440D02*
G02X002850596Y018964078I000008157J000015990D01*
G01X002911497D01*
G02X002919653Y018930138I000000000J-000017950D01*
G01X002842440D01*
G37*
G36*
X002842465Y018890146D02*
G02X002842440Y018922138I000008132J000016003D01*
G01X002919653D01*
G02X002919628Y018890146I-000008157J-000015990D01*
G01X002842465D01*
G37*
G36*
Y018850141D02*
G02X002842465Y018882146I000008132J000016003D01*
G01X002919628D01*
G02X002919628Y018850141I-000008132J-000016003D01*
G01X002842465D01*
G37*
G36*
Y018810136D02*
G02X002842465Y018842141I000008132J000016003D01*
G01X002919628D01*
G02X002919628Y018810136I-000008132J-000016003D01*
G01X002842465D01*
G37*
G36*
Y018770131D02*
G02X002842465Y018802136I000008132J000016003D01*
G01X002919628D01*
G02X002919628Y018770131I-000008132J-000016003D01*
G01X002842465D01*
G37*
G36*
X002842440Y018730139D02*
G02X002842465Y018762131I000008157J000015990D01*
G01X002919628D01*
G02X002919653Y018730139I-000008132J-000016003D01*
G01X002842440D01*
G37*
G36*
X002842465Y018690146D02*
G02X002842440Y018722139I000008132J000016003D01*
G01X002919653D01*
G02X002919628Y018690146I-000008156J-000015990D01*
G01X002842465D01*
G37*
G36*
Y018650141D02*
G02X002842465Y018682146I000008132J000016003D01*
G01X002919628D01*
G02X002919628Y018650141I-000008132J-000016003D01*
G01X002842465D01*
G37*
G36*
Y018610136D02*
G02X002842465Y018642141I000008132J000016003D01*
G01X002919628D01*
G02X002919628Y018610136I-000008132J-000016003D01*
G01X002842465D01*
G37*
G36*
Y018570131D02*
G02X002842465Y018602136I000008132J000016003D01*
G01X002919628D01*
G02X002919628Y018570131I-000008132J-000016003D01*
G01X002842465D01*
G37*
G36*
X002842440Y018530139D02*
G02X002842465Y018562131I000008157J000015990D01*
G01X002919628D01*
G02X002919653Y018530139I-000008132J-000016003D01*
G01X002842440D01*
G37*
G36*
X002842465Y018490147D02*
G02X002842440Y018522139I000008132J000016003D01*
G01X002919653D01*
G02X002919628Y018490147I-000008157J-000015990D01*
G01X002842465D01*
G37*
G36*
Y018450142D02*
G02X002842465Y018482147I000008132J000016003D01*
G01X002919628D01*
G02X002919628Y018450142I-000008132J-000016003D01*
G01X002842465D01*
G37*
G36*
Y018410137D02*
G02X002842465Y018442142I000008132J000016003D01*
G01X002919628D01*
G02X002919628Y018410137I-000008132J-000016003D01*
G01X002842465D01*
G37*
G36*
Y018370132D02*
G02X002842465Y018402137I000008132J000016003D01*
G01X002919628D01*
G02X002919628Y018370132I-000008132J-000016003D01*
G01X002842465D01*
G37*
G36*
X002842440Y018322139D02*
X002919653D01*
G02X002911497Y018288200I-000008157J-000015990D01*
G01X002850596D01*
G02X002842440Y018322139I000000000J000017950D01*
G37*
G36*
Y018330139D02*
G02X002842465Y018362132I000008157J000015990D01*
G01X002919628D01*
G02X002919653Y018330139I-000008132J-000016003D01*
G01X002842440D01*
G37*
G36*
X002182128Y018979911D02*
G02X002148188Y018988068I-000015990J000008157D01*
G01Y019048968D01*
G02X002182128Y019057124I000017950J000000000D01*
G01Y018979911D01*
G37*
G36*
X002222120Y018979936D02*
G02X002190128Y018979911I-000016003J000008132D01*
G01Y019057124D01*
G02X002222120Y019057099I000015990J-000008157D01*
G01Y018979936D01*
G37*
G36*
X002262125D02*
G02X002230120Y018979936I-000016003J000008132D01*
G01Y019057099D01*
G02X002262125Y019057099I000016003J-000008132D01*
G01Y018979936D01*
G37*
G36*
X002302130D02*
G02X002270125Y018979936I-000016003J000008132D01*
G01Y019057099D01*
G02X002302130Y019057099I000016003J-000008132D01*
G01Y018979936D01*
G37*
G36*
X002342135D02*
G02X002310130Y018979936I-000016003J000008132D01*
G01Y019057099D01*
G02X002342135Y019057099I000016003J-000008132D01*
G01Y018979936D01*
G37*
G36*
X002382127Y018979911D02*
G02X002350135Y018979936I-000015990J000008157D01*
G01Y019057099D01*
G02X002382127Y019057124I000016003J-000008132D01*
G01Y018979911D01*
G37*
G36*
X002422120Y018979936D02*
G02X002390127Y018979911I-000016003J000008132D01*
G01Y019057124D01*
G02X002422120Y019057099I000015990J-000008156D01*
G01Y018979936D01*
G37*
G36*
X002462125D02*
G02X002430120Y018979936I-000016003J000008132D01*
G01Y019057099D01*
G02X002462125Y019057099I000016003J-000008132D01*
G01Y018979936D01*
G37*
G36*
X002502130D02*
G02X002470125Y018979936I-000016003J000008132D01*
G01Y019057099D01*
G02X002502130Y019057099I000016003J-000008132D01*
G01Y018979936D01*
G37*
G36*
X002542135D02*
G02X002510130Y018979936I-000016003J000008132D01*
G01Y019057099D01*
G02X002542135Y019057099I000016003J-000008132D01*
G01Y018979936D01*
G37*
G36*
X002582127Y018979911D02*
G02X002550135Y018979936I-000015990J000008157D01*
G01Y019057099D01*
G02X002582127Y019057124I000016003J-000008132D01*
G01Y018979911D01*
G37*
G36*
X002622119Y018979936D02*
G02X002590127Y018979911I-000016003J000008132D01*
G01Y019057124D01*
G02X002622119Y019057099I000015990J-000008157D01*
G01Y018979936D01*
G37*
G36*
X002662124D02*
G02X002630119Y018979936I-000016003J000008132D01*
G01Y019057099D01*
G02X002662124Y019057099I000016003J-000008132D01*
G01Y018979936D01*
G37*
G36*
X002702129D02*
G02X002670124Y018979936I-000016003J000008132D01*
G01Y019057099D01*
G02X002702129Y019057099I000016003J-000008132D01*
G01Y018979936D01*
G37*
G36*
X002742134D02*
G02X002710129Y018979936I-000016003J000008132D01*
G01Y019057099D01*
G02X002742134Y019057099I000016003J-000008132D01*
G01Y018979936D01*
G37*
G36*
X002790127Y018979911D02*
Y019057124D01*
G02X002824066Y019048968I000015990J-000008156D01*
G01Y018988068D01*
G02X002790127Y018979911I-000017950J000000000D01*
G37*
G36*
X002782127Y018979911D02*
G02X002750134Y018979936I-000015990J000008157D01*
G01Y019057099D01*
G02X002782127Y019057124I000016003J-000008132D01*
G01Y018979911D01*
G37*
G36*
X002790127Y018195153D02*
Y018272366D01*
G02X002824066Y018264210I000015990J-000008157D01*
G01Y018203310D01*
G02X002790127Y018195153I-000017950J000000000D01*
G37*
G36*
X002750134Y018195178D02*
G01Y018272341D01*
G02X002782127Y018272366I000016003J-000008132D01*
G01Y018195153D01*
G02X002750134Y018195178I-000015990J000008156D01*
G37*
G36*
X002710129D02*
G01Y018272341D01*
G02X002742134Y018272341I000016003J-000008132D01*
G01Y018195178D01*
G02X002710129Y018195178I-000016003J000008132D01*
G37*
G36*
X002670124D02*
G01Y018272341D01*
G02X002702129Y018272341I000016003J-000008132D01*
G01Y018195178D01*
G02X002670124Y018195178I-000016003J000008132D01*
G37*
G36*
X002630119D02*
G01Y018272341D01*
G02X002662124Y018272341I000016003J-000008132D01*
G01Y018195178D01*
G02X002630119Y018195178I-000016003J000008132D01*
G37*
G36*
X002590127Y018195153D02*
G01Y018272366D01*
G02X002622119Y018272341I000015990J-000008157D01*
G01Y018195178D01*
G02X002590127Y018195153I-000016003J000008132D01*
G37*
G36*
X002550135Y018195178D02*
G01Y018272341D01*
G02X002582127Y018272366I000016003J-000008132D01*
G01Y018195153D01*
G02X002550135Y018195178I-000015990J000008157D01*
G37*
G36*
X002510130D02*
G01Y018272341D01*
G02X002542135Y018272341I000016003J-000008132D01*
G01Y018195178D01*
G02X002510130Y018195178I-000016003J000008132D01*
G37*
G36*
X002470125D02*
G01Y018272341D01*
G02X002502130Y018272341I000016003J-000008132D01*
G01Y018195178D01*
G02X002470125Y018195178I-000016003J000008132D01*
G37*
G36*
X002430120D02*
G01Y018272341D01*
G02X002462125Y018272341I000016003J-000008132D01*
G01Y018195178D01*
G02X002430120Y018195178I-000016003J000008132D01*
G37*
G36*
X002390128Y018195153D02*
G01Y018272366D01*
G02X002422120Y018272341I000015990J-000008157D01*
G01Y018195178D01*
G02X002390128Y018195153I-000016003J000008132D01*
G37*
G36*
X002350135Y018195178D02*
G01Y018272341D01*
G02X002382127Y018272366I000016003J-000008132D01*
G01Y018195153D01*
G02X002350135Y018195178I-000015990J000008156D01*
G37*
G36*
X002310130D02*
G01Y018272341D01*
G02X002342135Y018272341I000016003J-000008132D01*
G01Y018195178D01*
G02X002310130Y018195178I-000016003J000008132D01*
G37*
G36*
X002270125D02*
G01Y018272341D01*
G02X002302130Y018272341I000016003J-000008132D01*
G01Y018195178D01*
G02X002270125Y018195178I-000016003J000008132D01*
G37*
G36*
X002230120D02*
G01Y018272341D01*
G02X002262125Y018272341I000016003J-000008132D01*
G01Y018195178D01*
G02X002230120Y018195178I-000016003J000008132D01*
G37*
G36*
X002190128Y018195153D02*
G01Y018272366D01*
G02X002222120Y018272341I000015990J-000008157D01*
G01Y018195178D01*
G02X002190128Y018195153I-000016003J000008132D01*
G37*
G36*
X002182128D02*
G02X002148188Y018203310I-000015990J000008157D01*
G01Y018264210D01*
G02X002182128Y018272366I000017950J000000000D01*
G01Y018195153D01*
G37*
G36*
X006264754Y012572316D02*
X006476954D01*
Y012500061D01*
X006264754D01*
Y012572316D01*
G37*
G36*
Y012652326D02*
X006476954D01*
Y012580316D01*
X006264754D01*
Y012652326D01*
G37*
G36*
Y012732323D02*
X006476954D01*
Y012660326D01*
X006264754D01*
Y012732323D01*
G37*
G36*
Y012812321D02*
X006476954D01*
Y012740323D01*
X006264754D01*
Y012812321D01*
G37*
G36*
Y012892318D02*
X006476954D01*
Y012820321D01*
X006264754D01*
Y012892318D01*
G37*
G36*
Y012972315D02*
X006476954D01*
Y012900318D01*
X006264754D01*
Y012972315D01*
G37*
G36*
Y013052325D02*
X006476954D01*
Y012980315D01*
X006264754D01*
Y013052325D01*
G37*
G36*
Y013060325D02*
Y013132580D01*
X006476954D01*
Y013060325D01*
X006264754D01*
G37*
G36*
Y013532322D02*
X006476954D01*
Y013460079D01*
X006264754D01*
Y013532322D01*
G37*
G36*
Y013612319D02*
X006476954D01*
Y013540321D01*
X006264754D01*
Y013612319D01*
G37*
G36*
Y013692316D02*
X006476954D01*
Y013620319D01*
X006264754D01*
Y013692316D01*
G37*
G36*
Y013772313D02*
X006476954D01*
Y013700316D01*
X006264754D01*
Y013772313D01*
G37*
G36*
Y013852324D02*
X006476954D01*
Y013780314D01*
X006264754D01*
Y013852324D01*
G37*
G36*
Y013932321D02*
X006476954D01*
Y013860323D01*
X006264754D01*
Y013932321D01*
G37*
G36*
Y014012318D02*
X006476954D01*
Y013940321D01*
X006264754D01*
Y014012318D01*
G37*
G36*
Y014092315D02*
X006476954D01*
Y014020318D01*
X006264754D01*
Y014092315D01*
G37*
G36*
Y014172313D02*
X006476954D01*
Y014100315D01*
X006264754D01*
Y014172313D01*
G37*
G36*
Y014252322D02*
X006476954D01*
Y014180313D01*
X006264754D01*
Y014252322D01*
G37*
G36*
Y014332320D02*
X006476954D01*
Y014260323D01*
X006264754D01*
Y014332320D01*
G37*
G36*
Y014412317D02*
X006476954D01*
Y014340320D01*
X006264754D01*
Y014412317D01*
G37*
G36*
Y014492315D02*
X006476954D01*
Y014420317D01*
X006264754D01*
Y014492315D01*
G37*
G36*
Y014572312D02*
X006476954D01*
Y014500314D01*
X006264754D01*
Y014572312D01*
G37*
G36*
Y014652322D02*
X006476954D01*
Y014580312D01*
X006264754D01*
Y014652322D01*
G37*
G36*
Y014732319D02*
X006476954D01*
Y014660322D01*
X006264754D01*
Y014732319D01*
G37*
G36*
Y014812317D02*
X006476954D01*
Y014740319D01*
X006264754D01*
Y014812317D01*
G37*
G36*
Y014820316D02*
Y014892572D01*
X006476954D01*
Y014820316D01*
X006264754D01*
G37*
G36*
X005444741Y013572314D02*
X005656941D01*
Y013500059D01*
X005444741D01*
Y013572314D01*
G37*
G36*
Y013652324D02*
X005656941D01*
Y013580314D01*
X005444741D01*
Y013652324D01*
G37*
G36*
Y013732321D02*
X005656941D01*
Y013660324D01*
X005444741D01*
Y013732321D01*
G37*
G36*
Y013812319D02*
X005656941D01*
Y013740321D01*
X005444741D01*
Y013812319D01*
G37*
G36*
Y013892316D02*
X005656941D01*
Y013820318D01*
X005444741D01*
Y013892316D01*
G37*
G36*
Y013972313D02*
X005656941D01*
Y013900316D01*
X005444741D01*
Y013972313D01*
G37*
G36*
Y014052323D02*
X005656941D01*
Y013980313D01*
X005444741D01*
Y014052323D01*
G37*
G36*
Y014132320D02*
X005656941D01*
Y014060323D01*
X005444741D01*
Y014132320D01*
G37*
G36*
Y014212318D02*
X005656941D01*
Y014140320D01*
X005444741D01*
Y014212318D01*
G37*
G36*
Y014292315D02*
X005656941D01*
Y014220318D01*
X005444741D01*
Y014292315D01*
G37*
G36*
Y014372312D02*
X005656941D01*
Y014300315D01*
X005444741D01*
Y014372312D01*
G37*
G36*
Y014452322D02*
X005656941D01*
Y014380312D01*
X005444741D01*
Y014452322D01*
G37*
G36*
Y014532320D02*
X005656941D01*
Y014460322D01*
X005444741D01*
Y014532320D01*
G37*
G36*
Y014612317D02*
X005656941D01*
Y014540319D01*
X005444741D01*
Y014612317D01*
G37*
G36*
Y014692314D02*
X005656941D01*
Y014620317D01*
X005444741D01*
Y014692314D01*
G37*
G36*
Y014772311D02*
X005656941D01*
Y014700314D01*
X005444741D01*
Y014772311D01*
G37*
G36*
Y014780312D02*
Y014852567D01*
X005656941D01*
Y014780312D01*
X005444741D01*
G37*
G36*
X002350859Y018043710D02*
Y018056322D01*
G02X002373549Y018073566I000022690J-000006306D01*
G01X002376049D01*
G02X002376049Y018026466I000000000J-000023550D01*
G01X002373549D01*
G02X002350859Y018043710I000000000J000023550D01*
G37*
G36*
X002342859Y018056322D02*
G01Y018043710D01*
G02X002320169Y018026466I-000022690J000006306D01*
G01X002317669D01*
G02X002317669Y018073566I000000000J000023550D01*
G01X002320169D01*
G02X002342859Y018056322I000000000J-000023550D01*
G37*
G36*
X002350859Y017987728D02*
G01Y018000340D01*
G02X002373549Y018017584I000022690J-000006306D01*
G01X002376049D01*
G02X002376049Y017970484I000000000J-000023550D01*
G01X002373549D01*
G02X002350859Y017987728I000000000J000023550D01*
G37*
G36*
X002342859Y018000340D02*
G01Y017987728D01*
G02X002320169Y017970484I-000022690J000006306D01*
G01X002317669D01*
G02X002317669Y018017584I000000000J000023550D01*
G01X002320169D01*
G02X002342859Y018000340I000000000J-000023550D01*
G37*
G36*
X007445667Y018027962D02*
G01Y018040574D01*
G02X007468357Y018057818I000022690J-000006306D01*
G01X007470857D01*
G02X007470857Y018010718I000000000J-000023550D01*
G01X007468357D01*
G02X007445667Y018027962I000000000J000023550D01*
G37*
G36*
X007437667Y018040574D02*
G01Y018027962D01*
G02X007414977Y018010718I-000022690J000006306D01*
G01X007412477D01*
G02X007412477Y018057818I000000000J000023550D01*
G01X007414977D01*
G02X007437667Y018040574I000000000J-000023550D01*
G37*
G36*
X007829207Y017365124D02*
G01Y017377735D01*
G02X007851897Y017394980I000022690J-000006306D01*
G01X007854397D01*
G02X007854397Y017347880I000000000J-000023550D01*
G01X007851897D01*
G02X007829207Y017365124I000000000J000023550D01*
G37*
G36*
X007773327D02*
G01Y017377735D01*
G02X007796017Y017394980I000022690J-000006306D01*
G01X007798517D01*
G02X007821207Y017377735I000000000J-000023550D01*
G01Y017365124D01*
G02X007798517Y017347880I-000022690J000006306D01*
G01X007796017D01*
G02X007773327Y017365124I000000000J000023550D01*
G37*
G36*
X007765327Y017377735D02*
G01Y017365124D01*
G02X007742637Y017347880I-000022690J000006306D01*
G01X007740137D01*
G02X007740137Y017394980I000000000J000023550D01*
G01X007742637D01*
G02X007765327Y017377735I000000000J-000023550D01*
G37*
G36*
X007217961Y016256129D02*
G01X007233574D01*
G02X007227017Y016209960I-000006556J-000022619D01*
G01X007224517D01*
G02X007217961Y016256129I000000000J000023550D01*
G37*
G36*
X007217962Y016264128D02*
G02X007224517Y016310298I000006555J000022619D01*
G01X007227017D01*
G02X007233573Y016264128I000000000J-000023550D01*
G01X007217962D01*
G37*
G36*
X007620794Y017722412D02*
G02X007628377Y017768258I000007583J000022296D01*
G01X007630877D01*
G02X007639770Y017722901I000000000J-000023550D01*
G01X007620794Y017722412D01*
G37*
G36*
X007829207Y017695323D02*
Y017707936D01*
G02X007851897Y017725180I000022690J-000006306D01*
G01X007854397D01*
G02X007854397Y017678080I000000000J-000023550D01*
G01X007851897D01*
G02X007829207Y017695323I000000000J000023550D01*
G37*
G36*
X007821207Y017707936D02*
G01Y017695323D01*
G02X007798517Y017678080I-000022690J000006306D01*
G01X007796017D01*
G02X007796017Y017725180I000000000J000023550D01*
G01X007798517D01*
G02X007821207Y017707936I000000000J-000023550D01*
G37*
G36*
X007625912Y017659478D02*
G01X007638524D01*
G02X007655768Y017636789I-000006306J-000022690D01*
G01Y017634288D01*
G02X007608668Y017634288I-000023550J000000000D01*
G01Y017636789D01*
G02X007625912Y017659478I000023550J000000000D01*
G37*
G36*
X007638524Y017667479D02*
G01X007625912D01*
G02X007608668Y017690169I000006306J000022690D01*
G01Y017692669D01*
G02X007623325Y017714475I000023550J000000000D01*
G01X007639977Y017714904D01*
G02X007655768Y017692669I-000007759J-000022235D01*
G01Y017690169D01*
G02X007638524Y017667479I-000023550J000000000D01*
G37*
G36*
X007737571Y017882999D02*
G01X007750183D01*
G02X007767426Y017860309I-000006306J-000022690D01*
G01Y017857809D01*
G02X007720326Y017857809I-000023550J000000000D01*
G01Y017860309D01*
G02X007737571Y017882999I000023550J000000000D01*
G37*
G36*
Y017938879D02*
G01X007750183D01*
G02X007767426Y017916189I-000006306J-000022690D01*
G01Y017913688D01*
G02X007750183Y017890999I-000023550J000000000D01*
G01X007737571D01*
G02X007720326Y017913688I000006306J000022690D01*
G01Y017916189D01*
G02X007737571Y017938879I000023550J000000000D01*
G37*
G36*
X007740022Y017550639D02*
G01X007727410D01*
G02X007710167Y017573329I000006306J000022690D01*
G01Y017575829D01*
G02X007757266Y017575829I000023550J000000000D01*
G01Y017573329D01*
G02X007740022Y017550639I-000023550J000000000D01*
G37*
G36*
X007826676Y017957387D02*
G01X007829287Y017969030D01*
G02X007873776Y017958251I000020939J-000010779D01*
G01Y017955751D01*
G02X007826676Y017955751I-000023550J000000000D01*
G01Y017957387D01*
G37*
G36*
X007818940Y017959449D02*
G02X007778268Y017969549I-000019082J000010100D01*
G01Y017972088D01*
G02X007821448Y017972088I000021590J000000000D01*
G01Y017970631D01*
X007818940Y017959449D01*
G37*
G36*
X007674570Y017816021D02*
X007663379Y017833659D01*
G02X007686797Y017859698I000023418J000002489D01*
G01X007689297D01*
G02X007689297Y017812598I000000000J-000023550D01*
G01X007686797D01*
G02X007674570Y017816021I000000000J000023550D01*
G37*
G36*
X007643105Y017820816D02*
G01X007654295Y017803179D01*
G02X007630877Y017777140I-000023418J-000002489D01*
G01X007628377D01*
G02X007628377Y017824240I000000000J000023550D01*
G01X007630877D01*
G02X007643105Y017820816I000000000J-000023550D01*
G37*
G36*
X007710341Y017514587D02*
G03X007710638Y017518699I-000028313J000004112D01*
G03X007710341Y017522810I-000028611J000000000D01*
G02X007727410Y017542639I000023376J-000002862D01*
G01X007740022D01*
G02X007757266Y017519949I-000006306J-000022690D01*
G01Y017517449D01*
G02X007710341Y017514587I-000023550J000000000D01*
G37*
G36*
X007764071Y017984184D02*
G02X007767426Y017972068I-000020195J-000012115D01*
G01Y017969569D01*
G02X007750183Y017946878I-000023550J000000000D01*
G01X007737571D01*
G02X007720326Y017969569I000006306J000022690D01*
G01Y017972068D01*
G02X007755992Y017992263I000023550J000000000D01*
G01X007755993Y017992262D01*
X007764070Y017984185D01*
X007764071Y017984184D01*
G37*
G36*
X006815747Y017791742D02*
Y017804354D01*
G02X006838437Y017821598I000022690J-000006306D01*
G01X006840937D01*
G02X006840937Y017774498I000000000J-000023550D01*
G01X006838437D01*
G02X006815747Y017791742I000000000J000023550D01*
G37*
G36*
X006804681Y017785029D02*
G01X006804673Y017785024D01*
G03X006801205Y017782246I000007311J-000012680D01*
G01X006801173Y017782212D01*
G02X006770386Y017778739I-000017375J000015836D01*
G03X006770090Y017778932I-000002869J-000004095D01*
G03X006767215Y017780181I-000006183J-000010299D01*
G02X006782557Y017821598I000015342J000017867D01*
G01X006785057D01*
G02X006807747Y017804354I000000000J-000023550D01*
G01Y017791742D01*
G02X006804681Y017785029I-000022690J000006306D01*
G37*
G36*
X007148648Y017965936D02*
G01Y017990839D01*
G02X007168637Y018001938I000019989J-000012451D01*
G01X007171137D01*
G02X007171137Y017954838I000000000J-000023550D01*
G01X007168637D01*
G02X007148648Y017965936I000000000J000023550D01*
G37*
G36*
X007115372Y018002379D02*
G01X007127984D01*
G02X007141648Y017992171I-000006306J-000022690D01*
G01Y017964707D01*
G02X007098128Y017977189I-000019970J000012482D01*
G01Y017979689D01*
G02X007115372Y018002379I000023550J000000000D01*
G37*
G36*
X007148788Y018025829D02*
G01Y018042910D01*
G02X007168617Y018055960I000019829J-000008541D01*
G01X007171157D01*
G02X007171157Y018012780I000000000J-000021590D01*
G01X007168617D01*
G02X007148788Y018025829I000000000J000021590D01*
G37*
G36*
X007115372Y018058259D02*
G01X007127984D01*
G02X007141722Y018047931I-000006306J-000022690D01*
G01Y018020706D01*
G02X007127984Y018010379I-000020044J000012363D01*
G01X007115372D01*
G02X007098128Y018033069I000006306J000022690D01*
G01Y018035569D01*
G02X007115372Y018058259I000023550J000000000D01*
G37*
G36*
X007127984Y018066259D02*
G01X007115372D01*
G02X007098128Y018088948I000006306J000022690D01*
G01Y018091449D01*
G02X007145228Y018091449I000023550J000000000D01*
G01Y018088948D01*
G02X007127984Y018066259I-000023550J000000000D01*
G37*
G36*
X006958964Y017268381D02*
G01X006945654Y017269343D01*
G02X006930386Y017291389I000008283J000022046D01*
G01Y017293889D01*
G02X006977486Y017293889I000023550J000000000D01*
G01Y017291389D01*
G02X006958964Y017268381I-000023550J000000000D01*
G37*
G36*
X006951602Y017260893D02*
G01X006951865Y017260874D01*
G02X006950177Y017217760I-000001687J-000021524D01*
G01X006947637D01*
G02X006947637Y017260939I000000000J000021590D01*
G01X006950177D01*
G02X006951602Y017260893I000000001J-000021590D01*
G37*
G36*
X007006050Y017374998D02*
G01X007018662D01*
G02X007035907Y017352308I-000006306J-000022690D01*
G01Y017349809D01*
G02X006988807Y017349809I-000023550J000000000D01*
G01Y017352308D01*
G02X007006050Y017374998I000023550J000000000D01*
G37*
G36*
X007018662Y017382999D02*
G01X007006050D01*
G02X006988807Y017405689I000006306J000022690D01*
G01Y017408189D01*
G02X007035907Y017408189I000023550J000000000D01*
G01Y017405689D01*
G02X007018662Y017382999I-000023550J000000000D01*
G37*
G36*
X006924180Y017185217D02*
G02X006947657Y017206918I000023477J-000001850D01*
G01X006950157D01*
G02X006950157Y017159818I000000000J-000023550D01*
G01X006947657D01*
G02X006924177Y017181563I000000000J000023550D01*
G01Y017181568D01*
X006924180Y017185213D01*
Y017185217D01*
G37*
G36*
X006937986Y017677644D02*
Y017689953D01*
G02X006980606Y017685069I000021030J-000004884D01*
G01Y017682528D01*
G02X006937986Y017677644I-000021590J000000000D01*
G37*
G36*
X006930567Y017688633D02*
G01Y017678862D01*
G02X006909537Y017662158I-000021030J000004886D01*
G01X006906997D01*
G02X006906997Y017705338I000000000J000021590D01*
G01X006909537D01*
G02X006930567Y017688633I000000000J-000021590D01*
G37*
G36*
X007686967Y013892842D02*
G01Y013905454D01*
G02X007709657Y013922698I000022690J-000006306D01*
G01X007712157D01*
G02X007712157Y013875598I000000000J-000023550D01*
G01X007709657D01*
G02X007686967Y013892842I000000000J000023550D01*
G37*
G36*
X007678967Y013905454D02*
G01Y013892842D01*
G02X007656277Y013875598I-000022690J000006306D01*
G01X007653777D01*
G02X007653777Y013922698I000000000J000023550D01*
G01X007656277D01*
G02X007678967Y013905454I000000000J-000023550D01*
G37*
G36*
X007686967Y013948824D02*
G01Y013961435D01*
G02X007709657Y013978679I000022690J-000006306D01*
G01X007712157D01*
G02X007712157Y013931580I000000000J-000023550D01*
G01X007709657D01*
G02X007686967Y013948824I000000000J000023550D01*
G37*
G36*
X007678967Y013961435D02*
G01Y013948824D01*
G02X007656277Y013931580I-000022690J000006306D01*
G01X007653777D01*
G02X007653777Y013978679I000000000J000023550D01*
G01X007656277D01*
G02X007678967Y013961435I000000000J-000023550D01*
G37*
G36*
X003081852Y016986378D02*
G01X003094464D01*
G02X003111708Y016963688I-000006306J-000022690D01*
G01Y016961189D01*
G02X003064608Y016961189I-000023550J000000000D01*
G01Y016963688D01*
G02X003081852Y016986378I000023550J000000000D01*
G37*
G36*
Y017042259D02*
G01X003094464D01*
G02X003111708Y017019569I-000006306J-000022690D01*
G01Y017017069D01*
G02X003094464Y016994379I-000023550J000000000D01*
G01X003081852D01*
G02X003064608Y017017069I000006306J000022690D01*
G01Y017019569D01*
G02X003081852Y017042259I000023550J000000000D01*
G37*
G36*
X003094464Y017050259D02*
G01X003081852D01*
G02X003064608Y017072949I000006306J000022690D01*
G01Y017075449D01*
G02X003111708Y017075449I000023550J000000000D01*
G01Y017072949D01*
G02X003094464Y017050259I-000023550J000000000D01*
G37*
G36*
X003025871Y016986378D02*
G01X003038483D01*
G02X003055727Y016963688I-000006306J-000022690D01*
G01Y016961189D01*
G02X003008626Y016961189I-000023550J000000000D01*
G01Y016963688D01*
G02X003025871Y016986378I000023550J000000000D01*
G37*
G36*
Y017042259D02*
G01X003038483D01*
G02X003055727Y017019569I-000006306J-000022690D01*
G01Y017017069D01*
G02X003038483Y016994379I-000023550J000000000D01*
G01X003025871D01*
G02X003008626Y017017069I000006306J000022690D01*
G01Y017019569D01*
G02X003025871Y017042259I000023550J000000000D01*
G37*
G36*
X003038483Y017050259D02*
G01X003025871D01*
G02X003008626Y017072949I000006306J000022690D01*
G01Y017075449D01*
G02X003055727Y017075449I000023550J000000000D01*
G01Y017072949D01*
G02X003038483Y017050259I-000023550J000000000D01*
G37*
G36*
X007324467Y017228228D02*
G01X007322888Y017236516D01*
G02X007346437Y017260258I000023549J000000192D01*
G01X007348937D01*
G02X007371560Y017243251I000000000J-000023550D01*
G01X007371228Y017229112D01*
G02X007348937Y017213158I-000022291J000007596D01*
G01X007346437D01*
G02X007324467Y017228228I000000000J000023550D01*
G37*
G36*
X007268538Y017218197D02*
G01Y017234899D01*
G02X007290557Y017250098I000022019J-000008351D01*
G01X007293057D01*
G02X007315028Y017235027I000000000J-000023550D01*
G01X007316606Y017226741D01*
G02X007293057Y017202998I-000023549J-000000193D01*
G01X007290557D01*
G02X007268538Y017218197I000000000J000023550D01*
G37*
G36*
X007238567Y017201799D02*
G03X007231557Y017202851I-000007720J-000027549D01*
G02X007214968Y017225349I000006961J000022497D01*
G01Y017227849D01*
G02X007260538Y017236199I000023550J000000000D01*
G01Y017216998D01*
G02X007238567Y017201799I-000022020J000008351D01*
G37*
G36*
X008380378Y016912066D02*
G01X008387996Y016912122D01*
G02X008415564Y016881179I-000003582J-000030943D01*
G01Y016870979D01*
G02X008353264Y016870979I-000031150J000000000D01*
G01Y016881179D01*
G02X008380378Y016912066I000031150J000000000D01*
G37*
G36*
X008387443Y016920118D02*
G01X008380813Y016920069D01*
G02X008360406Y016943409I000003144J000023339D01*
G01Y016945909D01*
G02X008407507Y016945909I000023550J000000000D01*
G01Y016943409D01*
G02X008387443Y016920118I-000023550J000000000D01*
G37*
G36*
X003196152Y018418939D02*
G01X003208764D01*
G02X003226008Y018396249I-000006306J-000022690D01*
G01Y018393748D01*
G02X003178908Y018393748I-000023550J000000000D01*
G01Y018396249D01*
G02X003196152Y018418939I000023550J000000000D01*
G37*
G36*
X003208764Y018426938D02*
G01X003196152D01*
G02X003178908Y018449629I000006306J000022690D01*
G01Y018452128D01*
G02X003226008Y018452128I000023550J000000000D01*
G01Y018449629D01*
G02X003208764Y018426938I-000023550J000000000D01*
G37*
G36*
X003140171Y018418939D02*
G01X003152783D01*
G02X003170027Y018396249I-000006306J-000022690D01*
G01Y018393748D01*
G02X003122927Y018393748I-000023550J000000000D01*
G01Y018396249D01*
G02X003140171Y018418939I000023550J000000000D01*
G37*
G36*
X003152783Y018426938D02*
G01X003140171D01*
G02X003122927Y018449629I000006306J000022690D01*
G01Y018452128D01*
G02X003170027Y018452128I000023550J000000000D01*
G01Y018449629D01*
G02X003152783Y018426938I-000023550J000000000D01*
G37*
G36*
X003254572Y018944719D02*
G01X003267184D01*
G02X003284428Y018922029I-000006306J-000022690D01*
G01Y018919529D01*
G02X003237328Y018919529I-000023550J000000000D01*
G01Y018922029D01*
G02X003254572Y018944719I000023550J000000000D01*
G37*
G36*
X003267184Y018952718D02*
G01X003254572D01*
G02X003237328Y018975409I000006306J000022690D01*
G01Y018977908D01*
G02X003284428Y018977908I000023550J000000000D01*
G01Y018975409D01*
G02X003267184Y018952718I-000023550J000000000D01*
G37*
G36*
X003198590Y018944719D02*
G01X003211202D01*
G02X003228446Y018922029I-000006306J-000022690D01*
G01Y018919529D01*
G02X003181346Y018919529I-000023550J000000000D01*
G01Y018922029D01*
G02X003198590Y018944719I000023550J000000000D01*
G37*
G36*
X003211202Y018952718D02*
G01X003198590D01*
G02X003181346Y018975409I000006306J000022690D01*
G01Y018977908D01*
G02X003228446Y018977908I000023550J000000000D01*
G01Y018975409D01*
G02X003211202Y018952718I-000023550J000000000D01*
G37*
G36*
X001809312Y018766918D02*
G01X001821924D01*
G02X001839168Y018744229I-000006306J-000022690D01*
G01Y018741729D01*
G02X001792068Y018741729I-000023550J000000000D01*
G01Y018744229D01*
G02X001809312Y018766918I000023550J000000000D01*
G37*
G36*
X001821924Y018774919D02*
G01X001809312D01*
G02X001792068Y018797609I000006306J000022690D01*
G01Y018800109D01*
G02X001839168Y018800109I000023550J000000000D01*
G01Y018797609D01*
G02X001821924Y018774919I-000023550J000000000D01*
G37*
G36*
X001753330Y018766918D02*
G01X001765942D01*
G02X001783187Y018744229I-000006306J-000022690D01*
G01Y018741729D01*
G02X001736087Y018741729I-000023550J000000000D01*
G01Y018744229D01*
G02X001753330Y018766918I000023550J000000000D01*
G37*
G36*
X001765942Y018774919D02*
G01X001753330D01*
G02X001736087Y018797609I000006306J000022690D01*
G01Y018800109D01*
G02X001783187Y018800109I000023550J000000000D01*
G01Y018797609D01*
G02X001765942Y018774919I-000023550J000000000D01*
G37*
G36*
X004908112Y019699099D02*
G01X004920724D01*
G02X004937968Y019676409I-000006306J-000022690D01*
G01Y019673909D01*
G02X004890868Y019673909I-000023550J000000000D01*
G01Y019676409D01*
G02X004908112Y019699099I000023550J000000000D01*
G37*
G36*
X004920724Y019707099D02*
G01X004908112D01*
G02X004890868Y019729788I000006306J000022690D01*
G01Y019732289D01*
G02X004937968Y019732289I000023550J000000000D01*
G01Y019729788D01*
G02X004920724Y019707099I-000023550J000000000D01*
G37*
G36*
X004852131Y019699099D02*
G01X004864743D01*
G02X004881986Y019676409I-000006306J-000022690D01*
G01Y019673909D01*
G02X004834887Y019673909I-000023550J000000000D01*
G01Y019676409D01*
G02X004852131Y019699099I000023550J000000000D01*
G37*
G36*
X004864743Y019707099D02*
G01X004852131D01*
G02X004834887Y019729788I000006306J000022690D01*
G01Y019732289D01*
G02X004881986Y019732289I000023550J000000000D01*
G01Y019729788D01*
G02X004864743Y019707099I-000023550J000000000D01*
G37*
G36*
X007282442Y015267393D02*
G01Y015344690D01*
X007316382D01*
Y015267191D01*
X007282442Y015267393D01*
G37*
G36*
X007324382Y015267179D02*
Y015344690D01*
X007356387D01*
Y015267179D01*
X007324382D01*
G37*
G36*
X007364387D02*
Y015344690D01*
X007396392D01*
Y015267179D01*
X007364387D01*
G37*
G36*
X007404392D02*
Y015344690D01*
X007438332D01*
Y015267179D01*
X007404392D01*
G37*
G36*
Y015181667D02*
Y015259179D01*
X007438332D01*
Y015181667D01*
X007404392D01*
G37*
G36*
X007364387D02*
Y015259179D01*
X007396392D01*
Y015181667D01*
X007364387D01*
G37*
G36*
X007324367D02*
Y015259179D01*
X007356387D01*
Y015181667D01*
X007324367D01*
G37*
G36*
X007316367D02*
X007272313D01*
Y015259454D01*
X007316367Y015259191D01*
Y015181667D01*
G37*
G36*
X008813881Y013020617D02*
Y013070696D01*
X008960381D01*
Y013020617D01*
X008813881D01*
G37*
G36*
X008909182Y012912695D02*
G02X008862119Y012890839I-000047064J000039744D01*
G01X008847119D01*
G02X008800010Y012912748I000000000J000061600D01*
G02X008797149Y012916417I000047117J000039689D01*
G03X008797089Y012916501I-000004076J-000002896D01*
G02X008833962Y013012617I000050030J000035938D01*
G01X008875276D01*
G02X008920290Y012972703I-000013157J-000060179D01*
G03X008920336Y012972568I000004760J000001529D01*
G02X008909182Y012912695I-000058225J-000020129D01*
G37*
G36*
X008813881Y013329268D02*
G01X008960381D01*
Y013279190D01*
X008813881D01*
Y013329268D01*
G37*
G36*
X008801143Y013438445D02*
G02X008847119Y013459047I000045975J-000040998D01*
G01X008862119D01*
G02X008908123Y013438412I-000000000J-000061600D01*
G02X008915153Y013366114I-000046012J-000040965D01*
G03X008915098Y013366018I000004296J-000002559D01*
G02X008875276Y013337268I-000052979J000031429D01*
G01X008833962D01*
G02X008794140Y013366017I000013157J000060179D01*
G01X008794094Y013366096D01*
G02X008801143Y013438445I000053032J000031351D01*
G37*
G36*
X003328759Y017950064D02*
G01Y017977664D01*
X003404258D01*
Y017950064D01*
X003328759D01*
G37*
G36*
Y017985664D02*
Y018012666D01*
X003404258D01*
Y017985664D01*
X003328759D01*
G37*
G36*
Y018020666D02*
Y018048266D01*
X003404258D01*
Y018020666D01*
X003328759D01*
G37*
G36*
X003245259Y018020666D02*
Y018048266D01*
X003320759D01*
Y018020666D01*
X003245259D01*
G37*
G36*
Y017977665D02*
X003320759D01*
Y017950064D01*
X003245259D01*
Y017977665D01*
G37*
G36*
Y017985665D02*
Y018012666D01*
X003320759D01*
Y017985665D01*
X003245259D01*
G37*
G36*
X006345226Y019801446D02*
X006302720D01*
Y020004446D01*
X006345226D01*
Y019801446D01*
G37*
G36*
X006753225D02*
Y020004446D01*
X006795225D01*
Y019801446D01*
X006753225D01*
G37*
G36*
X006845225D02*
X006803225D01*
Y020004446D01*
X006845225D01*
Y019801446D01*
G37*
G36*
X006895225D02*
X006853225D01*
Y020004446D01*
X006895225D01*
Y019801446D01*
G37*
G36*
X006945225D02*
X006903225D01*
Y020004446D01*
X006945225D01*
Y019801446D01*
G37*
G36*
X006995225D02*
X006953225D01*
Y020004446D01*
X006995225D01*
Y019801446D01*
G37*
G36*
X007045224D02*
X007003225D01*
Y020004446D01*
X007045224D01*
Y019801446D01*
G37*
G36*
X007095224D02*
X007053225D01*
Y020004446D01*
X007095224D01*
Y019801446D01*
G37*
G36*
X007145224D02*
X007103224D01*
Y020004446D01*
X007145224D01*
Y019801446D01*
G37*
G36*
X007203224D02*
Y020004446D01*
X007245718D01*
Y019801446D01*
X007203224D01*
G37*
G36*
X007195224D02*
X007153224D01*
Y020004446D01*
X007195224D01*
Y019801446D01*
G37*
G36*
X006445226D02*
X006403226D01*
Y020004446D01*
X006445226D01*
Y019801446D01*
G37*
G36*
X006495225D02*
X006453226D01*
Y020004446D01*
X006495225D01*
Y019801446D01*
G37*
G36*
X006545225D02*
X006503226D01*
Y020004446D01*
X006545225D01*
Y019801446D01*
G37*
G36*
X006595225D02*
X006553226D01*
Y020004446D01*
X006595225D01*
Y019801446D01*
G37*
G36*
X006645225D02*
X006603225D01*
Y020004446D01*
X006645225D01*
Y019801446D01*
G37*
G36*
X006703225D02*
Y020004446D01*
X006745225D01*
Y019801446D01*
X006703225D01*
G37*
G36*
X006695225D02*
X006653225D01*
Y020004446D01*
X006695225D01*
Y019801446D01*
G37*
G36*
X006395226Y020004269D02*
Y019801446D01*
X006353226D01*
Y020004446D01*
X006395050D01*
X006395226Y020004269D01*
G37*
G36*
X005444741Y012692318D02*
X005656941D01*
Y012620076D01*
X005444741D01*
Y012692318D01*
G37*
G36*
Y012772316D02*
X005656941D01*
Y012700318D01*
X005444741D01*
Y012772316D01*
G37*
G36*
Y012852326D02*
X005656941D01*
Y012780316D01*
X005444741D01*
Y012852326D01*
G37*
G36*
Y012932323D02*
X005656941D01*
Y012860325D01*
X005444741D01*
Y012932323D01*
G37*
G36*
Y013012320D02*
X005656941D01*
Y012940323D01*
X005444741D01*
Y013012320D01*
G37*
G36*
Y013092317D02*
X005656941D01*
Y013020320D01*
X005444741D01*
Y013092317D01*
G37*
G36*
Y013100317D02*
Y013172560D01*
X005656941D01*
Y013100317D01*
X005444741D01*
G37*
G36*
X007547267Y017057784D02*
Y017070396D01*
G02X007569957Y017087640I000022690J-000006306D01*
G01X007572457D01*
G02X007572457Y017040540I000000000J-000023550D01*
G01X007569957D01*
G02X007547267Y017057784I000000000J000023550D01*
G37*
G36*
X007539267Y017070396D02*
G01Y017057784D01*
G02X007516577Y017040540I-000022690J000006306D01*
G01X007514077D01*
G02X007514077Y017087640I000000000J000023550D01*
G01X007516577D01*
G02X007539267Y017070396I000000000J-000023550D01*
G37*
G36*
X007432967Y017057784D02*
G01Y017070396D01*
G02X007455657Y017087640I000022690J-000006306D01*
G01X007458157D01*
G02X007458157Y017040540I000000000J-000023550D01*
G01X007455657D01*
G02X007432967Y017057784I000000000J000023550D01*
G37*
G36*
X007377087D02*
G01Y017070396D01*
G02X007399777Y017087640I000022690J-000006306D01*
G01X007402277D01*
G02X007424967Y017070396I000000000J-000023550D01*
G01Y017057784D01*
G02X007402277Y017040540I-000022690J000006306D01*
G01X007399777D01*
G02X007377087Y017057784I000000000J000023550D01*
G37*
G36*
X007321207D02*
G01Y017070396D01*
G02X007343897Y017087640I000022690J-000006306D01*
G01X007346397D01*
G02X007369087Y017070396I000000000J-000023550D01*
G01Y017057784D01*
G02X007346397Y017040540I-000022690J000006306D01*
G01X007343897D01*
G02X007321207Y017057784I000000000J000023550D01*
G37*
G36*
X007313207Y017070396D02*
G01Y017057784D01*
G02X007290517Y017040540I-000022690J000006306D01*
G01X007288017D01*
G02X007288017Y017087640I000000000J000023550D01*
G01X007290517D01*
G02X007313207Y017070396I000000000J-000023550D01*
G37*
G36*
X007424677Y017696200D02*
G01X007425266Y017683821D01*
G02X007402277Y017665380I-000022989J000005109D01*
G01X007399777D01*
G02X007399777Y017712479I000000000J000023550D01*
G01X007402277D01*
G02X007424677Y017696200I000000000J-000023550D01*
G37*
G36*
X007433257Y017684199D02*
G01X007432668Y017696578D01*
G02X007455657Y017715020I000022989J-000005109D01*
G01X007458157D01*
G02X007458157Y017667920I000000000J-000023550D01*
G01X007455657D01*
G02X007433257Y017684199I000000000J000023550D01*
G37*
G36*
X007097687Y017738402D02*
G01Y017751014D01*
G02X007120377Y017768258I000022690J-000006306D01*
G01X007122877D01*
G02X007122877Y017721158I000000000J-000023550D01*
G01X007120377D01*
G02X007097687Y017738402I000000000J000023550D01*
G37*
G36*
X007089687Y017751014D02*
G01Y017738402D01*
G02X007066997Y017721158I-000022690J000006306D01*
G01X007064497D01*
G02X007064497Y017768258I000000000J000023550D01*
G01X007066997D01*
G02X007089687Y017751014I000000000J-000023550D01*
G37*
G36*
X005291551Y018230979D02*
G01X005304163D01*
G02X005321407Y018208288I-000006306J-000022690D01*
G01Y018205789D01*
G02X005274306Y018205789I-000023550J000000000D01*
G01Y018208288D01*
G02X005291551Y018230979I000023550J000000000D01*
G37*
G36*
X005304163Y018238979D02*
G01X005291551D01*
G02X005274306Y018261669I000006306J000022690D01*
G01Y018264169D01*
G02X005321407Y018264169I000023550J000000000D01*
G01Y018261669D01*
G02X005304163Y018238979I-000023550J000000000D01*
G37*
G36*
X006002852Y017082899D02*
G01X006015464D01*
G02X006032708Y017060209I-000006306J-000022690D01*
G01Y017057709D01*
G02X005985608Y017057709I-000023550J000000000D01*
G01Y017060209D01*
G02X006002852Y017082899I000023550J000000000D01*
G37*
G36*
X006015464Y017090899D02*
G01X006002852D01*
G02X005985608Y017113589I000006306J000022690D01*
G01Y017116089D01*
G02X006032708Y017116089I000023550J000000000D01*
G01Y017113589D01*
G02X006015464Y017090899I-000023550J000000000D01*
G37*
G36*
X006843137Y017490398D02*
G01X006834851Y017488819D01*
G02X006811108Y017512369I-000000193J000023549D01*
G01Y017514869D01*
G02X006858208Y017514869I000023550J000000000D01*
G01Y017512369D01*
G02X006843137Y017490398I-000023550J000000000D01*
G37*
G36*
X006838512Y017425799D02*
G01X006851124D01*
G02X006868368Y017403109I-000006306J-000022690D01*
G01Y017400609D01*
G02X006821268Y017400609I-000023550J000000000D01*
G01Y017403109D01*
G02X006838512Y017425799I000023550J000000000D01*
G37*
G36*
X006851124Y017433798D02*
G01X006838512D01*
G02X006821268Y017456489I000006306J000022690D01*
G01Y017458988D01*
G02X006836338Y017480959I000023550J000000000D01*
G01X006844626Y017482538D01*
G02X006868368Y017458988I000000192J-000023549D01*
G01Y017456489D01*
G02X006851124Y017433798I-000023550J000000000D01*
G37*
G36*
X007455732Y017374998D02*
G01X007468344D01*
G02X007485588Y017352308I-000006306J-000022690D01*
G01Y017349809D01*
G02X007438488Y017349809I-000023550J000000000D01*
G01Y017352308D01*
G02X007455732Y017374998I000023550J000000000D01*
G37*
G36*
X007468344Y017382999D02*
G01X007455732D01*
G02X007438488Y017405689I000006306J000022690D01*
G01Y017408189D01*
G02X007485588Y017408189I000023550J000000000D01*
G01Y017405689D01*
G02X007468344Y017382999I-000023550J000000000D01*
G37*
G36*
X007402392Y017545178D02*
G01X007415004D01*
G02X007432248Y017522489I-000006306J-000022690D01*
G01Y017519989D01*
G02X007385148Y017519989I-000023550J000000000D01*
G01Y017522489D01*
G02X007402392Y017545178I000023550J000000000D01*
G37*
G36*
X007415004Y017553179D02*
G01X007402392D01*
G02X007385148Y017575869I000006306J000022690D01*
G01Y017578369D01*
G02X007432248Y017578369I000023550J000000000D01*
G01Y017575869D01*
G02X007415004Y017553179I-000023550J000000000D01*
G37*
G36*
X005300390Y020283355D02*
G01Y020324669D01*
G02X005422169Y020311512I000060179J-000013157D01*
G01Y020296512D01*
G02X005300390Y020283355I-000061600J000000000D01*
G37*
G36*
X005292391Y020263274D02*
G01X005242312D01*
Y020409774D01*
X005292391D01*
Y020263274D01*
G37*
G36*
X004983739D02*
Y020409774D01*
X005033818D01*
Y020263274D01*
X004983739D01*
G37*
G36*
X004975740Y020283355D02*
G02X004853961Y020296512I-000060179J000013157D01*
G01Y020311512D01*
G02X004975740Y020324669I000061600J000000000D01*
G01Y020283355D01*
G37*
G36*
X009060793Y014384217D02*
Y014429317D01*
G02X009115584Y014466017I000054791J-000022550D01*
G01X009125784D01*
G02X009125784Y014347517I000000000J-000059250D01*
G01X009115584D01*
G02X009060793Y014384217I000000000J000059250D01*
G37*
G36*
X009053793Y014384754D02*
G02X008998783Y014347517I-000055009J000022013D01*
G01X008988584D01*
G02X008988584Y014466017I000000000J000059250D01*
G01X008998783D01*
G02X009053793Y014428780I000000000J-000059250D01*
G01Y014384754D01*
G37*
G36*
X009060793Y014257216D02*
Y014302317D01*
G02X009115584Y014339017I000054791J-000022550D01*
G01X009125784D01*
G02X009125784Y014220517I000000000J-000059250D01*
G01X009115584D01*
G02X009060793Y014257216I000000000J000059250D01*
G37*
G36*
X009053793Y014257754D02*
G02X008998783Y014220517I-000055009J000022013D01*
G01X008988584D01*
G02X008988584Y014339017I000000000J000059250D01*
G01X008998783D01*
G02X009053793Y014301780I000000000J-000059250D01*
G01Y014257754D01*
G37*
G36*
Y014130754D02*
G02X008998783Y014093517I-000055009J000022013D01*
G01X008988584D01*
G02X008988584Y014212017I000000000J000059250D01*
G01X008998783D01*
G02X009053793Y014174780I000000000J-000059250D01*
G01Y014130754D01*
G37*
G36*
Y014003754D02*
G02X008998783Y013966517I-000055009J000022013D01*
G01X008988584D01*
G02X008988584Y014085017I000000000J000059250D01*
G01X008998783D01*
G02X009053793Y014047780I000000000J-000059250D01*
G01Y014003754D01*
G37*
G36*
X009060793Y013839517D02*
Y013958017D01*
X009185034D01*
Y013839517D01*
X009060793D01*
G37*
G36*
X009053793Y013876754D02*
G02X008998783Y013839517I-000055009J000022013D01*
G01X008988584D01*
G02X008988584Y013958017I000000000J000059250D01*
G01X008998783D01*
G02X009053793Y013920780I000000000J-000059250D01*
G01Y013876754D01*
G37*
G36*
X009142807Y014096015D02*
X009124142D01*
G03X009118768Y014093517I000000000J-000007030D01*
G01X009115584D01*
G02X009060793Y014130217I000000000J000059250D01*
G01Y014175317D01*
G02X009115584Y014212017I000054791J-000022550D01*
G01X009125784D01*
G02X009142807Y014096015I000000000J-000059250D01*
G37*
G36*
X009119036Y014085017D02*
G03X009124142Y014082519I000005106J000003968D01*
G01X009142807D01*
G02X009125784Y013966517I-000017023J-000056752D01*
G01X009115584D01*
G02X009060793Y014003217I000000000J000059250D01*
G01Y014048317D01*
G02X009115584Y014085017I000054791J-000022550D01*
G01X009119036D01*
G37*
G36*
X001503053Y011931897D02*
G03X001511199Y011929377I000008146J000011909D01*
G01X001516949D01*
Y011859396D01*
X001454649D01*
Y011931897D01*
X001503053D01*
G37*
G36*
X007987229Y016801941D02*
X007999990Y016789180D01*
G02X007941377Y016774478I-000027463J-000014702D01*
G02X007987229Y016801941I000031150J000000000D01*
G37*
G36*
X008156985Y018533035D02*
G01X008154517Y018530381D01*
G02X008101829Y018552885I-000021538J000022505D01*
G02X008156985Y018533035I000031150J000000000D01*
G37*
G36*
X007568561Y018224747D02*
G01X007581321Y018211987D01*
G02X007522709Y018197285I-000027462J-000014702D01*
G02X007568561Y018224747I000031150J000000000D01*
G37*
G36*
X007925536Y018114026D02*
G01X007936594Y018102968D01*
G02X007915357Y018069239I-000021237J-000010178D01*
G01X007912857D01*
G02X007912857Y018116339I000000000J000023550D01*
G01X007915357D01*
G02X007925536Y018114026I000000000J-000023550D01*
G37*
G36*
X006881453Y016804314D02*
G02X006894317Y016808138I000012864J-000019726D01*
G01X006896817D01*
G02X006896817Y016761038I000000000J-000023550D01*
G01X006894317D01*
G02X006874591Y016797452I000000000J000023550D01*
G01X006874592Y016797453D01*
X006881452Y016804313D01*
X006881453Y016804314D01*
G37*
G36*
X006920808Y017931610D02*
X006934167Y017923478D01*
G02X006939488Y017908569I-000018229J-000014910D01*
G01Y017906068D01*
G02X006892388Y017906068I-000023550J000000000D01*
G01Y017908569D01*
G02X006920808Y017931610I000023550J000000000D01*
G37*
G36*
X006946628Y017943988D02*
G01X006933269Y017952119D01*
G02X006927948Y017967028I000018230J000014909D01*
G01Y017969529D01*
G02X006975048Y017969529I000023550J000000000D01*
G01Y017967028D01*
G02X006946628Y017943988I-000023550J000000000D01*
G37*
G36*
X008163374Y017110906D02*
G01X008163374Y017110907D01*
X008151467Y017115744D01*
X008151466Y017115745D01*
G02X008142398Y017134315I000014482J000018570D01*
G01Y017136815D01*
G02X008189498Y017136815I000023550J000000000D01*
G01Y017134315D01*
G02X008163374Y017110906I-000023550J000000000D01*
G37*
G36*
X006501122Y018526763D02*
G02X006518280Y018504097I-000006392J-000022666D01*
G01Y018501597D01*
G02X006471180Y018501597I-000023550J000000000D01*
G01Y018504097D01*
G02X006488338Y018526763I000023550J000000000D01*
G01X006488342D01*
X006501118D01*
X006501122D01*
G37*
G36*
X001678114Y019085307D02*
X001655077D01*
Y019169407D01*
X001688377D01*
Y019087782D01*
G03X001678114Y019085307I000001460J-000028573D01*
G37*
G36*
X009057041Y014961772D02*
G03X009057041Y014956508I000028489J-000002632D01*
G01Y014929768D01*
X008918541D01*
Y015017468D01*
X009057041D01*
Y014961772D01*
G37*
G36*
X005426346Y017606958D02*
G02X005448508Y017583449I-000001388J-000023509D01*
G01Y017580949D01*
G02X005401408Y017580949I-000023550J000000000D01*
G01Y017583449D01*
G02X005408458Y017600251I000023550J000000000D01*
G01X005408459Y017600252D01*
X005426345Y017606957D01*
X005426346Y017606958D01*
G37*
G36*
X005217172Y017781117D02*
G02X005170268Y017784148I-000023354J000003032D01*
G01Y017786649D01*
G02X005217368Y017786649I000023550J000000000D01*
G01Y017786478D01*
G03X005217172Y017781117I000028367J-000003721D01*
G37*
G36*
X005141728Y017963370D02*
G01X005134725Y017959798D01*
G02X005104127Y017982268I-000007049J000022470D01*
G01Y017984769D01*
G02X005151227Y017984769I000023550J000000000D01*
G01Y017982268D01*
G02X005141728Y017963370I-000023550J000000000D01*
G37*
G36*
X006955639Y017076436D02*
G01X006955639Y017076434D01*
X006956538Y017059514D01*
Y017059512D01*
G02X006910168Y017065329I-000022820J000005817D01*
G01Y017067829D01*
G02X006955639Y017076436I000023550J000000000D01*
G37*
G36*
X003481998Y019272458D02*
G03X003496576Y019274411I000003619J000028381D01*
G01X003515298D01*
Y019190311D01*
X003481998D01*
Y019272458D01*
G37*
G36*
X004457434Y017876710D02*
G03X004451545Y017872630I000013222J-000025372D01*
G02X004436867Y017868955I-000014678J000027475D01*
G01X004426667D01*
G02X004426667Y017931255I000000000J000031150D01*
G01X004436867D01*
G02X004457434Y017876710I000000000J-000031150D01*
G37*
G36*
X009061422Y012737254D02*
G02X009053872Y012767983I000058752J000030729D01*
G01X009053872Y012920690D01*
X009120168D01*
X009154618D01*
X009189068D01*
X009255368D01*
Y012854390D01*
Y012819940D01*
Y012767989D01*
G02X009189068Y012701690I-000066300J000000000D01*
G01X009120168D01*
G02X009061422Y012737254I000000000J000066300D01*
G37*
G36*
Y013612632D02*
G02X009120168Y013648196I000058745J-000030735D01*
G01X009189068D01*
G02X009255368Y013581897I000000000J-000066300D01*
G01Y013529947D01*
Y013495496D01*
Y013429197D01*
X009189068D01*
X009154618D01*
X009120168D01*
X009053872D01*
X009053872Y013581903D01*
G02X009061422Y013612632I000066303J000000000D01*
G37*
G36*
X001670592Y019407306D02*
G01X001652090Y019419998D01*
G02X001630747Y019470003I000047908J000050004D01*
G02X001670592Y019407306I000069250J000000000D01*
G37*
G36*
X009184758Y011590338D02*
G02X009184758Y011590338I-000055261J000000000D01*
G37*
G36*
X006466958Y010945585D02*
G02X006466958Y010945585I-000055261J000000000D01*
G37*
G36*
X004670263Y019207773D02*
G02X004670263Y019207773I-000055261J000000000D01*
G37*
G36*
X003749158Y010945585D02*
G02X003749158Y010945585I-000055261J000000000D01*
G37*
G36*
X001031358Y011590338D02*
G02X001031358Y011590338I-000055261J000000000D01*
G37*
G36*
X008457785Y015749995D02*
G02X008457785Y015749995I-000057801J000000000D01*
G37*
G36*
X004409102Y015691956D02*
G03X004404421Y015692357I-000003573J-000014198D01*
G01X004404413Y015692356D01*
G02X004342337Y015747675I-000004322J000057639D01*
G01X004342335Y015747712D01*
G02X004342300Y015748955I000057756J000002284D01*
G02X004342335Y015752278I000057791J000001040D01*
G01X004342337Y015752314D01*
G02X004404392Y015807635I000057754J-000002319D01*
G01X004404403Y015807635D01*
G03X004409102Y015808034I000001126J000014597D01*
G02X004409102Y015691956I-000009110J-000058039D01*
G37*
G36*
X007506869Y019233282D02*
G03X007507483Y019229259I000014636J000000177D01*
G01X007507485Y019229252D01*
G02X007474951Y019271954I-000072476J-000021475D01*
G01X007474968Y019271944D01*
G03X007478629Y019270317I000007717J000012435D01*
G02X007506869Y019233282I-000043617J-000062543D01*
G37*
G36*
X002379412Y011150030D02*
G02X002379412Y011150030I-000079391J000000000D01*
G37*
G36*
X001979388D02*
G02X001979388Y011150030I-000079391J000000000D01*
G37*
M02*
